<svg width="370" height="291" viewBox="0 0 370 291" fill="none" xmlns="http://www.w3.org/2000/svg">
<path d="M136.085 131.849C161.97 131.849 182.955 110.896 182.955 85.0505C182.955 59.2046 161.97 38.2523 136.085 38.2523C110.199 38.2523 89.2148 59.2046 89.2148 85.0505C89.2148 110.896 110.199 131.849 136.085 131.849Z" fill="#F6F9FE"/>
<path d="M105.477 69.7883H123.864" stroke="#B3D4FF" stroke-width="3" stroke-miterlimit="10" stroke-linecap="round"/>
<path d="M105.477 75.0803H123.864" stroke="#B3D4FF" stroke-width="3" stroke-miterlimit="10" stroke-linecap="round"/>
<path d="M105.477 80.3717H123.864" stroke="#B3D4FF" stroke-width="3" stroke-miterlimit="10" stroke-linecap="round"/>
<path d="M346.609 153.237V142.898C346.609 140.926 345.824 139.036 344.428 137.641C343.032 136.247 341.138 135.464 339.163 135.464H312.884C311.906 135.464 310.938 135.272 310.035 134.898C309.132 134.525 308.311 133.977 307.62 133.287C306.928 132.596 306.38 131.777 306.006 130.875C305.632 129.973 305.439 129.006 305.439 128.03V117.691C305.439 116.715 305.632 115.748 306.006 114.846C306.38 113.944 306.928 113.125 307.62 112.435C308.311 111.744 309.132 111.197 310.035 110.823C310.938 110.45 311.906 110.257 312.884 110.257H313.714C315.688 110.257 317.582 109.474 318.978 108.08C320.375 106.686 321.159 104.795 321.159 102.823V92.4844C321.159 90.5128 320.375 88.622 318.978 87.2279C317.582 85.8337 315.688 85.0505 313.714 85.0505H73.5514C71.5768 85.0505 69.683 85.8337 68.2868 87.2279C66.8905 88.622 66.1061 90.5128 66.1061 92.4844V102.823C66.1061 104.795 66.8905 106.686 68.2868 108.08C69.683 109.474 71.5768 110.257 73.5514 110.257C75.526 110.257 77.4197 111.041 78.8159 112.435C80.2122 113.829 80.9966 115.72 80.9966 117.691V128.03C80.9966 130.002 80.2122 131.893 78.8159 133.287C77.4197 134.681 75.526 135.464 73.5514 135.464H44.76C42.7854 135.464 40.8917 136.247 39.4954 137.641C38.0992 139.036 37.3148 140.926 37.3148 142.898V153.237C37.3148 155.209 38.0992 157.099 39.4954 158.494C40.8917 159.888 42.7854 160.671 44.76 160.671H56.0573C58.0319 160.671 59.9256 161.454 61.3219 162.848C62.7181 164.242 63.5025 166.133 63.5025 168.105V178.444C63.5025 180.415 62.7181 182.306 61.3219 183.7C59.9256 185.095 58.0319 185.878 56.0573 185.878H56.03C54.0554 185.878 52.1617 186.661 50.7654 188.055C49.3692 189.449 48.5848 191.34 48.5848 193.312V203.651C48.5848 205.622 49.3692 207.513 50.7654 208.907C52.1617 210.301 54.0554 211.084 56.03 211.084H57.6645C58.6422 211.084 59.6104 211.277 60.5137 211.65C61.417 212.024 62.2377 212.571 62.9291 213.262C63.6204 213.952 64.1688 214.772 64.543 215.673C64.9171 216.575 65.1097 217.542 65.1097 218.518V228.857C65.1097 229.834 64.9171 230.8 64.543 231.702C64.1688 232.604 63.6204 233.424 62.9291 234.114C62.2377 234.804 61.417 235.352 60.5137 235.725C59.6104 236.099 58.6422 236.291 57.6645 236.291H30.8398C28.8652 236.291 26.9714 237.074 25.5752 238.469C24.1789 239.863 23.3945 241.753 23.3945 243.725V254.064C23.3945 255.04 23.5871 256.007 23.9613 256.909C24.3354 257.811 24.8838 258.63 25.5752 259.321C26.2665 260.011 27.0873 260.559 27.9906 260.932C28.8939 261.306 29.862 261.498 30.8398 261.498H317.711C319.686 261.498 321.579 260.715 322.976 259.321C324.372 257.927 325.156 256.036 325.156 254.064V243.725C325.156 241.753 324.372 239.863 322.976 238.469C321.579 237.074 319.686 236.291 317.711 236.291H311.256C310.278 236.291 309.31 236.099 308.406 235.725C307.503 235.352 306.682 234.804 305.991 234.114C305.3 233.424 304.751 232.604 304.377 231.702C304.003 230.8 303.81 229.834 303.81 228.857V218.518C303.81 217.542 304.003 216.575 304.377 215.673C304.751 214.772 305.3 213.952 305.991 213.262C306.682 212.571 307.503 212.024 308.406 211.65C309.31 211.277 310.278 211.084 311.256 211.084H326.477C328.451 211.084 330.345 210.301 331.741 208.907C333.138 207.513 333.922 205.622 333.922 203.651V193.312C333.922 192.335 333.729 191.369 333.355 190.467C332.981 189.565 332.433 188.745 331.741 188.055C331.05 187.365 330.229 186.817 329.326 186.444C328.423 186.07 327.455 185.878 326.477 185.878H321.859C319.885 185.878 317.991 185.094 316.595 183.7C315.199 182.306 314.414 180.415 314.414 178.444V168.105C314.414 166.133 315.199 164.242 316.595 162.848C317.991 161.454 319.885 160.671 321.859 160.671H339.163C341.138 160.671 343.032 159.888 344.428 158.494C345.824 157.099 346.609 155.209 346.609 153.237Z" fill="#E2EFFD"/>
<path d="M266.717 29.5018H123.799C120.969 29.5018 118.676 31.792 118.676 34.6171V248.638C118.676 251.464 120.969 253.754 123.799 253.754H266.717C269.547 253.754 271.84 251.464 271.84 248.638V34.6171C271.84 31.792 269.547 29.5018 266.717 29.5018Z" fill="#3B8CF7"/>
<path d="M257.466 40.4746H133.049C130.219 40.4746 127.926 42.7648 127.926 45.5898V237.666C127.926 240.491 130.219 242.782 133.049 242.782H257.466C260.295 242.782 262.589 240.491 262.589 237.666V45.5898C262.589 42.7648 260.295 40.4746 257.466 40.4746Z" fill="#F6F9FE"/>
<path d="M195.257 120.812C209.197 120.812 220.498 109.528 220.498 95.6089C220.498 81.6898 209.197 70.4061 195.257 70.4061C181.317 70.4061 170.016 81.6898 170.016 95.6089C170.016 109.528 181.317 120.812 195.257 120.812Z" fill="#FFD233"/>
<path d="M191.019 93.4109V88.1703C191.019 87.6448 191.123 87.1246 191.325 86.6396C191.528 86.1545 191.825 85.7144 192.199 85.3446C192.573 84.9748 193.016 84.6826 193.504 84.4849C193.991 84.2873 194.514 84.188 195.04 84.1929H195.477C196.004 84.1878 196.526 84.2869 197.014 84.4845C197.501 84.6821 197.945 84.9743 198.319 85.3442C198.693 85.714 198.99 86.1542 199.192 86.6393C199.395 87.1244 199.499 87.6448 199.499 88.1703V89.9357C199.5 90.0541 199.547 90.1674 199.631 90.2513C199.714 90.3353 199.827 90.3832 199.946 90.3847L202.064 90.3943C202.123 90.3945 202.182 90.3831 202.236 90.3606C202.291 90.3382 202.341 90.3052 202.383 90.2634C202.425 90.2217 202.458 90.1722 202.481 90.1176C202.504 90.063 202.516 90.0044 202.516 89.9453V88.4624C202.516 87.5528 202.337 86.652 201.988 85.8116C201.639 84.9712 201.128 84.2078 200.483 83.5649C199.839 82.922 199.073 82.4124 198.231 82.0651C197.389 81.7178 196.487 81.5396 195.576 81.5409H194.941C194.031 81.5401 193.129 81.7185 192.287 82.066C191.445 82.4135 190.68 82.9232 190.036 83.566C189.392 84.2089 188.881 84.9722 188.532 85.8123C188.183 86.6525 188.004 87.553 188.004 88.4624V93.5509L191.019 93.4109Z" fill="#3B8CF7"/>
<path d="M203.516 108.48C204.046 108.479 204.554 108.268 204.929 107.894C205.303 107.519 205.515 107.012 205.516 106.483V95.1248C205.515 94.5955 205.303 94.0883 204.929 93.7141C204.554 93.3398 204.046 93.129 203.516 93.1277H187C186.47 93.129 185.962 93.3398 185.587 93.7141C185.212 94.0883 185.001 94.5955 185 95.1248V106.483C185.001 107.012 185.212 107.519 185.587 107.894C185.962 108.268 186.47 108.479 187 108.48L203.516 108.48Z" fill="#3B8CF7"/>
<path d="M195.257 97.0237C194.689 97.0256 194.145 97.2517 193.744 97.6527C193.343 98.0536 193.116 98.5969 193.114 99.1638C193.124 99.4858 193.208 99.8011 193.359 100.086C193.51 100.37 193.724 100.616 193.986 100.805V103.317C193.986 103.653 194.12 103.976 194.358 104.214C194.597 104.453 194.92 104.586 195.257 104.586C195.595 104.586 195.918 104.453 196.157 104.214C196.395 103.976 196.529 103.653 196.529 103.317V100.805C196.79 100.616 197.004 100.37 197.155 100.085C197.306 99.8008 197.39 99.4857 197.4 99.1639C197.398 98.5969 197.172 98.0537 196.771 97.6527C196.369 97.2518 195.825 97.0256 195.257 97.0237V97.0237ZM127.926 214.568V238.495C127.926 239.058 128.037 239.615 128.253 240.135C128.468 240.655 128.784 241.128 129.183 241.526C129.582 241.924 130.055 242.24 130.576 242.455C131.097 242.671 131.655 242.781 132.219 242.781H258.296C258.86 242.781 259.418 242.671 259.939 242.455C260.46 242.24 260.933 241.924 261.331 241.526C261.73 241.128 262.046 240.655 262.262 240.135C262.478 239.615 262.589 239.058 262.589 238.495V214.568H127.926ZM262.589 44.7608C262.589 44.1979 262.478 43.6406 262.262 43.1205C262.046 42.6005 261.73 42.128 261.331 41.73C260.933 41.332 260.46 41.0163 259.939 40.8009C259.418 40.5855 258.86 40.4746 258.296 40.4746H132.219C131.655 40.4746 131.097 40.5855 130.576 40.8009C130.055 41.0163 129.582 41.332 129.183 41.73C128.784 42.128 128.468 42.6005 128.253 43.1205C128.037 43.6406 127.926 44.1979 127.926 44.7608V53.3331H262.589V44.7608Z" fill="#3B8CF7"/>
<path d="M195.258 47.6751C199.241 47.6751 202.47 44.4513 202.47 40.4746C202.47 36.4978 199.241 33.274 195.258 33.274C191.276 33.274 188.047 36.4978 188.047 40.4746C188.047 44.4513 191.276 47.6751 195.258 47.6751Z" fill="#FFD233"/>
<path d="M195.258 235.875C199.241 235.875 202.47 232.651 202.47 228.674C202.47 224.697 199.241 221.474 195.258 221.474C191.276 221.474 188.047 224.697 188.047 228.674C188.047 232.651 191.276 235.875 195.258 235.875Z" fill="#FFD233"/>
<path d="M182.217 129.627H144.079C143.136 129.627 142.371 130.39 142.371 131.332V142.404C142.371 143.346 143.136 144.109 144.079 144.109H182.217C183.16 144.109 183.925 143.346 183.925 142.404V131.332C183.925 130.39 183.16 129.627 182.217 129.627Z" fill="#FFD233"/>
<path d="M246.779 129.627H199.712C198.768 129.627 198.004 130.39 198.004 131.332V194.477C198.004 195.418 198.768 196.182 199.712 196.182H246.779C247.722 196.182 248.487 195.418 248.487 194.477V131.332C248.487 130.39 247.722 129.627 246.779 129.627Z" fill="#FFD233"/>
<path d="M182.217 155.663H144.079C143.136 155.663 142.371 156.426 142.371 157.368V168.44C142.371 169.382 143.136 170.145 144.079 170.145H182.217C183.16 170.145 183.925 169.382 183.925 168.44V157.368C183.925 156.426 183.16 155.663 182.217 155.663Z" fill="#FFD233"/>
<path d="M182.217 181.699H144.079C143.136 181.699 142.371 182.463 142.371 183.405V194.477C142.371 195.418 143.136 196.182 144.079 196.182H182.217C183.16 196.182 183.925 195.418 183.925 194.477V183.405C183.925 182.463 183.16 181.699 182.217 181.699Z" fill="#FFD233"/>
<path d="M223.248 177.08H208.701C208.42 177.08 208.145 177.006 207.901 176.866C207.658 176.726 207.456 176.524 207.316 176.281C207.175 176.038 207.102 175.763 207.102 175.483C207.102 175.202 207.175 174.927 207.316 174.684L214.589 162.105L221.863 149.527C222.003 149.284 222.205 149.082 222.448 148.942C222.691 148.802 222.967 148.728 223.248 148.728C223.529 148.728 223.805 148.802 224.048 148.942C224.291 149.082 224.493 149.284 224.633 149.527L231.907 162.105L239.18 174.684C239.32 174.927 239.394 175.202 239.394 175.483C239.394 175.763 239.32 176.038 239.18 176.281C239.04 176.524 238.838 176.726 238.594 176.866C238.351 177.006 238.075 177.08 237.795 177.08H223.248Z" fill="#3B8CF7"/>
<path d="M224.046 156.176C224.046 155.735 223.688 155.377 223.246 155.377C222.804 155.377 222.445 155.735 222.445 156.176V168.088C222.445 168.529 222.804 168.887 223.246 168.887C223.688 168.887 224.046 168.529 224.046 168.088V156.176Z" fill="white"/>
<path d="M225.151 172.62C225.255 171.57 224.487 170.634 223.435 170.53C222.383 170.426 221.445 171.193 221.341 172.243C221.237 173.294 222.005 174.23 223.057 174.334C224.109 174.438 225.047 173.671 225.151 172.62Z" fill="white"/>
<path d="M99.0775 215.291V201.914C99.0776 200.573 99.3439 199.245 99.861 198.007C100.378 196.769 101.136 195.646 102.09 194.702C103.044 193.758 104.177 193.012 105.421 192.507C106.666 192.003 107.998 191.75 109.342 191.762H110.459C111.802 191.749 113.135 192.002 114.38 192.506C115.625 193.011 116.757 193.757 117.712 194.701C118.666 195.645 119.424 196.768 119.941 198.006C120.457 199.245 120.723 200.573 120.723 201.914V206.42C120.725 206.723 120.846 207.012 121.06 207.226C121.273 207.44 121.562 207.562 121.865 207.566L127.27 207.591C127.421 207.591 127.571 207.562 127.711 207.505C127.851 207.448 127.978 207.363 128.085 207.257C128.192 207.15 128.277 207.024 128.335 206.885C128.393 206.745 128.424 206.596 128.424 206.445V202.66C128.424 200.338 127.966 198.039 127.076 195.894C126.186 193.749 124.881 191.8 123.236 190.159C121.59 188.518 119.637 187.217 117.488 186.331C115.339 185.444 113.035 184.99 110.71 184.993H109.091C106.766 184.991 104.463 185.446 102.315 186.333C100.166 187.22 98.2142 188.521 96.5696 190.162C94.9251 191.803 93.6205 193.751 92.7305 195.896C91.8405 198.04 91.3826 200.339 91.3828 202.66V215.648L99.0775 215.291Z" fill="#FFD233"/>
<path d="M130.979 253.754C132.332 253.751 133.629 253.213 134.586 252.257C135.542 251.302 136.081 250.007 136.085 248.656V219.665C136.081 218.314 135.542 217.02 134.586 216.065C133.629 215.109 132.332 214.571 130.979 214.568H88.824C87.4711 214.571 86.1744 215.109 85.2177 216.065C84.261 217.02 83.7221 218.314 83.7188 219.665V248.656C83.7221 250.007 84.261 251.302 85.2177 252.257C86.1744 253.213 87.4711 253.751 88.824 253.754H130.979Z" fill="#FFD233"/>
<path d="M109.903 224.512C108.454 224.517 107.065 225.094 106.041 226.118C105.016 227.141 104.438 228.528 104.434 229.975C104.459 230.797 104.672 231.602 105.058 232.328C105.443 233.054 105.99 233.683 106.657 234.165V240.575C106.658 241.434 107.001 242.257 107.609 242.864C108.218 243.471 109.043 243.811 109.903 243.811C110.763 243.811 111.588 243.471 112.197 242.864C112.805 242.257 113.148 241.434 113.149 240.575V234.165C113.815 233.682 114.361 233.053 114.747 232.327C115.132 231.601 115.346 230.796 115.373 229.975C115.368 228.528 114.79 227.141 113.766 226.118C112.741 225.094 111.353 224.517 109.903 224.512Z" fill="#FFE794"/>
<path d="M35.3203 243.824H53.7082" stroke="#B3D4FF" stroke-width="3" stroke-miterlimit="10" stroke-linecap="round"/>
<path d="M35.3203 249.115H53.7082" stroke="#B3D4FF" stroke-width="3" stroke-miterlimit="10" stroke-linecap="round"/>
<path d="M35.3203 254.407H53.7082" stroke="#B3D4FF" stroke-width="3" stroke-miterlimit="10" stroke-linecap="round"/>
<path d="M280.535 161.435H298.923" stroke="#B3D4FF" stroke-width="3" stroke-miterlimit="10" stroke-linecap="round"/>
<path d="M280.535 166.726H298.923" stroke="#B3D4FF" stroke-width="3" stroke-miterlimit="10" stroke-linecap="round"/>
<path d="M280.535 172.018H298.923" stroke="#B3D4FF" stroke-width="3" stroke-miterlimit="10" stroke-linecap="round"/>
<path d="M77.6326 182.072C82.7972 182.072 86.9839 177.891 86.9839 172.735C86.9839 167.578 82.7972 163.398 77.6326 163.398C72.468 163.398 68.2812 167.578 68.2812 172.735C68.2812 177.891 72.468 182.072 77.6326 182.072Z" fill="#B3D4FF"/>
<path d="M78.0115 158.561C80.7017 158.561 82.8824 156.383 82.8824 153.697C82.8824 151.011 80.7017 148.834 78.0115 148.834C75.3214 148.834 73.1406 151.011 73.1406 153.697C73.1406 156.383 75.3214 158.561 78.0115 158.561Z" fill="#B3D4FF"/>
<path d="M110.454 160.749C112.782 160.749 114.67 158.864 114.67 156.539C114.67 154.215 112.782 152.33 110.454 152.33C108.126 152.33 106.238 154.215 106.238 156.539C106.238 158.864 108.126 160.749 110.454 160.749Z" fill="#B3D4FF"/>
<path d="M95.1144 155.254C96.6662 155.254 97.9241 153.998 97.9241 152.449C97.9241 150.899 96.6662 149.643 95.1144 149.643C93.5626 149.643 92.3047 150.899 92.3047 152.449C92.3047 153.998 93.5626 155.254 95.1144 155.254Z" fill="#B3D4FF"/>
<path d="M98.3802 174.487C102.1 174.487 105.116 171.476 105.116 167.762C105.116 164.047 102.1 161.036 98.3802 161.036C94.6602 161.036 91.6445 164.047 91.6445 167.762C91.6445 171.476 94.6602 174.487 98.3802 174.487Z" fill="#B3D4FF"/>
<path d="M302.789 251.385C307.953 251.385 312.14 247.205 312.14 242.048C312.14 236.892 307.953 232.711 302.789 232.711C297.624 232.711 293.438 236.892 293.438 242.048C293.438 247.205 297.624 251.385 302.789 251.385Z" fill="#B3D4FF"/>
<path d="M282.992 251.513C285.682 251.513 287.863 249.336 287.863 246.65C287.863 243.964 285.682 241.786 282.992 241.786C280.302 241.786 278.121 243.964 278.121 246.65C278.121 249.336 280.302 251.513 282.992 251.513Z" fill="#B3D4FF"/>
<path d="M282.994 233.688C286.714 233.688 289.729 230.677 289.729 226.962C289.729 223.248 286.714 220.237 282.994 220.237C279.273 220.237 276.258 223.248 276.258 226.962C276.258 230.677 279.273 233.688 282.994 233.688Z" fill="#B3D4FF"/>
<path d="M303.551 85.7961C308.715 85.7961 312.902 81.6158 312.902 76.4591C312.902 71.3024 308.715 67.1221 303.551 67.1221C298.386 67.1221 294.199 71.3024 294.199 76.4591C294.199 81.6158 298.386 85.7961 303.551 85.7961Z" fill="#B3D4FF"/>
<path d="M285.001 90.0055C287.329 90.0055 289.217 88.1209 289.217 85.7962C289.217 83.4715 287.329 81.5869 285.001 81.5869C282.673 81.5869 280.785 83.4715 280.785 85.7962C280.785 88.1209 282.673 90.0055 285.001 90.0055Z" fill="#B3D4FF"/>
<path d="M279.833 76.4591C283.553 76.4591 286.569 73.448 286.569 69.7337C286.569 66.0194 283.553 63.0083 279.833 63.0083C276.113 63.0083 273.098 66.0194 273.098 69.7337C273.098 73.448 276.113 76.4591 279.833 76.4591Z" fill="#B3D4FF"/>
</svg>
