<svg width="45" height="45" viewBox="0 0 45 45" fill="none" xmlns="http://www.w3.org/2000/svg">
<path d="M22.5001 4.46497C12.4167 4.46497 4.16675 12.715 4.16675 22.7983C4.16675 32.8816 12.4167 41.1316 22.5001 41.1316C32.5834 41.1316 40.8334 32.8816 40.8334 22.7983C40.8334 12.715 32.5834 4.46497 22.5001 4.46497ZM24.3334 22.7983C24.3334 23.5316 23.9667 24.0816 23.4167 24.4483L18.6501 27.1983C17.7334 27.7483 16.6334 27.3816 16.0834 26.465C15.5334 25.5483 15.9001 24.4483 16.8167 23.8983L20.6667 21.6983V13.6316C20.6667 12.5316 21.4001 11.7983 22.5001 11.7983C23.6001 11.7983 24.3334 12.5316 24.3334 13.6316V22.7983Z" fill="white"/>
</svg>
