<svg width="45" height="45" viewBox="0 0 45 45" fill="none" xmlns="http://www.w3.org/2000/svg">
<g clip-path="url(#clip0_312_1339)">
<path d="M29.8333 15.465H26.1667V20.965H20.6667V24.6317H26.1667V30.1317H29.8333V24.6317H35.3333V20.965H29.8333V15.465ZM4.16667 22.7983C4.16667 17.6833 7.1825 13.2742 11.5183 11.2117V7.26084C5.11083 9.51584 0.5 15.6208 0.5 22.7983C0.5 29.9758 5.11083 36.0808 11.5183 38.3358V34.385C7.1825 32.3225 4.16667 27.9133 4.16667 22.7983ZM28 6.29834C18.8975 6.29834 11.5 13.6958 11.5 22.7983C11.5 31.9008 18.8975 39.2983 28 39.2983C37.1025 39.2983 44.5 31.9008 44.5 22.7983C44.5 13.6958 37.1025 6.29834 28 6.29834ZM28 35.6317C20.9233 35.6317 15.1667 29.875 15.1667 22.7983C15.1667 15.7217 20.9233 9.96501 28 9.96501C35.0767 9.96501 40.8333 15.7217 40.8333 22.7983C40.8333 29.875 35.0767 35.6317 28 35.6317Z" fill="white"/>
</g>
<defs>
<clipPath id="clip0_312_1339">
<rect width="44" height="44" fill="white" transform="translate(0.5 0.79834)"/>
</clipPath>
</defs>
</svg>
