<svg width="45" height="45" viewBox="0 0 45 45" fill="none" xmlns="http://www.w3.org/2000/svg">
<path fill-rule="evenodd" clip-rule="evenodd" d="M37.1667 9.96498H35.0217C34.6429 8.89151 33.9405 7.96194 33.0112 7.30443C32.082 6.64692 30.9717 6.29382 29.8333 6.29382C28.695 6.29382 27.5847 6.64692 26.6554 7.30443C25.7262 7.96194 25.0238 8.89151 24.645 9.96498H7.83333C7.3471 9.96498 6.88079 10.1581 6.53697 10.502C6.19315 10.8458 6 11.3121 6 11.7983C6 12.2845 6.19315 12.7509 6.53697 13.0947C6.88079 13.4385 7.3471 13.6316 7.83333 13.6316H24.645C25.0238 14.7051 25.7262 15.6347 26.6554 16.2922C27.5847 16.9497 28.695 17.3028 29.8333 17.3028C30.9717 17.3028 32.082 16.9497 33.0112 16.2922C33.9405 15.6347 34.6429 14.7051 35.0217 13.6316H37.1667C37.6529 13.6316 38.1192 13.4385 38.463 13.0947C38.8068 12.7509 39 12.2845 39 11.7983C39 11.3121 38.8068 10.8458 38.463 10.502C38.1192 10.1581 37.6529 9.96498 37.1667 9.96498ZM29.8333 13.6316C30.3196 13.6316 30.7859 13.4385 31.1297 13.0947C31.4735 12.7509 31.6667 12.2845 31.6667 11.7983C31.6667 11.3121 31.4735 10.8458 31.1297 10.502C30.7859 10.1581 30.3196 9.96498 29.8333 9.96498C29.3471 9.96498 28.8808 10.1581 28.537 10.502C28.1932 10.8458 28 11.3121 28 11.7983C28 12.2845 28.1932 12.7509 28.537 13.0947C28.8808 13.4385 29.3471 13.6316 29.8333 13.6316ZM6 22.7983C6 22.3121 6.19315 21.8458 6.53697 21.502C6.88079 21.1581 7.3471 20.965 7.83333 20.965H9.97833C10.3571 19.8915 11.0595 18.9619 11.9888 18.3044C12.918 17.6469 14.0283 17.2938 15.1667 17.2938C16.305 17.2938 17.4153 17.6469 18.3446 18.3044C19.2738 18.9619 19.9762 19.8915 20.355 20.965H37.1667C37.6529 20.965 38.1192 21.1581 38.463 21.502C38.8068 21.8458 39 22.3121 39 22.7983C39 23.2845 38.8068 23.7509 38.463 24.0947C38.1192 24.4385 37.6529 24.6317 37.1667 24.6317H20.355C19.9762 25.7051 19.2738 26.6347 18.3446 27.2922C17.4153 27.9497 16.305 28.3028 15.1667 28.3028C14.0283 28.3028 12.918 27.9497 11.9888 27.2922C11.0595 26.6347 10.3571 25.7051 9.97833 24.6317H7.83333C7.3471 24.6317 6.88079 24.4385 6.53697 24.0947C6.19315 23.7509 6 23.2845 6 22.7983ZM15.1667 24.6317C15.6529 24.6317 16.1192 24.4385 16.463 24.0947C16.8068 23.7509 17 23.2845 17 22.7983C17 22.3121 16.8068 21.8458 16.463 21.502C16.1192 21.1581 15.6529 20.965 15.1667 20.965C14.6804 20.965 14.2141 21.1581 13.8703 21.502C13.5265 21.8458 13.3333 22.3121 13.3333 22.7983C13.3333 23.2845 13.5265 23.7509 13.8703 24.0947C14.2141 24.4385 14.6804 24.6317 15.1667 24.6317ZM7.83333 31.965C7.3471 31.965 6.88079 32.1581 6.53697 32.502C6.19315 32.8458 6 33.3121 6 33.7983C6 34.2845 6.19315 34.7509 6.53697 35.0947C6.88079 35.4385 7.3471 35.6317 7.83333 35.6317H24.645C25.0238 36.7051 25.7262 37.6347 26.6554 38.2922C27.5847 38.9497 28.695 39.3028 29.8333 39.3028C30.9717 39.3028 32.082 38.9497 33.0112 38.2922C33.9405 37.6347 34.6429 36.7051 35.0217 35.6317H37.1667C37.6529 35.6317 38.1192 35.4385 38.463 35.0947C38.8068 34.7509 39 34.2845 39 33.7983C39 33.3121 38.8068 32.8458 38.463 32.502C38.1192 32.1581 37.6529 31.965 37.1667 31.965H35.0217C34.6429 30.8915 33.9405 29.9619 33.0112 29.3044C32.082 28.6469 30.9717 28.2938 29.8333 28.2938C28.695 28.2938 27.5847 28.6469 26.6554 29.3044C25.7262 29.9619 25.0238 30.8915 24.645 31.965H7.83333ZM31.6667 33.7983C31.6667 34.2845 31.4735 34.7509 31.1297 35.0947C30.7859 35.4385 30.3196 35.6317 29.8333 35.6317C29.3471 35.6317 28.8808 35.4385 28.537 35.0947C28.1932 34.7509 28 34.2845 28 33.7983C28 33.3121 28.1932 32.8458 28.537 32.502C28.8808 32.1581 29.3471 31.965 29.8333 31.965C30.3196 31.965 30.7859 32.1581 31.1297 32.502C31.4735 32.8458 31.6667 33.3121 31.6667 33.7983Z" fill="white"/>
</svg>
