<svg width="45" height="45" viewBox="0 0 45 45" fill="none" xmlns="http://www.w3.org/2000/svg">
<path d="M29.8333 19.1316C27.5531 19.1342 25.33 19.8453 23.4716 21.1666L10.4183 8.13163H13.3333C13.8195 8.13163 14.2858 7.93848 14.6297 7.59466C14.9735 7.25084 15.1666 6.78453 15.1666 6.2983C15.1666 5.81207 14.9735 5.34575 14.6297 5.00194C14.2858 4.65812 13.8195 4.46497 13.3333 4.46497H5.99996C5.51373 4.46497 5.04741 4.65812 4.7036 5.00194C4.35978 5.34575 4.16663 5.81207 4.16663 6.2983V13.6316C4.16663 14.1179 4.35978 14.5842 4.7036 14.928C5.04741 15.2718 5.51373 15.465 5.99996 15.465C6.48619 15.465 6.95251 15.2718 7.29632 14.928C7.64014 14.5842 7.83329 14.1179 7.83329 13.6316V10.7166L20.8683 23.77C19.4423 25.7815 18.7335 28.2138 18.8556 30.6765C18.9777 33.1391 19.9237 35.4894 21.5417 37.3499C23.1598 39.2105 25.356 40.4735 27.7779 40.9362C30.1998 41.3989 32.7069 41.0345 34.8968 39.9015C37.0868 38.7684 38.8326 36.9324 39.854 34.6882C40.8753 32.444 41.1131 29.9217 40.5291 27.5262C39.9451 25.1307 38.5731 23.0008 36.6335 21.4785C34.6939 19.9562 32.299 19.1297 29.8333 19.1316ZM29.8333 37.465C28.3829 37.465 26.9651 37.0349 25.7591 36.2291C24.5532 35.4233 23.6132 34.278 23.0582 32.938C22.5031 31.598 22.3579 30.1235 22.6409 28.701C22.9238 27.2784 23.6223 25.9718 24.6478 24.9462C25.6734 23.9206 26.9801 23.2222 28.4026 22.9392C29.8252 22.6562 31.2996 22.8015 32.6396 23.3565C33.9796 23.9116 35.1249 24.8515 35.9307 26.0575C36.7365 27.2634 37.1666 28.6812 37.1666 30.1316C37.1666 32.0766 36.394 33.9418 35.0187 35.3171C33.6435 36.6923 31.7782 37.465 29.8333 37.465ZM34.16 31.855C34.3318 32.0254 34.4682 32.2282 34.5613 32.4516C34.6543 32.675 34.7023 32.9146 34.7023 33.1566C34.7023 33.3987 34.6543 33.6383 34.5613 33.8617C34.4682 34.0851 34.3318 34.2879 34.16 34.4583C33.9895 34.6301 33.7868 34.7665 33.5634 34.8596C33.3399 34.9527 33.1003 35.0006 32.8583 35.0006C32.6163 35.0006 32.3766 34.9527 32.1532 34.8596C31.9298 34.7665 31.7271 34.6301 31.5566 34.4583L28.5316 31.4333C28.3617 31.262 28.2273 31.0588 28.136 30.8355C28.0448 30.6121 27.9986 30.3729 28 30.1316V26.465C28 25.9787 28.1931 25.5124 28.5369 25.1686C28.8807 24.8248 29.3471 24.6316 29.8333 24.6316C30.3195 24.6316 30.7858 24.8248 31.1297 25.1686C31.4735 25.5124 31.6666 25.9787 31.6666 26.465V29.38L34.16 31.855ZM26.6983 12.33L28.165 10.8816L26.6983 9.4333C26.3531 9.08808 26.1591 8.61985 26.1591 8.13163C26.1591 7.88989 26.2067 7.65052 26.2992 7.42718C26.3918 7.20384 26.5274 7.0009 26.6983 6.82997C26.8692 6.65903 27.0722 6.52343 27.2955 6.43092C27.5188 6.33841 27.7582 6.2908 28 6.2908C28.4882 6.2908 28.9564 6.48474 29.3016 6.82997L30.75 8.29663L32.1983 6.82997C32.5435 6.48474 33.0117 6.2908 33.5 6.2908C33.9882 6.2908 34.4564 6.48474 34.8016 6.82997C35.1468 7.17519 35.3408 7.64341 35.3408 8.13163C35.3408 8.61985 35.1468 9.08808 34.8016 9.4333L33.335 10.8816L34.8016 12.33C34.9735 12.5004 35.1099 12.7032 35.2029 12.9266C35.296 13.15 35.3439 13.3896 35.3439 13.6316C35.3439 13.8737 35.296 14.1133 35.2029 14.3367C35.1099 14.5601 34.9735 14.7629 34.8016 14.9333C34.6312 15.1051 34.4284 15.2415 34.205 15.3346C33.9816 15.4277 33.742 15.4756 33.5 15.4756C33.2579 15.4756 33.0183 15.4277 32.7949 15.3346C32.5715 15.2415 32.3687 15.1051 32.1983 14.9333L30.75 13.4666L29.3016 14.9333C29.1312 15.1051 28.9284 15.2415 28.705 15.3346C28.4816 15.4277 28.242 15.4756 28 15.4756C27.7579 15.4756 27.5183 15.4277 27.2949 15.3346C27.0715 15.2415 26.8687 15.1051 26.6983 14.9333C26.5265 14.7629 26.3901 14.5601 26.297 14.3367C26.2039 14.1133 26.156 13.8737 26.156 13.6316C26.156 13.3896 26.2039 13.15 26.297 12.9266C26.3901 12.7032 26.5265 12.5004 26.6983 12.33ZM14.635 29.6L13.1683 31.0483L14.635 32.4966C14.8068 32.6671 14.9432 32.8698 15.0363 33.0932C15.1293 33.3166 15.1773 33.5563 15.1773 33.7983C15.1773 34.0403 15.1293 34.2799 15.0363 34.5034C14.9432 34.7268 14.8068 34.9295 14.635 35.1C14.4645 35.2718 14.2618 35.4082 14.0384 35.5013C13.8149 35.5943 13.5753 35.6423 13.3333 35.6423C13.0913 35.6423 12.8516 35.5943 12.6282 35.5013C12.4048 35.4082 12.2021 35.2718 12.0316 35.1L10.5833 33.6333L9.13496 35.1C8.96453 35.2718 8.76176 35.4082 8.53835 35.5013C8.31494 35.5943 8.07531 35.6423 7.83329 35.6423C7.59127 35.6423 7.35164 35.5943 7.12824 35.5013C6.90483 35.4082 6.70206 35.2718 6.53163 35.1C6.35979 34.9295 6.2234 34.7268 6.13033 34.5034C6.03725 34.2799 5.98933 34.0403 5.98933 33.7983C5.98933 33.5563 6.03725 33.3166 6.13033 33.0932C6.2234 32.8698 6.35979 32.6671 6.53163 32.4966L7.99829 31.0483L6.53163 29.6C6.1864 29.2547 5.99246 28.7865 5.99246 28.2983C5.99246 27.8101 6.1864 27.3419 6.53163 26.9966C6.87685 26.6514 7.34507 26.4575 7.83329 26.4575C8.32151 26.4575 8.78974 26.6514 9.13496 26.9966L10.5833 28.4633L12.0316 26.9966C12.3768 26.6514 12.8451 26.4575 13.3333 26.4575C13.8215 26.4575 14.2897 26.6514 14.635 26.9966C14.9802 27.3419 15.1741 27.8101 15.1741 28.2983C15.1741 28.7865 14.9802 29.2547 14.635 29.6Z" fill="white"/>
</svg>
