<svg width="45" height="45" viewBox="0 0 45 45" fill="none" xmlns="http://www.w3.org/2000/svg">
<path d="M18.375 15.9233C18.556 15.9244 18.7353 15.8897 18.9029 15.8213C19.0704 15.7528 19.2228 15.652 19.3512 15.5246L21.125 13.7371V18.6733C21.125 19.038 21.2699 19.3877 21.5277 19.6456C21.7856 19.9035 22.1353 20.0483 22.5 20.0483C22.8647 20.0483 23.2144 19.9035 23.4723 19.6456C23.7301 19.3877 23.875 19.038 23.875 18.6733V13.7371L25.6487 15.5246C25.9077 15.7835 26.2588 15.929 26.625 15.929C26.9912 15.929 27.3423 15.7835 27.6012 15.5246C27.8602 15.2657 28.0056 14.9145 28.0056 14.5483C28.0056 14.1822 27.8602 13.831 27.6012 13.5721L23.4762 9.44709C23.3554 9.33609 23.2157 9.24762 23.0637 9.18584H22.9262C22.8166 9.17259 22.7058 9.17259 22.5962 9.18584H22.5C22.3539 9.18511 22.209 9.21314 22.0737 9.26834C21.9194 9.32541 21.7788 9.41444 21.6612 9.52959L17.5362 13.6546C17.4074 13.7824 17.3051 13.9345 17.2353 14.102C17.1655 14.2696 17.1295 14.4493 17.1295 14.6308C17.1295 14.8124 17.1655 14.9921 17.2353 15.1596C17.3051 15.3272 17.4074 15.4793 17.5362 15.6071C17.7727 15.8032 18.0679 15.9146 18.375 15.9233ZM25.6487 30.0721L23.875 31.8596V26.9233C23.875 26.5587 23.7301 26.2089 23.4723 25.9511C23.2144 25.6932 22.8647 25.5483 22.5 25.5483C22.1353 25.5483 21.7856 25.6932 21.5277 25.9511C21.2699 26.2089 21.125 26.5587 21.125 26.9233V31.8596L19.3512 30.0721C19.223 29.9439 19.0708 29.8422 18.9033 29.7728C18.7358 29.7034 18.5563 29.6677 18.375 29.6677C18.1937 29.6677 18.0142 29.7034 17.8467 29.7728C17.6791 29.8422 17.5269 29.9439 17.3987 30.0721C17.2705 30.2003 17.1688 30.3525 17.0995 30.52C17.0301 30.6875 16.9944 30.867 16.9944 31.0483C16.9944 31.2296 17.0301 31.4092 17.0995 31.5767C17.1688 31.7442 17.2705 31.8964 17.3987 32.0246L21.5237 36.1496C21.657 36.2751 21.8104 36.3773 21.9775 36.4521C22.1454 36.5117 22.3218 36.5442 22.5 36.5483C22.6797 36.5462 22.8572 36.5088 23.0225 36.4383C23.1769 36.3813 23.3174 36.2922 23.435 36.1771L27.56 32.0521C27.8189 31.7932 27.9644 31.442 27.9644 31.0758C27.9644 30.7097 27.8189 30.3585 27.56 30.0996C27.3011 29.8407 26.9499 29.6952 26.5837 29.6952C26.2176 29.6952 25.8664 29.8407 25.6075 30.0996L25.6487 30.0721ZM36.1675 23.2246C36.1819 23.1105 36.1819 22.995 36.1675 22.8808V22.7983C36.1669 22.6524 36.1389 22.5078 36.085 22.3721C36.0279 22.2177 35.9389 22.0772 35.8237 21.9596L31.6987 17.8346C31.4398 17.5757 31.0887 17.4302 30.7225 17.4302C30.3563 17.4302 30.0052 17.5757 29.7462 17.8346C29.4873 18.0935 29.3419 18.4447 29.3419 18.8108C29.3419 19.177 29.4873 19.5282 29.7462 19.7871L31.5612 21.4233H26.625C26.2603 21.4233 25.9106 21.5682 25.6527 21.8261C25.3949 22.0839 25.25 22.4337 25.25 22.7983C25.25 23.163 25.3949 23.5128 25.6527 23.7706C25.9106 24.0285 26.2603 24.1733 26.625 24.1733H31.5612L29.7737 25.9471C29.6449 26.0749 29.5426 26.227 29.4728 26.3945C29.403 26.5621 29.367 26.7418 29.367 26.9233C29.367 27.1049 29.403 27.2846 29.4728 27.4521C29.5426 27.6197 29.6449 27.7718 29.7737 27.8996C29.9016 28.0285 30.0536 28.1308 30.2212 28.2006C30.3888 28.2704 30.5685 28.3063 30.75 28.3063C30.9315 28.3063 31.1112 28.2704 31.2788 28.2006C31.4463 28.1308 31.5984 28.0285 31.7262 27.8996L35.8512 23.7746C35.9622 23.6538 36.0507 23.5141 36.1125 23.3621C36.139 23.3199 36.1576 23.2734 36.1675 23.2246ZM13.4387 24.1733H18.375C18.7397 24.1733 19.0894 24.0285 19.3473 23.7706C19.6051 23.5128 19.75 23.163 19.75 22.7983C19.75 22.4337 19.6051 22.0839 19.3473 21.8261C19.0894 21.5682 18.7397 21.4233 18.375 21.4233H13.4387L15.2262 19.6496C15.4852 19.3907 15.6306 19.0395 15.6306 18.6733C15.6306 18.3072 15.4852 17.956 15.2262 17.6971C14.9673 17.4382 14.6162 17.2927 14.25 17.2927C13.8838 17.2927 13.5327 17.4382 13.2737 17.6971L9.14874 21.8221C9.03775 21.9429 8.94927 22.0826 8.88749 22.2346C8.8798 22.2801 8.8798 22.3266 8.88749 22.3721C8.87311 22.4862 8.87311 22.6017 8.88749 22.7158V22.7983C8.88813 22.9443 8.91611 23.0889 8.96999 23.2246C9.02706 23.3789 9.11609 23.5195 9.23124 23.6371L13.3562 27.7621C13.4841 27.891 13.6361 27.9933 13.8037 28.0631C13.9713 28.1329 14.151 28.1688 14.3325 28.1688C14.514 28.1688 14.6937 28.1329 14.8613 28.0631C15.0288 27.9933 15.1809 27.891 15.3087 27.7621C15.4376 27.6343 15.5399 27.4822 15.6097 27.3146C15.6795 27.1471 15.7155 26.9674 15.7155 26.7858C15.7155 26.6043 15.6795 26.4246 15.6097 26.257C15.5399 26.0895 15.4376 25.9374 15.3087 25.8096L13.4387 24.1733Z" fill="white"/>
</svg>
