<svg width="45" height="45" viewBox="0 0 45 45" fill="none" xmlns="http://www.w3.org/2000/svg">
<path d="M35.4617 9.83663L32.8767 12.4216C35.5167 15.08 37.1667 18.7466 37.1667 22.7983C37.1667 30.9016 30.6034 37.465 22.5001 37.465C14.3967 37.465 7.83341 30.9016 7.83341 22.7983C7.83341 15.3183 13.4251 9.1583 20.6667 8.25997V11.9633C15.4601 12.8433 11.5001 17.3533 11.5001 22.7983C11.5001 28.8666 16.4317 33.7983 22.5001 33.7983C28.5684 33.7983 33.5001 28.8666 33.5001 22.7983C33.5001 19.755 32.2717 17.005 30.2734 15.025L27.6884 17.61C29.0084 18.9483 29.8334 20.7816 29.8334 22.7983C29.8334 26.85 26.5517 30.1316 22.5001 30.1316C18.4484 30.1316 15.1667 26.85 15.1667 22.7983C15.1667 19.3883 17.5134 16.5466 20.6667 15.7216V19.645C19.5667 20.2866 18.8334 21.4416 18.8334 22.7983C18.8334 24.815 20.4834 26.465 22.5001 26.465C24.5167 26.465 26.1667 24.815 26.1667 22.7983C26.1667 21.4416 25.4334 20.2683 24.3334 19.645V4.46497H22.5001C12.3801 4.46497 4.16675 12.6783 4.16675 22.7983C4.16675 32.9183 12.3801 41.1316 22.5001 41.1316C32.6201 41.1316 40.8334 32.9183 40.8334 22.7983C40.8334 17.7383 38.7801 13.155 35.4617 9.83663Z" fill="white"/>
</svg>
