<svg width="45" height="45" viewBox="0 0 45 45" fill="none" xmlns="http://www.w3.org/2000/svg">
<path opacity="0.4" d="M29.9717 4.46497H36.1793C38.7501 4.46497 40.8333 6.56569 40.8333 9.15823V15.4183C40.8333 18.0108 38.7501 20.1115 36.1793 20.1115H29.9717C27.4009 20.1115 25.3177 18.0108 25.3177 15.4183V9.15823C25.3177 6.56569 27.4009 4.46497 29.9717 4.46497Z" fill="white"/>
<path d="M15.0282 25.4851C17.599 25.4851 19.6822 27.5858 19.6822 30.1783V36.4384C19.6822 39.0291 17.599 41.1316 15.0282 41.1316H8.82059C6.24976 41.1316 4.16663 39.0291 4.16663 36.4384V30.1783C4.16663 27.5858 6.24976 25.4851 8.82059 25.4851H15.0282ZM36.1793 25.4851C38.7502 25.4851 40.8333 27.5858 40.8333 30.1783V36.4384C40.8333 39.0291 38.7502 41.1316 36.1793 41.1316H29.9717C27.4009 41.1316 25.3178 39.0291 25.3178 36.4384V30.1783C25.3178 27.5858 27.4009 25.4851 29.9717 25.4851H36.1793ZM15.0282 4.46497C17.599 4.46497 19.6822 6.56569 19.6822 9.15823V15.4183C19.6822 18.0108 17.599 20.1115 15.0282 20.1115H8.82059C6.24976 20.1115 4.16663 18.0108 4.16663 15.4183V9.15823C4.16663 6.56569 6.24976 4.46497 8.82059 4.46497H15.0282Z" fill="white"/>
</svg>
