<svg width="393" height="822" viewBox="0 0 393 822" fill="none" xmlns="http://www.w3.org/2000/svg">
<path fill-rule="evenodd" clip-rule="evenodd" d="M-301.626 497.889C-306.363 440.735 -234.615 365.204 -238.234 307.974C-243.744 220.829 -265.856 116.252 -204.674 54.9711C-144.234 -5.56685 -30.793 -17.2623 43.3215 25.9616C118.087 69.5654 118.794 138.631 184.353 195.421C246.44 249.203 332.922 246.833 377.921 315.805C418.664 378.254 363.329 465.925 319.354 525.585C281.519 576.914 203.395 572.439 156.803 615.789C93.4882 674.698 88.6197 799.4 4.50402 818.527C-75.7782 836.782 -167.576 772.175 -205.887 698.26C-242.856 626.933 -294.989 577.967 -301.626 497.889Z" fill="#FFD233"/>
</svg>
