<svg width="106" height="106" viewBox="0 0 106 106" fill="none" xmlns="http://www.w3.org/2000/svg">
<g clip-path="url(#clip0_312_1331)">
<path d="M105.572 13.2618C105.282 9.86009 102.534 7 99.0795 7H6.6053C3.15073 7 0.402923 9.86009 0.11229 13.2618H0V99.4742C0 101.226 0.695914 102.906 1.93465 104.145C3.17338 105.384 4.85346 106.079 6.6053 106.079H99.0795C100.831 106.079 102.511 105.384 103.75 104.145C104.989 102.906 105.685 101.226 105.685 99.4742V13.2618H105.572ZM39.6318 46.6318V26.8159H66.053V46.6318H39.6318ZM66.053 53.2371V73.6012H39.6318V53.2371H66.053ZM33.0265 26.8159V46.6318H6.6053V26.8159H33.0265ZM6.6053 53.2371H33.0265V73.6012H6.6053V53.2371ZM6.6053 99.4742V79.6583H33.0265V99.4742H6.6053ZM39.6318 99.4742V79.6583H66.053V99.4742H39.6318ZM99.0795 99.4742H72.6583V79.6583H99.0795V99.4742ZM99.0795 73.6012H72.6583V53.2371H99.0795V73.6012ZM99.0795 46.6318H72.6583V26.8159H99.0795V46.6318Z" fill="white"/>
</g>
<defs>
<clipPath id="clip0_312_1331">
<rect width="105.685" height="105.685" fill="white"/>
</clipPath>
</defs>
</svg>
