<svg width="36" height="36" viewBox="0 0 36 36" fill="none" xmlns="http://www.w3.org/2000/svg">
<path d="M20.25 28.1252C20.2497 26.8284 20.6975 25.5714 21.5175 24.5669C22.3375 23.5624 23.4795 22.872 24.75 22.6127L24.75 18.0002L14.625 18.0002C13.7299 18.0002 12.8714 18.3557 12.2385 18.9887C11.6056 19.6216 11.25 20.4801 11.25 21.3752L11.25 22.6127C12.6158 22.8915 13.8294 23.6675 14.6556 24.7902C15.4818 25.913 15.8616 27.3025 15.7215 28.6894C15.5814 30.0763 14.9313 31.3618 13.8973 32.2966C12.8633 33.2314 11.5189 33.749 10.125 33.749C8.73103 33.749 7.38672 33.2314 6.35269 32.2966C5.31866 31.3618 4.66858 30.0763 4.52847 28.6894C4.38837 27.3025 4.76822 25.913 5.59439 24.7902C6.42056 23.6675 7.63419 22.8915 8.99999 22.6127L8.99999 21.3752C8.99999 20.6365 9.14548 19.905 9.42816 19.2226C9.71085 18.5401 10.1252 17.92 10.6475 17.3977C11.1698 16.8754 11.7899 16.461 12.4724 16.1783C13.1548 15.8957 13.8863 15.7502 14.625 15.7502L24.75 15.7502L24.75 13.3877C23.3842 13.1089 22.1706 12.3329 21.3444 11.2101C20.5182 10.0874 20.1384 8.69786 20.2785 7.31095C20.4186 5.92405 21.0687 4.63857 22.1027 3.70374C23.1367 2.7689 24.481 2.25132 25.875 2.25132C27.269 2.25132 28.6133 2.76891 29.6473 3.70374C30.6813 4.63857 31.3314 5.92405 31.4715 7.31096C31.6116 8.69786 31.2318 10.0874 30.4056 11.2101C29.5794 12.3329 28.3658 13.1089 27 13.3877L27 22.6127C28.0428 22.8255 29.0038 23.3298 29.7714 24.0671C30.539 24.8043 31.0817 25.7441 31.3364 26.7775C31.5912 27.8108 31.5476 28.8952 31.2107 29.9048C30.8737 30.9143 30.2573 31.8076 29.433 32.4808C28.6087 33.154 27.6103 33.5795 26.5538 33.7079C25.4973 33.8363 24.426 33.6624 23.4644 33.2063C22.5028 32.7502 21.6903 32.0307 21.1213 31.1313C20.5524 30.2318 20.2502 29.1895 20.25 28.1252Z" fill="#737373"/>
</svg>
