<svg width="162" height="155" viewBox="0 0 162 155" fill="none" xmlns="http://www.w3.org/2000/svg">
<path d="M162 34.7114C162 29.2961 159.849 24.1032 156.02 20.2733C152.19 16.4433 146.997 14.2928 141.581 14.2928H136.803V8.1669C136.803 6.00057 135.943 3.92386 134.412 2.39138C132.879 0.860277 130.803 0 128.636 0H117.08C114.913 0 112.835 0.860277 111.304 2.39138C109.772 3.9239 108.911 6.0005 108.911 8.1669V14.2928H53.0886V8.1669C53.0886 6.00057 52.2283 3.92386 50.6958 2.39138C49.1647 0.860277 47.0867 0 44.9203 0H33.3637C31.1974 0 29.1207 0.860277 27.5882 2.39138C26.0571 3.9239 25.1968 6.0005 25.1968 8.1669V14.2928H20.4185C15.0032 14.2928 9.81038 16.4435 5.98044 20.2733C2.15051 24.1031 0 29.2961 0 34.7114V134.456C0 139.872 2.15066 145.065 5.98044 148.895C9.81038 152.724 15.0032 154.874 20.4185 154.874H141.581C146.996 154.874 152.189 152.724 156.019 148.895C159.849 145.065 161.999 139.873 161.999 134.456L162 34.7114ZM117.079 8.1669H128.657V28.5854H117.079V8.1669ZM33.3632 8.1669H44.9413V28.5854H33.3632V8.1669ZM153.833 134.474L153.834 134.475C153.834 137.724 152.542 140.84 150.245 143.138C147.947 145.435 144.831 146.725 141.582 146.725H20.4201C17.1713 146.725 14.055 145.435 11.7575 143.138C9.46016 140.84 8.16833 137.724 8.16833 134.475V59.4371H153.836L153.833 134.474ZM153.833 51.2901L8.16822 51.2915V34.7529C8.16822 31.5027 9.46005 28.3878 11.7574 26.0903C14.0548 23.7915 17.1713 22.5011 20.42 22.5011H25.1771V28.627C25.1771 30.7934 26.0388 32.8701 27.5699 34.4026C29.101 35.9337 31.1791 36.7939 33.3455 36.7939H44.9235H44.9221C47.0884 36.7939 49.1666 35.9337 50.6976 34.4026C52.2301 32.87 53.0904 30.7934 53.0904 28.627V22.5011H108.913V28.627C108.913 30.7934 109.773 32.8701 111.306 34.4026C112.837 35.9337 114.915 36.7939 117.082 36.7939H128.66H128.658C130.824 36.7939 132.903 35.9337 134.434 34.4026C135.965 32.87 136.826 30.7934 136.826 28.627V22.5011H141.584C144.832 22.5011 147.949 23.7915 150.246 26.0903C152.544 28.3877 153.835 31.5027 153.835 34.7529L153.833 51.2901Z" fill="#BBBBBB"/>
<path d="M36.2005 131.53H125.798C126.882 131.53 127.92 131.1 128.686 130.335C129.451 129.568 129.881 128.53 129.881 127.446V78.4418C129.881 77.3579 129.451 76.3196 128.686 75.5534C127.92 74.7885 126.882 74.3584 125.798 74.3584H36.2005C33.9445 74.3584 32.1172 76.1857 32.1172 78.4417V127.446C32.1172 128.53 32.5473 129.568 33.3122 130.335C34.0784 131.1 35.1167 131.53 36.2006 131.53L36.2005 131.53ZM100.395 82.5252H121.712V98.8604H100.395V82.5252ZM100.395 107.027H121.712V123.362H100.395V107.027ZM69.7672 82.5252H92.2283V98.8604H69.7672V82.5252ZM69.7672 107.027H92.2283V123.362H69.7672V107.027ZM40.2832 82.5252H61.6005V98.8604H40.2832V82.5252ZM40.2832 107.027H61.6005V123.362H40.2832V107.027Z" fill="#BBBBBB"/>
</svg>
