<svg width="29" height="29" viewBox="0 0 29 29" fill="none" xmlns="http://www.w3.org/2000/svg">
<g clip-path="url(#clip0_901_6943)">
<path d="M15.6972 10.5844L14.5858 9.473L11.328 10.5094L10.8216 12.1357L15.6972 10.5844Z" fill="#3B8CF7"/>
<path d="M17.6706 12.5575L16.5744 11.4613L10.4221 13.419L9.92244 15.0228L17.6706 12.5575Z" fill="#3B8CF7"/>
<path d="M11.7281 9.2263L13.709 8.59597L12.3481 7.23511L11.7281 9.2263Z" fill="#3B8CF7"/>
<path d="M19.6436 14.5307L18.5474 13.4345L9.52256 16.3059L9.02312 17.9099L19.6436 14.5307Z" fill="#3B8CF7"/>
<path d="M21.5564 16.4435L20.5207 15.4078L8.62351 19.1933L8.18239 20.6091L21.5564 16.4435Z" fill="#3B8CF7"/>
<path d="M18.2678 10.0853L17.8293 10.5238C17.7712 10.582 17.7385 10.6608 17.7385 10.7431C17.7385 10.8253 17.7712 10.9042 17.8293 10.9623C17.8875 11.0205 17.9663 11.0531 18.0486 11.0531C18.1308 11.0531 18.2097 11.0205 18.2678 10.9623L18.7063 10.5238C18.7645 10.4657 18.7971 10.3868 18.7971 10.3046C18.7971 10.2223 18.7645 10.1435 18.7063 10.0853C18.6482 10.0272 18.5693 9.99452 18.4871 9.99452C18.4048 9.99452 18.326 10.0272 18.2678 10.0853Z" fill="#3B8CF7"/>
<path d="M21.0309 8.30264L21.3372 7.45438L20.4889 7.76066L19.7902 7.24741L19.7792 8.13535L19.0412 8.66637L19.8829 8.90863L20.1252 9.75032L20.6562 9.01234L21.5442 9.00138L21.0309 8.30264Z" fill="#3B8CF7"/>
<path d="M26.5991 14.0318L25.9629 14.2615L25.4389 13.8765L25.4308 14.5424L24.8772 14.9408L25.5084 15.1225L25.6902 15.7537L26.0885 15.2001L26.7544 15.192L26.3694 14.668L26.5991 14.0318Z" fill="#3B8CF7"/>
<path d="M23.0173 13.7697C23.1047 13.8829 23.2175 13.9738 23.3466 14.0352C23.4757 14.0966 23.6175 14.1266 23.7604 14.123C23.8412 14.1183 23.9171 14.0822 23.9717 14.0223C24.0263 13.9625 24.0553 13.8836 24.0525 13.8027C24.0497 13.7217 24.0153 13.645 23.9567 13.5891C23.8981 13.5332 23.8199 13.5024 23.7389 13.5034C23.6266 13.5069 23.588 13.4705 23.4701 13.3459C23.3829 13.2327 23.2701 13.1416 23.141 13.0802C23.012 13.0188 22.8702 12.9887 22.7273 12.9925C22.5836 13.0008 22.4434 13.0396 22.316 13.1065C22.1886 13.1734 22.077 13.2668 21.9886 13.3804C21.8641 13.5119 21.8036 13.5702 21.6784 13.5744C21.567 13.5783 21.5273 13.5422 21.4107 13.4172C21.3233 13.3041 21.2106 13.2132 21.0816 13.1518C20.9526 13.0903 20.811 13.0601 20.6681 13.0636C20.6268 13.0641 20.586 13.0728 20.5481 13.0893C20.5103 13.1058 20.4761 13.1296 20.4475 13.1595C20.419 13.1894 20.3967 13.2247 20.3821 13.2633C20.3674 13.3019 20.3605 13.3431 20.362 13.3843C20.3634 13.4256 20.3731 13.4662 20.3904 13.5037C20.4077 13.5412 20.4324 13.5749 20.4629 13.6027C20.4934 13.6305 20.5292 13.652 20.5681 13.6658C20.6071 13.6796 20.6484 13.6855 20.6896 13.6831C20.8012 13.6794 20.84 13.716 20.9573 13.8403C21.0443 13.9538 21.157 14.045 21.2861 14.1065C21.4151 14.168 21.557 14.198 21.6999 14.194C21.8435 14.1858 21.9837 14.1469 22.111 14.0801C22.2384 14.0132 22.35 13.9199 22.4383 13.8064C22.5628 13.6748 22.6231 13.6163 22.7483 13.6121C22.8606 13.6086 22.8994 13.6448 23.0173 13.7697Z" fill="#3B8CF7"/>
<path d="M13.0378 3.1014L13.669 3.28315L13.8508 3.91436L14.2492 3.36077L14.915 3.35265L14.53 2.82866L14.7598 2.19241L14.1235 2.42218L13.5995 2.03718L13.5914 2.70303L13.0378 3.1014Z" fill="#3B8CF7"/>
<path d="M15.4455 5.3215C15.3205 5.20399 15.2841 5.16496 15.288 5.05271C15.289 4.9717 15.2582 4.89353 15.2023 4.83492C15.1464 4.77632 15.0697 4.74193 14.9887 4.73912C14.9078 4.73631 14.8289 4.76531 14.7691 4.8199C14.7092 4.87449 14.6731 4.95034 14.6684 5.03122C14.6647 5.17413 14.6947 5.3159 14.7561 5.44501C14.8175 5.57412 14.9085 5.68692 15.0217 5.77424C15.1475 5.89264 15.1828 5.93101 15.1791 6.04304C15.1749 6.16823 15.1164 6.22852 14.9848 6.35305C14.8713 6.44138 14.778 6.55297 14.7111 6.68033C14.6443 6.80768 14.6054 6.94787 14.5972 7.09147C14.5932 7.2344 14.6232 7.37622 14.6847 7.50531C14.7462 7.6344 14.8374 7.74706 14.9508 7.83406C15.0751 7.95136 15.1118 7.99016 15.108 8.10176C15.1071 8.18277 15.1378 8.26094 15.1938 8.31955C15.2497 8.37815 15.3264 8.41254 15.4073 8.41535C15.4883 8.41815 15.5671 8.38916 15.627 8.33457C15.6869 8.27998 15.723 8.20413 15.7276 8.12325C15.7311 7.9804 15.7009 7.83873 15.6395 7.70972C15.578 7.58071 15.4871 7.46798 15.374 7.38066C15.2492 7.26424 15.2128 7.22434 15.2168 7.11296C15.2209 6.98777 15.2793 6.92726 15.4108 6.80273C15.5244 6.71439 15.6178 6.60277 15.6847 6.47537C15.7516 6.34798 15.7904 6.20774 15.7987 6.06409C15.8024 5.92124 15.7724 5.77952 15.711 5.65048C15.6496 5.52144 15.5586 5.40872 15.4455 5.3215ZM19.8023 11.93L20.6793 11.93C20.7606 11.9286 20.8381 11.8953 20.895 11.8373C20.952 11.7793 20.984 11.7013 20.984 11.62C20.984 11.5387 20.952 11.4607 20.895 11.4027C20.8381 11.3447 20.7606 11.3114 20.6793 11.31H19.8023C19.7611 11.3093 19.7202 11.3168 19.682 11.332C19.6438 11.3473 19.609 11.37 19.5796 11.3989C19.5502 11.4277 19.5269 11.4621 19.511 11.5001C19.4951 11.5381 19.4869 11.5788 19.4869 11.62C19.4869 11.6612 19.4951 11.7019 19.511 11.7399C19.5269 11.7779 19.5502 11.8123 19.5796 11.8411C19.609 11.87 19.6438 11.8927 19.682 11.908C19.7202 11.9232 19.7611 11.9307 19.8023 11.93ZM23.7487 10.8715L22.8718 10.8715C22.8306 10.8708 22.7897 10.8783 22.7515 10.8935C22.7132 10.9088 22.6784 10.9315 22.649 10.9604C22.6197 10.9892 22.5963 11.0236 22.5804 11.0616C22.5645 11.0996 22.5563 11.1403 22.5563 11.1815C22.5563 11.2227 22.5645 11.2634 22.5804 11.3014C22.5963 11.3394 22.6197 11.3738 22.649 11.4026C22.6784 11.4315 22.7132 11.4542 22.7515 11.4695C22.7897 11.4847 22.8306 11.4922 22.8718 11.4915L23.7487 11.4915C23.7899 11.4922 23.8308 11.4847 23.869 11.4695C23.9073 11.4542 23.9421 11.4315 23.9715 11.4026C24.0008 11.3738 24.0241 11.3394 24.0401 11.3014C24.056 11.2634 24.0642 11.2227 24.0642 11.1815C24.0642 11.1403 24.056 11.0996 24.0401 11.0616C24.0241 11.0236 24.0008 10.9892 23.9715 10.9604C23.9421 10.9315 23.9073 10.9088 23.869 10.8935C23.8308 10.8783 23.7899 10.8708 23.7487 10.8715ZM16.9521 9.20829C16.9955 9.25164 17.0507 9.28116 17.1109 9.29311C17.171 9.30507 17.2333 9.29892 17.29 9.27546C17.3466 9.25199 17.395 9.21226 17.4291 9.16128C17.4632 9.1103 17.4814 9.05036 17.4814 8.98905V8.11206C17.48 8.03078 17.4467 7.9533 17.3887 7.89631C17.3307 7.83932 17.2527 7.80739 17.1714 7.80739C17.0901 7.80739 17.012 7.83932 16.954 7.89631C16.896 7.9533 16.8628 8.03078 16.8613 8.11206L16.8613 8.98905C16.8613 9.07127 16.894 9.15014 16.9521 9.20829ZM17.2998 5.9196C17.3012 6.00089 17.3345 6.07837 17.3925 6.13536C17.4505 6.19235 17.5285 6.22428 17.6098 6.22428C17.6911 6.22428 17.7692 6.19235 17.8272 6.13536C17.8852 6.07837 17.9185 6.00089 17.9199 5.91961L17.9199 5.04262C17.9185 4.96133 17.8852 4.88385 17.8272 4.82687C17.7692 4.76988 17.6911 4.73795 17.6098 4.73795C17.5285 4.73795 17.4505 4.76988 17.3925 4.82687C17.3345 4.88385 17.3012 4.96133 17.2998 5.04262V5.9196Z" fill="#3B8CF7"/>
</g>
<defs>
<clipPath id="clip0_901_6943">
<rect width="19.8439" height="19.8439" fill="white" transform="translate(14.7598) rotate(45)"/>
</clipPath>
</defs>
</svg>
