<svg width="32" height="32" viewBox="0 0 32 32" fill="none" xmlns="http://www.w3.org/2000/svg">
<path d="M20.1875 10C21.0992 10 21.9735 9.63125 22.6182 8.97487C23.2628 8.3185 23.625 7.42826 23.625 6.5C23.625 5.57174 23.2628 4.6815 22.6182 4.02513C21.9735 3.36875 21.0992 3 20.1875 3C19.2758 3 18.4015 3.36875 17.7568 4.02513C17.1122 4.6815 16.75 5.57174 16.75 6.5C16.75 7.42826 17.1122 8.3185 17.7568 8.97487C18.4015 9.63125 19.2758 10 20.1875 10ZM15.8384 4.4H6.4375C5.59167 4.39986 4.77549 4.71725 4.14509 5.29144C3.5147 5.86562 3.11434 6.6563 3.02063 7.5122L12.625 12.688L17.113 10.2702C16.5686 9.81078 16.1305 9.23463 15.8301 8.5829C15.5297 7.93118 15.3743 7.21995 15.375 6.5C15.375 5.7482 15.54 5.037 15.8384 4.4ZM18.5499 11.1088L12.9742 14.1034C12.8686 14.1667 12.7483 14.2 12.6257 14.2C12.5031 14.2 12.3828 14.1667 12.2771 14.1034L3 9.1222V17.7C3 18.6283 3.36216 19.5185 4.00682 20.1749C4.65148 20.8312 5.52582 21.2 6.4375 21.2H18.8125C19.7242 21.2 20.5985 20.8312 21.2432 20.1749C21.8878 19.5185 22.25 18.6283 22.25 17.7V10.9282C21.6055 11.2397 20.9009 11.4009 20.1875 11.4C19.6296 11.4011 19.0758 11.3025 18.5513 11.1088H18.5499ZM9.1875 24C8.65377 24.0004 8.1273 23.8741 7.64991 23.6311C7.17253 23.3881 6.7574 23.035 6.4375 22.6H18.8125C20.0889 22.6 21.3129 22.0837 22.2155 21.1648C23.118 20.2459 23.625 18.9996 23.625 17.7V10.7C24.4596 11.3384 25 12.3548 25 13.5V17.7C25 19.3709 24.3481 20.9733 23.1877 22.1548C22.0273 23.3362 20.4535 24 18.8125 24H9.1875Z" fill="#47F09F"/>
</svg>
