<svg width="57" height="57" viewBox="0 0 57 57" fill="none" xmlns="http://www.w3.org/2000/svg">
<path d="M18.7571 28.3249C23.4121 28.3249 26.9237 24.8133 26.9237 20.1583C26.9237 15.5033 23.4121 11.9916 18.7571 11.9916C14.1021 11.9916 10.5904 15.5033 10.5904 20.1583C10.5904 24.8133 14.1021 28.3249 18.7571 28.3249ZM21.0904 30.5369H16.4237C9.99075 30.5369 4.75708 35.7706 4.75708 42.2036V44.5369H32.7571V42.2036C32.7571 35.7706 27.5234 30.5369 21.0904 30.5369ZM47.4431 19.5516L37.4097 29.5663L34.3951 26.5516L31.0957 29.8509L37.4097 36.1603L50.7377 22.8556L47.4431 19.5516Z" fill="white"/>
</svg>
