<svg width="54" height="59" viewBox="0 0 54 59" fill="none" xmlns="http://www.w3.org/2000/svg">
<path fill-rule="evenodd" clip-rule="evenodd" d="M27.4107 12.4598C26.8842 12.2293 26.2968 12.2293 25.7703 12.4598L3.68701 22.1264C2.84859 22.4935 2.29883 23.3821 2.29883 24.3703C2.29883 25.3584 2.84859 26.2471 3.68701 26.6142L13.3405 30.8397V40.4556C13.3405 43.6932 16.1925 46.0154 19.0263 45.085L26.5905 42.6016L34.1547 45.085C36.9884 46.0154 39.8405 43.6932 39.8405 40.4556V30.8397L49.494 26.6142C50.3323 26.2471 50.8822 25.3584 50.8822 24.3703C50.8822 23.3821 50.3323 22.4935 49.494 22.1264L27.4107 12.4598Z" fill="white"/>
<path fill-rule="evenodd" clip-rule="evenodd" d="M42.0488 41.2869V26.7869H46.4655V41.2869H42.0488Z" fill="white"/>
</svg>
