<svg width="43" height="45" viewBox="0 0 43 45" fill="none" xmlns="http://www.w3.org/2000/svg">
<g clip-path="url(#clip0_626_6866)">
<path d="M36.2737 17.8154C35.4007 17.4031 34.7144 16.7126 34.339 15.8689C34.2997 15.7734 34.2604 15.6779 34.2132 15.5824C33.8327 14.7203 33.7909 13.7602 34.0952 12.872C34.2722 12.3251 34.2869 11.7435 34.138 11.1894C33.989 10.6352 33.6819 10.1291 33.2493 9.72507C32.8167 9.32104 32.2748 9.03418 31.6814 8.89505C31.0881 8.75592 30.4654 8.76973 29.8798 8.93501C28.9346 9.22274 27.9103 9.18364 26.9934 8.82483L26.6788 8.70731C25.7775 8.3574 25.0388 7.71954 24.5947 6.90773C24.3104 6.39463 23.8805 5.96441 23.352 5.6641C22.8236 5.36379 22.2169 5.20496 21.5983 5.20496C20.9797 5.20496 20.373 5.36379 19.8445 5.6641C19.3161 5.96441 18.8862 6.39463 18.6019 6.90773C18.1604 7.72405 17.4172 8.36335 16.5099 8.70731L16.2032 8.82483C15.2863 9.18364 14.262 9.22274 13.3168 8.93501C12.7302 8.76625 12.1055 8.74977 11.5097 8.88735C10.9138 9.02493 10.3693 9.31138 9.93445 9.71598C9.49963 10.1206 9.1909 10.6281 9.04137 11.1841C8.89185 11.7401 8.90716 12.3236 9.08566 12.872C9.39375 13.7548 9.35188 14.7115 8.9677 15.5677L8.84186 15.8542C8.47128 16.7008 7.78363 17.3927 6.90716 17.8007C6.36032 18.0692 5.90244 18.4721 5.583 18.966C5.26357 19.4599 5.09473 20.0259 5.09473 20.6029C5.09473 21.1799 5.26357 21.7459 5.583 22.2398C5.90244 22.7337 6.36032 23.1366 6.90716 23.4051C7.78504 23.8149 8.47287 24.5096 8.84186 25.3589L8.9677 25.6454C9.35188 26.5017 9.39375 27.4584 9.08566 28.3411C8.90341 28.8905 8.88522 29.4759 9.03308 30.0342C9.18094 30.5925 9.48922 31.1025 9.92466 31.5092C10.3601 31.9159 10.9062 32.2038 11.504 32.3419C12.1018 32.48 12.7286 32.463 13.3168 32.2928C14.262 32.0051 15.2863 32.0442 16.2032 32.403L16.5099 32.5205C17.4143 32.866 18.1545 33.5051 18.594 34.3201C18.8783 34.8332 19.3082 35.2634 19.8367 35.5637C20.3651 35.864 20.9718 36.0229 21.5904 36.0229C22.209 36.0229 22.8157 35.864 23.3442 35.5637C23.8726 35.2634 24.3025 34.8332 24.5869 34.3201C25.0309 33.5083 25.7697 32.8704 26.671 32.5205L26.9856 32.403C27.9024 32.0442 28.9268 32.0051 29.8719 32.2928C30.4596 32.4613 31.0854 32.4769 31.682 32.3381C32.2785 32.1992 32.8233 31.9111 33.2576 31.5047C33.6919 31.0983 33.9994 30.589 34.147 30.0316C34.2946 29.4741 34.2767 28.8897 34.0952 28.3411C33.7947 27.4574 33.8365 26.5032 34.2132 25.6454C34.2604 25.5499 34.2997 25.4544 34.339 25.3589C34.7144 24.5152 35.4007 23.8248 36.2737 23.4124C36.8205 23.144 37.2784 22.741 37.5979 22.2471C37.9173 21.7533 38.0861 21.1872 38.0861 20.6102C38.0861 20.0332 37.9173 19.4672 37.5979 18.9733C37.2784 18.4795 36.8205 18.0765 36.2737 17.808V17.8154ZM28.3462 17.6979L20.4422 25.0945C20.221 25.3008 19.9212 25.4167 19.6085 25.4167C19.2959 25.4167 18.9961 25.3008 18.7749 25.0945L14.8426 21.4219C14.7114 21.3251 14.6037 21.2033 14.5267 21.0647C14.4497 20.926 14.4051 20.7737 14.3959 20.6177C14.3868 20.4618 14.4132 20.3058 14.4735 20.1601C14.5338 20.0144 14.6266 19.8824 14.7457 19.7727C14.8647 19.6631 15.0074 19.5783 15.1643 19.5241C15.3211 19.4699 15.4885 19.4474 15.6553 19.4582C15.8221 19.469 15.9846 19.5127 16.1319 19.5866C16.2793 19.6605 16.4081 19.7628 16.5099 19.8867L19.585 22.7587L26.6631 16.148C26.7721 16.045 26.9019 15.9632 27.045 15.9073C27.1881 15.8515 27.3417 15.8227 27.4968 15.8227C27.6519 15.8227 27.8054 15.8515 27.9485 15.9073C28.0916 15.9632 28.2214 16.045 28.3304 16.148C28.5492 16.3533 28.6733 16.6303 28.6762 16.9199C28.6792 17.2096 28.5607 17.4888 28.3462 17.6979V17.6979Z" fill="white"/>
<path d="M11.9643 30.0157L7.56794 37.7723C7.52653 37.8483 7.50879 37.9336 7.51675 38.0186C7.5247 38.1035 7.55803 38.1847 7.61294 38.2528C7.66785 38.3209 7.74213 38.3732 7.82733 38.4039C7.91253 38.4345 8.00523 38.4422 8.09487 38.426L12.6721 37.5446C12.7695 37.5271 12.8704 37.5374 12.9615 37.5741C13.0527 37.6107 13.1299 37.6721 13.1833 37.7503L14.6225 39.9538C14.665 40.0241 14.7267 40.0826 14.8013 40.1233C14.8759 40.164 14.9608 40.1855 15.0472 40.1855C15.1336 40.1855 15.2185 40.164 15.2931 40.1233C15.3677 40.0826 15.4294 40.0241 15.4719 39.9538L19.9311 32.1091L11.9643 30.0157ZM30.7529 30.0157L35.1256 37.7723C35.1696 37.8474 35.1897 37.9327 35.1834 38.0182C35.1771 38.1036 35.1448 38.1856 35.0902 38.2544C35.0355 38.3231 34.961 38.3759 34.8753 38.4063C34.7895 38.4367 34.6963 38.4436 34.6065 38.426L30.0293 37.5446C29.9318 37.5261 29.8306 37.5359 29.7392 37.5726C29.6478 37.6094 29.5707 37.6714 29.5181 37.7503L28.0789 39.9538C28.0364 40.0241 27.9747 40.0826 27.9001 40.1233C27.8255 40.164 27.7406 40.1855 27.6542 40.1855C27.5678 40.1855 27.4829 40.164 27.4083 40.1233C27.3337 40.0826 27.272 40.0241 27.2295 39.9538L23.1163 32.1091" fill="white"/>
</g>
<defs>
<clipPath id="clip0_626_6866">
<rect width="33" height="35" fill="white" transform="translate(5.09058 5.20361)"/>
</clipPath>
</defs>
</svg>
