<svg width="42" height="42" viewBox="0 0 42 42" fill="none" xmlns="http://www.w3.org/2000/svg">
<path d="M6.92368 9.59945C6.92389 8.48977 7.23289 7.40205 7.81612 6.458C8.39934 5.51395 9.23377 4.75083 10.226 4.25404C11.2183 3.75724 12.3292 3.54638 13.4345 3.64506C14.5398 3.74373 15.5958 4.14803 16.4844 4.81273C17.3729 5.47743 18.059 6.37628 18.4658 7.40871C18.8726 8.44114 18.984 9.5664 18.7877 10.6586C18.5913 11.7507 18.0949 12.7667 17.354 13.5928C16.613 14.4189 15.6568 15.0225 14.5924 15.336C15.1813 17.2604 16.3723 18.945 17.9902 20.1419C19.6081 21.3388 21.5674 21.9848 23.5799 21.9849H24.1437C24.4608 20.5457 25.298 19.2743 26.4948 18.4144C27.6917 17.5546 29.1638 17.1669 30.6289 17.3257C32.094 17.4845 33.4489 18.1786 34.4337 19.2749C35.4186 20.3711 35.964 21.7924 35.9654 23.2661C35.9679 24.7421 35.4244 26.1669 34.4395 27.2662C33.4546 28.3655 32.0978 29.0616 30.6305 29.2207C29.1631 29.3797 27.6887 28.9904 26.4911 28.1276C25.2936 27.2648 24.4574 25.9896 24.1437 24.5474H23.5799C21.7705 24.5488 19.9845 24.139 18.3567 23.3488C16.729 22.5586 15.3022 21.4087 14.1841 19.9861V25.9653C15.6233 26.2824 16.8947 27.1196 17.7545 28.3164C18.6144 29.5133 19.0021 30.9854 18.8433 32.4505C18.6845 33.9156 17.9904 35.2705 16.8941 36.2553C15.7978 37.2402 14.3765 37.7856 12.9028 37.7869C11.4269 37.7895 10.0021 37.246 8.9028 36.2611C7.80349 35.2762 7.10732 33.9194 6.94828 32.452C6.78924 30.9847 7.17857 29.5103 8.04134 28.3127C8.90412 27.1152 10.1793 26.279 11.6216 25.9653V15.4419C10.2899 15.1495 9.09802 14.4107 8.2436 13.3481C7.38919 12.2856 6.92349 10.9629 6.92368 9.59945Z" fill="white"/>
</svg>
