<svg width="119" height="119" viewBox="0 0 119 119" fill="none" xmlns="http://www.w3.org/2000/svg">
<g clip-path="url(#clip0_311_1318)">
<path d="M99.8099 6.01665C99.8099 2.69457 97.1153 0 93.8117 0H93.7932C90.4711 0.018456 87.795 2.71303 87.795 6.01665V18.3083H99.8099V6.01665ZM36.1182 10.1323C36.1182 9.63402 35.7307 9.2649 35.2139 9.2649H26.8903C26.3919 9.2649 26.0228 9.65248 26.0228 10.1323V14.7279H36.1182V10.1323ZM104.11 54.2052H61.809C60.6093 54.2052 59.6312 55.1834 59.6312 56.383V115.977C59.6312 117.159 60.6093 118.137 61.809 118.137H104.129C105.328 118.137 106.306 117.159 106.306 115.977V56.3646C106.288 55.1649 105.31 54.2052 104.11 54.2052ZM73.8607 111.714C73.8607 112.766 73.0118 113.615 71.9598 113.615H66.2384C65.1864 113.615 64.3374 112.766 64.3374 111.714V105.993C64.3374 104.941 65.1864 104.092 66.2384 104.092H71.9598C73.0118 104.092 73.8607 104.941 73.8607 105.993V111.714ZM73.8607 99.9392C73.8607 101.01 73.0118 101.84 71.9598 101.84H66.2384C65.1864 101.84 64.3374 101.01 64.3374 99.9392V94.2178C64.3374 93.1658 65.1864 92.3168 66.2384 92.3168H71.9598C73.0118 92.3168 73.8607 93.1658 73.8607 94.2178V99.9392ZM73.8607 88.1642C73.8607 89.2347 73.0118 90.0652 71.9598 90.0652H66.2384C65.1864 90.0652 64.3374 89.2347 64.3374 88.1642V82.4429C64.3374 81.3909 65.1864 80.5419 66.2384 80.5419H71.9598C73.0118 80.5419 73.8607 81.3909 73.8607 82.4429V88.1642ZM87.7212 111.714C87.7212 112.766 86.8907 113.615 85.8202 113.615H80.0989C79.0469 113.615 78.1979 112.766 78.1979 111.714V105.993C78.1979 104.941 79.0469 104.092 80.0989 104.092H85.8202C86.8907 104.092 87.7212 104.941 87.7212 105.993V111.714ZM87.7212 99.9392C87.7212 101.01 86.8907 101.84 85.8202 101.84H80.0989C79.0469 101.84 78.1979 101.01 78.1979 99.9392V94.2178C78.1979 93.1658 79.0469 92.3168 80.0989 92.3168H85.8202C86.8907 92.3168 87.7212 93.1658 87.7212 94.2178V99.9392ZM87.7212 88.1642C87.7212 89.2347 86.8907 90.0652 85.8202 90.0652H80.0989C79.0469 90.0652 78.1979 89.2347 78.1979 88.1642V82.4429C78.1979 81.3909 79.0469 80.5419 80.0989 80.5419H85.8202C86.8907 80.5419 87.7212 81.3909 87.7212 82.4429V88.1642ZM101.582 111.714C101.582 112.766 100.733 113.615 99.6806 113.615H93.9593C92.9073 113.615 92.0583 112.766 92.0583 111.714V105.993C92.0583 104.941 92.9073 104.092 93.9593 104.092H99.6806C100.733 104.092 101.582 104.941 101.582 105.993V111.714ZM101.582 99.9392C101.582 101.01 100.733 101.84 99.6806 101.84H93.9593C92.9073 101.84 92.0583 101.01 92.0583 99.9392V94.2178C92.0583 93.1658 92.9073 92.3168 93.9593 92.3168H99.6806C100.733 92.3168 101.582 93.1658 101.582 94.2178V99.9392ZM101.582 88.1642C101.582 89.2347 100.733 90.0652 99.6806 90.0652H93.9593C92.9073 90.0652 92.0583 89.2347 92.0583 88.1642V82.4429C92.0583 81.3909 92.9073 80.5419 93.9593 80.5419H99.6806C100.733 80.5419 101.582 81.3909 101.582 82.4429V88.1642ZM103.667 72.9011C103.667 75.485 101.563 77.589 98.9978 77.589H66.9213C65.6795 77.5841 64.4899 77.0886 63.6119 76.2105C62.7338 75.3325 62.2383 74.1429 62.2335 72.9011V61.3292C62.2335 58.7454 64.3559 56.6414 66.9213 56.6414H98.9793C101.545 56.6414 103.649 58.7454 103.649 61.3292V72.9011H103.667Z" fill="white"/>
<path d="M98.998 60.4618H66.9215C66.4416 60.4618 66.0541 60.8678 66.0541 61.3292V72.9011C66.0541 73.381 66.4601 73.7686 66.9215 73.7686H98.9795C99.4594 73.7686 99.8285 73.3625 99.8285 72.9011V61.3292C99.847 60.8678 99.4594 60.4618 98.998 60.4618ZM67.5675 83.7902H70.6127V86.8354H67.5675V83.7902ZM81.4279 83.7902H84.4731V86.8354H81.4279V83.7902ZM95.2884 83.7902H98.3336V86.8354H95.2884V83.7902ZM67.5675 95.5651H70.6127V98.6103H67.5675V95.5651ZM81.4279 95.5651H84.4731V98.6103H81.4279V95.5651ZM95.2884 95.5651H98.3336V98.6103H95.2884V95.5651ZM67.5675 107.34H70.6127V110.385H67.5675V107.34ZM81.4279 107.34H84.4731V110.385H81.4279V107.34ZM95.2884 107.34H98.3336V110.385H95.2884V107.34Z" fill="white"/>
<path d="M83.9748 50.3848V6.01665C83.9748 3.74656 84.7315 1.66104 86.0603 0H18.4745C14.8202 0 11.8303 2.98987 11.8303 6.66261V77.3675C11.8303 81.0402 14.8202 84.0301 18.4745 84.0301H55.8109V56.3646C55.8109 53.061 58.5055 50.3848 61.7907 50.3848H83.9748ZM49.8127 7.95453H72.7535C73.824 7.95453 74.6545 8.8035 74.6545 9.8555C74.6545 10.9259 73.824 11.7565 72.7535 11.7565H49.8127C48.7607 11.7565 47.9118 10.9259 47.9118 9.8555C47.9118 8.82196 48.7792 7.95453 49.8127 7.95453ZM49.8127 21.8519H72.7535C73.824 21.8519 74.6545 22.7009 74.6545 23.7528C74.6545 24.8048 73.824 25.6538 72.7535 25.6538H49.8127C48.7607 25.6538 47.9118 24.8048 47.9118 23.7528C47.9118 22.7009 48.7792 21.8519 49.8127 21.8519ZM22.7932 10.1323C22.7932 7.86225 24.6388 6.01665 26.9089 6.01665H35.2325C37.521 6.01665 39.3666 7.86225 39.3666 10.1323V54.2975C39.3666 54.5559 39.3113 54.8512 39.2005 55.0911L32.8148 68.8777C32.4826 69.5606 31.8181 69.9851 31.0799 69.9851C30.3417 69.9851 29.6588 69.5606 29.345 68.8777L22.9593 55.0911C22.8496 54.8409 22.7931 54.5707 22.7932 54.2975V10.1323ZM44.7004 75.6695H17.4594C16.4074 75.6695 15.5584 74.8206 15.5584 73.7686C15.5584 72.7166 16.4074 71.8676 17.4594 71.8676H44.7004C45.7524 71.8676 46.6014 72.7166 46.6014 73.7686C46.6014 74.8206 45.734 75.6695 44.7004 75.6695ZM49.8127 39.5327C48.7607 39.5327 47.9118 38.6837 47.9118 37.6317C47.9118 36.5798 48.7607 35.7308 49.8127 35.7308H72.7535C73.824 35.7308 74.6545 36.5798 74.6545 37.6317C74.6545 38.6837 73.824 39.5327 72.7535 39.5327H49.8127Z" fill="white"/>
<path d="M26 18H29.7097V53.5647H26V18ZM32.3858 18H36.0954V53.5647H32.3858V18ZM31.0569 65.5242L35.3387 56.2408H26.7382L31.0569 65.5242Z" fill="white"/>
</g>
<defs>
<clipPath id="clip0_311_1318">
<rect width="118.118" height="118.118" fill="white"/>
</clipPath>
</defs>
</svg>
