<svg width="25" height="26" viewBox="0 0 25 26" fill="none" xmlns="http://www.w3.org/2000/svg">
<path d="M12.5002 2.58325C6.75641 2.58325 2.0835 7.25617 2.0835 12.9999C2.0835 18.7437 6.75641 23.4166 12.5002 23.4166C18.2439 23.4166 22.9168 18.7437 22.9168 12.9999C22.9168 7.25617 18.2439 2.58325 12.5002 2.58325ZM13.5418 19.2499H11.4585V17.1666H13.5418V19.2499ZM14.5585 14.1614C14.3543 14.326 14.1575 14.4833 14.0012 14.6395C13.5762 15.0635 13.5429 15.4489 13.5418 15.4655V15.6041H11.4585V15.4301C11.4585 15.3072 11.4887 14.2041 12.5272 13.1655C12.7304 12.9624 12.9825 12.7562 13.247 12.5416C14.0116 11.9218 14.5137 11.4697 14.5137 10.8468C14.5016 10.3206 14.284 9.81997 13.9075 9.45213C13.531 9.08428 13.0255 8.8784 12.4991 8.87854C11.9728 8.87867 11.4674 9.08481 11.091 9.45285C10.7147 9.8209 10.4974 10.3216 10.4856 10.8478H8.40225C8.40225 8.58846 10.2408 6.74992 12.5002 6.74992C14.7595 6.74992 16.5981 8.58846 16.5981 10.8478C16.5981 12.5114 15.37 13.5041 14.5585 14.1614Z" fill="#47F09F"/>
</svg>
