<svg width="503" height="577" viewBox="0 0 503 577" fill="none" xmlns="http://www.w3.org/2000/svg">
<path d="M423 519H58V144.5C58 64.8223 122.822 0 202.5 0H278.5C358.178 0 423 64.8223 423 144.5V519Z" fill="#CAE1FE"/>
<path d="M347 519H58.0005V144.5C57.9207 113.969 67.5885 84.2103 85.5962 59.5557C86.26 58.6509 86.9221 57.7578 87.605 56.8745C96.3152 45.4506 106.681 35.3897 118.359 27.0239C119.019 26.5439 119.681 26.0723 120.353 25.6006C130.125 18.838 140.696 13.3097 151.825 9.1416C152.486 8.89111 153.159 8.64013 153.832 8.3994C163.897 4.80748 174.331 2.34702 184.94 1.06348C185.598 0.973628 186.273 0.903319 186.949 0.833009C197.288 -0.272461 207.715 -0.272461 218.054 0.833009C218.728 0.903319 219.403 0.973619 220.068 1.06444C230.675 2.34807 241.106 4.80822 251.169 8.39945C251.842 8.64018 252.515 8.89114 253.177 9.14212C264.169 13.2577 274.616 18.7035 284.284 25.3579C284.956 25.8194 285.628 26.2911 286.29 26.7627C292.836 31.4355 298.985 36.6412 304.674 42.3267C309.236 46.8871 313.487 51.7483 317.398 56.8775C318.079 57.7579 318.741 58.6509 319.404 59.5543C337.412 84.2091 347.08 113.969 347 144.5V519Z" fill="#3B8CF7"/>
<path d="M323.5 351.5C332.337 351.5 339.5 344.337 339.5 335.5C339.5 326.663 332.337 319.5 323.5 319.5C314.663 319.5 307.5 326.663 307.5 335.5C307.5 344.337 314.663 351.5 323.5 351.5Z" fill="#FFD233"/>
<path d="M393.101 507.783H380.841L375.008 460.495L393.103 460.496L393.101 507.783Z" fill="#FFE3CA"/>
<path d="M372.082 504.28H395.726V519.167H357.195C357.195 517.212 357.58 515.276 358.329 513.47C359.077 511.664 360.173 510.022 361.556 508.64C362.938 507.258 364.579 506.161 366.385 505.413C368.191 504.665 370.127 504.28 372.082 504.28Z" fill="#333333"/>
<path d="M454.101 507.783H441.841L436.008 460.495L454.103 460.496L454.101 507.783Z" fill="#FFE3CA"/>
<path d="M433.082 504.28H456.726V519.167H418.195C418.195 517.212 418.58 515.276 419.329 513.47C420.077 511.664 421.173 510.022 422.556 508.64C423.938 507.258 425.579 506.161 427.385 505.413C429.191 504.665 431.127 504.28 433.082 504.28Z" fill="#333333"/>
<path d="M331.596 338.67C330.714 337.37 330.128 335.893 329.879 334.343C329.629 332.792 329.723 331.206 330.153 329.695C330.583 328.185 331.339 326.787 332.367 325.6C333.396 324.413 334.673 323.467 336.107 322.827L377.783 207.96L398.29 219.151L350.705 328.922C351.62 331.403 351.594 334.133 350.631 336.595C349.668 339.058 347.836 341.082 345.48 342.283C343.125 343.485 340.41 343.781 337.852 343.115C335.293 342.449 333.067 340.867 331.596 338.67Z" fill="#FFE3CA"/>
<path d="M447.835 360.253C446.473 359.472 445.298 358.402 444.394 357.118C443.49 355.833 442.878 354.367 442.603 352.82C442.327 351.274 442.393 349.687 442.797 348.169C443.202 346.651 443.934 345.241 444.942 344.037L432.031 222.527L455.369 223.594L460.735 343.114C462.645 344.942 463.819 347.407 464.033 350.043C464.247 352.678 463.488 355.301 461.898 357.413C460.308 359.526 457.998 360.982 455.406 361.505C452.814 362.029 450.12 361.583 447.835 360.253Z" fill="#FFE3CA"/>
<path d="M410.604 186.684C424.169 186.684 435.165 175.687 435.165 162.123C435.165 148.558 424.169 137.562 410.604 137.562C397.039 137.562 386.043 148.558 386.043 162.123C386.043 175.687 397.039 186.684 410.604 186.684Z" fill="#FFE3CA"/>
<path d="M447.68 332.618H373.633L373.722 332.042C373.855 331.181 386.919 245.603 377.284 217.606C376.317 214.855 376.402 211.843 377.522 209.151C378.643 206.459 380.72 204.276 383.353 203.023H383.353C397.125 196.537 423.561 188.552 445.873 207.932C449.157 210.831 451.721 214.454 453.362 218.514C455.004 222.575 455.679 226.962 455.333 231.328L447.68 332.618Z" fill="#FFD233"/>
<path d="M387.856 258.25L354.52 251.487L370.146 214.457C371.081 210.871 373.4 207.802 376.595 205.923C379.79 204.044 383.6 203.51 387.189 204.436C390.778 205.363 393.853 207.675 395.739 210.865C397.625 214.056 398.169 217.864 397.251 221.455L387.856 258.25Z" fill="#FFD233"/>
<path d="M430.552 270.808L428.548 224.867C427.028 216.231 431.972 208.067 439.575 206.732C447.181 205.403 454.607 211.392 456.134 220.092L463.667 263.02L430.552 270.808Z" fill="#FFD233"/>
<path d="M445.217 327.119C457.131 372.495 458.431 430.188 455.217 493.119L439.217 491.119L410.217 371.119L394.217 493.119L376.217 492.119C370.839 426.089 365.604 369.403 374.217 332.119L445.217 327.119Z" fill="#3B8CF7"/>
<path d="M426.789 181.104C422.207 185.985 413.697 183.365 413.1 176.697C413.053 176.179 413.057 175.658 413.11 175.141C413.419 172.188 415.125 169.506 414.716 166.388C414.624 165.611 414.334 164.872 413.876 164.239C410.225 159.349 401.654 166.425 398.208 161.999C396.095 159.285 398.579 155.012 396.957 151.979C394.817 147.975 388.478 149.95 384.503 147.758C380.081 145.318 380.345 138.532 383.256 134.405C386.807 129.371 393.032 126.685 399.18 126.298C405.327 125.911 411.433 127.573 417.172 129.81C423.693 132.351 430.16 135.863 434.173 141.597C439.053 148.57 439.523 157.945 437.082 166.099C435.597 171.059 430.53 177.118 426.789 181.104Z" fill="#333333"/>
<path d="M267.5 410.5H137.5C135.788 410.509 134.142 409.839 132.924 408.636C131.705 407.434 131.013 405.797 131 404.085V113.915C131.013 112.203 131.705 110.566 132.924 109.364C134.142 108.161 135.788 107.491 137.5 107.5H267.5C269.212 107.491 270.858 108.161 272.076 109.364C273.295 110.566 273.987 112.203 274 113.915V404.085C273.987 405.797 273.295 407.434 272.076 408.636C270.858 409.839 269.212 410.509 267.5 410.5Z" fill="white"/>
<path d="M274 201.39H131V203.39H274V201.39Z" fill="#CCCCCC"/>
<path d="M274.5 315.5H131.5V317.5H274.5V315.5Z" fill="#CCCCCC"/>
<path d="M178 107.5H176V411.5H178V107.5Z" fill="#CCCCCC"/>
<path d="M228 107.5H226V411.5H228V107.5Z" fill="#CCCCCC"/>
<path d="M45.8891 561.54H44.0531L45.7811 557.454H46.9511L45.8891 561.54ZM48.8051 561.54H46.9691L48.6971 557.454H49.8671L48.8051 561.54ZM67.613 557.454L63.977 570H62.141L59.225 559.902L56.201 570L54.383 570.018L50.873 557.454H52.619L55.355 568.092L58.379 557.454H60.215L63.095 568.056L65.849 557.454H67.613ZM78.4055 564.69C78.4055 565.002 78.3875 565.332 78.3515 565.68H70.4675C70.5275 566.652 70.8575 567.414 71.4575 567.966C72.0695 568.506 72.8075 568.776 73.6715 568.776C74.3795 568.776 74.9675 568.614 75.4355 568.29C75.9155 567.954 76.2515 567.51 76.4435 566.958H78.2075C77.9435 567.906 77.4155 568.68 76.6235 569.28C75.8315 569.868 74.8475 570.162 73.6715 570.162C72.7355 570.162 71.8955 569.952 71.1515 569.532C70.4195 569.112 69.8435 568.518 69.4235 567.75C69.0035 566.97 68.7935 566.07 68.7935 565.05C68.7935 564.03 68.9975 563.136 69.4055 562.368C69.8135 561.6 70.3835 561.012 71.1155 560.604C71.8595 560.184 72.7115 559.974 73.6715 559.974C74.6075 559.974 75.4355 560.178 76.1555 560.586C76.8755 560.994 77.4275 561.558 77.8115 562.278C78.2075 562.986 78.4055 563.79 78.4055 564.69ZM76.7135 564.348C76.7135 563.724 76.5755 563.19 76.2995 562.746C76.0235 562.29 75.6455 561.948 75.1655 561.72C74.6975 561.48 74.1755 561.36 73.5995 561.36C72.7715 561.36 72.0635 561.624 71.4755 562.152C70.8995 562.68 70.5695 563.412 70.4855 564.348H76.7135ZM79.9556 565.05C79.9556 564.03 80.1596 563.142 80.5676 562.386C80.9756 561.618 81.5396 561.024 82.2596 560.604C82.9916 560.184 83.8256 559.974 84.7616 559.974C85.9736 559.974 86.9696 560.268 87.7496 560.856C88.5416 561.444 89.0636 562.26 89.3156 563.304H87.5516C87.3836 562.704 87.0536 562.23 86.5616 561.882C86.0816 561.534 85.4816 561.36 84.7616 561.36C83.8256 561.36 83.0696 561.684 82.4936 562.332C81.9176 562.968 81.6296 563.874 81.6296 565.05C81.6296 566.238 81.9176 567.156 82.4936 567.804C83.0696 568.452 83.8256 568.776 84.7616 568.776C85.4816 568.776 86.0816 568.608 86.5616 568.272C87.0416 567.936 87.3716 567.456 87.5516 566.832H89.3156C89.0516 567.84 88.5236 568.65 87.7316 569.262C86.9396 569.862 85.9496 570.162 84.7616 570.162C83.8256 570.162 82.9916 569.952 82.2596 569.532C81.5396 569.112 80.9756 568.518 80.5676 567.75C80.1596 566.982 79.9556 566.082 79.9556 565.05ZM95.8032 570.162C94.8792 570.162 94.0392 569.952 93.2832 569.532C92.5392 569.112 91.9512 568.518 91.5192 567.75C91.0992 566.97 90.8892 566.07 90.8892 565.05C90.8892 564.042 91.1052 563.154 91.5372 562.386C91.9812 561.606 92.5812 561.012 93.3372 560.604C94.0932 560.184 94.9392 559.974 95.8752 559.974C96.8112 559.974 97.6572 560.184 98.4132 560.604C99.1692 561.012 99.7632 561.6 100.195 562.368C100.639 563.136 100.861 564.03 100.861 565.05C100.861 566.07 100.633 566.97 100.177 567.75C99.7332 568.518 99.1272 569.112 98.3592 569.532C97.5912 569.952 96.7392 570.162 95.8032 570.162ZM95.8032 568.722C96.3912 568.722 96.9432 568.584 97.4592 568.308C97.9752 568.032 98.3892 567.618 98.7012 567.066C99.0252 566.514 99.1872 565.842 99.1872 565.05C99.1872 564.258 99.0312 563.586 98.7192 563.034C98.4072 562.482 97.9992 562.074 97.4952 561.81C96.9912 561.534 96.4452 561.396 95.8572 561.396C95.2572 561.396 94.7052 561.534 94.2012 561.81C93.7092 562.074 93.3132 562.482 93.0132 563.034C92.7132 563.586 92.5632 564.258 92.5632 565.05C92.5632 565.854 92.7072 566.532 92.9952 567.084C93.2952 567.636 93.6912 568.05 94.1832 568.326C94.6752 568.59 95.2152 568.722 95.8032 568.722ZM104.653 556.68V570H103.015V556.68H104.653ZM119.307 559.956C120.075 559.956 120.759 560.118 121.359 560.442C121.959 560.754 122.433 561.228 122.781 561.864C123.129 562.5 123.303 563.274 123.303 564.186V570H121.683V564.42C121.683 563.436 121.437 562.686 120.945 562.17C120.465 561.642 119.811 561.378 118.983 561.378C118.131 561.378 117.453 561.654 116.949 562.206C116.445 562.746 116.193 563.532 116.193 564.564V570H114.573V564.42C114.573 563.436 114.327 562.686 113.835 562.17C113.355 561.642 112.701 561.378 111.873 561.378C111.021 561.378 110.343 561.654 109.839 562.206C109.335 562.746 109.083 563.532 109.083 564.564V570H107.445V560.136H109.083V561.558C109.407 561.042 109.839 560.646 110.379 560.37C110.931 560.094 111.537 559.956 112.197 559.956C113.025 559.956 113.757 560.142 114.393 560.514C115.029 560.886 115.503 561.432 115.815 562.152C116.091 561.456 116.547 560.916 117.183 560.532C117.819 560.148 118.527 559.956 119.307 559.956ZM134.99 564.69C134.99 565.002 134.972 565.332 134.936 565.68H127.052C127.112 566.652 127.442 567.414 128.042 567.966C128.654 568.506 129.392 568.776 130.256 568.776C130.964 568.776 131.552 568.614 132.02 568.29C132.5 567.954 132.836 567.51 133.028 566.958H134.792C134.528 567.906 134 568.68 133.208 569.28C132.416 569.868 131.432 570.162 130.256 570.162C129.32 570.162 128.48 569.952 127.736 569.532C127.004 569.112 126.428 568.518 126.008 567.75C125.588 566.97 125.378 566.07 125.378 565.05C125.378 564.03 125.582 563.136 125.99 562.368C126.398 561.6 126.968 561.012 127.7 560.604C128.444 560.184 129.296 559.974 130.256 559.974C131.192 559.974 132.02 560.178 132.74 560.586C133.46 560.994 134.012 561.558 134.396 562.278C134.792 562.986 134.99 563.79 134.99 564.69ZM133.298 564.348C133.298 563.724 133.16 563.19 132.884 562.746C132.608 562.29 132.23 561.948 131.75 561.72C131.282 561.48 130.76 561.36 130.184 561.36C129.356 561.36 128.648 561.624 128.06 562.152C127.484 562.68 127.154 563.412 127.07 564.348H133.298ZM143.948 561.486V567.3C143.948 567.78 144.05 568.122 144.254 568.326C144.458 568.518 144.812 568.614 145.316 568.614H146.522V570H145.046C144.134 570 143.45 569.79 142.994 569.37C142.538 568.95 142.31 568.26 142.31 567.3V561.486H141.032V560.136H142.31V557.652H143.948V560.136H146.522V561.486H143.948ZM152.809 570.162C151.885 570.162 151.045 569.952 150.289 569.532C149.545 569.112 148.957 568.518 148.525 567.75C148.105 566.97 147.895 566.07 147.895 565.05C147.895 564.042 148.111 563.154 148.543 562.386C148.987 561.606 149.587 561.012 150.343 560.604C151.099 560.184 151.945 559.974 152.881 559.974C153.817 559.974 154.663 560.184 155.419 560.604C156.175 561.012 156.769 561.6 157.201 562.368C157.645 563.136 157.867 564.03 157.867 565.05C157.867 566.07 157.639 566.97 157.183 567.75C156.739 568.518 156.133 569.112 155.365 569.532C154.597 569.952 153.745 570.162 152.809 570.162ZM152.809 568.722C153.397 568.722 153.949 568.584 154.465 568.308C154.981 568.032 155.395 567.618 155.707 567.066C156.031 566.514 156.193 565.842 156.193 565.05C156.193 564.258 156.037 563.586 155.725 563.034C155.413 562.482 155.005 562.074 154.501 561.81C153.997 561.534 153.451 561.396 152.863 561.396C152.263 561.396 151.711 561.534 151.207 561.81C150.715 562.074 150.319 562.482 150.019 563.034C149.719 563.586 149.569 564.258 149.569 565.05C149.569 565.854 149.713 566.532 150.001 567.084C150.301 567.636 150.697 568.05 151.189 568.326C151.681 568.59 152.221 568.722 152.809 568.722ZM168.798 570.126C167.97 570.126 167.226 569.982 166.566 569.694C165.918 569.394 165.408 568.986 165.036 568.47C164.664 567.942 164.472 567.336 164.46 566.652H166.206C166.266 567.24 166.506 567.738 166.926 568.146C167.358 568.542 167.982 568.74 168.798 568.74C169.578 568.74 170.19 568.548 170.634 568.164C171.09 567.768 171.318 567.264 171.318 566.652C171.318 566.172 171.186 565.782 170.922 565.482C170.658 565.182 170.328 564.954 169.932 564.798C169.536 564.642 169.002 564.474 168.33 564.294C167.502 564.078 166.836 563.862 166.332 563.646C165.84 563.43 165.414 563.094 165.054 562.638C164.706 562.17 164.532 561.546 164.532 560.766C164.532 560.082 164.706 559.476 165.054 558.948C165.402 558.42 165.888 558.012 166.512 557.724C167.148 557.436 167.874 557.292 168.69 557.292C169.866 557.292 170.826 557.586 171.57 558.174C172.326 558.762 172.752 559.542 172.848 560.514H171.048C170.988 560.034 170.736 559.614 170.292 559.254C169.848 558.882 169.26 558.696 168.528 558.696C167.844 558.696 167.286 558.876 166.854 559.236C166.422 559.584 166.206 560.076 166.206 560.712C166.206 561.168 166.332 561.54 166.584 561.828C166.848 562.116 167.166 562.338 167.538 562.494C167.922 562.638 168.456 562.806 169.14 562.998C169.968 563.226 170.634 563.454 171.138 563.682C171.642 563.898 172.074 564.24 172.434 564.708C172.794 565.164 172.974 565.788 172.974 566.58C172.974 567.192 172.812 567.768 172.488 568.308C172.164 568.848 171.684 569.286 171.048 569.622C170.412 569.958 169.662 570.126 168.798 570.126ZM184.132 560.136V570H182.494V568.542C182.182 569.046 181.744 569.442 181.18 569.73C180.628 570.006 180.016 570.144 179.344 570.144C178.576 570.144 177.886 569.988 177.274 569.676C176.662 569.352 176.176 568.872 175.816 568.236C175.468 567.6 175.294 566.826 175.294 565.914V560.136H176.914V565.698C176.914 566.67 177.16 567.42 177.652 567.948C178.144 568.464 178.816 568.722 179.668 568.722C180.544 568.722 181.234 568.452 181.738 567.912C182.242 567.372 182.494 566.586 182.494 565.554V560.136H184.132ZM191.085 563.718C191.085 562.494 191.361 561.396 191.913 560.424C192.465 559.44 193.215 558.672 194.163 558.12C195.123 557.568 196.185 557.292 197.349 557.292C198.717 557.292 199.911 557.622 200.931 558.282C201.951 558.942 202.695 559.878 203.163 561.09H201.201C200.853 560.334 200.349 559.752 199.689 559.344C199.041 558.936 198.261 558.732 197.349 558.732C196.473 558.732 195.687 558.936 194.991 559.344C194.295 559.752 193.749 560.334 193.353 561.09C192.957 561.834 192.759 562.71 192.759 563.718C192.759 564.714 192.957 565.59 193.353 566.346C193.749 567.09 194.295 567.666 194.991 568.074C195.687 568.482 196.473 568.686 197.349 568.686C198.261 568.686 199.041 568.488 199.689 568.092C200.349 567.684 200.853 567.102 201.201 566.346H203.163C202.695 567.546 201.951 568.476 200.931 569.136C199.911 569.784 198.717 570.108 197.349 570.108C196.185 570.108 195.123 569.838 194.163 569.298C193.215 568.746 192.465 567.984 191.913 567.012C191.361 566.04 191.085 564.942 191.085 563.718ZM209.903 570.162C208.979 570.162 208.139 569.952 207.383 569.532C206.639 569.112 206.051 568.518 205.619 567.75C205.199 566.97 204.989 566.07 204.989 565.05C204.989 564.042 205.205 563.154 205.637 562.386C206.081 561.606 206.681 561.012 207.437 560.604C208.193 560.184 209.039 559.974 209.975 559.974C210.911 559.974 211.757 560.184 212.513 560.604C213.269 561.012 213.863 561.6 214.295 562.368C214.739 563.136 214.961 564.03 214.961 565.05C214.961 566.07 214.733 566.97 214.277 567.75C213.833 568.518 213.227 569.112 212.459 569.532C211.691 569.952 210.839 570.162 209.903 570.162ZM209.903 568.722C210.491 568.722 211.043 568.584 211.559 568.308C212.075 568.032 212.489 567.618 212.801 567.066C213.125 566.514 213.287 565.842 213.287 565.05C213.287 564.258 213.131 563.586 212.819 563.034C212.507 562.482 212.099 562.074 211.595 561.81C211.091 561.534 210.545 561.396 209.957 561.396C209.357 561.396 208.805 561.534 208.301 561.81C207.809 562.074 207.413 562.482 207.113 563.034C206.813 563.586 206.663 564.258 206.663 565.05C206.663 565.854 206.807 566.532 207.095 567.084C207.395 567.636 207.791 568.05 208.283 568.326C208.775 568.59 209.315 568.722 209.903 568.722ZM221.921 559.956C223.121 559.956 224.093 560.322 224.837 561.054C225.581 561.774 225.953 562.818 225.953 564.186V570H224.333V564.42C224.333 563.436 224.087 562.686 223.595 562.17C223.103 561.642 222.431 561.378 221.579 561.378C220.715 561.378 220.025 561.648 219.509 562.188C219.005 562.728 218.753 563.514 218.753 564.546V570H217.115V560.136H218.753V561.54C219.077 561.036 219.515 560.646 220.067 560.37C220.631 560.094 221.249 559.956 221.921 559.956ZM233.434 559.956C234.634 559.956 235.606 560.322 236.35 561.054C237.094 561.774 237.466 562.818 237.466 564.186V570H235.846V564.42C235.846 563.436 235.6 562.686 235.108 562.17C234.616 561.642 233.944 561.378 233.092 561.378C232.228 561.378 231.538 561.648 231.022 562.188C230.518 562.728 230.266 563.514 230.266 564.546V570H228.628V560.136H230.266V561.54C230.59 561.036 231.028 560.646 231.58 560.37C232.144 560.094 232.762 559.956 233.434 559.956ZM249.142 564.69C249.142 565.002 249.124 565.332 249.088 565.68H241.204C241.264 566.652 241.594 567.414 242.194 567.966C242.806 568.506 243.544 568.776 244.408 568.776C245.116 568.776 245.704 568.614 246.172 568.29C246.652 567.954 246.988 567.51 247.18 566.958H248.944C248.68 567.906 248.152 568.68 247.36 569.28C246.568 569.868 245.584 570.162 244.408 570.162C243.472 570.162 242.632 569.952 241.888 569.532C241.156 569.112 240.58 568.518 240.16 567.75C239.74 566.97 239.53 566.07 239.53 565.05C239.53 564.03 239.734 563.136 240.142 562.368C240.55 561.6 241.12 561.012 241.852 560.604C242.596 560.184 243.448 559.974 244.408 559.974C245.344 559.974 246.172 560.178 246.892 560.586C247.612 560.994 248.164 561.558 248.548 562.278C248.944 562.986 249.142 563.79 249.142 564.69ZM247.45 564.348C247.45 563.724 247.312 563.19 247.036 562.746C246.76 562.29 246.382 561.948 245.902 561.72C245.434 561.48 244.912 561.36 244.336 561.36C243.508 561.36 242.8 561.624 242.212 562.152C241.636 562.68 241.306 563.412 241.222 564.348H247.45ZM250.692 565.05C250.692 564.03 250.896 563.142 251.304 562.386C251.712 561.618 252.276 561.024 252.996 560.604C253.728 560.184 254.562 559.974 255.498 559.974C256.71 559.974 257.706 560.268 258.486 560.856C259.278 561.444 259.8 562.26 260.052 563.304H258.288C258.12 562.704 257.79 562.23 257.298 561.882C256.818 561.534 256.218 561.36 255.498 561.36C254.562 561.36 253.806 561.684 253.23 562.332C252.654 562.968 252.366 563.874 252.366 565.05C252.366 566.238 252.654 567.156 253.23 567.804C253.806 568.452 254.562 568.776 255.498 568.776C256.218 568.776 256.818 568.608 257.298 568.272C257.778 567.936 258.108 567.456 258.288 566.832H260.052C259.788 567.84 259.26 568.65 258.468 569.262C257.676 569.862 256.686 570.162 255.498 570.162C254.562 570.162 253.728 569.952 252.996 569.532C252.276 569.112 251.712 568.518 251.304 567.75C250.896 566.982 250.692 566.082 250.692 565.05ZM264.236 561.486V567.3C264.236 567.78 264.338 568.122 264.542 568.326C264.746 568.518 265.1 568.614 265.604 568.614H266.81V570H265.334C264.422 570 263.738 569.79 263.282 569.37C262.826 568.95 262.598 568.26 262.598 567.3V561.486H261.32V560.136H262.598V557.652H264.236V560.136H266.81V561.486H264.236ZM272.981 565.032C272.981 564.024 273.185 563.142 273.593 562.386C274.001 561.618 274.559 561.024 275.267 560.604C275.987 560.184 276.785 559.974 277.661 559.974C278.525 559.974 279.275 560.16 279.911 560.532C280.547 560.904 281.021 561.372 281.333 561.936V560.136H282.989V570H281.333V568.164C281.009 568.74 280.523 569.22 279.875 569.604C279.239 569.976 278.495 570.162 277.643 570.162C276.767 570.162 275.975 569.946 275.267 569.514C274.559 569.082 274.001 568.476 273.593 567.696C273.185 566.916 272.981 566.028 272.981 565.032ZM281.333 565.05C281.333 564.306 281.183 563.658 280.883 563.106C280.583 562.554 280.175 562.134 279.659 561.846C279.155 561.546 278.597 561.396 277.985 561.396C277.373 561.396 276.815 561.54 276.311 561.828C275.807 562.116 275.405 562.536 275.105 563.088C274.805 563.64 274.655 564.288 274.655 565.032C274.655 565.788 274.805 566.448 275.105 567.012C275.405 567.564 275.807 567.99 276.311 568.29C276.815 568.578 277.373 568.722 277.985 568.722C278.597 568.722 279.155 568.578 279.659 568.29C280.175 567.99 280.583 567.564 280.883 567.012C281.183 566.448 281.333 565.794 281.333 565.05ZM290.563 559.956C291.763 559.956 292.735 560.322 293.479 561.054C294.223 561.774 294.595 562.818 294.595 564.186V570H292.975V564.42C292.975 563.436 292.729 562.686 292.237 562.17C291.745 561.642 291.073 561.378 290.221 561.378C289.357 561.378 288.667 561.648 288.151 562.188C287.647 562.728 287.395 563.514 287.395 564.546V570H285.757V560.136H287.395V561.54C287.719 561.036 288.157 560.646 288.709 560.37C289.273 560.094 289.891 559.956 290.563 559.956ZM296.659 565.032C296.659 564.024 296.863 563.142 297.271 562.386C297.679 561.618 298.237 561.024 298.945 560.604C299.665 560.184 300.469 559.974 301.357 559.974C302.125 559.974 302.839 560.154 303.499 560.514C304.159 560.862 304.663 561.324 305.011 561.9V556.68H306.667V570H305.011V568.146C304.687 568.734 304.207 569.22 303.571 569.604C302.935 569.976 302.191 570.162 301.339 570.162C300.463 570.162 299.665 569.946 298.945 569.514C298.237 569.082 297.679 568.476 297.271 567.696C296.863 566.916 296.659 566.028 296.659 565.032ZM305.011 565.05C305.011 564.306 304.861 563.658 304.561 563.106C304.261 562.554 303.853 562.134 303.337 561.846C302.833 561.546 302.275 561.396 301.663 561.396C301.051 561.396 300.493 561.54 299.989 561.828C299.485 562.116 299.083 562.536 298.783 563.088C298.483 563.64 298.333 564.288 298.333 565.032C298.333 565.788 298.483 566.448 298.783 567.012C299.083 567.564 299.485 567.99 299.989 568.29C300.493 568.578 301.051 568.722 301.663 568.722C302.275 568.722 302.833 568.578 303.337 568.29C303.853 567.99 304.261 567.564 304.561 567.012C304.861 566.448 305.011 565.794 305.011 565.05ZM315.872 556.68V570H314.234V556.68H315.872ZM327.663 564.69C327.663 565.002 327.645 565.332 327.609 565.68H319.725C319.785 566.652 320.115 567.414 320.715 567.966C321.327 568.506 322.065 568.776 322.929 568.776C323.637 568.776 324.225 568.614 324.693 568.29C325.173 567.954 325.509 567.51 325.701 566.958H327.465C327.201 567.906 326.673 568.68 325.881 569.28C325.089 569.868 324.105 570.162 322.929 570.162C321.993 570.162 321.153 569.952 320.409 569.532C319.677 569.112 319.101 568.518 318.681 567.75C318.261 566.97 318.051 566.07 318.051 565.05C318.051 564.03 318.255 563.136 318.663 562.368C319.071 561.6 319.641 561.012 320.373 560.604C321.117 560.184 321.969 559.974 322.929 559.974C323.865 559.974 324.693 560.178 325.413 560.586C326.133 560.994 326.685 561.558 327.069 562.278C327.465 562.986 327.663 563.79 327.663 564.69ZM325.971 564.348C325.971 563.724 325.833 563.19 325.557 562.746C325.281 562.29 324.903 561.948 324.423 561.72C323.955 561.48 323.433 561.36 322.857 561.36C322.029 561.36 321.321 561.624 320.733 562.152C320.157 562.68 319.827 563.412 319.743 564.348H325.971ZM331.823 561.486V567.3C331.823 567.78 331.925 568.122 332.129 568.326C332.333 568.518 332.687 568.614 333.191 568.614H334.397V570H332.921C332.009 570 331.325 569.79 330.869 569.37C330.413 568.95 330.185 568.26 330.185 567.3V561.486H328.907V560.136H330.185V557.652H331.823V560.136H334.397V561.486H331.823ZM336.634 557.454H338.452L336.724 561.54H335.572L336.634 557.454ZM343.812 570.162C343.056 570.162 342.378 570.036 341.778 569.784C341.178 569.52 340.704 569.16 340.356 568.704C340.008 568.236 339.816 567.702 339.78 567.102H341.472C341.52 567.594 341.748 567.996 342.156 568.308C342.576 568.62 343.122 568.776 343.794 568.776C344.418 568.776 344.91 568.638 345.27 568.362C345.63 568.086 345.81 567.738 345.81 567.318C345.81 566.886 345.618 566.568 345.234 566.364C344.85 566.148 344.256 565.938 343.452 565.734C342.72 565.542 342.12 565.35 341.652 565.158C341.196 564.954 340.8 564.66 340.464 564.276C340.14 563.88 339.978 563.364 339.978 562.728C339.978 562.224 340.128 561.762 340.428 561.342C340.728 560.922 341.154 560.592 341.706 560.352C342.258 560.1 342.888 559.974 343.596 559.974C344.688 559.974 345.57 560.25 346.242 560.802C346.914 561.354 347.274 562.11 347.322 563.07H345.684C345.648 562.554 345.438 562.14 345.054 561.828C344.682 561.516 344.178 561.36 343.542 561.36C342.954 561.36 342.486 561.486 342.138 561.738C341.79 561.99 341.616 562.32 341.616 562.728C341.616 563.052 341.718 563.322 341.922 563.538C342.138 563.742 342.402 563.91 342.714 564.042C343.038 564.162 343.482 564.3 344.046 564.456C344.754 564.648 345.33 564.84 345.774 565.032C346.218 565.212 346.596 565.488 346.908 565.86C347.232 566.232 347.4 566.718 347.412 567.318C347.412 567.858 347.262 568.344 346.962 568.776C346.662 569.208 346.236 569.55 345.684 569.802C345.144 570.042 344.52 570.162 343.812 570.162ZM358.591 559.974C359.443 559.974 360.187 560.16 360.823 560.532C361.471 560.904 361.951 561.372 362.263 561.936V560.136H363.919V570.216C363.919 571.116 363.727 571.914 363.343 572.61C362.959 573.318 362.407 573.87 361.687 574.266C360.979 574.662 360.151 574.86 359.203 574.86C357.907 574.86 356.827 574.554 355.963 573.942C355.099 573.33 354.589 572.496 354.433 571.44H356.053C356.233 572.04 356.605 572.52 357.169 572.88C357.733 573.252 358.411 573.438 359.203 573.438C360.103 573.438 360.835 573.156 361.399 572.592C361.975 572.028 362.263 571.236 362.263 570.216V568.146C361.939 568.722 361.459 569.202 360.823 569.586C360.187 569.97 359.443 570.162 358.591 570.162C357.715 570.162 356.917 569.946 356.197 569.514C355.489 569.082 354.931 568.476 354.523 567.696C354.115 566.916 353.911 566.028 353.911 565.032C353.911 564.024 354.115 563.142 354.523 562.386C354.931 561.618 355.489 561.024 356.197 560.604C356.917 560.184 357.715 559.974 358.591 559.974ZM362.263 565.05C362.263 564.306 362.113 563.658 361.813 563.106C361.513 562.554 361.105 562.134 360.589 561.846C360.085 561.546 359.527 561.396 358.915 561.396C358.303 561.396 357.745 561.54 357.241 561.828C356.737 562.116 356.335 562.536 356.035 563.088C355.735 563.64 355.585 564.288 355.585 565.032C355.585 565.788 355.735 566.448 356.035 567.012C356.335 567.564 356.737 567.99 357.241 568.29C357.745 568.578 358.303 568.722 358.915 568.722C359.527 568.722 360.085 568.578 360.589 568.29C361.105 567.99 361.513 567.564 361.813 567.012C362.113 566.448 362.263 565.794 362.263 565.05ZM375.687 564.69C375.687 565.002 375.669 565.332 375.633 565.68H367.749C367.809 566.652 368.139 567.414 368.739 567.966C369.351 568.506 370.089 568.776 370.953 568.776C371.661 568.776 372.249 568.614 372.717 568.29C373.197 567.954 373.533 567.51 373.725 566.958H375.489C375.225 567.906 374.697 568.68 373.905 569.28C373.113 569.868 372.129 570.162 370.953 570.162C370.017 570.162 369.177 569.952 368.433 569.532C367.701 569.112 367.125 568.518 366.705 567.75C366.285 566.97 366.075 566.07 366.075 565.05C366.075 564.03 366.279 563.136 366.687 562.368C367.095 561.6 367.665 561.012 368.397 560.604C369.141 560.184 369.993 559.974 370.953 559.974C371.889 559.974 372.717 560.178 373.437 560.586C374.157 560.994 374.709 561.558 375.093 562.278C375.489 562.986 375.687 563.79 375.687 564.69ZM373.995 564.348C373.995 563.724 373.857 563.19 373.581 562.746C373.305 562.29 372.927 561.948 372.447 561.72C371.979 561.48 371.457 561.36 370.881 561.36C370.053 561.36 369.345 561.624 368.757 562.152C368.181 562.68 367.851 563.412 367.767 564.348H373.995ZM379.847 561.486V567.3C379.847 567.78 379.949 568.122 380.153 568.326C380.357 568.518 380.711 568.614 381.215 568.614H382.421V570H380.945C380.033 570 379.349 569.79 378.893 569.37C378.437 568.95 378.209 568.26 378.209 567.3V561.486H376.931V560.136H378.209V557.652H379.847V560.136H382.421V561.486H379.847ZM392.696 570.162C391.94 570.162 391.262 570.036 390.662 569.784C390.062 569.52 389.588 569.16 389.24 568.704C388.892 568.236 388.7 567.702 388.664 567.102H390.356C390.404 567.594 390.632 567.996 391.04 568.308C391.46 568.62 392.006 568.776 392.678 568.776C393.302 568.776 393.794 568.638 394.154 568.362C394.514 568.086 394.694 567.738 394.694 567.318C394.694 566.886 394.502 566.568 394.118 566.364C393.734 566.148 393.14 565.938 392.336 565.734C391.604 565.542 391.004 565.35 390.536 565.158C390.08 564.954 389.684 564.66 389.348 564.276C389.024 563.88 388.862 563.364 388.862 562.728C388.862 562.224 389.012 561.762 389.312 561.342C389.612 560.922 390.038 560.592 390.59 560.352C391.142 560.1 391.772 559.974 392.48 559.974C393.572 559.974 394.454 560.25 395.126 560.802C395.798 561.354 396.158 562.11 396.206 563.07H394.568C394.532 562.554 394.322 562.14 393.938 561.828C393.566 561.516 393.062 561.36 392.426 561.36C391.838 561.36 391.37 561.486 391.022 561.738C390.674 561.99 390.5 562.32 390.5 562.728C390.5 563.052 390.602 563.322 390.806 563.538C391.022 563.742 391.286 563.91 391.598 564.042C391.922 564.162 392.366 564.3 392.93 564.456C393.638 564.648 394.214 564.84 394.658 565.032C395.102 565.212 395.48 565.488 395.792 565.86C396.116 566.232 396.284 566.718 396.296 567.318C396.296 567.858 396.146 568.344 395.846 568.776C395.546 569.208 395.12 569.55 394.568 569.802C394.028 570.042 393.404 570.162 392.696 570.162ZM400.607 561.486V567.3C400.607 567.78 400.709 568.122 400.913 568.326C401.117 568.518 401.471 568.614 401.975 568.614H403.181V570H401.705C400.793 570 400.109 569.79 399.653 569.37C399.197 568.95 398.969 568.26 398.969 567.3V561.486H397.691V560.136H398.969V557.652H400.607V560.136H403.181V561.486H400.607ZM404.553 565.032C404.553 564.024 404.757 563.142 405.165 562.386C405.573 561.618 406.131 561.024 406.839 560.604C407.559 560.184 408.357 559.974 409.233 559.974C410.097 559.974 410.847 560.16 411.483 560.532C412.119 560.904 412.593 561.372 412.905 561.936V560.136H414.561V570H412.905V568.164C412.581 568.74 412.095 569.22 411.447 569.604C410.811 569.976 410.067 570.162 409.215 570.162C408.339 570.162 407.547 569.946 406.839 569.514C406.131 569.082 405.573 568.476 405.165 567.696C404.757 566.916 404.553 566.028 404.553 565.032ZM412.905 565.05C412.905 564.306 412.755 563.658 412.455 563.106C412.155 562.554 411.747 562.134 411.231 561.846C410.727 561.546 410.169 561.396 409.557 561.396C408.945 561.396 408.387 561.54 407.883 561.828C407.379 562.116 406.977 562.536 406.677 563.088C406.377 563.64 406.227 564.288 406.227 565.032C406.227 565.788 406.377 566.448 406.677 567.012C406.977 567.564 407.379 567.99 407.883 568.29C408.387 568.578 408.945 568.722 409.557 568.722C410.169 568.722 410.727 568.578 411.231 568.29C411.747 567.99 412.155 567.564 412.455 567.012C412.755 566.448 412.905 565.794 412.905 565.05ZM418.967 561.738C419.255 561.174 419.663 560.736 420.191 560.424C420.731 560.112 421.385 559.956 422.153 559.956V561.648H421.721C419.885 561.648 418.967 562.644 418.967 564.636V570H417.329V560.136H418.967V561.738ZM426.042 561.486V567.3C426.042 567.78 426.144 568.122 426.348 568.326C426.552 568.518 426.906 568.614 427.41 568.614H428.616V570H427.14C426.228 570 425.544 569.79 425.088 569.37C424.632 568.95 424.404 568.26 424.404 567.3V561.486H423.126V560.136H424.404V557.652H426.042V560.136H428.616V561.486H426.042ZM439.601 564.69C439.601 565.002 439.583 565.332 439.547 565.68H431.663C431.723 566.652 432.053 567.414 432.653 567.966C433.265 568.506 434.003 568.776 434.867 568.776C435.575 568.776 436.163 568.614 436.631 568.29C437.111 567.954 437.447 567.51 437.639 566.958H439.403C439.139 567.906 438.611 568.68 437.819 569.28C437.027 569.868 436.043 570.162 434.867 570.162C433.931 570.162 433.091 569.952 432.347 569.532C431.615 569.112 431.039 568.518 430.619 567.75C430.199 566.97 429.989 566.07 429.989 565.05C429.989 564.03 430.193 563.136 430.601 562.368C431.009 561.6 431.579 561.012 432.311 560.604C433.055 560.184 433.907 559.974 434.867 559.974C435.803 559.974 436.631 560.178 437.351 560.586C438.071 560.994 438.623 561.558 439.007 562.278C439.403 562.986 439.601 563.79 439.601 564.69ZM437.909 564.348C437.909 563.724 437.771 563.19 437.495 562.746C437.219 562.29 436.841 561.948 436.361 561.72C435.893 561.48 435.371 561.36 434.795 561.36C433.967 561.36 433.259 561.624 432.671 562.152C432.095 562.68 431.765 563.412 431.681 564.348H437.909ZM441.151 565.032C441.151 564.024 441.355 563.142 441.763 562.386C442.171 561.618 442.729 561.024 443.437 560.604C444.157 560.184 444.961 559.974 445.849 559.974C446.617 559.974 447.331 560.154 447.991 560.514C448.651 560.862 449.155 561.324 449.503 561.9V556.68H451.159V570H449.503V568.146C449.179 568.734 448.699 569.22 448.063 569.604C447.427 569.976 446.683 570.162 445.831 570.162C444.955 570.162 444.157 569.946 443.437 569.514C442.729 569.082 442.171 568.476 441.763 567.696C441.355 566.916 441.151 566.028 441.151 565.032ZM449.503 565.05C449.503 564.306 449.353 563.658 449.053 563.106C448.753 562.554 448.345 562.134 447.829 561.846C447.325 561.546 446.767 561.396 446.155 561.396C445.543 561.396 444.985 561.54 444.481 561.828C443.977 562.116 443.575 562.536 443.275 563.088C442.975 563.64 442.825 564.288 442.825 565.032C442.825 565.788 442.975 566.448 443.275 567.012C443.575 567.564 443.977 567.99 444.481 568.29C444.985 568.578 445.543 568.722 446.155 568.722C446.767 568.722 447.325 568.578 447.829 568.29C448.345 567.99 448.753 567.564 449.053 567.012C449.353 566.448 449.503 565.794 449.503 565.05ZM454.179 557.454H455.997L454.269 561.54H453.117L454.179 557.454ZM457.095 557.454H458.913L457.185 561.54H456.015L457.095 557.454Z" fill="#737373"/>
</svg>
