<svg width="29" height="25" viewBox="0 0 29 25" fill="none" xmlns="http://www.w3.org/2000/svg">
<path d="M7.9375 12.5C7.9375 12.2099 8.05273 11.9317 8.25785 11.7266C8.46297 11.5215 8.74117 11.4062 9.03125 11.4062H18.875V4.29688C18.875 2.10938 16.5651 0.46875 14.5 0.46875H4.10938C3.09443 0.469836 2.12136 0.873504 1.40368 1.59118C0.686004 2.30886 0.282336 3.28193 0.28125 4.29688V20.7031C0.282336 21.7181 0.686004 22.6911 1.40368 23.4088C2.12136 24.1265 3.09443 24.5302 4.10938 24.5312H15.0469C16.0618 24.5302 17.0349 24.1265 17.7526 23.4088C18.4702 22.6911 18.8739 21.7181 18.875 20.7031V13.5938H9.03125C8.74117 13.5938 8.46297 13.4785 8.25785 13.2734C8.05273 13.0683 7.9375 12.7901 7.9375 12.5ZM28.3981 11.7269L22.9294 6.25811C22.7226 6.06165 22.4473 5.95374 22.162 5.95739C21.8768 5.96104 21.6043 6.07596 21.4027 6.27765C21.201 6.47934 21.086 6.75184 21.0824 7.03705C21.0787 7.32226 21.1866 7.59761 21.3831 7.80439L24.9843 11.4062H18.875V13.5938H24.9843L21.3831 17.1956C21.2773 17.2962 21.1926 17.4169 21.1342 17.5507C21.0757 17.6844 21.0447 17.8286 21.0428 17.9745C21.0409 18.1205 21.0683 18.2654 21.1233 18.4006C21.1783 18.5359 21.2598 18.6587 21.3631 18.7619C21.4663 18.8652 21.5891 18.9467 21.7244 19.0017C21.8596 19.0567 22.0045 19.0841 22.1505 19.0822C22.2964 19.0803 22.4406 19.0493 22.5743 18.9908C22.7081 18.9324 22.8288 18.8477 22.9294 18.7419L28.3981 13.2731C28.6031 13.068 28.7182 12.79 28.7182 12.5C28.7182 12.21 28.6031 11.932 28.3981 11.7269Z" fill="#FF4444"/>
</svg>
