<svg width="23" height="29" viewBox="0 0 23 29" fill="none" xmlns="http://www.w3.org/2000/svg">
<path d="M11.5 29C9.42495 27.2646 7.50158 25.362 5.74999 23.3123C3.12142 20.234 1.44389e-06 15.6497 1.44389e-06 11.2812C-0.00113853 9.05022 0.672763 6.86901 1.93642 5.01366C3.20008 3.15832 4.99669 1.71223 7.09888 0.858406C9.20107 0.00458548 11.5143 -0.218585 13.7459 0.217138C15.9775 0.652861 18.0271 1.72789 19.6354 3.30618C20.7061 4.35136 21.5548 5.59437 22.1323 6.96329C22.7099 8.3322 23.0048 9.79983 22.9999 11.2812C22.9999 15.6497 19.8785 20.234 17.25 23.3123C15.4984 25.362 13.575 27.2646 11.5 29ZM11.5 6.44884C10.1928 6.44884 8.93924 6.95797 8.01495 7.86422C7.09067 8.77047 6.57141 9.9996 6.57141 11.2812C6.57141 12.5629 7.09067 13.792 8.01495 14.6983C8.93924 15.6045 10.1928 16.1136 11.5 16.1136C12.8071 16.1136 14.0607 15.6045 14.985 14.6983C15.9093 13.792 16.4285 12.5629 16.4285 11.2812C16.4285 9.9996 15.9093 8.77047 14.985 7.86422C14.0607 6.95797 12.8071 6.44884 11.5 6.44884Z" fill="#FF79EA"/>
</svg>
