<svg width="25" height="26" viewBox="0 0 25 26" fill="none" xmlns="http://www.w3.org/2000/svg">
<path d="M12.4998 23.4167C13.6457 23.4167 14.5832 22.4792 14.5832 21.3334H10.4165C10.4165 21.8859 10.636 22.4159 11.0267 22.8066C11.4174 23.1973 11.9473 23.4167 12.4998 23.4167ZM18.7498 17.1667V11.9584C18.7498 8.7605 17.0415 6.08341 14.0623 5.37508V4.66675C14.0623 3.80216 13.3644 3.10425 12.4998 3.10425C11.6353 3.10425 10.9373 3.80216 10.9373 4.66675V5.37508C7.94775 6.08341 6.24984 8.75008 6.24984 11.9584V17.1667L4.1665 19.2501V20.2917H20.8332V19.2501L18.7498 17.1667Z" fill="#FF7FEB"/>
</svg>
