<svg width="119" height="119" viewBox="0 0 119 119" fill="none" xmlns="http://www.w3.org/2000/svg">
<g clip-path="url(#clip0_312_1327)">
<path d="M103.978 89.3823H96.1341V81.2063C96.1341 79.4899 94.7314 78.0873 93.015 78.0873H61.8244V70.3542H64.5005C65.4602 70.3542 66.2354 69.5975 66.2354 68.6193V62.4181C68.4686 61.8091 70.6279 60.9417 72.6581 59.7974L77.0137 64.153C77.6965 64.8359 78.8039 64.8359 79.4868 64.153L87.6628 55.9585C88.3456 55.2757 88.3456 54.1868 87.6628 53.5039L83.4364 49.259C84.6545 47.192 85.5957 44.9957 86.2417 42.6887H92.1291C93.0888 42.6887 93.864 41.932 93.864 40.9538V29.3635C93.864 28.4038 93.0888 27.6286 92.1291 27.6286H86.4816C85.8726 25.2293 84.9498 22.9223 83.7317 20.7445L87.6443 16.8319C87.8065 16.67 87.9343 16.477 88.0199 16.2645C88.1056 16.052 88.1473 15.8244 88.1426 15.5953C88.1426 15.1524 87.9765 14.691 87.6443 14.3772L79.4683 6.18275C79.1403 5.85502 78.6955 5.67092 78.2318 5.67092C77.7681 5.67092 77.3233 5.85502 76.9952 6.18275L73.2117 9.98469C71.0155 8.67431 68.6716 7.69615 66.2169 7.03173V1.73486C66.2169 0.756695 65.4418 0 64.4821 0H52.8917C51.932 0 51.1568 0.756695 51.1568 1.73486V7.05019C48.7022 7.7146 46.3583 8.69277 44.162 9.98469L40.3785 6.20121C40.2176 6.03654 40.0252 5.90593 39.8128 5.81715C39.6004 5.72837 39.3722 5.68324 39.142 5.68444C38.6821 5.69067 38.2411 5.86838 37.9054 6.18275L29.711 14.3957C29.3972 14.7094 29.2127 15.1524 29.2127 15.6138C29.2127 16.0752 29.3972 16.5181 29.711 16.8503L33.6421 20.7814C32.424 22.9592 31.5012 25.2478 30.8922 27.6471H25.2446C24.2849 27.6471 23.5098 28.4222 23.5098 29.3819V40.9723C23.5098 41.932 24.2849 42.7071 25.2446 42.7071H31.1321C31.7965 44.9957 32.7378 47.2104 33.9374 49.259L29.6925 53.5039C29.0097 54.1868 29.0097 55.2941 29.6925 55.977L37.887 64.153C38.5699 64.8359 39.6588 64.8359 40.3416 64.153L44.6972 59.8158C46.7274 60.9601 48.8868 61.8275 51.1384 62.4366V68.6378C51.1384 69.616 51.9135 70.3727 52.8732 70.3727H55.5309V78.1057H24.3588C22.6423 78.1057 21.2397 79.5084 21.2397 81.2248V89.4008H13.3774C11.5134 89.4008 10 90.9142 10 92.7967V114.759C10 116.623 11.5134 118.155 13.3774 118.155H35.3585C37.2226 118.155 38.736 116.623 38.736 114.759V92.7967C38.736 90.9142 37.2226 89.4008 35.3585 89.4008H27.4963V84.3438H89.8775V89.4008H82.0337C80.1512 89.4008 78.6378 90.9142 78.6378 92.7967V114.759C78.6378 116.623 80.1512 118.155 82.0337 118.155H103.996C105.879 118.155 107.392 116.623 107.392 114.759V92.7967C107.391 91.8914 107.031 91.0236 106.391 90.3835C105.751 89.7433 104.883 89.3833 103.978 89.3823ZM58.6869 46.0477C52.6887 46.0477 47.8348 41.1753 47.8348 35.1771C47.8348 29.1789 52.7071 24.3065 58.6869 24.3065C64.6666 24.3065 69.5575 29.1789 69.5575 35.1771C69.5575 41.1753 64.6666 46.0477 58.6869 46.0477Z" fill="white"/>
</g>
<defs>
<clipPath id="clip0_312_1327">
<rect width="118.118" height="118.118" fill="white"/>
</clipPath>
</defs>
</svg>
