<svg width="371" height="291" viewBox="0 0 371 291" fill="none" xmlns="http://www.w3.org/2000/svg">
<path d="M340.145 139.838V129.499C340.145 128.523 339.953 127.556 339.578 126.654C339.204 125.752 338.656 124.933 337.965 124.243C337.273 123.552 336.452 123.005 335.549 122.631C334.646 122.258 333.678 122.065 332.7 122.065H312.113C310.139 122.065 308.245 121.282 306.849 119.888C305.452 118.494 304.668 116.603 304.668 114.631V104.292C304.668 100.187 313.694 96.8585 317.806 96.8585H318.635C320.61 96.8585 322.504 96.0753 323.9 94.6812C325.296 93.2871 326.081 91.3963 326.081 89.4247V79.0856C326.081 78.1093 325.888 77.1427 325.514 76.2408C325.14 75.3389 324.591 74.5193 323.9 73.8291C323.208 73.1388 322.388 72.5912 321.484 72.2176C320.581 71.844 319.613 71.6517 318.635 71.6517H67.0881C66.1104 71.6517 65.1423 71.844 64.239 72.2176C63.3357 72.5912 62.5149 73.1388 61.8236 73.8291C61.1322 74.5193 60.5838 75.3389 60.2096 76.2408C59.8355 77.1427 59.6429 78.1093 59.6429 79.0856V89.4247C59.6429 90.4009 59.8355 91.3676 60.2096 92.2695C60.5838 93.1714 61.1322 93.9909 61.8236 94.6812C62.5149 95.3715 63.3357 95.9191 64.239 96.2926C65.1423 96.6662 66.1104 96.8585 67.0881 96.8585C69.0627 96.8585 70.9564 97.6417 72.3527 99.0358C73.7489 100.43 74.5334 102.321 74.5334 104.292V114.631C74.5334 116.603 73.749 118.494 72.3527 119.888C70.9565 121.282 69.0628 122.065 67.0882 122.065H38.2968C37.3191 122.065 36.3509 122.258 35.4476 122.631C34.5443 123.005 33.7236 123.552 33.0322 124.243C32.3409 124.933 31.7925 125.752 31.4183 126.654C31.0441 127.556 30.8516 128.523 30.8516 129.499V139.838C30.8516 141.81 31.636 143.701 33.0322 145.095C34.4285 146.489 36.3222 147.272 38.2968 147.272H49.5941C51.5687 147.272 53.4624 148.055 54.8586 149.449C56.2549 150.843 57.0393 152.734 57.0393 154.706V165.045C57.0393 166.021 56.8467 166.988 56.4726 167.89C56.0984 168.792 55.55 169.611 54.8586 170.302C54.1673 170.992 53.3465 171.539 52.4432 171.913C51.5399 172.287 50.5718 172.479 49.5941 172.479H49.5667C47.5922 172.479 45.6984 173.262 44.3022 174.656C42.9059 176.05 42.1215 177.941 42.1215 179.913V190.252C42.1215 191.228 42.3141 192.195 42.6883 193.097C43.0624 193.999 43.6108 194.818 44.3022 195.508C44.9935 196.199 45.8143 196.746 46.7176 197.12C47.6209 197.493 48.589 197.686 49.5667 197.686H51.2012C53.1758 197.686 55.0695 198.469 56.4658 199.863C57.8621 201.257 58.6465 203.148 58.6465 205.119V215.459C58.6465 217.43 57.8621 219.321 56.4658 220.715C55.0696 222.109 53.1758 222.892 51.2012 222.892H41.4535C40.4757 222.892 39.5076 223.085 38.6043 223.458C37.701 223.832 36.8802 224.379 36.1889 225.07C35.4975 225.76 34.9491 226.58 34.575 227.481C34.2008 228.383 34.0082 229.35 34.0082 230.326V240.665C34.0082 242.637 34.7926 244.528 36.1889 245.922C37.5851 247.316 39.4789 248.099 41.4535 248.099H316.94C318.915 248.099 320.808 247.316 322.205 245.922C323.601 244.528 324.385 242.637 324.385 240.665V230.326C324.385 229.35 324.193 228.383 323.819 227.481C323.444 226.58 322.896 225.76 322.205 225.07C321.513 224.379 320.693 223.832 319.789 223.458C318.886 223.085 317.918 222.892 316.94 222.892H310.485C308.51 222.892 306.616 222.109 305.22 220.715C303.824 219.321 303.039 217.43 303.039 215.459V205.119C303.039 203.148 303.824 201.257 305.22 199.863C306.616 198.469 308.51 197.686 310.485 197.686H325.706C327.68 197.686 329.574 196.902 330.97 195.508C332.367 194.114 333.151 192.223 333.151 190.252V179.913C333.151 177.941 332.367 176.05 330.97 174.656C329.574 173.262 327.68 172.479 325.706 172.479H321.088C319.114 172.479 317.22 171.696 315.824 170.302C314.428 168.907 313.643 167.017 313.643 165.045V154.706C313.643 152.734 314.428 150.843 315.824 149.449C317.22 148.055 319.114 147.272 321.088 147.272H332.7C334.675 147.272 336.568 146.489 337.965 145.095C339.361 143.701 340.145 141.81 340.145 139.838Z" fill="#E2EFFD"/>
<path d="M126.747 121.723C126.745 125.492 125.245 129.107 122.576 131.774C119.907 134.44 116.287 135.939 112.512 135.943H59.3169C56.6089 135.943 53.9963 134.944 51.9816 133.137C49.9669 131.33 48.6923 128.843 48.4028 126.155C48.1133 123.467 48.8293 120.766 50.4133 118.573C51.9973 116.38 54.3373 114.849 56.9835 114.274C57.1952 111.075 58.6162 108.076 60.9589 105.883C63.3017 103.69 66.3912 102.468 69.6023 102.464C70.9026 102.464 72.1946 102.67 73.4302 103.074C75.3048 99.4543 78.2448 96.4941 81.8547 94.5922C85.4647 92.6903 89.5714 91.9379 93.6225 92.4362C97.6735 92.9345 101.475 94.6596 104.514 97.3795C107.554 100.099 109.687 103.683 110.625 107.65C112.635 107.378 114.68 107.54 116.623 108.123C118.565 108.706 120.36 109.697 121.887 111.03C123.414 112.363 124.638 114.007 125.476 115.851C126.314 117.695 126.748 119.697 126.747 121.723H126.747Z" fill="#FFD233"/>
<path d="M219.245 205.223L208.67 189.525C217.195 181.962 222.568 171.479 223.726 160.151C224.884 148.823 221.742 137.473 214.923 128.346C208.103 119.219 198.102 112.98 186.896 110.861C175.691 108.743 164.097 110.9 154.407 116.905C144.718 122.911 137.638 132.328 134.568 143.295C131.498 154.262 132.661 165.979 137.827 176.131C142.993 186.283 151.786 194.13 162.468 198.12C173.149 202.11 184.942 201.953 195.513 197.68L205.822 212.914C206.327 213.794 207.002 214.566 207.806 215.186C208.611 215.806 209.53 216.261 210.511 216.526C211.492 216.791 212.515 216.861 213.523 216.731C214.531 216.602 215.503 216.275 216.385 215.77C217.266 215.265 218.039 214.592 218.66 213.788C219.281 212.985 219.737 212.067 220.003 211.088C220.268 210.109 220.338 209.087 220.208 208.08C220.078 207.074 219.751 206.103 219.245 205.223Z" fill="#3B8CF7"/>
<path d="M178.516 187.877C196.451 187.877 210.99 173.361 210.99 155.454C210.99 137.547 196.451 123.03 178.516 123.03C160.582 123.03 146.043 137.547 146.043 155.454C146.043 173.361 160.582 187.877 178.516 187.877Z" fill="#FFE794"/>
<path d="M178.516 123.03C176.965 123.032 175.417 123.143 173.883 123.364C181.613 124.476 188.682 128.332 193.795 134.226C198.909 140.12 201.723 147.656 201.723 155.454C201.723 163.251 198.909 170.788 193.795 176.682C188.682 182.575 181.613 186.432 173.883 187.544C178.297 188.179 182.795 187.9 187.097 186.723C191.399 185.546 195.411 183.497 198.885 180.704C202.358 177.911 205.218 174.433 207.287 170.488C209.355 166.542 210.587 162.213 210.906 157.772C211.225 153.33 210.624 148.87 209.141 144.67C207.657 140.47 205.324 136.621 202.285 133.361C199.246 130.102 195.567 127.502 191.477 125.725C187.388 123.947 182.976 123.03 178.516 123.03Z" fill="#FFD233"/>
<path d="M161.123 161.104C163.899 161.104 166.149 158.857 166.149 156.086C166.149 153.314 163.899 151.068 161.123 151.068C158.348 151.068 156.098 153.314 156.098 156.086C156.098 158.857 158.348 161.104 161.123 161.104Z" fill="#FFD233"/>
<path d="M194.768 152.752C196.69 152.752 198.247 151.197 198.247 149.278C198.247 147.359 196.69 145.804 194.768 145.804C192.847 145.804 191.289 147.359 191.289 149.278C191.289 151.197 192.847 152.752 194.768 152.752Z" fill="#FFD233"/>
<path d="M175.339 144.769C176.62 144.769 177.659 143.732 177.659 142.453C177.659 141.174 176.62 140.137 175.339 140.137C174.058 140.137 173.02 141.174 173.02 142.453C173.02 143.732 174.058 144.769 175.339 144.769Z" fill="#FFD233"/>
<path d="M176.199 175.612C177.48 175.612 178.518 174.575 178.518 173.296C178.518 172.017 177.48 170.98 176.199 170.98C174.917 170.98 173.879 172.017 173.879 173.296C173.879 174.575 174.917 175.612 176.199 175.612Z" fill="#FFD233"/>
<path d="M189.603 167.947C191.336 167.947 192.741 166.545 192.741 164.814C192.741 163.084 191.336 161.681 189.603 161.681C187.87 161.681 186.465 163.084 186.465 164.814C186.465 166.545 187.87 167.947 189.603 167.947Z" fill="#FFD233"/>
<path d="M154.314 187.167C155.299 187.167 156.097 186.37 156.097 185.387C156.097 184.404 155.299 183.607 154.314 183.607C153.329 183.607 152.531 184.404 152.531 185.387C152.531 186.37 153.329 187.167 154.314 187.167Z" fill="#71ADFB"/>
<path d="M212.775 138.145C213.76 138.145 214.558 137.348 214.558 136.365C214.558 135.382 213.76 134.585 212.775 134.585C211.79 134.585 210.992 135.382 210.992 136.365C210.992 137.348 211.79 138.145 212.775 138.145Z" fill="#71ADFB"/>
<path d="M211.689 174.511C210.607 176.804 209.28 178.974 207.732 180.983C206.13 182.98 204.333 184.813 202.366 186.454C200.359 188.067 198.199 189.483 195.918 190.681C191.303 193.047 186.236 194.403 181.055 194.659C179.764 194.671 178.475 194.719 177.188 194.641C175.903 194.569 174.623 194.426 173.353 194.213C168.297 193.402 163.494 191.451 159.307 188.506C163.814 190.607 168.641 191.941 173.588 192.455C178.461 192.929 183.379 192.527 188.11 191.266C190.463 190.627 192.757 189.787 194.967 188.756C197.169 187.69 199.283 186.451 201.289 185.052C203.279 183.599 205.154 181.994 206.895 180.252C208.625 178.452 210.227 176.533 211.689 174.511ZM141.004 163.034C139.218 156.471 139.361 149.533 141.415 143.048C142.432 139.782 143.895 136.671 145.763 133.803C146.698 132.368 147.732 131 148.858 129.708C149.974 128.408 151.177 127.184 152.457 126.043C153.747 124.914 155.106 123.866 156.527 122.905C157.255 122.453 157.957 121.959 158.711 121.55L159.829 120.915L160.978 120.34C161.739 119.946 162.541 119.637 163.322 119.289C164.127 118.996 164.914 118.658 165.735 118.413C167.356 117.872 169.015 117.449 170.698 117.147C174.052 116.556 177.47 116.423 180.86 116.753C184.214 117.094 187.501 117.919 190.618 119.201C187.406 118.379 184.108 117.931 180.792 117.867C177.518 117.818 174.25 118.16 171.057 118.885C167.892 119.629 164.832 120.764 161.948 122.262C160.51 123.006 159.117 123.834 157.777 124.742C156.447 125.665 155.175 126.667 153.967 127.743C149.08 132.052 145.343 137.507 143.091 143.616C140.837 149.826 140.12 156.488 141.004 163.034Z" fill="#71ADFB"/>
<path d="M116.206 188.986V202.152C116.206 213.587 116.9 214.453 129.219 215.666V220.517H88.6175V215.666C101.631 214.453 102.498 213.414 102.498 201.979V188.986H56.6914V183.789C73.1751 160.4 91.0467 135.107 108.398 111.025H116.206V180.67H133.21V188.986L116.206 188.986ZM102.498 129.216C91.5674 145.155 79.4213 162.825 67.4492 180.67H102.498V129.216ZM287.634 188.986V202.152C287.634 213.587 288.328 214.453 300.648 215.666V220.517H260.046V215.666C273.059 214.453 273.926 213.414 273.926 201.979V188.986H228.12V183.789C244.603 160.4 262.475 135.107 279.826 111.025H287.634V180.67H304.639V188.986L287.634 188.986ZM273.926 129.216C262.995 145.155 250.849 162.825 238.878 180.67H273.926V129.216Z" fill="#3B8CF7"/>
<path d="M314.966 81.6725C314.964 86.6379 312.988 91.3994 309.472 94.9113C305.956 98.4231 301.188 100.398 296.215 100.403H226.15C222.583 100.403 219.142 99.0866 216.488 96.7068C213.835 94.327 212.156 91.0517 211.774 87.5107C211.393 83.9696 212.336 80.4128 214.422 77.5242C216.509 74.6355 219.591 72.6189 223.076 71.862C223.355 67.6482 225.227 63.6975 228.313 60.8094C231.398 57.9213 235.468 56.3116 239.697 56.3059C241.41 56.306 243.112 56.5775 244.739 57.1102C247.208 52.3418 251.081 48.4428 255.836 45.9377C260.59 43.4326 266 42.4416 271.336 43.0979C276.671 43.7543 281.678 46.0265 285.682 49.609C289.685 53.1914 292.494 57.9122 293.731 63.1364C296.378 62.7791 299.072 62.9917 301.63 63.7597C304.189 64.5276 306.553 65.8333 308.564 67.5891C310.576 69.3448 312.188 71.5099 313.292 73.939C314.396 76.3681 314.967 79.005 314.966 81.6725ZM314.867 228.125C314.866 231.895 313.366 235.51 310.696 238.176C308.027 240.842 304.407 242.342 300.632 242.345H247.437C244.729 242.345 242.117 241.346 240.102 239.539C238.087 237.732 236.813 235.246 236.523 232.557C236.234 229.869 236.95 227.169 238.534 224.976C240.118 222.782 242.458 221.251 245.104 220.677C245.315 217.478 246.736 214.478 249.079 212.285C251.422 210.093 254.511 208.871 257.723 208.866C259.023 208.866 260.315 209.073 261.55 209.477C263.425 205.857 266.365 202.897 269.975 200.995C273.585 199.093 277.692 198.34 281.743 198.839C285.794 199.337 289.595 201.062 292.635 203.782C295.674 206.502 297.807 210.086 298.745 214.052C300.755 213.781 302.8 213.942 304.743 214.525C306.685 215.108 308.48 216.1 310.007 217.433C311.534 218.766 312.758 220.409 313.596 222.254C314.435 224.098 314.868 226.1 314.867 228.125V228.125Z" fill="#FFD233"/>
<path d="M68.3672 67.8206H86.7551" stroke="#B3D4FF" stroke-width="3" stroke-miterlimit="10" stroke-linecap="round"/>
<path d="M68.3672 73.1121H86.7551" stroke="#B3D4FF" stroke-width="3" stroke-miterlimit="10" stroke-linecap="round"/>
<path d="M68.3672 78.4041H86.7551" stroke="#B3D4FF" stroke-width="3" stroke-miterlimit="10" stroke-linecap="round"/>
<path d="M156.238 224.648H174.626" stroke="#B3D4FF" stroke-width="3" stroke-miterlimit="10" stroke-linecap="round"/>
<path d="M156.238 229.94H174.626" stroke="#B3D4FF" stroke-width="3" stroke-miterlimit="10" stroke-linecap="round"/>
<path d="M156.238 235.231H174.626" stroke="#B3D4FF" stroke-width="3" stroke-miterlimit="10" stroke-linecap="round"/>
<path d="M305.672 154.583H324.059" stroke="#B3D4FF" stroke-width="3" stroke-miterlimit="10" stroke-linecap="round"/>
<path d="M305.672 159.875H324.059" stroke="#B3D4FF" stroke-width="3" stroke-miterlimit="10" stroke-linecap="round"/>
<path d="M305.672 165.167H324.059" stroke="#B3D4FF" stroke-width="3" stroke-miterlimit="10" stroke-linecap="round"/>
<path d="M46.5584 236.469C51.7229 236.469 55.9097 232.289 55.9097 227.132C55.9097 221.976 51.7229 217.795 46.5584 217.795C41.3938 217.795 37.207 221.976 37.207 227.132C37.207 232.289 41.3938 236.469 46.5584 236.469Z" fill="#B3D4FF"/>
<path d="M58.3279 217.013C61.0181 217.013 63.1988 214.836 63.1988 212.15C63.1988 209.464 61.0181 207.286 58.3279 207.286C55.6378 207.286 53.457 209.464 53.457 212.15C53.457 214.836 55.6378 217.013 58.3279 217.013Z" fill="#B3D4FF"/>
<path d="M82.536 238.11C84.8643 238.11 86.7518 236.225 86.7518 233.9C86.7518 231.576 84.8643 229.691 82.536 229.691C80.2078 229.691 78.3203 231.576 78.3203 233.9C78.3203 236.225 80.2078 238.11 82.536 238.11Z" fill="#B3D4FF"/>
<path d="M72.7472 224.229C74.299 224.229 75.5569 222.972 75.5569 221.423C75.5569 219.874 74.299 218.618 72.7472 218.618C71.1955 218.618 69.9375 219.874 69.9375 221.423C69.9375 222.972 71.1955 224.229 72.7472 224.229Z" fill="#B3D4FF"/>
<path d="M66.1341 242.344C69.8542 242.344 72.8699 239.333 72.8699 235.618C72.8699 231.904 69.8542 228.893 66.1341 228.893C62.4141 228.893 59.3984 231.904 59.3984 235.618C59.3984 239.333 62.4141 242.344 66.1341 242.344Z" fill="#B3D4FF"/>
<path d="M175.984 101.576C181.149 101.576 185.335 97.3952 185.335 92.2385C185.335 87.0818 181.149 82.9015 175.984 82.9015C170.82 82.9015 166.633 87.0818 166.633 92.2385C166.633 97.3952 170.82 101.576 175.984 101.576Z" fill="#B3D4FF"/>
<path d="M157.434 105.785C159.763 105.785 161.65 103.9 161.65 101.575C161.65 99.2508 159.763 97.3662 157.434 97.3662C155.106 97.3662 153.219 99.2508 153.219 101.575C153.219 103.9 155.106 105.785 157.434 105.785Z" fill="#B3D4FF"/>
<path d="M152.267 92.2385C155.987 92.2385 159.003 89.2274 159.003 85.5131C159.003 81.7988 155.987 78.7877 152.267 78.7877C148.547 78.7877 145.531 81.7988 145.531 85.5131C145.531 89.2274 148.547 92.2385 152.267 92.2385Z" fill="#B3D4FF"/>
</svg>
