<svg width="31" height="31" viewBox="0 0 31 31" fill="none" xmlns="http://www.w3.org/2000/svg">
<path d="M20 11H18.4C18.3994 10.3637 18.1463 9.7536 17.6964 9.30365C17.2464 8.8537 16.6363 8.60064 16 8.6V7C17.0605 7.00127 18.0772 7.42311 18.827 8.17298C19.5769 8.92285 19.9987 9.93952 20 11Z" fill="#FFD233"/>
<path d="M23.1923 11.0772H21.5768C21.5751 9.57817 20.9789 8.14104 19.9189 7.08108C18.8589 6.02111 17.4218 5.42487 15.9228 5.42316V3.80772C17.8501 3.80986 19.6979 4.57644 21.0607 5.93926C22.4236 7.30209 23.1901 9.14986 23.1923 11.0772V11.0772ZM16.9995 17.9283L18.8088 16.119C19.051 15.8767 19.3589 15.7109 19.6944 15.642C20.03 15.573 20.3784 15.6041 20.6964 15.7313L22.8999 16.6133C23.2246 16.7432 23.503 16.9675 23.6991 17.2572C23.8952 17.5468 24 17.8886 24 18.2384V22.2455C24.0006 22.4837 23.9525 22.7194 23.8588 22.9384C23.7651 23.1574 23.6277 23.3549 23.455 23.5189C23.2823 23.6829 23.0779 23.8099 22.8544 23.8922C22.6309 23.9745 22.393 24.0103 22.1552 23.9974C6.7099 23.0363 3.59048 9.95446 3.01134 4.94499C2.98329 4.70009 3.00741 4.45202 3.08211 4.21711C3.15681 3.98219 3.2804 3.76576 3.44474 3.58203C3.60909 3.3983 3.81047 3.25145 4.03564 3.15114C4.26081 3.05082 4.50467 2.99932 4.75118 3.00001H8.6872C9.037 3 9.37878 3.10479 9.66845 3.30088C9.95812 3.49697 10.1824 3.77535 10.3123 4.10012L11.1936 6.30357C11.3207 6.62163 11.3518 6.97002 11.2829 7.30555C11.214 7.64109 11.0481 7.94903 10.8059 8.19121L8.99656 10.0005C8.99656 10.0005 9.99975 17.0535 16.9995 17.9283Z" fill="#FFD233"/>
</svg>
