<svg width="137" height="137" viewBox="0 0 137 137" fill="none" xmlns="http://www.w3.org/2000/svg">
<path d="M28.6769 18.8384H23.2061V14.7354C23.2061 13.2309 24.437 12 25.9415 12C27.4459 12 28.6769 13.2309 28.6769 14.7354V18.8384ZM42.3537 14.7354C42.3537 13.2309 41.1228 12 39.6183 12C38.1139 12 36.883 13.2309 36.883 14.7354V18.8384H42.3537V14.7354ZM56.0306 14.7354C56.0306 13.2309 54.7996 12 53.2952 12C51.7907 12 50.5598 13.2309 50.5598 14.7354V18.8384H56.0306V14.7354ZM69.7074 14.7354C69.7074 13.2309 68.4765 12 66.972 12C65.4676 12 64.2367 13.2309 64.2367 14.7354V18.8384H69.7074V14.7354ZM83.3843 14.7354C83.3843 13.2309 82.1534 12 80.6489 12C79.1444 12 77.9135 13.2309 77.9135 14.7354V18.8384H83.3843V14.7354ZM97.0611 14.7354C97.0611 13.2309 95.8302 12 94.3258 12C92.8213 12 91.5904 13.2309 91.5904 14.7354V18.8384H97.0611V14.7354ZM105.267 27.0445C105.267 25.5401 104.036 24.3092 102.532 24.3092H97.0611V28.4122C97.0611 29.9167 95.8302 31.1476 94.3258 31.1476C92.8213 31.1476 91.5904 29.9167 91.5904 28.4122V24.3092H83.3843V28.4122C83.3843 29.9167 82.1534 31.1476 80.6489 31.1476C79.1444 31.1476 77.9135 29.9167 77.9135 28.4122V24.3092H69.7074V28.4122C69.7074 29.9167 68.4765 31.1476 66.972 31.1476C65.4676 31.1476 64.2367 29.9167 64.2367 28.4122V24.3092H56.0306V28.4122C56.0306 29.9167 54.7996 31.1476 53.2952 31.1476C51.7907 31.1476 50.5598 29.9167 50.5598 28.4122V24.3092H42.3537V28.4122C42.3537 29.9167 41.1228 31.1476 39.6183 31.1476C38.1139 31.1476 36.883 29.9167 36.883 28.4122V24.3092H28.6769V28.4122C28.6769 29.9167 27.4459 31.1476 25.9415 31.1476C24.437 31.1476 23.2061 29.9167 23.2061 28.4122V24.3092H17.7354C16.2309 24.3092 15 25.5401 15 27.0445V39.3537H105.267V27.0445ZM77.9135 105.003C77.9135 105.933 77.9682 106.835 78.0777 107.738H17.7354C16.2309 107.738 15 106.507 15 105.003V44.8245H105.267V80.5484C104.365 80.439 103.462 80.3843 102.532 80.3843C88.9644 80.3843 77.9135 91.4352 77.9135 105.003ZM77.9135 69.4428C77.9135 70.9472 79.1444 72.1782 80.6489 72.1782H94.3258C95.8302 72.1782 97.0611 70.9472 97.0611 69.4428V55.7659C97.0611 54.2615 95.8302 53.0306 94.3258 53.0306H80.6489C79.1444 53.0306 77.9135 54.2615 77.9135 55.7659V69.4428ZM42.3537 83.1196C42.3537 81.6152 41.1228 80.3843 39.6183 80.3843H25.9415C24.437 80.3843 23.2061 81.6152 23.2061 83.1196V96.7965C23.2061 98.3009 24.437 99.5319 25.9415 99.5319H39.6183C41.1228 99.5319 42.3537 98.3009 42.3537 96.7965V83.1196ZM42.3537 55.7659C42.3537 54.2615 41.1228 53.0306 39.6183 53.0306H25.9415C24.437 53.0306 23.2061 54.2615 23.2061 55.7659V69.4428C23.2061 70.9472 24.437 72.1782 25.9415 72.1782H39.6183C41.1228 72.1782 42.3537 70.9472 42.3537 69.4428V55.7659ZM69.7074 83.1196C69.7074 81.6152 68.4765 80.3843 66.972 80.3843H53.2952C51.7907 80.3843 50.5598 81.6152 50.5598 83.1196V96.7965C50.5598 98.3009 51.7907 99.5319 53.2952 99.5319H66.972C68.4765 99.5319 69.7074 98.3009 69.7074 96.7965V83.1196ZM69.7074 55.7659C69.7074 54.2615 68.4765 53.0306 66.972 53.0306H53.2952C51.7907 53.0306 50.5598 54.2615 50.5598 55.7659V69.4428C50.5598 70.9472 51.7907 72.1782 53.2952 72.1782H66.972C68.4765 72.1782 69.7074 70.9472 69.7074 69.4428V55.7659ZM28.6769 94.0611H36.883V85.855H28.6769V94.0611ZM56.0306 94.0611H64.2367V85.855H56.0306V94.0611ZM28.6769 66.7074H36.883V58.5013H28.6769V66.7074ZM56.0306 66.7074H64.2367V58.5013H56.0306V66.7074ZM91.5904 58.5013H83.3843V66.7074H91.5904V58.5013ZM121.679 105.003C121.679 115.561 113.09 124.15 102.532 124.15C91.9733 124.15 83.3843 115.561 83.3843 105.003C83.3843 94.4441 91.9733 85.855 102.532 85.855C113.09 85.855 121.679 94.4441 121.679 105.003ZM113.473 105.003C113.473 103.498 112.242 102.267 110.738 102.267H105.267V96.7965C105.267 95.292 104.036 94.0611 102.532 94.0611C101.027 94.0611 99.7965 95.292 99.7965 96.7965V105.003C99.7965 106.507 101.027 107.738 102.532 107.738H110.738C112.242 107.738 113.473 106.507 113.473 105.003Z" fill="white"/>
</svg>
