<svg width="26" height="26" viewBox="0 0 26 26" fill="none" xmlns="http://www.w3.org/2000/svg">
<path d="M13.0129 9.91753C12.2537 9.91753 11.5427 10.2121 11.0045 10.7503C10.4687 11.2886 10.1716 11.9996 10.1716 12.7587C10.1716 13.5179 10.4687 14.2289 11.0045 14.7671C11.5427 15.3029 12.2537 15.6 13.0129 15.6C13.772 15.6 14.483 15.3029 15.0213 14.7671C15.557 14.2289 15.8541 13.5179 15.8541 12.7587C15.8541 11.9996 15.557 11.2886 15.0213 10.7503C14.7583 10.4854 14.4454 10.2754 14.1006 10.1324C13.7559 9.98942 13.3861 9.91639 13.0129 9.91753ZM23.4814 15.897L21.8209 14.4777C21.8996 13.9953 21.9402 13.5027 21.9402 13.0126C21.9402 12.5226 21.8996 12.0275 21.8209 11.5476L23.4814 10.1283C23.6069 10.0209 23.6966 9.87786 23.7388 9.71821C23.781 9.55856 23.7736 9.38985 23.7175 9.23452L23.6947 9.16851C23.2377 7.89057 22.5529 6.70601 21.6736 5.67222L21.6279 5.6189C21.5211 5.49335 21.3788 5.40309 21.2197 5.36003C21.0606 5.31697 20.8922 5.32313 20.7367 5.37769L18.675 6.11147C17.9132 5.48687 17.0652 4.99429 16.1461 4.65151L15.7474 2.49585C15.7174 2.33346 15.6386 2.18406 15.5216 2.0675C15.4046 1.95095 15.2549 1.87276 15.0924 1.84331L15.0238 1.83062C13.7035 1.59194 12.3121 1.59194 10.9918 1.83062L10.9232 1.84331C10.7607 1.87276 10.611 1.95095 10.494 2.0675C10.377 2.18406 10.2982 2.33346 10.2681 2.49585L9.86696 4.66167C8.95652 5.00718 8.10839 5.49856 7.35583 6.11655L5.27888 5.37769C5.1234 5.32269 4.95487 5.31632 4.79568 5.3594C4.63649 5.40249 4.49418 5.493 4.38766 5.6189L4.34196 5.67222C3.46419 6.70711 2.7796 7.89138 2.32087 9.16851L2.29802 9.23452C2.18376 9.5519 2.2777 9.90737 2.53415 10.1283L4.21501 11.5628C4.1363 12.0402 4.09821 12.5277 4.09821 13.0101C4.09821 13.4976 4.1363 13.9851 4.21501 14.4574L2.53923 15.8919C2.41379 15.9993 2.32401 16.1424 2.28183 16.302C2.23965 16.4617 2.24706 16.6304 2.30309 16.7857L2.32595 16.8517C2.78552 18.1289 3.46345 19.3095 4.34704 20.348L4.39274 20.4013C4.49952 20.5269 4.64183 20.6171 4.80093 20.6602C4.96002 20.7032 5.12843 20.6971 5.28395 20.6425L7.36091 19.9037C8.11755 20.5257 8.96052 21.0183 9.87204 21.3585L10.2732 23.5244C10.3033 23.6868 10.3821 23.8362 10.4991 23.9527C10.6161 24.0693 10.7658 24.1475 10.9283 24.1769L10.9968 24.1896C12.3301 24.4296 13.6956 24.4296 15.0289 24.1896L15.0974 24.1769C15.2599 24.1475 15.4096 24.0693 15.5266 23.9527C15.6437 23.8362 15.7224 23.6868 15.7525 23.5244L16.1511 21.3687C17.0703 21.0234 17.9183 20.5333 18.68 19.9087L20.7418 20.6425C20.8972 20.6975 21.0658 20.7039 21.225 20.6608C21.3841 20.6177 21.5265 20.5272 21.633 20.4013L21.6787 20.348C22.5623 19.3044 23.2402 18.1289 23.6998 16.8517L23.7226 16.7857C23.8318 16.4708 23.7379 16.1179 23.4814 15.897ZM13.0129 17.2224C10.5474 17.2224 8.54919 15.2242 8.54919 12.7587C8.54919 10.2933 10.5474 8.29507 13.0129 8.29507C15.4783 8.29507 17.4765 10.2933 17.4765 12.7587C17.4765 15.2242 15.4783 17.2224 13.0129 17.2224Z" fill="#FFD233"/>
</svg>
