<svg width="21" height="20" viewBox="0 0 21 20" fill="none" xmlns="http://www.w3.org/2000/svg">
<path d="M17.5 2H16.5V1C16.5 0.4 16.1 0 15.5 0C14.9 0 14.5 0.4 14.5 1V2H6.5V1C6.5 0.4 6.1 0 5.5 0C4.9 0 4.5 0.4 4.5 1V2H3.5C1.8 2 0.5 3.3 0.5 5V6H20.5V5C20.5 3.3 19.2 2 17.5 2ZM0.5 17C0.5 18.7 1.8 20 3.5 20H17.5C19.2 20 20.5 18.7 20.5 17V8H0.5V17ZM15.5 10C16.1 10 16.5 10.4 16.5 11C16.5 11.6 16.1 12 15.5 12C14.9 12 14.5 11.6 14.5 11C14.5 10.4 14.9 10 15.5 10ZM15.5 14C16.1 14 16.5 14.4 16.5 15C16.5 15.6 16.1 16 15.5 16C14.9 16 14.5 15.6 14.5 15C14.5 14.4 14.9 14 15.5 14ZM10.5 10C10.5 9.4 11.1 10 10.5 10C10.5 10.6 11.1 12 10.5 12C9.9 12 9.5 11.6 9.5 11C9.5 10.4 9.9 10 10.5 10ZM10.5 14C11.1 14 11.5 14.4 11.5 15C11.5 15.6 11.1 16 10.5 16C9.9 16 9.5 15.6 9.5 15C9.5 14.4 9.9 14 10.5 14ZM5.5 10C6.1 10 6.5 10.4 6.5 11C6.5 11.6 6.1 12 5.5 12C4.9 12 4.5 11.6 4.5 11C4.5 10.4 4.9 10 5.5 10ZM5.5 14C6.1 14 6.5 14.4 6.5 15C6.5 15.6 6.1 16 5.5 16C4.9 16 4.5 15.6 4.5 15C4.5 14.4 4.9 14 5.5 14Z" fill="white"/>
</svg>
