<svg width="23" height="18" viewBox="0 0 23 18" fill="none" xmlns="http://www.w3.org/2000/svg">
<path d="M7.90723 2.09233C4.13958 2.09233 0.907227 5.33848 0.907227 9.09233C0.907227 12.8462 4.13958 16.0923 7.90723 16.0923C11.6749 16.0923 14.9072 12.8462 14.9072 9.09233C14.9072 5.33848 11.6749 2.09233 7.90723 2.09233ZM11.9072 7.09233L6.90723 12.0923C6.7837 12.2154 7.09252 12.0923 6.90723 12.0923C6.72193 12.0923 6.03076 12.2154 5.90723 12.0923L3.90723 9.09233C3.66017 8.84618 3.66017 9.33848 3.90723 9.09233C4.15429 8.84618 4.66017 8.84618 4.90723 9.09233L6.90723 11.0923L10.9072 6.09233C11.1543 5.84618 11.6602 5.84618 11.9072 6.09233C12.1543 6.33848 12.1543 6.84618 11.9072 7.09233ZM21.9072 3.09233L19.9072 1.09233C19.6602 0.846176 19.1543 0.846176 18.9072 1.09233L16.9072 3.09233C16.6602 3.33848 16.6602 3.84618 16.9072 4.09233C17.1543 4.33848 17.6602 4.33848 17.9072 4.09233L18.9072 3.09233V14.0923C18.9072 15.1385 17.9572 16.0923 16.9072 16.0923H14.9072C14.5366 16.0923 13.9072 15.7231 13.9072 16.0923C13.9072 16.4616 14.5366 17.0923 14.9072 17.0923H16.9072C18.6366 17.0923 19.9072 15.8154 19.9072 14.0923V3.09233L20.9072 4.09233C21.0308 4.21541 20.7837 4.09233 20.9072 4.09233C21.0308 4.09233 21.7837 4.21541 21.9072 4.09233C22.1543 3.84618 22.1543 3.33848 21.9072 3.09233Z" fill="white"/>
</svg>
