<svg width="22" height="22" viewBox="0 0 22 22" fill="none" xmlns="http://www.w3.org/2000/svg">
<path d="M21 7.97339C20.4478 6.64266 20.0045 4.99365 19 3.97339C17.998 2.95066 16.307 2.5356 15 1.97339C13.6422 1.38839 12.4855 0.973389 11 0.973389C9.51451 0.973389 8.35781 1.38839 7 1.97339C5.69304 2.5356 4.00205 2.95066 3 3.97339C1.99553 4.99365 1.55217 6.64266 1 7.97339C0.425446 9.35589 0 10.4609 0 11.9734C0 15.2909 1.50536 18.8384 4 20.9734C3.81585 20.9734 4.14241 21.0934 4 20.9734H18C17.8576 21.0934 18.1842 20.9734 18 20.9734C20.4922 18.8384 22 15.2909 22 11.9734C22 10.4609 21.5721 9.35589 21 7.97339ZM10 3.97339C9.89196 3.97339 10 3.86339 10 3.97339H12C12 3.86339 12.108 3.97339 12 3.97339V5.97339C12.108 5.97339 12 6.08339 12 5.97339H10C10 6.08339 9.89196 5.97339 10 5.97339V3.97339ZM5 12.9734C5.10804 12.9734 5 13.0834 5 12.9734H3C3 13.0834 2.89196 12.9734 3 12.9734V11.9734C3 11.8634 2.89196 10.9734 3 10.9734H5C5.10804 10.9734 5 11.8634 5 11.9734V12.9734ZM7 7.97339C6.96308 8.01061 6.05195 7.97339 6 7.97339C6.03692 8.01061 5.94805 7.97339 6 7.97339L5 6.97339C5 7.02629 4.96344 6.9358 5 6.97339C4.96344 7.01098 5 6.92049 5 6.97339L6 5.97339C5.92388 5.89589 6.07612 5.89589 6 5.97339L7 6.97339C7.07612 7.05089 7.07612 7.89589 7 7.97339ZM14 9.97339L12 11.9734C12.1228 12.4409 12.3609 12.6059 12 12.9734C12.1668 12.9029 11.8724 13.1036 12 12.9734C11.8332 13.0438 11.1806 13.9734 11 13.9734C10.8194 13.9734 11.1668 13.0438 11 12.9734C10.8332 12.9029 10.1276 13.1036 10 12.9734C10.0692 13.1433 9.87216 12.8435 10 12.9734C9.9308 12.8035 10 12.1573 10 11.9734C9.9308 12.1433 10 11.7895 10 11.9734C10.0692 11.8035 9.87216 11.1033 10 10.9734C10.1705 10.7993 10.7668 11.037 11 10.9734C10.7668 10.9094 11.2332 10.9097 11 10.9734L13 8.97339C13.0761 8.89589 13.9239 8.89589 14 8.97339C14.0761 9.05089 14.0761 9.89339 14 9.97339ZM15 7.97339C14.9634 7.9358 15 7.02629 15 6.97339C14.9634 7.01098 15 6.92049 15 6.97339L16 5.97339C15.9239 5.89589 16.0761 5.89589 16 5.97339L17 6.97339C17.0761 6.89589 17.0761 7.05089 17 6.97339L16 7.97339C16.052 7.97339 15.9631 8.01061 16 7.97339C15.948 7.97339 15.0369 8.01061 15 7.97339ZM19 12.9734C19.108 12.9734 19 13.0834 19 12.9734H17C17 13.0834 16.892 12.9734 17 12.9734V11.9734C17 11.8634 16.892 10.9734 17 10.9734H19C19.108 10.9734 19 11.8634 19 11.9734V12.9734Z" fill="white"/>
</svg>
