<svg width="21" height="20" viewBox="0 0 21 20" fill="none" xmlns="http://www.w3.org/2000/svg">
<path fill-rule="evenodd" clip-rule="evenodd" d="M18 11H15C13.26 11 12 12.343 12 14V17C12 18.657 13.26 20 15 20H18C19.74 20 21 18.657 21 17V14C21 12.343 19.74 11 18 11ZM6 11H3C1.26 11 0 12.343 0 14V17C0 18.657 1.26 20 3 20H6C7.74 20 9 18.657 9 17V14C9 12.343 7.74 11 6 11ZM18 0H15C13.26 0 12 1.343 12 3V6C12 7.657 13.26 9 15 9H18C19.74 9 21 7.657 21 6V3C21 1.343 19.74 0 18 0ZM9 3V6C9 7.657 7.74 9 6 9H3C1.26 9 0 7.657 0 6V3C0 1.343 1.26 0 3 0H6C7.74 0 9 1.343 9 3Z" fill="white"/>
</svg>
