<svg width="503" height="649" viewBox="0 0 503 649" fill="none" xmlns="http://www.w3.org/2000/svg">
<path d="M443.918 32.6413H19.0602C18.7764 32.6363 18.5063 32.5411 18.3077 32.3762C18.1092 32.2113 17.998 31.9898 17.998 31.7592C17.998 31.5285 18.1092 31.307 18.3077 31.1421C18.5063 30.9772 18.7764 30.882 19.0602 30.877H443.918C444.202 30.882 444.472 30.9772 444.671 31.1421C444.869 31.307 444.981 31.5285 444.981 31.7592C444.981 31.9898 444.869 32.2113 444.671 32.3762C444.472 32.5411 444.202 32.6363 443.918 32.6413Z" fill="#CACACA"/>
<path d="M38.5953 19.7061C43.9184 19.7061 48.2336 15.2948 48.2336 9.85307C48.2336 4.41137 43.9184 0 38.5953 0C33.2722 0 28.957 4.41137 28.957 9.85307C28.957 15.2948 33.2722 19.7061 38.5953 19.7061Z" fill="#3B8CF7"/>
<path d="M71.8902 19.7061C77.2133 19.7061 81.5285 15.2948 81.5285 9.85307C81.5285 4.41137 77.2133 0 71.8902 0C66.5672 0 62.252 4.41137 62.252 9.85307C62.252 15.2948 66.5672 19.7061 71.8902 19.7061Z" fill="#3B8CF7"/>
<path d="M105.187 19.7061C110.51 19.7061 114.825 15.2948 114.825 9.85307C114.825 4.41137 110.51 0 105.187 0C99.864 0 95.5488 4.41137 95.5488 9.85307C95.5488 15.2948 99.864 19.7061 105.187 19.7061Z" fill="#3B8CF7"/>
<path d="M428.838 6.02703H405.18C404.712 6.01669 404.266 5.8234 403.939 5.48856C403.611 5.15373 403.428 4.70395 403.428 4.23556C403.428 3.76717 403.611 3.31739 403.939 2.98255C404.266 2.64772 404.712 2.45443 405.18 2.44409H428.838C429.306 2.45443 429.752 2.64772 430.079 2.98255C430.407 3.31739 430.59 3.76717 430.59 4.23556C430.59 4.70395 430.407 5.15373 430.079 5.48856C429.752 5.8234 429.306 6.01669 428.838 6.02703Z" fill="#3B8CF7"/>
<path d="M428.838 12.7453H405.18C404.712 12.7349 404.266 12.5417 403.939 12.2068C403.611 11.872 403.428 11.4222 403.428 10.9538C403.428 10.4854 403.611 10.0357 403.939 9.70082C404.266 9.36598 404.712 9.17269 405.18 9.16235H428.838C429.306 9.17269 429.752 9.36598 430.079 9.70082C430.407 10.0357 430.59 10.4854 430.59 10.9538C430.59 11.4222 430.407 11.872 430.079 12.2068C429.752 12.5417 429.306 12.7349 428.838 12.7453Z" fill="#3B8CF7"/>
<path d="M428.838 19.4623H405.18C404.712 19.452 404.266 19.2587 403.939 18.9239C403.611 18.589 403.428 18.1393 403.428 17.6709C403.428 17.2025 403.611 16.7527 403.939 16.4179C404.266 16.083 404.712 15.8897 405.18 15.8794H428.838C429.306 15.8897 429.752 16.083 430.079 16.4179C430.407 16.7527 430.59 17.2025 430.59 17.6709C430.59 18.1393 430.407 18.589 430.079 18.9239C429.752 19.2587 429.306 19.452 428.838 19.4623Z" fill="#3B8CF7"/>
<path d="M337.112 216.138H87.3233C68.7094 216.117 50.8639 209.014 37.7019 196.385C24.5399 183.757 17.1362 166.634 17.1152 148.775V119.413C17.1362 101.553 24.5398 84.4307 37.7018 71.802C50.8639 59.1733 68.7094 52.0696 87.3233 52.0493H367.714C386.328 52.0696 404.174 59.1733 417.336 71.802C430.498 84.4307 437.901 101.553 437.922 119.413C437.892 145.057 427.261 169.642 408.362 187.775C389.463 205.909 363.839 216.109 337.112 216.138Z" fill="#E2EFFD"/>
<path d="M291.727 92.6088H111.4C110.369 92.6088 109.38 92.1991 108.651 91.4698C107.921 90.7405 107.512 89.7514 107.512 88.72C107.512 87.6887 107.921 86.6996 108.651 85.9703C109.38 85.241 110.369 84.8313 111.4 84.8313H291.727C292.758 84.8313 293.747 85.241 294.477 85.9703C295.206 86.6996 295.616 87.6887 295.616 88.72C295.616 89.7514 295.206 90.7405 294.477 91.4698C293.747 92.1991 292.758 92.6088 291.727 92.6088Z" fill="white"/>
<path d="M383.011 134.099H111.4C110.369 134.099 109.38 133.69 108.651 132.96C107.921 132.231 107.512 131.242 107.512 130.211C107.512 129.179 107.921 128.19 108.651 127.461C109.38 126.731 110.369 126.322 111.4 126.322H383.011C384.043 126.322 385.032 126.731 385.761 127.461C386.49 128.19 386.9 129.179 386.9 130.211C386.9 131.242 386.49 132.231 385.761 132.96C385.032 133.69 384.043 134.099 383.011 134.099Z" fill="white"/>
<path d="M383.011 175.59H111.4C110.369 175.59 109.38 175.18 108.651 174.45C107.921 173.721 107.512 172.732 107.512 171.701C107.512 170.669 107.921 169.68 108.651 168.951C109.38 168.222 110.369 167.812 111.4 167.812H383.011C384.043 167.812 385.032 168.222 385.761 168.951C386.49 169.68 386.9 170.669 386.9 171.701C386.9 172.732 386.49 173.721 385.761 174.45C385.032 175.18 384.043 175.59 383.011 175.59Z" fill="#E6E6E6"/>
<path d="M383.011 175.59H111.4C110.369 175.59 109.38 175.18 108.651 174.45C107.921 173.721 107.512 172.732 107.512 171.701C107.512 170.669 107.921 169.68 108.651 168.951C109.38 168.222 110.369 167.812 111.4 167.812H383.011C384.043 167.812 385.032 168.222 385.761 168.951C386.49 169.68 386.9 170.669 386.9 171.701C386.9 172.732 386.49 173.721 385.761 174.45C385.032 175.18 384.043 175.59 383.011 175.59Z" fill="white"/>
<path d="M272.699 138.861C272.742 140.032 273.042 141.18 273.576 142.223C274.111 143.266 274.868 144.179 275.794 144.898C276.72 145.617 277.792 146.124 278.935 146.384C280.078 146.644 281.264 146.65 282.41 146.401L297.24 170.73L303.551 157.337L288.501 136.287C287.956 134.39 286.735 132.759 285.068 131.703C283.401 130.646 281.404 130.238 279.457 130.555C277.509 130.873 275.745 131.893 274.5 133.424C273.254 134.955 272.613 136.89 272.699 138.861H272.699Z" fill="#FFE3CA"/>
<path d="M383.99 208.587L332.882 180.865L316.762 165.741C316.762 165.741 309.754 163.864 312.333 161.586C314.913 159.307 307.562 157.109 307.562 157.109L298.908 148.99L286.611 157.691L290.17 163.208C290.17 163.208 289.925 172.34 294.928 170.583C299.931 168.826 298.681 176.401 298.681 176.401L328.543 222.691L383.99 208.587Z" fill="#FFD233"/>
<path d="M233.125 182.468C260.695 182.468 283.045 160.119 283.045 132.549C283.045 104.979 260.695 82.6287 233.125 82.6287C205.555 82.6287 183.205 104.979 183.205 132.549C183.205 160.119 205.555 182.468 233.125 182.468Z" fill="#47F09F"/>
<path d="M384.147 572.193H373.768L368.828 532.157H384.147V572.193Z" fill="#FFE3CA"/>
<path d="M389.625 590.177H382.182L380.853 583.149L377.45 590.177H357.708C356.761 590.177 355.84 589.874 355.078 589.314C354.315 588.753 353.752 587.963 353.471 587.06C353.189 586.156 353.204 585.186 353.512 584.292C353.821 583.397 354.407 582.625 355.186 582.087L370.952 571.199V564.094L387.534 565.084L389.625 590.177Z" fill="#333333"/>
<path d="M301.132 572.193H290.752L285.812 532.157H301.132V572.193Z" fill="#FFE3CA"/>
<path d="M306.61 590.177H299.166L297.837 583.149L294.434 590.177H274.692C273.746 590.177 272.824 589.874 272.062 589.314C271.3 588.753 270.737 587.963 270.455 587.06C270.173 586.156 270.188 585.186 270.496 584.292C270.805 583.397 271.392 582.625 272.17 582.087L287.936 571.199V564.094L304.519 565.084L306.61 590.177Z" fill="#333333"/>
<path d="M373.133 269.406H320.744V329.049H373.133V269.406Z" fill="#FFE3CA"/>
<path d="M321.954 298.824L313.088 309.302L297.774 341.541L259.188 433.351L251.027 452.767L257.618 487.091C257.618 487.091 258.684 511.273 258.684 515.231C258.684 523.291 265.425 527.757 265.425 527.757L270.371 553.516L318.327 551.501C318.327 551.501 316.654 523.107 306.61 515.945C296.565 508.783 291.948 471.457 291.948 471.457L286.491 454.897L339.686 391.839L340.029 413.881L340.195 424.55C340.195 424.55 332.405 493.94 341.486 507.407C350.566 520.873 341.671 519.289 341.671 519.289L342.104 547.068L398.926 547.471L386.39 467.495C386.39 467.495 380.024 462.469 383.43 457.416C386.836 452.364 380.129 446.177 380.129 446.177L383.137 383.742C383.137 383.742 379.807 372.957 383.724 371.556C387.642 370.154 384.239 360.88 384.239 360.88L384.821 348.795L373.134 311.317L321.954 298.824Z" fill="#3B8CF7"/>
<path d="M373.939 269.406L379.581 252.48L383.611 246.838L385.222 230.718C385.222 187.195 375.514 194.443 375.514 194.443L369.909 179.135L344.117 178.329L327.595 194.046L313.893 198.882L308.527 226.761L318.326 256.51L320.744 272.63C316.131 281.145 316.521 277.117 320.341 283.51L365.879 296.003C381.999 301.645 381.999 287.137 378.766 283.51C375.534 279.883 373.939 269.406 373.939 269.406Z" fill="#FFD233"/>
<path d="M353.683 172.919C366.888 172.919 377.593 162.214 377.593 149.009C377.593 135.804 366.888 125.1 353.683 125.1C340.478 125.1 329.773 135.804 329.773 149.009C329.773 162.214 340.478 172.919 353.683 172.919Z" fill="#FFE3CA"/>
<path d="M385.602 180.925C385.827 181.305 385.964 181.731 386.002 182.171C386.04 182.611 385.977 183.054 385.82 183.467C385.663 183.88 385.415 184.252 385.094 184.556C384.772 184.859 384.387 185.087 383.966 185.221C380.758 186.285 378.784 189.388 376.478 191.87C374.181 194.344 370.482 196.4 367.548 194.715C364.622 193.039 364.421 188.759 361.971 186.438C359.585 184.181 355.62 184.455 352.815 186.172L352.731 186.223C352.247 186.539 351.681 186.706 351.103 186.703C350.525 186.7 349.96 186.528 349.479 186.208C348.998 185.888 348.621 185.434 348.395 184.902C348.169 184.37 348.104 183.784 348.208 183.215C349.191 177.989 350.173 172.763 351.154 167.537C348.575 173.752 344.829 179.415 340.12 184.221C338.823 185.718 337.18 186.875 335.333 187.59C333.656 188.122 332.028 186.389 330.4 186.704C334.446 183.165 348.051 160.485 345.617 145.324C342.756 145.647 339.895 145.969 337.034 146.291C336.724 144.937 336.062 143.689 335.115 142.673C335.231 143.99 335.063 145.318 334.624 146.566C333.431 146.703 332.23 146.832 331.037 146.969C329.377 147.154 327.571 147.315 326.145 146.445C323.767 144.994 323.695 141.56 324.372 138.852C326.354 130.978 332.367 124.393 339.726 120.943C347.084 117.502 349.26 125.167 357.014 122.716C372.328 117.881 384.063 126.15 388.197 141.496C391.671 154.367 389.149 168.029 385.602 180.925Z" fill="#333333"/>
<path d="M228.587 199.737L197.986 173.894C196.94 173.009 196.288 171.745 196.173 170.379C196.057 169.014 196.489 167.658 197.372 166.61L203.004 159.941C203.889 158.895 205.153 158.243 206.519 158.128C207.885 158.013 209.24 158.444 210.288 159.327L240.89 185.17C241.936 186.055 242.588 187.319 242.703 188.685C242.818 190.05 242.387 191.406 241.504 192.454L235.871 199.123C234.986 200.169 233.722 200.821 232.356 200.936C230.991 201.051 229.635 200.62 228.587 199.737Z" fill="#3F3D56"/>
<path d="M199.592 167.148C199.116 167.713 198.883 168.443 198.945 169.179C199.007 169.915 199.359 170.596 199.922 171.073L230.524 196.916C231.089 197.392 231.819 197.624 232.555 197.562C233.291 197.5 233.972 197.149 234.449 196.585L240.082 189.916C240.557 189.351 240.79 188.621 240.728 187.885C240.666 187.149 240.314 186.468 239.751 185.991L209.149 160.148C208.584 159.672 207.854 159.44 207.118 159.502C206.382 159.564 205.701 159.915 205.224 160.479L199.592 167.148Z" fill="white"/>
<path d="M217.557 177.194C217.451 177.343 217.312 177.465 217.15 177.55C216.989 177.636 216.81 177.682 216.627 177.686L211.819 177.797C211.664 177.8 211.511 177.773 211.367 177.718C211.223 177.662 211.091 177.578 210.979 177.471C210.867 177.365 210.778 177.237 210.715 177.096C210.653 176.954 210.619 176.802 210.616 176.648C210.612 176.493 210.639 176.339 210.695 176.195C210.751 176.051 210.834 175.92 210.941 175.808C211.048 175.696 211.175 175.607 211.317 175.544C211.458 175.482 211.61 175.448 211.765 175.444L214.91 175.372L211.813 167.198C211.703 166.906 211.713 166.583 211.842 166.299C211.97 166.015 212.205 165.794 212.497 165.684C212.788 165.573 213.111 165.583 213.396 165.71C213.68 165.838 213.902 166.073 214.013 166.364L217.7 176.093C217.767 176.269 217.79 176.459 217.769 176.645C217.747 176.832 217.681 177.011 217.576 177.168L217.557 177.194Z" fill="#47F09F"/>
<path d="M218.173 179.249C219.333 179.419 220.441 179.841 221.42 180.486C222.399 181.131 223.224 181.983 223.838 182.982C224.452 183.98 224.839 185.101 224.973 186.266C225.107 187.43 224.984 188.61 224.613 189.722L247.185 207.109L233.184 211.927L213.896 194.677C212.07 193.929 210.581 192.538 209.712 190.766C208.843 188.994 208.654 186.965 209.182 185.063C209.709 183.161 210.915 181.519 212.573 180.447C214.23 179.376 216.222 178.949 218.173 179.249L218.173 179.249Z" fill="#FFE3CA"/>
<path d="M335.688 187.846L277.896 223.379C277.896 223.379 254.595 214.757 259.149 210.766C263.703 206.775 249.206 204.077 249.206 204.077L233.191 193.302L223.898 204.102C223.898 204.102 225.592 221.645 228.473 218.608C231.354 215.57 235.66 223.868 235.66 223.868C235.66 223.868 236.933 233.133 245.134 230.801C253.336 228.47 275.343 252.91 275.343 252.91L346.467 226.383L335.688 187.846Z" fill="#FFD233"/>
<path d="M231.37 152.573C230.7 152.573 230.04 152.417 229.44 152.118C228.841 151.818 228.32 151.383 227.918 150.847L217.334 136.734C216.994 136.28 216.746 135.765 216.606 135.216C216.465 134.667 216.434 134.095 216.514 133.534C216.594 132.973 216.784 132.433 217.073 131.946C217.362 131.458 217.744 131.032 218.197 130.692C219.113 130.005 220.264 129.71 221.397 129.872C221.958 129.953 222.497 130.142 222.985 130.431C223.473 130.72 223.899 131.102 224.239 131.555L231.164 140.788L248.949 114.11C249.584 113.158 250.571 112.497 251.693 112.272C252.816 112.048 253.981 112.278 254.934 112.913C255.886 113.548 256.547 114.535 256.772 115.658C256.996 116.78 256.766 117.946 256.131 118.898L234.962 150.651C234.579 151.226 234.064 151.7 233.46 152.034C232.856 152.368 232.18 152.553 231.491 152.572C231.45 152.573 231.41 152.573 231.37 152.573Z" fill="white"/>
<path d="M45.8891 633.54H44.0531L45.7811 629.454H46.9511L45.8891 633.54ZM48.8051 633.54H46.9691L48.6971 629.454H49.8671L48.8051 633.54ZM67.613 629.454L63.977 642H62.141L59.225 631.902L56.201 642L54.383 642.018L50.873 629.454H52.619L55.355 640.092L58.379 629.454H60.215L63.095 640.056L65.849 629.454H67.613ZM78.4055 636.69C78.4055 637.002 78.3875 637.332 78.3515 637.68H70.4675C70.5275 638.652 70.8575 639.414 71.4575 639.966C72.0695 640.506 72.8075 640.776 73.6715 640.776C74.3795 640.776 74.9675 640.614 75.4355 640.29C75.9155 639.954 76.2515 639.51 76.4435 638.958H78.2075C77.9435 639.906 77.4155 640.68 76.6235 641.28C75.8315 641.868 74.8475 642.162 73.6715 642.162C72.7355 642.162 71.8955 641.952 71.1515 641.532C70.4195 641.112 69.8435 640.518 69.4235 639.75C69.0035 638.97 68.7935 638.07 68.7935 637.05C68.7935 636.03 68.9975 635.136 69.4055 634.368C69.8135 633.6 70.3835 633.012 71.1155 632.604C71.8595 632.184 72.7115 631.974 73.6715 631.974C74.6075 631.974 75.4355 632.178 76.1555 632.586C76.8755 632.994 77.4275 633.558 77.8115 634.278C78.2075 634.986 78.4055 635.79 78.4055 636.69ZM76.7135 636.348C76.7135 635.724 76.5755 635.19 76.2995 634.746C76.0235 634.29 75.6455 633.948 75.1655 633.72C74.6975 633.48 74.1755 633.36 73.5995 633.36C72.7715 633.36 72.0635 633.624 71.4755 634.152C70.8995 634.68 70.5695 635.412 70.4855 636.348H76.7135ZM79.9556 637.05C79.9556 636.03 80.1596 635.142 80.5676 634.386C80.9756 633.618 81.5396 633.024 82.2596 632.604C82.9916 632.184 83.8256 631.974 84.7616 631.974C85.9736 631.974 86.9696 632.268 87.7496 632.856C88.5416 633.444 89.0636 634.26 89.3156 635.304H87.5516C87.3836 634.704 87.0536 634.23 86.5616 633.882C86.0816 633.534 85.4816 633.36 84.7616 633.36C83.8256 633.36 83.0696 633.684 82.4936 634.332C81.9176 634.968 81.6296 635.874 81.6296 637.05C81.6296 638.238 81.9176 639.156 82.4936 639.804C83.0696 640.452 83.8256 640.776 84.7616 640.776C85.4816 640.776 86.0816 640.608 86.5616 640.272C87.0416 639.936 87.3716 639.456 87.5516 638.832H89.3156C89.0516 639.84 88.5236 640.65 87.7316 641.262C86.9396 641.862 85.9496 642.162 84.7616 642.162C83.8256 642.162 82.9916 641.952 82.2596 641.532C81.5396 641.112 80.9756 640.518 80.5676 639.75C80.1596 638.982 79.9556 638.082 79.9556 637.05ZM95.8032 642.162C94.8792 642.162 94.0392 641.952 93.2832 641.532C92.5392 641.112 91.9512 640.518 91.5192 639.75C91.0992 638.97 90.8892 638.07 90.8892 637.05C90.8892 636.042 91.1052 635.154 91.5372 634.386C91.9812 633.606 92.5812 633.012 93.3372 632.604C94.0932 632.184 94.9392 631.974 95.8752 631.974C96.8112 631.974 97.6572 632.184 98.4132 632.604C99.1692 633.012 99.7632 633.6 100.195 634.368C100.639 635.136 100.861 636.03 100.861 637.05C100.861 638.07 100.633 638.97 100.177 639.75C99.7332 640.518 99.1272 641.112 98.3592 641.532C97.5912 641.952 96.7392 642.162 95.8032 642.162ZM95.8032 640.722C96.3912 640.722 96.9432 640.584 97.4592 640.308C97.9752 640.032 98.3892 639.618 98.7012 639.066C99.0252 638.514 99.1872 637.842 99.1872 637.05C99.1872 636.258 99.0312 635.586 98.7192 635.034C98.4072 634.482 97.9992 634.074 97.4952 633.81C96.9912 633.534 96.4452 633.396 95.8572 633.396C95.2572 633.396 94.7052 633.534 94.2012 633.81C93.7092 634.074 93.3132 634.482 93.0132 635.034C92.7132 635.586 92.5632 636.258 92.5632 637.05C92.5632 637.854 92.7072 638.532 92.9952 639.084C93.2952 639.636 93.6912 640.05 94.1832 640.326C94.6752 640.59 95.2152 640.722 95.8032 640.722ZM104.653 628.68V642H103.015V628.68H104.653ZM119.307 631.956C120.075 631.956 120.759 632.118 121.359 632.442C121.959 632.754 122.433 633.228 122.781 633.864C123.129 634.5 123.303 635.274 123.303 636.186V642H121.683V636.42C121.683 635.436 121.437 634.686 120.945 634.17C120.465 633.642 119.811 633.378 118.983 633.378C118.131 633.378 117.453 633.654 116.949 634.206C116.445 634.746 116.193 635.532 116.193 636.564V642H114.573V636.42C114.573 635.436 114.327 634.686 113.835 634.17C113.355 633.642 112.701 633.378 111.873 633.378C111.021 633.378 110.343 633.654 109.839 634.206C109.335 634.746 109.083 635.532 109.083 636.564V642H107.445V632.136H109.083V633.558C109.407 633.042 109.839 632.646 110.379 632.37C110.931 632.094 111.537 631.956 112.197 631.956C113.025 631.956 113.757 632.142 114.393 632.514C115.029 632.886 115.503 633.432 115.815 634.152C116.091 633.456 116.547 632.916 117.183 632.532C117.819 632.148 118.527 631.956 119.307 631.956ZM134.99 636.69C134.99 637.002 134.972 637.332 134.936 637.68H127.052C127.112 638.652 127.442 639.414 128.042 639.966C128.654 640.506 129.392 640.776 130.256 640.776C130.964 640.776 131.552 640.614 132.02 640.29C132.5 639.954 132.836 639.51 133.028 638.958H134.792C134.528 639.906 134 640.68 133.208 641.28C132.416 641.868 131.432 642.162 130.256 642.162C129.32 642.162 128.48 641.952 127.736 641.532C127.004 641.112 126.428 640.518 126.008 639.75C125.588 638.97 125.378 638.07 125.378 637.05C125.378 636.03 125.582 635.136 125.99 634.368C126.398 633.6 126.968 633.012 127.7 632.604C128.444 632.184 129.296 631.974 130.256 631.974C131.192 631.974 132.02 632.178 132.74 632.586C133.46 632.994 134.012 633.558 134.396 634.278C134.792 634.986 134.99 635.79 134.99 636.69ZM133.298 636.348C133.298 635.724 133.16 635.19 132.884 634.746C132.608 634.29 132.23 633.948 131.75 633.72C131.282 633.48 130.76 633.36 130.184 633.36C129.356 633.36 128.648 633.624 128.06 634.152C127.484 634.68 127.154 635.412 127.07 636.348H133.298ZM143.948 633.486V639.3C143.948 639.78 144.05 640.122 144.254 640.326C144.458 640.518 144.812 640.614 145.316 640.614H146.522V642H145.046C144.134 642 143.45 641.79 142.994 641.37C142.538 640.95 142.31 640.26 142.31 639.3V633.486H141.032V632.136H142.31V629.652H143.948V632.136H146.522V633.486H143.948ZM152.809 642.162C151.885 642.162 151.045 641.952 150.289 641.532C149.545 641.112 148.957 640.518 148.525 639.75C148.105 638.97 147.895 638.07 147.895 637.05C147.895 636.042 148.111 635.154 148.543 634.386C148.987 633.606 149.587 633.012 150.343 632.604C151.099 632.184 151.945 631.974 152.881 631.974C153.817 631.974 154.663 632.184 155.419 632.604C156.175 633.012 156.769 633.6 157.201 634.368C157.645 635.136 157.867 636.03 157.867 637.05C157.867 638.07 157.639 638.97 157.183 639.75C156.739 640.518 156.133 641.112 155.365 641.532C154.597 641.952 153.745 642.162 152.809 642.162ZM152.809 640.722C153.397 640.722 153.949 640.584 154.465 640.308C154.981 640.032 155.395 639.618 155.707 639.066C156.031 638.514 156.193 637.842 156.193 637.05C156.193 636.258 156.037 635.586 155.725 635.034C155.413 634.482 155.005 634.074 154.501 633.81C153.997 633.534 153.451 633.396 152.863 633.396C152.263 633.396 151.711 633.534 151.207 633.81C150.715 634.074 150.319 634.482 150.019 635.034C149.719 635.586 149.569 636.258 149.569 637.05C149.569 637.854 149.713 638.532 150.001 639.084C150.301 639.636 150.697 640.05 151.189 640.326C151.681 640.59 152.221 640.722 152.809 640.722ZM168.798 642.126C167.97 642.126 167.226 641.982 166.566 641.694C165.918 641.394 165.408 640.986 165.036 640.47C164.664 639.942 164.472 639.336 164.46 638.652H166.206C166.266 639.24 166.506 639.738 166.926 640.146C167.358 640.542 167.982 640.74 168.798 640.74C169.578 640.74 170.19 640.548 170.634 640.164C171.09 639.768 171.318 639.264 171.318 638.652C171.318 638.172 171.186 637.782 170.922 637.482C170.658 637.182 170.328 636.954 169.932 636.798C169.536 636.642 169.002 636.474 168.33 636.294C167.502 636.078 166.836 635.862 166.332 635.646C165.84 635.43 165.414 635.094 165.054 634.638C164.706 634.17 164.532 633.546 164.532 632.766C164.532 632.082 164.706 631.476 165.054 630.948C165.402 630.42 165.888 630.012 166.512 629.724C167.148 629.436 167.874 629.292 168.69 629.292C169.866 629.292 170.826 629.586 171.57 630.174C172.326 630.762 172.752 631.542 172.848 632.514H171.048C170.988 632.034 170.736 631.614 170.292 631.254C169.848 630.882 169.26 630.696 168.528 630.696C167.844 630.696 167.286 630.876 166.854 631.236C166.422 631.584 166.206 632.076 166.206 632.712C166.206 633.168 166.332 633.54 166.584 633.828C166.848 634.116 167.166 634.338 167.538 634.494C167.922 634.638 168.456 634.806 169.14 634.998C169.968 635.226 170.634 635.454 171.138 635.682C171.642 635.898 172.074 636.24 172.434 636.708C172.794 637.164 172.974 637.788 172.974 638.58C172.974 639.192 172.812 639.768 172.488 640.308C172.164 640.848 171.684 641.286 171.048 641.622C170.412 641.958 169.662 642.126 168.798 642.126ZM184.132 632.136V642H182.494V640.542C182.182 641.046 181.744 641.442 181.18 641.73C180.628 642.006 180.016 642.144 179.344 642.144C178.576 642.144 177.886 641.988 177.274 641.676C176.662 641.352 176.176 640.872 175.816 640.236C175.468 639.6 175.294 638.826 175.294 637.914V632.136H176.914V637.698C176.914 638.67 177.16 639.42 177.652 639.948C178.144 640.464 178.816 640.722 179.668 640.722C180.544 640.722 181.234 640.452 181.738 639.912C182.242 639.372 182.494 638.586 182.494 637.554V632.136H184.132ZM191.085 635.718C191.085 634.494 191.361 633.396 191.913 632.424C192.465 631.44 193.215 630.672 194.163 630.12C195.123 629.568 196.185 629.292 197.349 629.292C198.717 629.292 199.911 629.622 200.931 630.282C201.951 630.942 202.695 631.878 203.163 633.09H201.201C200.853 632.334 200.349 631.752 199.689 631.344C199.041 630.936 198.261 630.732 197.349 630.732C196.473 630.732 195.687 630.936 194.991 631.344C194.295 631.752 193.749 632.334 193.353 633.09C192.957 633.834 192.759 634.71 192.759 635.718C192.759 636.714 192.957 637.59 193.353 638.346C193.749 639.09 194.295 639.666 194.991 640.074C195.687 640.482 196.473 640.686 197.349 640.686C198.261 640.686 199.041 640.488 199.689 640.092C200.349 639.684 200.853 639.102 201.201 638.346H203.163C202.695 639.546 201.951 640.476 200.931 641.136C199.911 641.784 198.717 642.108 197.349 642.108C196.185 642.108 195.123 641.838 194.163 641.298C193.215 640.746 192.465 639.984 191.913 639.012C191.361 638.04 191.085 636.942 191.085 635.718ZM209.903 642.162C208.979 642.162 208.139 641.952 207.383 641.532C206.639 641.112 206.051 640.518 205.619 639.75C205.199 638.97 204.989 638.07 204.989 637.05C204.989 636.042 205.205 635.154 205.637 634.386C206.081 633.606 206.681 633.012 207.437 632.604C208.193 632.184 209.039 631.974 209.975 631.974C210.911 631.974 211.757 632.184 212.513 632.604C213.269 633.012 213.863 633.6 214.295 634.368C214.739 635.136 214.961 636.03 214.961 637.05C214.961 638.07 214.733 638.97 214.277 639.75C213.833 640.518 213.227 641.112 212.459 641.532C211.691 641.952 210.839 642.162 209.903 642.162ZM209.903 640.722C210.491 640.722 211.043 640.584 211.559 640.308C212.075 640.032 212.489 639.618 212.801 639.066C213.125 638.514 213.287 637.842 213.287 637.05C213.287 636.258 213.131 635.586 212.819 635.034C212.507 634.482 212.099 634.074 211.595 633.81C211.091 633.534 210.545 633.396 209.957 633.396C209.357 633.396 208.805 633.534 208.301 633.81C207.809 634.074 207.413 634.482 207.113 635.034C206.813 635.586 206.663 636.258 206.663 637.05C206.663 637.854 206.807 638.532 207.095 639.084C207.395 639.636 207.791 640.05 208.283 640.326C208.775 640.59 209.315 640.722 209.903 640.722ZM221.921 631.956C223.121 631.956 224.093 632.322 224.837 633.054C225.581 633.774 225.953 634.818 225.953 636.186V642H224.333V636.42C224.333 635.436 224.087 634.686 223.595 634.17C223.103 633.642 222.431 633.378 221.579 633.378C220.715 633.378 220.025 633.648 219.509 634.188C219.005 634.728 218.753 635.514 218.753 636.546V642H217.115V632.136H218.753V633.54C219.077 633.036 219.515 632.646 220.067 632.37C220.631 632.094 221.249 631.956 221.921 631.956ZM233.434 631.956C234.634 631.956 235.606 632.322 236.35 633.054C237.094 633.774 237.466 634.818 237.466 636.186V642H235.846V636.42C235.846 635.436 235.6 634.686 235.108 634.17C234.616 633.642 233.944 633.378 233.092 633.378C232.228 633.378 231.538 633.648 231.022 634.188C230.518 634.728 230.266 635.514 230.266 636.546V642H228.628V632.136H230.266V633.54C230.59 633.036 231.028 632.646 231.58 632.37C232.144 632.094 232.762 631.956 233.434 631.956ZM249.142 636.69C249.142 637.002 249.124 637.332 249.088 637.68H241.204C241.264 638.652 241.594 639.414 242.194 639.966C242.806 640.506 243.544 640.776 244.408 640.776C245.116 640.776 245.704 640.614 246.172 640.29C246.652 639.954 246.988 639.51 247.18 638.958H248.944C248.68 639.906 248.152 640.68 247.36 641.28C246.568 641.868 245.584 642.162 244.408 642.162C243.472 642.162 242.632 641.952 241.888 641.532C241.156 641.112 240.58 640.518 240.16 639.75C239.74 638.97 239.53 638.07 239.53 637.05C239.53 636.03 239.734 635.136 240.142 634.368C240.55 633.6 241.12 633.012 241.852 632.604C242.596 632.184 243.448 631.974 244.408 631.974C245.344 631.974 246.172 632.178 246.892 632.586C247.612 632.994 248.164 633.558 248.548 634.278C248.944 634.986 249.142 635.79 249.142 636.69ZM247.45 636.348C247.45 635.724 247.312 635.19 247.036 634.746C246.76 634.29 246.382 633.948 245.902 633.72C245.434 633.48 244.912 633.36 244.336 633.36C243.508 633.36 242.8 633.624 242.212 634.152C241.636 634.68 241.306 635.412 241.222 636.348H247.45ZM250.692 637.05C250.692 636.03 250.896 635.142 251.304 634.386C251.712 633.618 252.276 633.024 252.996 632.604C253.728 632.184 254.562 631.974 255.498 631.974C256.71 631.974 257.706 632.268 258.486 632.856C259.278 633.444 259.8 634.26 260.052 635.304H258.288C258.12 634.704 257.79 634.23 257.298 633.882C256.818 633.534 256.218 633.36 255.498 633.36C254.562 633.36 253.806 633.684 253.23 634.332C252.654 634.968 252.366 635.874 252.366 637.05C252.366 638.238 252.654 639.156 253.23 639.804C253.806 640.452 254.562 640.776 255.498 640.776C256.218 640.776 256.818 640.608 257.298 640.272C257.778 639.936 258.108 639.456 258.288 638.832H260.052C259.788 639.84 259.26 640.65 258.468 641.262C257.676 641.862 256.686 642.162 255.498 642.162C254.562 642.162 253.728 641.952 252.996 641.532C252.276 641.112 251.712 640.518 251.304 639.75C250.896 638.982 250.692 638.082 250.692 637.05ZM264.236 633.486V639.3C264.236 639.78 264.338 640.122 264.542 640.326C264.746 640.518 265.1 640.614 265.604 640.614H266.81V642H265.334C264.422 642 263.738 641.79 263.282 641.37C262.826 640.95 262.598 640.26 262.598 639.3V633.486H261.32V632.136H262.598V629.652H264.236V632.136H266.81V633.486H264.236ZM272.981 637.032C272.981 636.024 273.185 635.142 273.593 634.386C274.001 633.618 274.559 633.024 275.267 632.604C275.987 632.184 276.785 631.974 277.661 631.974C278.525 631.974 279.275 632.16 279.911 632.532C280.547 632.904 281.021 633.372 281.333 633.936V632.136H282.989V642H281.333V640.164C281.009 640.74 280.523 641.22 279.875 641.604C279.239 641.976 278.495 642.162 277.643 642.162C276.767 642.162 275.975 641.946 275.267 641.514C274.559 641.082 274.001 640.476 273.593 639.696C273.185 638.916 272.981 638.028 272.981 637.032ZM281.333 637.05C281.333 636.306 281.183 635.658 280.883 635.106C280.583 634.554 280.175 634.134 279.659 633.846C279.155 633.546 278.597 633.396 277.985 633.396C277.373 633.396 276.815 633.54 276.311 633.828C275.807 634.116 275.405 634.536 275.105 635.088C274.805 635.64 274.655 636.288 274.655 637.032C274.655 637.788 274.805 638.448 275.105 639.012C275.405 639.564 275.807 639.99 276.311 640.29C276.815 640.578 277.373 640.722 277.985 640.722C278.597 640.722 279.155 640.578 279.659 640.29C280.175 639.99 280.583 639.564 280.883 639.012C281.183 638.448 281.333 637.794 281.333 637.05ZM290.563 631.956C291.763 631.956 292.735 632.322 293.479 633.054C294.223 633.774 294.595 634.818 294.595 636.186V642H292.975V636.42C292.975 635.436 292.729 634.686 292.237 634.17C291.745 633.642 291.073 633.378 290.221 633.378C289.357 633.378 288.667 633.648 288.151 634.188C287.647 634.728 287.395 635.514 287.395 636.546V642H285.757V632.136H287.395V633.54C287.719 633.036 288.157 632.646 288.709 632.37C289.273 632.094 289.891 631.956 290.563 631.956ZM296.659 637.032C296.659 636.024 296.863 635.142 297.271 634.386C297.679 633.618 298.237 633.024 298.945 632.604C299.665 632.184 300.469 631.974 301.357 631.974C302.125 631.974 302.839 632.154 303.499 632.514C304.159 632.862 304.663 633.324 305.011 633.9V628.68H306.667V642H305.011V640.146C304.687 640.734 304.207 641.22 303.571 641.604C302.935 641.976 302.191 642.162 301.339 642.162C300.463 642.162 299.665 641.946 298.945 641.514C298.237 641.082 297.679 640.476 297.271 639.696C296.863 638.916 296.659 638.028 296.659 637.032ZM305.011 637.05C305.011 636.306 304.861 635.658 304.561 635.106C304.261 634.554 303.853 634.134 303.337 633.846C302.833 633.546 302.275 633.396 301.663 633.396C301.051 633.396 300.493 633.54 299.989 633.828C299.485 634.116 299.083 634.536 298.783 635.088C298.483 635.64 298.333 636.288 298.333 637.032C298.333 637.788 298.483 638.448 298.783 639.012C299.083 639.564 299.485 639.99 299.989 640.29C300.493 640.578 301.051 640.722 301.663 640.722C302.275 640.722 302.833 640.578 303.337 640.29C303.853 639.99 304.261 639.564 304.561 639.012C304.861 638.448 305.011 637.794 305.011 637.05ZM315.872 628.68V642H314.234V628.68H315.872ZM327.663 636.69C327.663 637.002 327.645 637.332 327.609 637.68H319.725C319.785 638.652 320.115 639.414 320.715 639.966C321.327 640.506 322.065 640.776 322.929 640.776C323.637 640.776 324.225 640.614 324.693 640.29C325.173 639.954 325.509 639.51 325.701 638.958H327.465C327.201 639.906 326.673 640.68 325.881 641.28C325.089 641.868 324.105 642.162 322.929 642.162C321.993 642.162 321.153 641.952 320.409 641.532C319.677 641.112 319.101 640.518 318.681 639.75C318.261 638.97 318.051 638.07 318.051 637.05C318.051 636.03 318.255 635.136 318.663 634.368C319.071 633.6 319.641 633.012 320.373 632.604C321.117 632.184 321.969 631.974 322.929 631.974C323.865 631.974 324.693 632.178 325.413 632.586C326.133 632.994 326.685 633.558 327.069 634.278C327.465 634.986 327.663 635.79 327.663 636.69ZM325.971 636.348C325.971 635.724 325.833 635.19 325.557 634.746C325.281 634.29 324.903 633.948 324.423 633.72C323.955 633.48 323.433 633.36 322.857 633.36C322.029 633.36 321.321 633.624 320.733 634.152C320.157 634.68 319.827 635.412 319.743 636.348H325.971ZM331.823 633.486V639.3C331.823 639.78 331.925 640.122 332.129 640.326C332.333 640.518 332.687 640.614 333.191 640.614H334.397V642H332.921C332.009 642 331.325 641.79 330.869 641.37C330.413 640.95 330.185 640.26 330.185 639.3V633.486H328.907V632.136H330.185V629.652H331.823V632.136H334.397V633.486H331.823ZM336.634 629.454H338.452L336.724 633.54H335.572L336.634 629.454ZM343.812 642.162C343.056 642.162 342.378 642.036 341.778 641.784C341.178 641.52 340.704 641.16 340.356 640.704C340.008 640.236 339.816 639.702 339.78 639.102H341.472C341.52 639.594 341.748 639.996 342.156 640.308C342.576 640.62 343.122 640.776 343.794 640.776C344.418 640.776 344.91 640.638 345.27 640.362C345.63 640.086 345.81 639.738 345.81 639.318C345.81 638.886 345.618 638.568 345.234 638.364C344.85 638.148 344.256 637.938 343.452 637.734C342.72 637.542 342.12 637.35 341.652 637.158C341.196 636.954 340.8 636.66 340.464 636.276C340.14 635.88 339.978 635.364 339.978 634.728C339.978 634.224 340.128 633.762 340.428 633.342C340.728 632.922 341.154 632.592 341.706 632.352C342.258 632.1 342.888 631.974 343.596 631.974C344.688 631.974 345.57 632.25 346.242 632.802C346.914 633.354 347.274 634.11 347.322 635.07H345.684C345.648 634.554 345.438 634.14 345.054 633.828C344.682 633.516 344.178 633.36 343.542 633.36C342.954 633.36 342.486 633.486 342.138 633.738C341.79 633.99 341.616 634.32 341.616 634.728C341.616 635.052 341.718 635.322 341.922 635.538C342.138 635.742 342.402 635.91 342.714 636.042C343.038 636.162 343.482 636.3 344.046 636.456C344.754 636.648 345.33 636.84 345.774 637.032C346.218 637.212 346.596 637.488 346.908 637.86C347.232 638.232 347.4 638.718 347.412 639.318C347.412 639.858 347.262 640.344 346.962 640.776C346.662 641.208 346.236 641.55 345.684 641.802C345.144 642.042 344.52 642.162 343.812 642.162ZM358.591 631.974C359.443 631.974 360.187 632.16 360.823 632.532C361.471 632.904 361.951 633.372 362.263 633.936V632.136H363.919V642.216C363.919 643.116 363.727 643.914 363.343 644.61C362.959 645.318 362.407 645.87 361.687 646.266C360.979 646.662 360.151 646.86 359.203 646.86C357.907 646.86 356.827 646.554 355.963 645.942C355.099 645.33 354.589 644.496 354.433 643.44H356.053C356.233 644.04 356.605 644.52 357.169 644.88C357.733 645.252 358.411 645.438 359.203 645.438C360.103 645.438 360.835 645.156 361.399 644.592C361.975 644.028 362.263 643.236 362.263 642.216V640.146C361.939 640.722 361.459 641.202 360.823 641.586C360.187 641.97 359.443 642.162 358.591 642.162C357.715 642.162 356.917 641.946 356.197 641.514C355.489 641.082 354.931 640.476 354.523 639.696C354.115 638.916 353.911 638.028 353.911 637.032C353.911 636.024 354.115 635.142 354.523 634.386C354.931 633.618 355.489 633.024 356.197 632.604C356.917 632.184 357.715 631.974 358.591 631.974ZM362.263 637.05C362.263 636.306 362.113 635.658 361.813 635.106C361.513 634.554 361.105 634.134 360.589 633.846C360.085 633.546 359.527 633.396 358.915 633.396C358.303 633.396 357.745 633.54 357.241 633.828C356.737 634.116 356.335 634.536 356.035 635.088C355.735 635.64 355.585 636.288 355.585 637.032C355.585 637.788 355.735 638.448 356.035 639.012C356.335 639.564 356.737 639.99 357.241 640.29C357.745 640.578 358.303 640.722 358.915 640.722C359.527 640.722 360.085 640.578 360.589 640.29C361.105 639.99 361.513 639.564 361.813 639.012C362.113 638.448 362.263 637.794 362.263 637.05ZM375.687 636.69C375.687 637.002 375.669 637.332 375.633 637.68H367.749C367.809 638.652 368.139 639.414 368.739 639.966C369.351 640.506 370.089 640.776 370.953 640.776C371.661 640.776 372.249 640.614 372.717 640.29C373.197 639.954 373.533 639.51 373.725 638.958H375.489C375.225 639.906 374.697 640.68 373.905 641.28C373.113 641.868 372.129 642.162 370.953 642.162C370.017 642.162 369.177 641.952 368.433 641.532C367.701 641.112 367.125 640.518 366.705 639.75C366.285 638.97 366.075 638.07 366.075 637.05C366.075 636.03 366.279 635.136 366.687 634.368C367.095 633.6 367.665 633.012 368.397 632.604C369.141 632.184 369.993 631.974 370.953 631.974C371.889 631.974 372.717 632.178 373.437 632.586C374.157 632.994 374.709 633.558 375.093 634.278C375.489 634.986 375.687 635.79 375.687 636.69ZM373.995 636.348C373.995 635.724 373.857 635.19 373.581 634.746C373.305 634.29 372.927 633.948 372.447 633.72C371.979 633.48 371.457 633.36 370.881 633.36C370.053 633.36 369.345 633.624 368.757 634.152C368.181 634.68 367.851 635.412 367.767 636.348H373.995ZM379.847 633.486V639.3C379.847 639.78 379.949 640.122 380.153 640.326C380.357 640.518 380.711 640.614 381.215 640.614H382.421V642H380.945C380.033 642 379.349 641.79 378.893 641.37C378.437 640.95 378.209 640.26 378.209 639.3V633.486H376.931V632.136H378.209V629.652H379.847V632.136H382.421V633.486H379.847ZM392.696 642.162C391.94 642.162 391.262 642.036 390.662 641.784C390.062 641.52 389.588 641.16 389.24 640.704C388.892 640.236 388.7 639.702 388.664 639.102H390.356C390.404 639.594 390.632 639.996 391.04 640.308C391.46 640.62 392.006 640.776 392.678 640.776C393.302 640.776 393.794 640.638 394.154 640.362C394.514 640.086 394.694 639.738 394.694 639.318C394.694 638.886 394.502 638.568 394.118 638.364C393.734 638.148 393.14 637.938 392.336 637.734C391.604 637.542 391.004 637.35 390.536 637.158C390.08 636.954 389.684 636.66 389.348 636.276C389.024 635.88 388.862 635.364 388.862 634.728C388.862 634.224 389.012 633.762 389.312 633.342C389.612 632.922 390.038 632.592 390.59 632.352C391.142 632.1 391.772 631.974 392.48 631.974C393.572 631.974 394.454 632.25 395.126 632.802C395.798 633.354 396.158 634.11 396.206 635.07H394.568C394.532 634.554 394.322 634.14 393.938 633.828C393.566 633.516 393.062 633.36 392.426 633.36C391.838 633.36 391.37 633.486 391.022 633.738C390.674 633.99 390.5 634.32 390.5 634.728C390.5 635.052 390.602 635.322 390.806 635.538C391.022 635.742 391.286 635.91 391.598 636.042C391.922 636.162 392.366 636.3 392.93 636.456C393.638 636.648 394.214 636.84 394.658 637.032C395.102 637.212 395.48 637.488 395.792 637.86C396.116 638.232 396.284 638.718 396.296 639.318C396.296 639.858 396.146 640.344 395.846 640.776C395.546 641.208 395.12 641.55 394.568 641.802C394.028 642.042 393.404 642.162 392.696 642.162ZM400.607 633.486V639.3C400.607 639.78 400.709 640.122 400.913 640.326C401.117 640.518 401.471 640.614 401.975 640.614H403.181V642H401.705C400.793 642 400.109 641.79 399.653 641.37C399.197 640.95 398.969 640.26 398.969 639.3V633.486H397.691V632.136H398.969V629.652H400.607V632.136H403.181V633.486H400.607ZM404.553 637.032C404.553 636.024 404.757 635.142 405.165 634.386C405.573 633.618 406.131 633.024 406.839 632.604C407.559 632.184 408.357 631.974 409.233 631.974C410.097 631.974 410.847 632.16 411.483 632.532C412.119 632.904 412.593 633.372 412.905 633.936V632.136H414.561V642H412.905V640.164C412.581 640.74 412.095 641.22 411.447 641.604C410.811 641.976 410.067 642.162 409.215 642.162C408.339 642.162 407.547 641.946 406.839 641.514C406.131 641.082 405.573 640.476 405.165 639.696C404.757 638.916 404.553 638.028 404.553 637.032ZM412.905 637.05C412.905 636.306 412.755 635.658 412.455 635.106C412.155 634.554 411.747 634.134 411.231 633.846C410.727 633.546 410.169 633.396 409.557 633.396C408.945 633.396 408.387 633.54 407.883 633.828C407.379 634.116 406.977 634.536 406.677 635.088C406.377 635.64 406.227 636.288 406.227 637.032C406.227 637.788 406.377 638.448 406.677 639.012C406.977 639.564 407.379 639.99 407.883 640.29C408.387 640.578 408.945 640.722 409.557 640.722C410.169 640.722 410.727 640.578 411.231 640.29C411.747 639.99 412.155 639.564 412.455 639.012C412.755 638.448 412.905 637.794 412.905 637.05ZM418.967 633.738C419.255 633.174 419.663 632.736 420.191 632.424C420.731 632.112 421.385 631.956 422.153 631.956V633.648H421.721C419.885 633.648 418.967 634.644 418.967 636.636V642H417.329V632.136H418.967V633.738ZM426.042 633.486V639.3C426.042 639.78 426.144 640.122 426.348 640.326C426.552 640.518 426.906 640.614 427.41 640.614H428.616V642H427.14C426.228 642 425.544 641.79 425.088 641.37C424.632 640.95 424.404 640.26 424.404 639.3V633.486H423.126V632.136H424.404V629.652H426.042V632.136H428.616V633.486H426.042ZM439.601 636.69C439.601 637.002 439.583 637.332 439.547 637.68H431.663C431.723 638.652 432.053 639.414 432.653 639.966C433.265 640.506 434.003 640.776 434.867 640.776C435.575 640.776 436.163 640.614 436.631 640.29C437.111 639.954 437.447 639.51 437.639 638.958H439.403C439.139 639.906 438.611 640.68 437.819 641.28C437.027 641.868 436.043 642.162 434.867 642.162C433.931 642.162 433.091 641.952 432.347 641.532C431.615 641.112 431.039 640.518 430.619 639.75C430.199 638.97 429.989 638.07 429.989 637.05C429.989 636.03 430.193 635.136 430.601 634.368C431.009 633.6 431.579 633.012 432.311 632.604C433.055 632.184 433.907 631.974 434.867 631.974C435.803 631.974 436.631 632.178 437.351 632.586C438.071 632.994 438.623 633.558 439.007 634.278C439.403 634.986 439.601 635.79 439.601 636.69ZM437.909 636.348C437.909 635.724 437.771 635.19 437.495 634.746C437.219 634.29 436.841 633.948 436.361 633.72C435.893 633.48 435.371 633.36 434.795 633.36C433.967 633.36 433.259 633.624 432.671 634.152C432.095 634.68 431.765 635.412 431.681 636.348H437.909ZM441.151 637.032C441.151 636.024 441.355 635.142 441.763 634.386C442.171 633.618 442.729 633.024 443.437 632.604C444.157 632.184 444.961 631.974 445.849 631.974C446.617 631.974 447.331 632.154 447.991 632.514C448.651 632.862 449.155 633.324 449.503 633.9V628.68H451.159V642H449.503V640.146C449.179 640.734 448.699 641.22 448.063 641.604C447.427 641.976 446.683 642.162 445.831 642.162C444.955 642.162 444.157 641.946 443.437 641.514C442.729 641.082 442.171 640.476 441.763 639.696C441.355 638.916 441.151 638.028 441.151 637.032ZM449.503 637.05C449.503 636.306 449.353 635.658 449.053 635.106C448.753 634.554 448.345 634.134 447.829 633.846C447.325 633.546 446.767 633.396 446.155 633.396C445.543 633.396 444.985 633.54 444.481 633.828C443.977 634.116 443.575 634.536 443.275 635.088C442.975 635.64 442.825 636.288 442.825 637.032C442.825 637.788 442.975 638.448 443.275 639.012C443.575 639.564 443.977 639.99 444.481 640.29C444.985 640.578 445.543 640.722 446.155 640.722C446.767 640.722 447.325 640.578 447.829 640.29C448.345 639.99 448.753 639.564 449.053 639.012C449.353 638.448 449.503 637.794 449.503 637.05ZM454.179 629.454H455.997L454.269 633.54H453.117L454.179 629.454ZM457.095 629.454H458.913L457.185 633.54H456.015L457.095 629.454Z" fill="#737373"/>
</svg>
