<svg width="747" height="756" viewBox="0 0 747 756" fill="none" xmlns="http://www.w3.org/2000/svg">
<path d="M205.168 596.672C262.59 638.676 337.227 630.622 406.098 621.861C466.633 614.152 523.887 594.377 565.085 550.842C607.326 506.215 629.378 447.556 630.295 384.991C631.293 315.674 623.52 238.456 570.298 191.37C517.328 144.519 441.065 154.511 371.818 156.315C302.124 158.142 227.813 155.59 177.489 201.663C123.483 251.111 99.1833 326.518 104.404 401.133C109.653 476.021 143.332 551.422 205.168 596.672Z" fill="#E2EFFD"/>
<path d="M270.119 524.573C307.28 551.752 355.574 546.541 400.134 540.876C439.302 535.884 476.352 523.085 503.005 494.916C530.338 466.039 544.609 428.086 545.201 387.603C545.848 342.755 540.819 292.786 506.381 262.319C472.108 232.001 422.759 238.468 377.953 239.637C332.856 240.823 284.775 239.164 252.213 268.981C217.265 300.979 201.541 349.763 204.92 398.048C208.316 446.504 230.108 495.294 270.119 524.573Z" fill="#B3D4FF" fill-opacity="0.5"/>
<path d="M335.072 452.474C351.962 464.828 373.914 462.459 394.169 459.883C411.973 457.615 428.813 451.798 440.93 438.994C453.354 425.868 459.84 408.615 460.109 390.214C460.403 369.828 458.118 347.116 442.463 333.268C426.884 319.487 404.454 322.425 384.087 322.958C363.589 323.495 341.734 322.744 326.932 336.295C311.047 350.838 303.9 373.016 305.437 394.962C306.979 416.988 316.885 439.165 335.072 452.474Z" fill="#71ADFB" fill-opacity="0.5"/>
<g clip-path="url(#clip0_2206_42895)">
<path d="M366.221 271.515C347.266 268.367 328.487 278.2 320.389 295.637C318.019 300.731 315.968 306.673 314.447 313.57C306.561 349.506 302.211 374.018 269.358 398.565C236.504 423.112 308.435 499.229 345.179 467.714C381.923 436.199 444.094 475.814 458.134 452.505C472.138 429.196 446.817 403.8 459.018 384.523C471.219 365.246 482.712 294.293 449.434 270.63C416.121 246.968 374.178 241.733 366.221 271.515Z" fill="#333333"/>
<path d="M356.424 420.459C356.424 420.459 276.783 413.244 292.556 602.405H466.019C466.019 602.405 482.428 424.385 402.115 420.459H356.424Z" fill="#71ADFB"/>
<path d="M361.764 365.494C361.764 365.494 355.646 425.73 356.495 438.003C357.344 450.277 394.335 460.782 401.16 443.273C405.298 432.662 394.335 365.529 394.335 365.529H361.764V365.494Z" fill="#FCD2B1"/>
<path d="M431.114 290.827C431.114 290.827 475.779 393.861 408.304 403.34C390.869 405.781 365.689 386.504 361.764 372.497C358.298 360.224 352.427 369.632 347.936 359.163C341.818 344.873 346.027 303.702 359.147 330.194C368.801 349.683 388.924 293.975 408.197 302.747C427.471 311.519 431.114 290.827 431.114 290.827Z" fill="#FFE3CA"/>
<path d="M329.156 629.286L265.818 429.196C265.818 429.196 215.07 452.54 184.586 472.312C184.586 472.312 203.223 523.458 217.051 551.471C230.878 579.484 238.022 588.539 260.973 600.282C283.96 612.025 329.156 629.286 329.156 629.286Z" fill="#FFD233"/>
<path d="M329.158 629.286L265.82 429.196C265.82 429.196 320.742 419.08 357.061 417.7C357.061 417.7 371.242 470.261 376.052 501.139C380.861 531.982 380.225 543.513 368.201 566.362C356.212 589.141 329.158 629.286 329.158 629.286Z" fill="#FFD233"/>
<path d="M193.43 475.283C198.593 489.184 212.703 526.252 223.56 548.253C236.61 574.71 242.799 582.809 264.3 593.845C282.018 602.9 313.74 615.527 326.365 620.443L268.014 436.128C261.754 439.064 221.156 458.129 193.43 475.283Z" fill="#F9F3ED"/>
<path d="M361.802 562.967C373.048 541.567 373.437 531.381 368.875 502.236C365.127 478.007 355.295 439.559 351.547 425.199C318.976 427.144 274.806 434.89 268.016 436.128L326.367 620.443C333.864 609.16 352.537 580.581 361.802 562.967Z" fill="#F9F3ED"/>
<path d="M198.734 477.123C204.852 493.358 217.478 526.182 227.45 546.343C239.969 571.703 245.451 579.308 266.281 589.99C282.442 598.266 310.451 609.549 324.668 615.138L269.357 440.302C262.992 443.273 225.611 460.888 198.734 477.123Z" fill="#FFD233"/>
<path d="M357.983 560.95C368.875 540.223 368.981 530.886 364.632 502.908C361.166 480.695 352.643 446.563 348.293 429.797C316.96 431.99 276.291 439.1 269.359 440.337L324.705 615.138C333.086 602.369 349.531 577.009 357.983 560.95Z" fill="#FFD233"/>
<path d="M403.601 619.595L514.399 631.727C517.829 632.116 520.906 629.64 521.259 626.209L542.337 433.723C542.726 430.292 540.25 427.215 536.82 426.861L419.834 414.022L398.049 612.697C397.696 616.128 400.171 619.205 403.601 619.595Z" fill="#D3D3D3"/>
<path d="M534.486 426.614L530.348 426.154L419.869 414.057L415.731 413.598C410.993 413.067 406.749 416.498 406.218 421.238L385.636 608.983C385.106 613.723 388.536 617.968 393.275 618.498L499.333 630.135C504.072 630.666 508.316 627.235 508.846 622.495L518.253 536.686L522.391 537.146C527.13 537.677 531.374 534.246 531.904 529.506L542.124 436.129C542.62 431.354 539.225 427.109 534.486 426.614Z" fill="#FFE794"/>
<path d="M344.611 532.159V500.715C344.611 490.67 353.876 483.171 361.373 483.171H379.409C392.034 483.171 398.754 490.634 398.754 500.715V532.159H414.208V500.715C414.208 482.145 400.557 467.714 379.409 467.714H361.373C345.389 467.714 329.156 482.145 329.156 500.715V532.159H344.611Z" fill="#CCE9FF"/>
<path d="M421.92 612.591C421.92 621.116 416.757 627.553 408.269 627.553H337.646C329.124 627.553 321.414 621.116 321.414 612.591V536.793C321.414 528.268 329.159 526.995 337.646 526.995H408.269C416.792 526.995 421.92 528.268 421.92 536.793V612.591Z" fill="#3B8CF7"/>
<path d="M385.568 566.468C385.568 559.253 379.91 553.311 372.695 553.311C365.481 553.311 360.07 559.253 360.07 566.468C360.07 571.632 362.652 575.735 367.815 578.07V602.299C367.815 605.659 369.619 608.241 372.978 608.241C376.338 608.241 378.142 605.659 378.142 602.299V578.07C383.269 575.735 385.568 571.597 385.568 566.468Z" fill="#F6F9FE"/>
<path d="M304.509 600.176L325.233 594.8C325.233 594.8 327.744 584.932 332.483 581.182C337.221 577.433 342.88 574.604 345.426 574.922C347.937 575.24 342.597 582.173 340.051 585.321C337.504 588.469 341.324 589.424 351.403 582.491C361.482 575.559 370.004 573.33 372.515 587.514C375.026 601.733 360.527 608.347 342.88 608.347C325.233 608.347 311.37 618.286 311.37 618.286C311.37 618.286 285.059 615.952 304.509 600.176Z" fill="#FFE3CA"/>
<path d="M217.087 551.471C217.087 551.471 209.342 551.896 202.34 565.902C195.338 579.909 204.285 646.936 326.399 620.443L318.371 595.047C318.336 595.047 224.054 566.539 217.087 551.471Z" fill="#71ADFB"/>
<path d="M442.255 600.176L421.531 594.8C421.531 594.8 419.02 584.932 414.281 581.182C409.543 577.433 403.884 574.604 401.338 574.922C398.827 575.24 404.167 582.173 406.713 585.321C409.26 588.469 405.44 589.424 395.361 582.491C385.282 575.559 376.76 573.33 374.249 587.514C371.738 601.733 386.237 608.347 403.884 608.347C421.531 608.347 435.394 618.286 435.394 618.286C435.394 618.286 461.705 615.952 442.255 600.176Z" fill="#FFE3CA"/>
<path d="M529.499 551.471C529.499 551.471 537.244 551.896 544.246 565.902C551.249 579.909 542.301 646.936 420.188 620.443L428.215 595.047C428.251 595.047 522.497 566.539 529.499 551.471Z" fill="#71ADFB"/>
</g>
<path d="M156.264 674.54H154.428L156.156 670.454H157.326L156.264 674.54ZM159.18 674.54H157.344L159.072 670.454H160.242L159.18 674.54ZM166.198 683.126C165.37 683.126 164.626 682.982 163.966 682.694C163.318 682.394 162.808 681.986 162.436 681.47C162.064 680.942 161.872 680.336 161.86 679.652H163.606C163.666 680.24 163.906 680.738 164.326 681.146C164.758 681.542 165.382 681.74 166.198 681.74C166.978 681.74 167.59 681.548 168.034 681.164C168.49 680.768 168.718 680.264 168.718 679.652C168.718 679.172 168.586 678.782 168.322 678.482C168.058 678.182 167.728 677.954 167.332 677.798C166.936 677.642 166.402 677.474 165.73 677.294C164.902 677.078 164.236 676.862 163.732 676.646C163.24 676.43 162.814 676.094 162.454 675.638C162.106 675.17 161.932 674.546 161.932 673.766C161.932 673.082 162.106 672.476 162.454 671.948C162.802 671.42 163.288 671.012 163.912 670.724C164.548 670.436 165.274 670.292 166.09 670.292C167.266 670.292 168.226 670.586 168.97 671.174C169.726 671.762 170.152 672.542 170.248 673.514H168.448C168.388 673.034 168.136 672.614 167.692 672.254C167.248 671.882 166.66 671.696 165.928 671.696C165.244 671.696 164.686 671.876 164.254 672.236C163.822 672.584 163.606 673.076 163.606 673.712C163.606 674.168 163.732 674.54 163.984 674.828C164.248 675.116 164.566 675.338 164.938 675.494C165.322 675.638 165.856 675.806 166.54 675.998C167.368 676.226 168.034 676.454 168.538 676.682C169.042 676.898 169.474 677.24 169.834 677.708C170.194 678.164 170.374 678.788 170.374 679.58C170.374 680.192 170.212 680.768 169.888 681.308C169.564 681.848 169.084 682.286 168.448 682.622C167.812 682.958 167.062 683.126 166.198 683.126ZM181.784 677.69C181.784 678.002 181.766 678.332 181.73 678.68H173.846C173.906 679.652 174.236 680.414 174.836 680.966C175.448 681.506 176.186 681.776 177.05 681.776C177.758 681.776 178.346 681.614 178.814 681.29C179.294 680.954 179.63 680.51 179.822 679.958H181.586C181.322 680.906 180.794 681.68 180.002 682.28C179.21 682.868 178.226 683.162 177.05 683.162C176.114 683.162 175.274 682.952 174.53 682.532C173.798 682.112 173.222 681.518 172.802 680.75C172.382 679.97 172.172 679.07 172.172 678.05C172.172 677.03 172.376 676.136 172.784 675.368C173.192 674.6 173.762 674.012 174.494 673.604C175.238 673.184 176.09 672.974 177.05 672.974C177.986 672.974 178.814 673.178 179.534 673.586C180.254 673.994 180.806 674.558 181.19 675.278C181.586 675.986 181.784 676.79 181.784 677.69ZM180.092 677.348C180.092 676.724 179.954 676.19 179.678 675.746C179.402 675.29 179.024 674.948 178.544 674.72C178.076 674.48 177.554 674.36 176.978 674.36C176.15 674.36 175.442 674.624 174.854 675.152C174.278 675.68 173.948 676.412 173.864 677.348H180.092ZM185.945 674.486V680.3C185.945 680.78 186.047 681.122 186.251 681.326C186.455 681.518 186.809 681.614 187.313 681.614H188.519V683H187.043C186.131 683 185.447 682.79 184.991 682.37C184.535 681.95 184.307 681.26 184.307 680.3V674.486H183.029V673.136H184.307V670.652H185.945V673.136H188.519V674.486H185.945ZM204.05 673.136V683H202.412V681.542C202.1 682.046 201.662 682.442 201.098 682.73C200.546 683.006 199.934 683.144 199.262 683.144C198.494 683.144 197.804 682.988 197.192 682.676C196.58 682.352 196.094 681.872 195.734 681.236C195.386 680.6 195.212 679.826 195.212 678.914V673.136H196.832V678.698C196.832 679.67 197.078 680.42 197.57 680.948C198.062 681.464 198.734 681.722 199.586 681.722C200.462 681.722 201.152 681.452 201.656 680.912C202.16 680.372 202.412 679.586 202.412 678.554V673.136H204.05ZM208.454 674.954C208.778 674.39 209.258 673.922 209.894 673.55C210.542 673.166 211.292 672.974 212.144 672.974C213.02 672.974 213.812 673.184 214.52 673.604C215.24 674.024 215.804 674.618 216.212 675.386C216.62 676.142 216.824 677.024 216.824 678.032C216.824 679.028 216.62 679.916 216.212 680.696C215.804 681.476 215.24 682.082 214.52 682.514C213.812 682.946 213.02 683.162 212.144 683.162C211.304 683.162 210.56 682.976 209.912 682.604C209.276 682.22 208.79 681.746 208.454 681.182V687.68H206.816V673.136H208.454V674.954ZM215.15 678.032C215.15 677.288 215 676.64 214.7 676.088C214.4 675.536 213.992 675.116 213.476 674.828C212.972 674.54 212.414 674.396 211.802 674.396C211.202 674.396 210.644 674.546 210.128 674.846C209.624 675.134 209.216 675.56 208.904 676.124C208.604 676.676 208.454 677.318 208.454 678.05C208.454 678.794 208.604 679.448 208.904 680.012C209.216 680.564 209.624 680.99 210.128 681.29C210.644 681.578 211.202 681.722 211.802 681.722C212.414 681.722 212.972 681.578 213.476 681.29C213.992 680.99 214.4 680.564 214.7 680.012C215 679.448 215.15 678.788 215.15 678.032ZM232.275 673.136L226.335 687.644H224.643L226.587 682.892L222.609 673.136H224.427L227.523 681.128L230.583 673.136H232.275ZM238.223 683.162C237.299 683.162 236.459 682.952 235.703 682.532C234.959 682.112 234.371 681.518 233.939 680.75C233.519 679.97 233.309 679.07 233.309 678.05C233.309 677.042 233.525 676.154 233.957 675.386C234.401 674.606 235.001 674.012 235.757 673.604C236.513 673.184 237.359 672.974 238.295 672.974C239.231 672.974 240.077 673.184 240.833 673.604C241.589 674.012 242.183 674.6 242.615 675.368C243.059 676.136 243.281 677.03 243.281 678.05C243.281 679.07 243.053 679.97 242.597 680.75C242.153 681.518 241.547 682.112 240.779 682.532C240.011 682.952 239.159 683.162 238.223 683.162ZM238.223 681.722C238.811 681.722 239.363 681.584 239.879 681.308C240.395 681.032 240.809 680.618 241.121 680.066C241.445 679.514 241.607 678.842 241.607 678.05C241.607 677.258 241.451 676.586 241.139 676.034C240.827 675.482 240.419 675.074 239.915 674.81C239.411 674.534 238.865 674.396 238.277 674.396C237.677 674.396 237.125 674.534 236.621 674.81C236.129 675.074 235.733 675.482 235.433 676.034C235.133 676.586 234.983 677.258 234.983 678.05C234.983 678.854 235.127 679.532 235.415 680.084C235.715 680.636 236.111 681.05 236.603 681.326C237.095 681.59 237.635 681.722 238.223 681.722ZM254.183 673.136V683H252.545V681.542C252.233 682.046 251.795 682.442 251.231 682.73C250.679 683.006 250.067 683.144 249.395 683.144C248.627 683.144 247.937 682.988 247.325 682.676C246.713 682.352 246.227 681.872 245.867 681.236C245.519 680.6 245.345 679.826 245.345 678.914V673.136H246.965V678.698C246.965 679.67 247.211 680.42 247.703 680.948C248.195 681.464 248.867 681.722 249.719 681.722C250.595 681.722 251.285 681.452 251.789 680.912C252.293 680.372 252.545 679.586 252.545 678.554V673.136H254.183ZM258.587 674.738C258.875 674.174 259.283 673.736 259.811 673.424C260.351 673.112 261.005 672.956 261.773 672.956V674.648H261.341C259.505 674.648 258.587 675.644 258.587 677.636V683H256.949V673.136H258.587V674.738ZM267.85 678.032C267.85 677.024 268.054 676.142 268.462 675.386C268.87 674.618 269.428 674.024 270.136 673.604C270.856 673.184 271.654 672.974 272.53 672.974C273.394 672.974 274.144 673.16 274.78 673.532C275.416 673.904 275.89 674.372 276.202 674.936V673.136H277.858V683H276.202V681.164C275.878 681.74 275.392 682.22 274.744 682.604C274.108 682.976 273.364 683.162 272.512 683.162C271.636 683.162 270.844 682.946 270.136 682.514C269.428 682.082 268.87 681.476 268.462 680.696C268.054 679.916 267.85 679.028 267.85 678.032ZM276.202 678.05C276.202 677.306 276.052 676.658 275.752 676.106C275.452 675.554 275.044 675.134 274.528 674.846C274.024 674.546 273.466 674.396 272.854 674.396C272.242 674.396 271.684 674.54 271.18 674.828C270.676 675.116 270.274 675.536 269.974 676.088C269.674 676.64 269.524 677.288 269.524 678.032C269.524 678.788 269.674 679.448 269.974 680.012C270.274 680.564 270.676 680.99 271.18 681.29C271.684 681.578 272.242 681.722 272.854 681.722C273.466 681.722 274.024 681.578 274.528 681.29C275.044 680.99 275.452 680.564 275.752 680.012C276.052 679.448 276.202 678.794 276.202 678.05ZM280.014 678.05C280.014 677.03 280.218 676.142 280.626 675.386C281.034 674.618 281.598 674.024 282.318 673.604C283.05 673.184 283.884 672.974 284.82 672.974C286.032 672.974 287.028 673.268 287.808 673.856C288.6 674.444 289.122 675.26 289.374 676.304H287.61C287.442 675.704 287.112 675.23 286.62 674.882C286.14 674.534 285.54 674.36 284.82 674.36C283.884 674.36 283.128 674.684 282.552 675.332C281.976 675.968 281.688 676.874 281.688 678.05C281.688 679.238 281.976 680.156 282.552 680.804C283.128 681.452 283.884 681.776 284.82 681.776C285.54 681.776 286.14 681.608 286.62 681.272C287.1 680.936 287.43 680.456 287.61 679.832H289.374C289.11 680.84 288.582 681.65 287.79 682.262C286.998 682.862 286.008 683.162 284.82 683.162C283.884 683.162 283.05 682.952 282.318 682.532C281.598 682.112 281.034 681.518 280.626 680.75C280.218 679.982 280.014 679.082 280.014 678.05ZM290.948 678.05C290.948 677.03 291.152 676.142 291.56 675.386C291.968 674.618 292.532 674.024 293.252 673.604C293.984 673.184 294.818 672.974 295.754 672.974C296.966 672.974 297.962 673.268 298.742 673.856C299.534 674.444 300.056 675.26 300.308 676.304H298.544C298.376 675.704 298.046 675.23 297.554 674.882C297.074 674.534 296.474 674.36 295.754 674.36C294.818 674.36 294.062 674.684 293.486 675.332C292.91 675.968 292.622 676.874 292.622 678.05C292.622 679.238 292.91 680.156 293.486 680.804C294.062 681.452 294.818 681.776 295.754 681.776C296.474 681.776 297.074 681.608 297.554 681.272C298.034 680.936 298.364 680.456 298.544 679.832H300.308C300.044 680.84 299.516 681.65 298.724 682.262C297.932 682.862 296.942 683.162 295.754 683.162C294.818 683.162 293.984 682.952 293.252 682.532C292.532 682.112 291.968 681.518 291.56 680.75C291.152 679.982 290.948 679.082 290.948 678.05ZM306.795 683.162C305.871 683.162 305.031 682.952 304.275 682.532C303.531 682.112 302.943 681.518 302.511 680.75C302.091 679.97 301.881 679.07 301.881 678.05C301.881 677.042 302.097 676.154 302.529 675.386C302.973 674.606 303.573 674.012 304.329 673.604C305.085 673.184 305.931 672.974 306.867 672.974C307.803 672.974 308.649 673.184 309.405 673.604C310.161 674.012 310.755 674.6 311.187 675.368C311.631 676.136 311.853 677.03 311.853 678.05C311.853 679.07 311.625 679.97 311.169 680.75C310.725 681.518 310.119 682.112 309.351 682.532C308.583 682.952 307.731 683.162 306.795 683.162ZM306.795 681.722C307.383 681.722 307.935 681.584 308.451 681.308C308.967 681.032 309.381 680.618 309.693 680.066C310.017 679.514 310.179 678.842 310.179 678.05C310.179 677.258 310.023 676.586 309.711 676.034C309.399 675.482 308.991 675.074 308.487 674.81C307.983 674.534 307.437 674.396 306.849 674.396C306.249 674.396 305.697 674.534 305.193 674.81C304.701 675.074 304.305 675.482 304.005 676.034C303.705 676.586 303.555 677.258 303.555 678.05C303.555 678.854 303.699 679.532 303.987 680.084C304.287 680.636 304.683 681.05 305.175 681.326C305.667 681.59 306.207 681.722 306.795 681.722ZM322.755 673.136V683H321.117V681.542C320.805 682.046 320.367 682.442 319.803 682.73C319.251 683.006 318.639 683.144 317.967 683.144C317.199 683.144 316.509 682.988 315.897 682.676C315.285 682.352 314.799 681.872 314.439 681.236C314.091 680.6 313.917 679.826 313.917 678.914V673.136H315.537V678.698C315.537 679.67 315.783 680.42 316.275 680.948C316.767 681.464 317.439 681.722 318.291 681.722C319.167 681.722 319.857 681.452 320.361 680.912C320.865 680.372 321.117 679.586 321.117 678.554V673.136H322.755ZM330.327 672.956C331.527 672.956 332.499 673.322 333.243 674.054C333.987 674.774 334.359 675.818 334.359 677.186V683H332.739V677.42C332.739 676.436 332.493 675.686 332.001 675.17C331.509 674.642 330.837 674.378 329.985 674.378C329.121 674.378 328.431 674.648 327.915 675.188C327.411 675.728 327.159 676.514 327.159 677.546V683H325.521V673.136H327.159V674.54C327.483 674.036 327.921 673.646 328.473 673.37C329.037 673.094 329.655 672.956 330.327 672.956ZM339.032 674.486V680.3C339.032 680.78 339.134 681.122 339.338 681.326C339.542 681.518 339.896 681.614 340.4 681.614H341.606V683H340.13C339.218 683 338.534 682.79 338.078 682.37C337.622 681.95 337.394 681.26 337.394 680.3V674.486H336.116V673.136H337.394V670.652H339.032V673.136H341.606V674.486H339.032ZM361.53 673.136L358.452 683H356.76L354.384 675.17L352.008 683H350.316L347.22 673.136H348.894L351.162 681.416L353.61 673.136H355.284L357.678 681.434L359.91 673.136H361.53ZM364.002 671.534C363.69 671.534 363.426 671.426 363.21 671.21C362.994 670.994 362.886 670.73 362.886 670.418C362.886 670.106 362.994 669.842 363.21 669.626C363.426 669.41 363.69 669.302 364.002 669.302C364.302 669.302 364.554 669.41 364.758 669.626C364.974 669.842 365.082 670.106 365.082 670.418C365.082 670.73 364.974 670.994 364.758 671.21C364.554 671.426 364.302 671.534 364.002 671.534ZM364.794 673.136V683H363.156V673.136H364.794ZM369.583 674.486V680.3C369.583 680.78 369.685 681.122 369.889 681.326C370.093 681.518 370.447 681.614 370.951 681.614H372.157V683H370.681C369.769 683 369.085 682.79 368.629 682.37C368.173 681.95 367.945 681.26 367.945 680.3V674.486H366.667V673.136H367.945V670.652H369.583V673.136H372.157V674.486H369.583ZM379.038 672.956C379.782 672.956 380.454 673.118 381.054 673.442C381.654 673.754 382.122 674.228 382.458 674.864C382.806 675.5 382.98 676.274 382.98 677.186V683H381.36V677.42C381.36 676.436 381.114 675.686 380.622 675.17C380.13 674.642 379.458 674.378 378.606 674.378C377.742 674.378 377.052 674.648 376.536 675.188C376.032 675.728 375.78 676.514 375.78 677.546V683H374.142V669.68H375.78V674.54C376.104 674.036 376.548 673.646 377.112 673.37C377.688 673.094 378.33 672.956 379.038 672.956ZM394.126 681.488L397.186 673.136H398.932L395.062 683H393.154L389.284 673.136H391.048L394.126 681.488ZM409.544 677.69C409.544 678.002 409.526 678.332 409.49 678.68H401.606C401.666 679.652 401.996 680.414 402.596 680.966C403.208 681.506 403.946 681.776 404.81 681.776C405.518 681.776 406.106 681.614 406.574 681.29C407.054 680.954 407.39 680.51 407.582 679.958H409.346C409.082 680.906 408.554 681.68 407.762 682.28C406.97 682.868 405.986 683.162 404.81 683.162C403.874 683.162 403.034 682.952 402.29 682.532C401.558 682.112 400.982 681.518 400.562 680.75C400.142 679.97 399.932 679.07 399.932 678.05C399.932 677.03 400.136 676.136 400.544 675.368C400.952 674.6 401.522 674.012 402.254 673.604C402.998 673.184 403.85 672.974 404.81 672.974C405.746 672.974 406.574 673.178 407.294 673.586C408.014 673.994 408.566 674.558 408.95 675.278C409.346 675.986 409.544 676.79 409.544 677.69ZM407.852 677.348C407.852 676.724 407.714 676.19 407.438 675.746C407.162 675.29 406.784 674.948 406.304 674.72C405.836 674.48 405.314 674.36 404.738 674.36C403.91 674.36 403.202 674.624 402.614 675.152C402.038 675.68 401.708 676.412 401.624 677.348H407.852ZM413.344 674.738C413.632 674.174 414.04 673.736 414.568 673.424C415.108 673.112 415.762 672.956 416.53 672.956V674.648H416.098C414.262 674.648 413.344 675.644 413.344 677.636V683H411.706V673.136H413.344V674.738ZM419.267 671.534C418.955 671.534 418.691 671.426 418.475 671.21C418.259 670.994 418.151 670.73 418.151 670.418C418.151 670.106 418.259 669.842 418.475 669.626C418.691 669.41 418.955 669.302 419.267 669.302C419.567 669.302 419.819 669.41 420.023 669.626C420.239 669.842 420.347 670.106 420.347 670.418C420.347 670.73 420.239 670.994 420.023 671.21C419.819 671.426 419.567 671.534 419.267 671.534ZM420.059 673.136V683H418.421V673.136H420.059ZM426.865 674.486H424.795V683H423.157V674.486H421.879V673.136H423.157V672.434C423.157 671.33 423.439 670.526 424.003 670.022C424.579 669.506 425.497 669.248 426.757 669.248V670.616C426.037 670.616 425.527 670.76 425.227 671.048C424.939 671.324 424.795 671.786 424.795 672.434V673.136H426.865V674.486ZM429.621 671.534C429.309 671.534 429.045 671.426 428.829 671.21C428.613 670.994 428.505 670.73 428.505 670.418C428.505 670.106 428.613 669.842 428.829 669.626C429.045 669.41 429.309 669.302 429.621 669.302C429.921 669.302 430.173 669.41 430.377 669.626C430.593 669.842 430.701 670.106 430.701 670.418C430.701 670.73 430.593 670.994 430.377 671.21C430.173 671.426 429.921 671.534 429.621 671.534ZM430.413 673.136V683H428.775V673.136H430.413ZM442.204 677.69C442.204 678.002 442.186 678.332 442.15 678.68H434.266C434.326 679.652 434.656 680.414 435.256 680.966C435.868 681.506 436.606 681.776 437.47 681.776C438.178 681.776 438.766 681.614 439.234 681.29C439.714 680.954 440.05 680.51 440.242 679.958H442.006C441.742 680.906 441.214 681.68 440.422 682.28C439.63 682.868 438.646 683.162 437.47 683.162C436.534 683.162 435.694 682.952 434.95 682.532C434.218 682.112 433.642 681.518 433.222 680.75C432.802 679.97 432.592 679.07 432.592 678.05C432.592 677.03 432.796 676.136 433.204 675.368C433.612 674.6 434.182 674.012 434.914 673.604C435.658 673.184 436.51 672.974 437.47 672.974C438.406 672.974 439.234 673.178 439.954 673.586C440.674 673.994 441.226 674.558 441.61 675.278C442.006 675.986 442.204 676.79 442.204 677.69ZM440.512 677.348C440.512 676.724 440.374 676.19 440.098 675.746C439.822 675.29 439.444 674.948 438.964 674.72C438.496 674.48 437.974 674.36 437.398 674.36C436.57 674.36 435.862 674.624 435.274 675.152C434.698 675.68 434.368 676.412 434.284 677.348H440.512ZM443.754 678.032C443.754 677.024 443.958 676.142 444.366 675.386C444.774 674.618 445.332 674.024 446.04 673.604C446.76 673.184 447.564 672.974 448.452 672.974C449.22 672.974 449.934 673.154 450.594 673.514C451.254 673.862 451.758 674.324 452.106 674.9V669.68H453.762V683H452.106V681.146C451.782 681.734 451.302 682.22 450.666 682.604C450.03 682.976 449.286 683.162 448.434 683.162C447.558 683.162 446.76 682.946 446.04 682.514C445.332 682.082 444.774 681.476 444.366 680.696C443.958 679.916 443.754 679.028 443.754 678.032ZM452.106 678.05C452.106 677.306 451.956 676.658 451.656 676.106C451.356 675.554 450.948 675.134 450.432 674.846C449.928 674.546 449.37 674.396 448.758 674.396C448.146 674.396 447.588 674.54 447.084 674.828C446.58 675.116 446.178 675.536 445.878 676.088C445.578 676.64 445.428 677.288 445.428 678.032C445.428 678.788 445.578 679.448 445.878 680.012C446.178 680.564 446.58 680.99 447.084 681.29C447.588 681.578 448.146 681.722 448.758 681.722C449.37 681.722 449.928 681.578 450.432 681.29C450.948 680.99 451.356 680.564 451.656 680.012C451.956 679.448 452.106 678.794 452.106 678.05ZM470.329 677.69C470.329 678.002 470.311 678.332 470.275 678.68H462.391C462.451 679.652 462.781 680.414 463.381 680.966C463.993 681.506 464.731 681.776 465.595 681.776C466.303 681.776 466.891 681.614 467.359 681.29C467.839 680.954 468.175 680.51 468.367 679.958H470.131C469.867 680.906 469.339 681.68 468.547 682.28C467.755 682.868 466.771 683.162 465.595 683.162C464.659 683.162 463.819 682.952 463.075 682.532C462.343 682.112 461.767 681.518 461.347 680.75C460.927 679.97 460.717 679.07 460.717 678.05C460.717 677.03 460.921 676.136 461.329 675.368C461.737 674.6 462.307 674.012 463.039 673.604C463.783 673.184 464.635 672.974 465.595 672.974C466.531 672.974 467.359 673.178 468.079 673.586C468.799 673.994 469.351 674.558 469.735 675.278C470.131 675.986 470.329 676.79 470.329 677.69ZM468.637 677.348C468.637 676.724 468.499 676.19 468.223 675.746C467.947 675.29 467.569 674.948 467.089 674.72C466.621 674.48 466.099 674.36 465.523 674.36C464.695 674.36 463.987 674.624 463.399 675.152C462.823 675.68 462.493 676.412 462.409 677.348H468.637ZM484.353 672.956C485.121 672.956 485.805 673.118 486.405 673.442C487.005 673.754 487.479 674.228 487.827 674.864C488.175 675.5 488.349 676.274 488.349 677.186V683H486.729V677.42C486.729 676.436 486.483 675.686 485.991 675.17C485.511 674.642 484.857 674.378 484.029 674.378C483.177 674.378 482.499 674.654 481.995 675.206C481.491 675.746 481.239 676.532 481.239 677.564V683H479.619V677.42C479.619 676.436 479.373 675.686 478.881 675.17C478.401 674.642 477.747 674.378 476.919 674.378C476.067 674.378 475.389 674.654 474.885 675.206C474.381 675.746 474.129 676.532 474.129 677.564V683H472.491V673.136H474.129V674.558C474.453 674.042 474.885 673.646 475.425 673.37C475.977 673.094 476.583 672.956 477.243 672.956C478.071 672.956 478.803 673.142 479.439 673.514C480.075 673.886 480.549 674.432 480.861 675.152C481.137 674.456 481.593 673.916 482.229 673.532C482.865 673.148 483.573 672.956 484.353 672.956ZM490.424 678.032C490.424 677.024 490.628 676.142 491.036 675.386C491.444 674.618 492.002 674.024 492.71 673.604C493.43 673.184 494.228 672.974 495.104 672.974C495.968 672.974 496.718 673.16 497.354 673.532C497.99 673.904 498.464 674.372 498.776 674.936V673.136H500.432V683H498.776V681.164C498.452 681.74 497.966 682.22 497.318 682.604C496.682 682.976 495.938 683.162 495.086 683.162C494.21 683.162 493.418 682.946 492.71 682.514C492.002 682.082 491.444 681.476 491.036 680.696C490.628 679.916 490.424 679.028 490.424 678.032ZM498.776 678.05C498.776 677.306 498.626 676.658 498.326 676.106C498.026 675.554 497.618 675.134 497.102 674.846C496.598 674.546 496.04 674.396 495.428 674.396C494.816 674.396 494.258 674.54 493.754 674.828C493.25 675.116 492.848 675.536 492.548 676.088C492.248 676.64 492.098 677.288 492.098 678.032C492.098 678.788 492.248 679.448 492.548 680.012C492.848 680.564 493.25 680.99 493.754 681.29C494.258 681.578 494.816 681.722 495.428 681.722C496.04 681.722 496.598 681.578 497.102 681.29C497.618 680.99 498.026 680.564 498.326 680.012C498.626 679.448 498.776 678.794 498.776 678.05ZM504.046 671.534C503.734 671.534 503.47 671.426 503.254 671.21C503.038 670.994 502.93 670.73 502.93 670.418C502.93 670.106 503.038 669.842 503.254 669.626C503.47 669.41 503.734 669.302 504.046 669.302C504.346 669.302 504.598 669.41 504.802 669.626C505.018 669.842 505.126 670.106 505.126 670.418C505.126 670.73 505.018 670.994 504.802 671.21C504.598 671.426 504.346 671.534 504.046 671.534ZM504.838 673.136V683H503.2V673.136H504.838ZM509.268 669.68V683H507.63V669.68H509.268ZM516.247 678.032C516.247 677.024 516.451 676.142 516.859 675.386C517.267 674.618 517.825 674.024 518.533 673.604C519.253 673.184 520.051 672.974 520.927 672.974C521.791 672.974 522.541 673.16 523.177 673.532C523.813 673.904 524.287 674.372 524.599 674.936V673.136H526.255V683H524.599V681.164C524.275 681.74 523.789 682.22 523.141 682.604C522.505 682.976 521.761 683.162 520.909 683.162C520.033 683.162 519.241 682.946 518.533 682.514C517.825 682.082 517.267 681.476 516.859 680.696C516.451 679.916 516.247 679.028 516.247 678.032ZM524.599 678.05C524.599 677.306 524.449 676.658 524.149 676.106C523.849 675.554 523.441 675.134 522.925 674.846C522.421 674.546 521.863 674.396 521.251 674.396C520.639 674.396 520.081 674.54 519.577 674.828C519.073 675.116 518.671 675.536 518.371 676.088C518.071 676.64 517.921 677.288 517.921 678.032C517.921 678.788 518.071 679.448 518.371 680.012C518.671 680.564 519.073 680.99 519.577 681.29C520.081 681.578 520.639 681.722 521.251 681.722C521.863 681.722 522.421 681.578 522.925 681.29C523.441 680.99 523.849 680.564 524.149 680.012C524.449 679.448 524.599 678.794 524.599 678.05ZM533.829 672.956C535.029 672.956 536.001 673.322 536.745 674.054C537.489 674.774 537.861 675.818 537.861 677.186V683H536.241V677.42C536.241 676.436 535.995 675.686 535.503 675.17C535.011 674.642 534.339 674.378 533.487 674.378C532.623 674.378 531.933 674.648 531.417 675.188C530.913 675.728 530.661 676.514 530.661 677.546V683H529.023V673.136H530.661V674.54C530.985 674.036 531.423 673.646 531.975 673.37C532.539 673.094 533.157 672.956 533.829 672.956ZM539.924 678.032C539.924 677.024 540.128 676.142 540.536 675.386C540.944 674.618 541.502 674.024 542.21 673.604C542.93 673.184 543.734 672.974 544.622 672.974C545.39 672.974 546.104 673.154 546.764 673.514C547.424 673.862 547.928 674.324 548.276 674.9V669.68H549.932V683H548.276V681.146C547.952 681.734 547.472 682.22 546.836 682.604C546.2 682.976 545.456 683.162 544.604 683.162C543.728 683.162 542.93 682.946 542.21 682.514C541.502 682.082 540.944 681.476 540.536 680.696C540.128 679.916 539.924 679.028 539.924 678.032ZM548.276 678.05C548.276 677.306 548.126 676.658 547.826 676.106C547.526 675.554 547.118 675.134 546.602 674.846C546.098 674.546 545.54 674.396 544.928 674.396C544.316 674.396 543.758 674.54 543.254 674.828C542.75 675.116 542.348 675.536 542.048 676.088C541.748 676.64 541.598 677.288 541.598 678.032C541.598 678.788 541.748 679.448 542.048 680.012C542.348 680.564 542.75 680.99 543.254 681.29C543.758 681.578 544.316 681.722 544.928 681.722C545.54 681.722 546.098 681.578 546.602 681.29C547.118 680.99 547.526 680.564 547.826 680.012C548.126 679.448 548.276 678.794 548.276 678.05ZM560.991 683.162C560.235 683.162 559.557 683.036 558.957 682.784C558.357 682.52 557.883 682.16 557.535 681.704C557.187 681.236 556.995 680.702 556.959 680.102H558.651C558.699 680.594 558.927 680.996 559.335 681.308C559.755 681.62 560.301 681.776 560.973 681.776C561.597 681.776 562.089 681.638 562.449 681.362C562.809 681.086 562.989 680.738 562.989 680.318C562.989 679.886 562.797 679.568 562.413 679.364C562.029 679.148 561.435 678.938 560.631 678.734C559.899 678.542 559.299 678.35 558.831 678.158C558.375 677.954 557.979 677.66 557.643 677.276C557.319 676.88 557.157 676.364 557.157 675.728C557.157 675.224 557.307 674.762 557.607 674.342C557.907 673.922 558.333 673.592 558.885 673.352C559.437 673.1 560.067 672.974 560.775 672.974C561.867 672.974 562.749 673.25 563.421 673.802C564.093 674.354 564.453 675.11 564.501 676.07H562.863C562.827 675.554 562.617 675.14 562.233 674.828C561.861 674.516 561.357 674.36 560.721 674.36C560.133 674.36 559.665 674.486 559.317 674.738C558.969 674.99 558.795 675.32 558.795 675.728C558.795 676.052 558.897 676.322 559.101 676.538C559.317 676.742 559.581 676.91 559.893 677.042C560.217 677.162 560.661 677.3 561.225 677.456C561.933 677.648 562.509 677.84 562.953 678.032C563.397 678.212 563.775 678.488 564.087 678.86C564.411 679.232 564.579 679.718 564.591 680.318C564.591 680.858 564.441 681.344 564.141 681.776C563.841 682.208 563.415 682.55 562.863 682.802C562.323 683.042 561.699 683.162 560.991 683.162ZM575.904 677.69C575.904 678.002 575.886 678.332 575.85 678.68H567.966C568.026 679.652 568.356 680.414 568.956 680.966C569.568 681.506 570.306 681.776 571.17 681.776C571.878 681.776 572.466 681.614 572.934 681.29C573.414 680.954 573.75 680.51 573.942 679.958H575.706C575.442 680.906 574.914 681.68 574.122 682.28C573.33 682.868 572.346 683.162 571.17 683.162C570.234 683.162 569.394 682.952 568.65 682.532C567.918 682.112 567.342 681.518 566.922 680.75C566.502 679.97 566.292 679.07 566.292 678.05C566.292 677.03 566.496 676.136 566.904 675.368C567.312 674.6 567.882 674.012 568.614 673.604C569.358 673.184 570.21 672.974 571.17 672.974C572.106 672.974 572.934 673.178 573.654 673.586C574.374 673.994 574.926 674.558 575.31 675.278C575.706 675.986 575.904 676.79 575.904 677.69ZM574.212 677.348C574.212 676.724 574.074 676.19 573.798 675.746C573.522 675.29 573.144 674.948 572.664 674.72C572.196 674.48 571.674 674.36 571.098 674.36C570.27 674.36 569.562 674.624 568.974 675.152C568.398 675.68 568.068 676.412 567.984 677.348H574.212ZM577.454 678.05C577.454 677.03 577.658 676.142 578.066 675.386C578.474 674.618 579.038 674.024 579.758 673.604C580.49 673.184 581.324 672.974 582.26 672.974C583.472 672.974 584.468 673.268 585.248 673.856C586.04 674.444 586.562 675.26 586.814 676.304H585.05C584.882 675.704 584.552 675.23 584.06 674.882C583.58 674.534 582.98 674.36 582.26 674.36C581.324 674.36 580.568 674.684 579.992 675.332C579.416 675.968 579.128 676.874 579.128 678.05C579.128 679.238 579.416 680.156 579.992 680.804C580.568 681.452 581.324 681.776 582.26 681.776C582.98 681.776 583.58 681.608 584.06 681.272C584.54 680.936 584.87 680.456 585.05 679.832H586.814C586.55 680.84 586.022 681.65 585.23 682.262C584.438 682.862 583.448 683.162 582.26 683.162C581.324 683.162 580.49 682.952 579.758 682.532C579.038 682.112 578.474 681.518 578.066 680.75C577.658 679.982 577.454 679.082 577.454 678.05ZM597.747 673.136V683H596.109V681.542C595.797 682.046 595.359 682.442 594.795 682.73C594.243 683.006 593.631 683.144 592.959 683.144C592.191 683.144 591.501 682.988 590.889 682.676C590.277 682.352 589.791 681.872 589.431 681.236C589.083 680.6 588.909 679.826 588.909 678.914V673.136H590.529V678.698C590.529 679.67 590.775 680.42 591.267 680.948C591.759 681.464 592.431 681.722 593.283 681.722C594.159 681.722 594.849 681.452 595.353 680.912C595.857 680.372 596.109 679.586 596.109 678.554V673.136H597.747ZM602.151 674.738C602.439 674.174 602.847 673.736 603.375 673.424C603.915 673.112 604.569 672.956 605.337 672.956V674.648H604.905C603.069 674.648 602.151 675.644 602.151 677.636V683H600.513V673.136H602.151V674.738ZM616.228 677.69C616.228 678.002 616.21 678.332 616.174 678.68H608.29C608.35 679.652 608.68 680.414 609.28 680.966C609.892 681.506 610.63 681.776 611.494 681.776C612.202 681.776 612.79 681.614 613.258 681.29C613.738 680.954 614.074 680.51 614.266 679.958H616.03C615.766 680.906 615.238 681.68 614.446 682.28C613.654 682.868 612.67 683.162 611.494 683.162C610.558 683.162 609.718 682.952 608.974 682.532C608.242 682.112 607.666 681.518 607.246 680.75C606.826 679.97 606.616 679.07 606.616 678.05C606.616 677.03 606.82 676.136 607.228 675.368C607.636 674.6 608.206 674.012 608.938 673.604C609.682 673.184 610.534 672.974 611.494 672.974C612.43 672.974 613.258 673.178 613.978 673.586C614.698 673.994 615.25 674.558 615.634 675.278C616.03 675.986 616.228 676.79 616.228 677.69ZM614.536 677.348C614.536 676.724 614.398 676.19 614.122 675.746C613.846 675.29 613.468 674.948 612.988 674.72C612.52 674.48 611.998 674.36 611.422 674.36C610.594 674.36 609.886 674.624 609.298 675.152C608.722 675.68 608.392 676.412 608.308 677.348H614.536ZM248.057 701.954C248.381 701.39 248.861 700.922 249.497 700.55C250.145 700.166 250.895 699.974 251.747 699.974C252.623 699.974 253.415 700.184 254.123 700.604C254.843 701.024 255.407 701.618 255.815 702.386C256.223 703.142 256.427 704.024 256.427 705.032C256.427 706.028 256.223 706.916 255.815 707.696C255.407 708.476 254.843 709.082 254.123 709.514C253.415 709.946 252.623 710.162 251.747 710.162C250.907 710.162 250.163 709.976 249.515 709.604C248.879 709.22 248.393 708.746 248.057 708.182V714.68H246.419V700.136H248.057V701.954ZM254.753 705.032C254.753 704.288 254.603 703.64 254.303 703.088C254.003 702.536 253.595 702.116 253.079 701.828C252.575 701.54 252.017 701.396 251.405 701.396C250.805 701.396 250.247 701.546 249.731 701.846C249.227 702.134 248.819 702.56 248.507 703.124C248.207 703.676 248.057 704.318 248.057 705.05C248.057 705.794 248.207 706.448 248.507 707.012C248.819 707.564 249.227 707.99 249.731 708.29C250.247 708.578 250.805 708.722 251.405 708.722C252.017 708.722 252.575 708.578 253.079 708.29C253.595 707.99 254.003 707.564 254.303 707.012C254.603 706.448 254.753 705.788 254.753 705.032ZM257.971 705.032C257.971 704.024 258.175 703.142 258.583 702.386C258.991 701.618 259.549 701.024 260.257 700.604C260.977 700.184 261.775 699.974 262.651 699.974C263.515 699.974 264.265 700.16 264.901 700.532C265.537 700.904 266.011 701.372 266.323 701.936V700.136H267.979V710H266.323V708.164C265.999 708.74 265.513 709.22 264.865 709.604C264.229 709.976 263.485 710.162 262.633 710.162C261.757 710.162 260.965 709.946 260.257 709.514C259.549 709.082 258.991 708.476 258.583 707.696C258.175 706.916 257.971 706.028 257.971 705.032ZM266.323 705.05C266.323 704.306 266.173 703.658 265.873 703.106C265.573 702.554 265.165 702.134 264.649 701.846C264.145 701.546 263.587 701.396 262.975 701.396C262.363 701.396 261.805 701.54 261.301 701.828C260.797 702.116 260.395 702.536 260.095 703.088C259.795 703.64 259.645 704.288 259.645 705.032C259.645 705.788 259.795 706.448 260.095 707.012C260.395 707.564 260.797 707.99 261.301 708.29C261.805 708.578 262.363 708.722 262.975 708.722C263.587 708.722 264.145 708.578 264.649 708.29C265.165 707.99 265.573 707.564 265.873 707.012C266.173 706.448 266.323 705.794 266.323 705.05ZM274.239 710.162C273.483 710.162 272.805 710.036 272.205 709.784C271.605 709.52 271.131 709.16 270.783 708.704C270.435 708.236 270.243 707.702 270.207 707.102H271.899C271.947 707.594 272.175 707.996 272.583 708.308C273.003 708.62 273.549 708.776 274.221 708.776C274.845 708.776 275.337 708.638 275.697 708.362C276.057 708.086 276.237 707.738 276.237 707.318C276.237 706.886 276.045 706.568 275.661 706.364C275.277 706.148 274.683 705.938 273.879 705.734C273.147 705.542 272.547 705.35 272.079 705.158C271.623 704.954 271.227 704.66 270.891 704.276C270.567 703.88 270.405 703.364 270.405 702.728C270.405 702.224 270.555 701.762 270.855 701.342C271.155 700.922 271.581 700.592 272.133 700.352C272.685 700.1 273.315 699.974 274.023 699.974C275.115 699.974 275.997 700.25 276.669 700.802C277.341 701.354 277.701 702.11 277.749 703.07H276.111C276.075 702.554 275.865 702.14 275.481 701.828C275.109 701.516 274.605 701.36 273.969 701.36C273.381 701.36 272.913 701.486 272.565 701.738C272.217 701.99 272.043 702.32 272.043 702.728C272.043 703.052 272.145 703.322 272.349 703.538C272.565 703.742 272.829 703.91 273.141 704.042C273.465 704.162 273.909 704.3 274.473 704.456C275.181 704.648 275.757 704.84 276.201 705.032C276.645 705.212 277.023 705.488 277.335 705.86C277.659 706.232 277.827 706.718 277.839 707.318C277.839 707.858 277.689 708.344 277.389 708.776C277.089 709.208 276.663 709.55 276.111 709.802C275.571 710.042 274.947 710.162 274.239 710.162ZM283.644 710.162C282.888 710.162 282.21 710.036 281.61 709.784C281.01 709.52 280.536 709.16 280.188 708.704C279.84 708.236 279.648 707.702 279.612 707.102H281.304C281.352 707.594 281.58 707.996 281.988 708.308C282.408 708.62 282.954 708.776 283.626 708.776C284.25 708.776 284.742 708.638 285.102 708.362C285.462 708.086 285.642 707.738 285.642 707.318C285.642 706.886 285.45 706.568 285.066 706.364C284.682 706.148 284.088 705.938 283.284 705.734C282.552 705.542 281.952 705.35 281.484 705.158C281.028 704.954 280.632 704.66 280.296 704.276C279.972 703.88 279.81 703.364 279.81 702.728C279.81 702.224 279.96 701.762 280.26 701.342C280.56 700.922 280.986 700.592 281.538 700.352C282.09 700.1 282.72 699.974 283.428 699.974C284.52 699.974 285.402 700.25 286.074 700.802C286.746 701.354 287.106 702.11 287.154 703.07H285.516C285.48 702.554 285.27 702.14 284.886 701.828C284.514 701.516 284.01 701.36 283.374 701.36C282.786 701.36 282.318 701.486 281.97 701.738C281.622 701.99 281.448 702.32 281.448 702.728C281.448 703.052 281.55 703.322 281.754 703.538C281.97 703.742 282.234 703.91 282.546 704.042C282.87 704.162 283.314 704.3 283.878 704.456C284.586 704.648 285.162 704.84 285.606 705.032C286.05 705.212 286.428 705.488 286.74 705.86C287.064 706.232 287.232 706.718 287.244 707.318C287.244 707.858 287.094 708.344 286.794 708.776C286.494 709.208 286.068 709.55 285.516 709.802C284.976 710.042 284.352 710.162 283.644 710.162ZM302.696 700.136L299.618 710H297.926L295.55 702.17L293.174 710H291.482L288.386 700.136H290.06L292.328 708.416L294.776 700.136H296.45L298.844 708.434L301.076 700.136H302.696ZM308.624 710.162C307.7 710.162 306.86 709.952 306.104 709.532C305.36 709.112 304.772 708.518 304.34 707.75C303.92 706.97 303.71 706.07 303.71 705.05C303.71 704.042 303.926 703.154 304.358 702.386C304.802 701.606 305.402 701.012 306.158 700.604C306.914 700.184 307.76 699.974 308.696 699.974C309.632 699.974 310.478 700.184 311.234 700.604C311.99 701.012 312.584 701.6 313.016 702.368C313.46 703.136 313.682 704.03 313.682 705.05C313.682 706.07 313.454 706.97 312.998 707.75C312.554 708.518 311.948 709.112 311.18 709.532C310.412 709.952 309.56 710.162 308.624 710.162ZM308.624 708.722C309.212 708.722 309.764 708.584 310.28 708.308C310.796 708.032 311.21 707.618 311.522 707.066C311.846 706.514 312.008 705.842 312.008 705.05C312.008 704.258 311.852 703.586 311.54 703.034C311.228 702.482 310.82 702.074 310.316 701.81C309.812 701.534 309.266 701.396 308.678 701.396C308.078 701.396 307.526 701.534 307.022 701.81C306.53 702.074 306.134 702.482 305.834 703.034C305.534 703.586 305.384 704.258 305.384 705.05C305.384 705.854 305.528 706.532 305.816 707.084C306.116 707.636 306.512 708.05 307.004 708.326C307.496 708.59 308.036 708.722 308.624 708.722ZM317.473 701.738C317.761 701.174 318.169 700.736 318.697 700.424C319.237 700.112 319.891 699.956 320.659 699.956V701.648H320.227C318.391 701.648 317.473 702.644 317.473 704.636V710H315.835V700.136H317.473V701.738ZM321.938 705.032C321.938 704.024 322.142 703.142 322.55 702.386C322.958 701.618 323.516 701.024 324.224 700.604C324.944 700.184 325.748 699.974 326.636 699.974C327.404 699.974 328.118 700.154 328.778 700.514C329.438 700.862 329.942 701.324 330.29 701.9V696.68H331.946V710H330.29V708.146C329.966 708.734 329.486 709.22 328.85 709.604C328.214 709.976 327.47 710.162 326.618 710.162C325.742 710.162 324.944 709.946 324.224 709.514C323.516 709.082 322.958 708.476 322.55 707.696C322.142 706.916 321.938 706.028 321.938 705.032ZM330.29 705.05C330.29 704.306 330.14 703.658 329.84 703.106C329.54 702.554 329.132 702.134 328.616 701.846C328.112 701.546 327.554 701.396 326.942 701.396C326.33 701.396 325.772 701.54 325.268 701.828C324.764 702.116 324.362 702.536 324.062 703.088C323.762 703.64 323.612 704.288 323.612 705.032C323.612 705.788 323.762 706.448 324.062 707.012C324.362 707.564 324.764 707.99 325.268 708.29C325.772 708.578 326.33 708.722 326.942 708.722C327.554 708.722 328.112 708.578 328.616 708.29C329.132 707.99 329.54 707.564 329.84 707.012C330.14 706.448 330.29 705.794 330.29 705.05ZM341.511 701.486V707.3C341.511 707.78 341.613 708.122 341.817 708.326C342.021 708.518 342.375 708.614 342.879 708.614H344.085V710H342.609C341.697 710 341.013 709.79 340.557 709.37C340.101 708.95 339.873 708.26 339.873 707.3V701.486H338.595V700.136H339.873V697.652H341.511V700.136H344.085V701.486H341.511ZM350.372 710.162C349.448 710.162 348.608 709.952 347.852 709.532C347.108 709.112 346.52 708.518 346.088 707.75C345.668 706.97 345.458 706.07 345.458 705.05C345.458 704.042 345.674 703.154 346.106 702.386C346.55 701.606 347.15 701.012 347.906 700.604C348.662 700.184 349.508 699.974 350.444 699.974C351.38 699.974 352.226 700.184 352.982 700.604C353.738 701.012 354.332 701.6 354.764 702.368C355.208 703.136 355.43 704.03 355.43 705.05C355.43 706.07 355.202 706.97 354.746 707.75C354.302 708.518 353.696 709.112 352.928 709.532C352.16 709.952 351.308 710.162 350.372 710.162ZM350.372 708.722C350.96 708.722 351.512 708.584 352.028 708.308C352.544 708.032 352.958 707.618 353.27 707.066C353.594 706.514 353.756 705.842 353.756 705.05C353.756 704.258 353.6 703.586 353.288 703.034C352.976 702.482 352.568 702.074 352.064 701.81C351.56 701.534 351.014 701.396 350.426 701.396C349.826 701.396 349.274 701.534 348.77 701.81C348.278 702.074 347.882 702.482 347.582 703.034C347.282 703.586 347.132 704.258 347.132 705.05C347.132 705.854 347.276 706.532 347.564 707.084C347.864 707.636 348.26 708.05 348.752 708.326C349.244 708.59 349.784 708.722 350.372 708.722ZM364.02 701.954C364.344 701.39 364.824 700.922 365.46 700.55C366.108 700.166 366.858 699.974 367.71 699.974C368.586 699.974 369.378 700.184 370.086 700.604C370.806 701.024 371.37 701.618 371.778 702.386C372.186 703.142 372.39 704.024 372.39 705.032C372.39 706.028 372.186 706.916 371.778 707.696C371.37 708.476 370.806 709.082 370.086 709.514C369.378 709.946 368.586 710.162 367.71 710.162C366.87 710.162 366.126 709.976 365.478 709.604C364.842 709.22 364.356 708.746 364.02 708.182V714.68H362.382V700.136H364.02V701.954ZM370.716 705.032C370.716 704.288 370.566 703.64 370.266 703.088C369.966 702.536 369.558 702.116 369.042 701.828C368.538 701.54 367.98 701.396 367.368 701.396C366.768 701.396 366.21 701.546 365.694 701.846C365.19 702.134 364.782 702.56 364.47 703.124C364.17 703.676 364.02 704.318 364.02 705.05C364.02 705.794 364.17 706.448 364.47 707.012C364.782 707.564 365.19 707.99 365.694 708.29C366.21 708.578 366.768 708.722 367.368 708.722C367.98 708.722 368.538 708.578 369.042 708.29C369.558 707.99 369.966 707.564 370.266 707.012C370.566 706.448 370.716 705.788 370.716 705.032ZM376.184 701.738C376.472 701.174 376.88 700.736 377.408 700.424C377.948 700.112 378.602 699.956 379.37 699.956V701.648H378.938C377.102 701.648 376.184 702.644 376.184 704.636V710H374.546V700.136H376.184V701.738ZM385.563 710.162C384.639 710.162 383.799 709.952 383.043 709.532C382.299 709.112 381.711 708.518 381.279 707.75C380.859 706.97 380.649 706.07 380.649 705.05C380.649 704.042 380.865 703.154 381.297 702.386C381.741 701.606 382.341 701.012 383.097 700.604C383.853 700.184 384.699 699.974 385.635 699.974C386.571 699.974 387.417 700.184 388.173 700.604C388.929 701.012 389.523 701.6 389.955 702.368C390.399 703.136 390.621 704.03 390.621 705.05C390.621 706.07 390.393 706.97 389.937 707.75C389.493 708.518 388.887 709.112 388.119 709.532C387.351 709.952 386.499 710.162 385.563 710.162ZM385.563 708.722C386.151 708.722 386.703 708.584 387.219 708.308C387.735 708.032 388.149 707.618 388.461 707.066C388.785 706.514 388.947 705.842 388.947 705.05C388.947 704.258 388.791 703.586 388.479 703.034C388.167 702.482 387.759 702.074 387.255 701.81C386.751 701.534 386.205 701.396 385.617 701.396C385.017 701.396 384.465 701.534 383.961 701.81C383.469 702.074 383.073 702.482 382.773 703.034C382.473 703.586 382.323 704.258 382.323 705.05C382.323 705.854 382.467 706.532 382.755 707.084C383.055 707.636 383.451 708.05 383.943 708.326C384.435 708.59 384.975 708.722 385.563 708.722ZM394.773 701.486V707.3C394.773 707.78 394.875 708.122 395.079 708.326C395.283 708.518 395.637 708.614 396.141 708.614H397.347V710H395.871C394.959 710 394.275 709.79 393.819 709.37C393.363 708.95 393.135 708.26 393.135 707.3V701.486H391.857V700.136H393.135V697.652H394.773V700.136H397.347V701.486H394.773ZM408.331 704.69C408.331 705.002 408.313 705.332 408.277 705.68H400.393C400.453 706.652 400.783 707.414 401.383 707.966C401.995 708.506 402.733 708.776 403.597 708.776C404.305 708.776 404.893 708.614 405.361 708.29C405.841 707.954 406.177 707.51 406.369 706.958H408.133C407.869 707.906 407.341 708.68 406.549 709.28C405.757 709.868 404.773 710.162 403.597 710.162C402.661 710.162 401.821 709.952 401.077 709.532C400.345 709.112 399.769 708.518 399.349 707.75C398.929 706.97 398.719 706.07 398.719 705.05C398.719 704.03 398.923 703.136 399.331 702.368C399.739 701.6 400.309 701.012 401.041 700.604C401.785 700.184 402.637 699.974 403.597 699.974C404.533 699.974 405.361 700.178 406.081 700.586C406.801 700.994 407.353 701.558 407.737 702.278C408.133 702.986 408.331 703.79 408.331 704.69ZM406.639 704.348C406.639 703.724 406.501 703.19 406.225 702.746C405.949 702.29 405.571 701.948 405.091 701.72C404.623 701.48 404.101 701.36 403.525 701.36C402.697 701.36 401.989 701.624 401.401 702.152C400.825 702.68 400.495 703.412 400.411 704.348H406.639ZM409.881 705.05C409.881 704.03 410.085 703.142 410.493 702.386C410.901 701.618 411.465 701.024 412.185 700.604C412.917 700.184 413.751 699.974 414.687 699.974C415.899 699.974 416.895 700.268 417.675 700.856C418.467 701.444 418.989 702.26 419.241 703.304H417.477C417.309 702.704 416.979 702.23 416.487 701.882C416.007 701.534 415.407 701.36 414.687 701.36C413.751 701.36 412.995 701.684 412.419 702.332C411.843 702.968 411.555 703.874 411.555 705.05C411.555 706.238 411.843 707.156 412.419 707.804C412.995 708.452 413.751 708.776 414.687 708.776C415.407 708.776 416.007 708.608 416.487 708.272C416.967 707.936 417.297 707.456 417.477 706.832H419.241C418.977 707.84 418.449 708.65 417.657 709.262C416.865 709.862 415.875 710.162 414.687 710.162C413.751 710.162 412.917 709.952 412.185 709.532C411.465 709.112 410.901 708.518 410.493 707.75C410.085 706.982 409.881 706.082 409.881 705.05ZM423.425 701.486V707.3C423.425 707.78 423.527 708.122 423.731 708.326C423.935 708.518 424.289 708.614 424.793 708.614H425.999V710H424.523C423.611 710 422.927 709.79 422.471 709.37C422.015 708.95 421.787 708.26 421.787 707.3V701.486H420.509V700.136H421.787V697.652H423.425V700.136H425.999V701.486H423.425ZM441.278 700.136L435.338 714.644H433.646L435.59 709.892L431.612 700.136H433.43L436.526 708.128L439.586 700.136H441.278ZM447.227 710.162C446.303 710.162 445.463 709.952 444.707 709.532C443.963 709.112 443.375 708.518 442.943 707.75C442.523 706.97 442.313 706.07 442.313 705.05C442.313 704.042 442.529 703.154 442.961 702.386C443.405 701.606 444.005 701.012 444.761 700.604C445.517 700.184 446.363 699.974 447.299 699.974C448.235 699.974 449.081 700.184 449.837 700.604C450.593 701.012 451.187 701.6 451.619 702.368C452.063 703.136 452.285 704.03 452.285 705.05C452.285 706.07 452.057 706.97 451.601 707.75C451.157 708.518 450.551 709.112 449.783 709.532C449.015 709.952 448.163 710.162 447.227 710.162ZM447.227 708.722C447.815 708.722 448.367 708.584 448.883 708.308C449.399 708.032 449.813 707.618 450.125 707.066C450.449 706.514 450.611 705.842 450.611 705.05C450.611 704.258 450.455 703.586 450.143 703.034C449.831 702.482 449.423 702.074 448.919 701.81C448.415 701.534 447.869 701.396 447.281 701.396C446.681 701.396 446.129 701.534 445.625 701.81C445.133 702.074 444.737 702.482 444.437 703.034C444.137 703.586 443.987 704.258 443.987 705.05C443.987 705.854 444.131 706.532 444.419 707.084C444.719 707.636 445.115 708.05 445.607 708.326C446.099 708.59 446.639 708.722 447.227 708.722ZM463.187 700.136V710H461.549V708.542C461.237 709.046 460.799 709.442 460.235 709.73C459.683 710.006 459.071 710.144 458.399 710.144C457.631 710.144 456.941 709.988 456.329 709.676C455.717 709.352 455.231 708.872 454.871 708.236C454.523 707.6 454.349 706.826 454.349 705.914V700.136H455.969V705.698C455.969 706.67 456.215 707.42 456.707 707.948C457.199 708.464 457.871 708.722 458.723 708.722C459.599 708.722 460.289 708.452 460.793 707.912C461.297 707.372 461.549 706.586 461.549 705.554V700.136H463.187ZM467.59 701.738C467.878 701.174 468.286 700.736 468.814 700.424C469.354 700.112 470.008 699.956 470.776 699.956V701.648H470.344C468.508 701.648 467.59 702.644 467.59 704.636V710H465.952V700.136H467.59V701.738ZM476.854 705.032C476.854 704.024 477.058 703.142 477.466 702.386C477.874 701.618 478.432 701.024 479.14 700.604C479.86 700.184 480.664 699.974 481.552 699.974C482.32 699.974 483.034 700.154 483.694 700.514C484.354 700.862 484.858 701.324 485.206 701.9V696.68H486.862V710H485.206V708.146C484.882 708.734 484.402 709.22 483.766 709.604C483.13 709.976 482.386 710.162 481.534 710.162C480.658 710.162 479.86 709.946 479.14 709.514C478.432 709.082 477.874 708.476 477.466 707.696C477.058 706.916 476.854 706.028 476.854 705.032ZM485.206 705.05C485.206 704.306 485.056 703.658 484.756 703.106C484.456 702.554 484.048 702.134 483.532 701.846C483.028 701.546 482.47 701.396 481.858 701.396C481.246 701.396 480.688 701.54 480.184 701.828C479.68 702.116 479.278 702.536 478.978 703.088C478.678 703.64 478.528 704.288 478.528 705.032C478.528 705.788 478.678 706.448 478.978 707.012C479.278 707.564 479.68 707.99 480.184 708.29C480.688 708.578 481.246 708.722 481.858 708.722C482.47 708.722 483.028 708.578 483.532 708.29C484.048 707.99 484.456 707.564 484.756 707.012C485.056 706.448 485.206 705.794 485.206 705.05ZM489.018 705.032C489.018 704.024 489.222 703.142 489.63 702.386C490.038 701.618 490.596 701.024 491.304 700.604C492.024 700.184 492.822 699.974 493.698 699.974C494.562 699.974 495.312 700.16 495.948 700.532C496.584 700.904 497.058 701.372 497.37 701.936V700.136H499.026V710H497.37V708.164C497.046 708.74 496.56 709.22 495.912 709.604C495.276 709.976 494.532 710.162 493.68 710.162C492.804 710.162 492.012 709.946 491.304 709.514C490.596 709.082 490.038 708.476 489.63 707.696C489.222 706.916 489.018 706.028 489.018 705.032ZM497.37 705.05C497.37 704.306 497.22 703.658 496.92 703.106C496.62 702.554 496.212 702.134 495.696 701.846C495.192 701.546 494.634 701.396 494.022 701.396C493.41 701.396 492.852 701.54 492.348 701.828C491.844 702.116 491.442 702.536 491.142 703.088C490.842 703.64 490.692 704.288 490.692 705.032C490.692 705.788 490.842 706.448 491.142 707.012C491.442 707.564 491.844 707.99 492.348 708.29C492.852 708.578 493.41 708.722 494.022 708.722C494.634 708.722 495.192 708.578 495.696 708.29C496.212 707.99 496.62 707.564 496.92 707.012C497.22 706.448 497.37 705.794 497.37 705.05ZM503.792 701.486V707.3C503.792 707.78 503.894 708.122 504.098 708.326C504.302 708.518 504.656 708.614 505.16 708.614H506.366V710H504.89C503.978 710 503.294 709.79 502.838 709.37C502.382 708.95 502.154 708.26 502.154 707.3V701.486H500.876V700.136H502.154V697.652H503.792V700.136H506.366V701.486H503.792ZM507.739 705.032C507.739 704.024 507.943 703.142 508.351 702.386C508.759 701.618 509.317 701.024 510.025 700.604C510.745 700.184 511.543 699.974 512.419 699.974C513.283 699.974 514.033 700.16 514.669 700.532C515.305 700.904 515.779 701.372 516.091 701.936V700.136H517.747V710H516.091V708.164C515.767 708.74 515.281 709.22 514.633 709.604C513.997 709.976 513.253 710.162 512.401 710.162C511.525 710.162 510.733 709.946 510.025 709.514C509.317 709.082 508.759 708.476 508.351 707.696C507.943 706.916 507.739 706.028 507.739 705.032ZM516.091 705.05C516.091 704.306 515.941 703.658 515.641 703.106C515.341 702.554 514.933 702.134 514.417 701.846C513.913 701.546 513.355 701.396 512.743 701.396C512.131 701.396 511.573 701.54 511.069 701.828C510.565 702.116 510.163 702.536 509.863 703.088C509.563 703.64 509.413 704.288 509.413 705.032C509.413 705.788 509.563 706.448 509.863 707.012C510.163 707.564 510.565 707.99 511.069 708.29C511.573 708.578 512.131 708.722 512.743 708.722C513.355 708.722 513.913 708.578 514.417 708.29C514.933 707.99 515.341 707.564 515.641 707.012C515.941 706.448 516.091 705.794 516.091 705.05ZM520.767 697.454H522.585L520.857 701.54H519.705L520.767 697.454ZM523.683 697.454H525.501L523.773 701.54H522.603L523.683 697.454Z" fill="#737373"/>
<defs>
<clipPath id="clip0_2206_42895">
<rect width="679" height="382" fill="white" transform="translate(31 251)"/>
</clipPath>
</defs>
</svg>
