<svg width="757" height="746" viewBox="0 0 757 746" fill="none" xmlns="http://www.w3.org/2000/svg">
<path d="M161.357 555.148C209.395 607.627 284.158 614.413 353.406 619.37C414.275 623.72 474.301 615.594 523.257 581.014C573.452 545.568 606.612 492.394 619.818 431.231C634.432 363.465 642.001 286.226 599.081 229.591C556.362 173.236 479.623 168.031 411.375 156.178C342.683 144.259 270.327 127.139 211.923 162.412C149.244 200.27 110.586 269.424 101.027 343.609C91.4426 418.066 109.631 498.619 161.357 555.148Z" fill="#E2EFFD"/>
<path d="M239.225 497.235C270.313 531.193 318.689 535.583 363.492 538.795C402.877 541.605 441.721 536.344 473.394 513.969C505.873 491.033 527.331 456.628 535.876 417.053C545.332 373.209 550.23 323.227 522.458 286.581C494.819 250.113 445.162 246.746 401.001 239.078C356.553 231.37 309.738 220.286 271.946 243.114C231.387 267.613 206.374 312.35 200.188 360.356C193.986 408.534 205.755 460.657 239.225 497.235Z" fill="#B3D4FF" fill-opacity="0.5"/>
<path d="M317.088 439.322C331.218 454.757 353.207 456.752 373.574 458.211C391.475 459.49 409.131 457.099 423.53 446.929C438.293 436.503 448.046 420.863 451.929 402.875C456.228 382.944 458.455 360.227 445.831 343.57C433.267 326.994 410.697 325.462 390.623 321.978C370.42 318.472 349.139 313.437 331.961 323.811C313.526 334.946 302.156 355.284 299.346 377.104C296.525 399.002 301.875 422.696 317.088 439.322Z" fill="#71ADFB" fill-opacity="0.5"/>
<path d="M137.739 667.54H135.903L137.631 663.454H138.801L137.739 667.54ZM140.655 667.54H138.819L140.547 663.454H141.717L140.655 667.54ZM156.421 663.544V676H154.783V666.712L150.643 676H149.491L145.333 666.694V676H143.695V663.544H145.459L150.067 673.84L154.675 663.544H156.421ZM158.587 671.032C158.587 670.024 158.791 669.142 159.199 668.386C159.607 667.618 160.165 667.024 160.873 666.604C161.593 666.184 162.391 665.974 163.267 665.974C164.131 665.974 164.881 666.16 165.517 666.532C166.153 666.904 166.627 667.372 166.939 667.936V666.136H168.595V676H166.939V674.164C166.615 674.74 166.129 675.22 165.481 675.604C164.845 675.976 164.101 676.162 163.249 676.162C162.373 676.162 161.581 675.946 160.873 675.514C160.165 675.082 159.607 674.476 159.199 673.696C158.791 672.916 158.587 672.028 158.587 671.032ZM166.939 671.05C166.939 670.306 166.789 669.658 166.489 669.106C166.189 668.554 165.781 668.134 165.265 667.846C164.761 667.546 164.203 667.396 163.591 667.396C162.979 667.396 162.421 667.54 161.917 667.828C161.413 668.116 161.011 668.536 160.711 669.088C160.411 669.64 160.261 670.288 160.261 671.032C160.261 671.788 160.411 672.448 160.711 673.012C161.011 673.564 161.413 673.99 161.917 674.29C162.421 674.578 162.979 674.722 163.591 674.722C164.203 674.722 164.761 674.578 165.265 674.29C165.781 673.99 166.189 673.564 166.489 673.012C166.789 672.448 166.939 671.794 166.939 671.05ZM176.871 676L173.001 671.644V676H171.363V662.68H173.001V670.51L176.799 666.136H179.085L174.441 671.05L179.103 676H176.871ZM189.626 670.69C189.626 671.002 189.608 671.332 189.572 671.68H181.688C181.748 672.652 182.078 673.414 182.678 673.966C183.29 674.506 184.028 674.776 184.892 674.776C185.6 674.776 186.188 674.614 186.656 674.29C187.136 673.954 187.472 673.51 187.664 672.958H189.428C189.164 673.906 188.636 674.68 187.844 675.28C187.052 675.868 186.068 676.162 184.892 676.162C183.956 676.162 183.116 675.952 182.372 675.532C181.64 675.112 181.064 674.518 180.644 673.75C180.224 672.97 180.014 672.07 180.014 671.05C180.014 670.03 180.218 669.136 180.626 668.368C181.034 667.6 181.604 667.012 182.336 666.604C183.08 666.184 183.932 665.974 184.892 665.974C185.828 665.974 186.656 666.178 187.376 666.586C188.096 666.994 188.648 667.558 189.032 668.278C189.428 668.986 189.626 669.79 189.626 670.69ZM187.934 670.348C187.934 669.724 187.796 669.19 187.52 668.746C187.244 668.29 186.866 667.948 186.386 667.72C185.918 667.48 185.396 667.36 184.82 667.36C183.992 667.36 183.284 667.624 182.696 668.152C182.12 668.68 181.79 669.412 181.706 670.348H187.934ZM200.079 676.162C199.323 676.162 198.645 676.036 198.045 675.784C197.445 675.52 196.971 675.16 196.623 674.704C196.275 674.236 196.083 673.702 196.047 673.102H197.739C197.787 673.594 198.015 673.996 198.423 674.308C198.843 674.62 199.389 674.776 200.061 674.776C200.685 674.776 201.177 674.638 201.537 674.362C201.897 674.086 202.077 673.738 202.077 673.318C202.077 672.886 201.885 672.568 201.501 672.364C201.117 672.148 200.523 671.938 199.719 671.734C198.987 671.542 198.387 671.35 197.919 671.158C197.463 670.954 197.067 670.66 196.731 670.276C196.407 669.88 196.245 669.364 196.245 668.728C196.245 668.224 196.395 667.762 196.695 667.342C196.995 666.922 197.421 666.592 197.973 666.352C198.525 666.1 199.155 665.974 199.863 665.974C200.955 665.974 201.837 666.25 202.509 666.802C203.181 667.354 203.541 668.11 203.589 669.07H201.951C201.915 668.554 201.705 668.14 201.321 667.828C200.949 667.516 200.445 667.36 199.809 667.36C199.221 667.36 198.753 667.486 198.405 667.738C198.057 667.99 197.883 668.32 197.883 668.728C197.883 669.052 197.985 669.322 198.189 669.538C198.405 669.742 198.669 669.91 198.981 670.042C199.305 670.162 199.749 670.3 200.313 670.456C201.021 670.648 201.597 670.84 202.041 671.032C202.485 671.212 202.863 671.488 203.175 671.86C203.499 672.232 203.667 672.718 203.679 673.318C203.679 673.858 203.529 674.344 203.229 674.776C202.929 675.208 202.503 675.55 201.951 675.802C201.411 676.042 200.787 676.162 200.079 676.162ZM214.739 666.136V676H213.101V674.542C212.789 675.046 212.351 675.442 211.787 675.73C211.235 676.006 210.623 676.144 209.951 676.144C209.183 676.144 208.493 675.988 207.881 675.676C207.269 675.352 206.783 674.872 206.423 674.236C206.075 673.6 205.901 672.826 205.901 671.914V666.136H207.521V671.698C207.521 672.67 207.767 673.42 208.259 673.948C208.751 674.464 209.423 674.722 210.275 674.722C211.151 674.722 211.841 674.452 212.345 673.912C212.849 673.372 213.101 672.586 213.101 671.554V666.136H214.739ZM219.143 667.738C219.431 667.174 219.839 666.736 220.367 666.424C220.907 666.112 221.561 665.956 222.329 665.956V667.648H221.897C220.061 667.648 219.143 668.644 219.143 670.636V676H217.505V666.136H219.143V667.738ZM233.22 670.69C233.22 671.002 233.202 671.332 233.166 671.68H225.282C225.342 672.652 225.672 673.414 226.272 673.966C226.884 674.506 227.622 674.776 228.486 674.776C229.194 674.776 229.782 674.614 230.25 674.29C230.73 673.954 231.066 673.51 231.258 672.958H233.022C232.758 673.906 232.23 674.68 231.438 675.28C230.646 675.868 229.662 676.162 228.486 676.162C227.55 676.162 226.71 675.952 225.966 675.532C225.234 675.112 224.658 674.518 224.238 673.75C223.818 672.97 223.608 672.07 223.608 671.05C223.608 670.03 223.812 669.136 224.22 668.368C224.628 667.6 225.198 667.012 225.93 666.604C226.674 666.184 227.526 665.974 228.486 665.974C229.422 665.974 230.25 666.178 230.97 666.586C231.69 666.994 232.242 667.558 232.626 668.278C233.022 668.986 233.22 669.79 233.22 670.69ZM231.528 670.348C231.528 669.724 231.39 669.19 231.114 668.746C230.838 668.29 230.46 667.948 229.98 667.72C229.512 667.48 228.99 667.36 228.414 667.36C227.586 667.36 226.878 667.624 226.29 668.152C225.714 668.68 225.384 669.412 225.3 670.348H231.528ZM248.677 666.136L242.737 680.644H241.045L242.989 675.892L239.011 666.136H240.829L243.925 674.128L246.985 666.136H248.677ZM254.626 676.162C253.702 676.162 252.862 675.952 252.106 675.532C251.362 675.112 250.774 674.518 250.342 673.75C249.922 672.97 249.712 672.07 249.712 671.05C249.712 670.042 249.928 669.154 250.36 668.386C250.804 667.606 251.404 667.012 252.16 666.604C252.916 666.184 253.762 665.974 254.698 665.974C255.634 665.974 256.48 666.184 257.236 666.604C257.992 667.012 258.586 667.6 259.018 668.368C259.462 669.136 259.684 670.03 259.684 671.05C259.684 672.07 259.456 672.97 259 673.75C258.556 674.518 257.95 675.112 257.182 675.532C256.414 675.952 255.562 676.162 254.626 676.162ZM254.626 674.722C255.214 674.722 255.766 674.584 256.282 674.308C256.798 674.032 257.212 673.618 257.524 673.066C257.848 672.514 258.01 671.842 258.01 671.05C258.01 670.258 257.854 669.586 257.542 669.034C257.23 668.482 256.822 668.074 256.318 667.81C255.814 667.534 255.268 667.396 254.68 667.396C254.08 667.396 253.528 667.534 253.024 667.81C252.532 668.074 252.136 668.482 251.836 669.034C251.536 669.586 251.386 670.258 251.386 671.05C251.386 671.854 251.53 672.532 251.818 673.084C252.118 673.636 252.514 674.05 253.006 674.326C253.498 674.59 254.038 674.722 254.626 674.722ZM270.585 666.136V676H268.947V674.542C268.635 675.046 268.197 675.442 267.633 675.73C267.081 676.006 266.469 676.144 265.797 676.144C265.029 676.144 264.339 675.988 263.727 675.676C263.115 675.352 262.629 674.872 262.269 674.236C261.921 673.6 261.747 672.826 261.747 671.914V666.136H263.367V671.698C263.367 672.67 263.613 673.42 264.105 673.948C264.597 674.464 265.269 674.722 266.121 674.722C266.997 674.722 267.687 674.452 268.191 673.912C268.695 673.372 268.947 672.586 268.947 671.554V666.136H270.585ZM274.989 667.738C275.277 667.174 275.685 666.736 276.213 666.424C276.753 666.112 277.407 665.956 278.175 665.956V667.648H277.743C275.907 667.648 274.989 668.644 274.989 670.636V676H273.351V666.136H274.989V667.738ZM286.503 667.738C286.791 667.174 287.199 666.736 287.727 666.424C288.267 666.112 288.921 665.956 289.689 665.956V667.648H289.257C287.421 667.648 286.503 668.644 286.503 670.636V676H284.865V666.136H286.503V667.738ZM300.579 670.69C300.579 671.002 300.561 671.332 300.525 671.68H292.641C292.701 672.652 293.031 673.414 293.631 673.966C294.243 674.506 294.981 674.776 295.845 674.776C296.553 674.776 297.141 674.614 297.609 674.29C298.089 673.954 298.425 673.51 298.617 672.958H300.381C300.117 673.906 299.589 674.68 298.797 675.28C298.005 675.868 297.021 676.162 295.845 676.162C294.909 676.162 294.069 675.952 293.325 675.532C292.593 675.112 292.017 674.518 291.597 673.75C291.177 672.97 290.967 672.07 290.967 671.05C290.967 670.03 291.171 669.136 291.579 668.368C291.987 667.6 292.557 667.012 293.289 666.604C294.033 666.184 294.885 665.974 295.845 665.974C296.781 665.974 297.609 666.178 298.329 666.586C299.049 666.994 299.601 667.558 299.985 668.278C300.381 668.986 300.579 669.79 300.579 670.69ZM298.887 670.348C298.887 669.724 298.749 669.19 298.473 668.746C298.197 668.29 297.819 667.948 297.339 667.72C296.871 667.48 296.349 667.36 295.773 667.36C294.945 667.36 294.237 667.624 293.649 668.152C293.073 668.68 292.743 669.412 292.659 670.348H298.887ZM306.233 676.162C305.477 676.162 304.799 676.036 304.199 675.784C303.599 675.52 303.125 675.16 302.777 674.704C302.429 674.236 302.237 673.702 302.201 673.102H303.893C303.941 673.594 304.169 673.996 304.577 674.308C304.997 674.62 305.543 674.776 306.215 674.776C306.839 674.776 307.331 674.638 307.691 674.362C308.051 674.086 308.231 673.738 308.231 673.318C308.231 672.886 308.039 672.568 307.655 672.364C307.271 672.148 306.677 671.938 305.873 671.734C305.141 671.542 304.541 671.35 304.073 671.158C303.617 670.954 303.221 670.66 302.885 670.276C302.561 669.88 302.399 669.364 302.399 668.728C302.399 668.224 302.549 667.762 302.849 667.342C303.149 666.922 303.575 666.592 304.127 666.352C304.679 666.1 305.309 665.974 306.017 665.974C307.109 665.974 307.991 666.25 308.663 666.802C309.335 667.354 309.695 668.11 309.743 669.07H308.105C308.069 668.554 307.859 668.14 307.475 667.828C307.103 667.516 306.599 667.36 305.963 667.36C305.375 667.36 304.907 667.486 304.559 667.738C304.211 667.99 304.037 668.32 304.037 668.728C304.037 669.052 304.139 669.322 304.343 669.538C304.559 669.742 304.823 669.91 305.135 670.042C305.459 670.162 305.903 670.3 306.467 670.456C307.175 670.648 307.751 670.84 308.195 671.032C308.639 671.212 309.017 671.488 309.329 671.86C309.653 672.232 309.821 672.718 309.833 673.318C309.833 673.858 309.683 674.344 309.383 674.776C309.083 675.208 308.657 675.55 308.105 675.802C307.565 676.042 306.941 676.162 306.233 676.162ZM312.992 664.534C312.68 664.534 312.416 664.426 312.2 664.21C311.984 663.994 311.876 663.73 311.876 663.418C311.876 663.106 311.984 662.842 312.2 662.626C312.416 662.41 312.68 662.302 312.992 662.302C313.292 662.302 313.544 662.41 313.748 662.626C313.964 662.842 314.072 663.106 314.072 663.418C314.072 663.73 313.964 663.994 313.748 664.21C313.544 664.426 313.292 664.534 312.992 664.534ZM313.784 666.136V676H312.146V666.136H313.784ZM315.963 671.032C315.963 670.024 316.167 669.142 316.575 668.386C316.983 667.618 317.541 667.024 318.249 666.604C318.969 666.184 319.773 665.974 320.661 665.974C321.429 665.974 322.143 666.154 322.803 666.514C323.463 666.862 323.967 667.324 324.315 667.9V662.68H325.971V676H324.315V674.146C323.991 674.734 323.511 675.22 322.875 675.604C322.239 675.976 321.495 676.162 320.643 676.162C319.767 676.162 318.969 675.946 318.249 675.514C317.541 675.082 316.983 674.476 316.575 673.696C316.167 672.916 315.963 672.028 315.963 671.032ZM324.315 671.05C324.315 670.306 324.165 669.658 323.865 669.106C323.565 668.554 323.157 668.134 322.641 667.846C322.137 667.546 321.579 667.396 320.967 667.396C320.355 667.396 319.797 667.54 319.293 667.828C318.789 668.116 318.387 668.536 318.087 669.088C317.787 669.64 317.637 670.288 317.637 671.032C317.637 671.788 317.787 672.448 318.087 673.012C318.387 673.564 318.789 673.99 319.293 674.29C319.797 674.578 320.355 674.722 320.967 674.722C321.579 674.722 322.137 674.578 322.641 674.29C323.157 673.99 323.565 673.564 323.865 673.012C324.165 672.448 324.315 671.794 324.315 671.05ZM337.74 670.69C337.74 671.002 337.722 671.332 337.686 671.68H329.802C329.862 672.652 330.192 673.414 330.792 673.966C331.404 674.506 332.142 674.776 333.006 674.776C333.714 674.776 334.302 674.614 334.77 674.29C335.25 673.954 335.586 673.51 335.778 672.958H337.542C337.278 673.906 336.75 674.68 335.958 675.28C335.166 675.868 334.182 676.162 333.006 676.162C332.07 676.162 331.23 675.952 330.486 675.532C329.754 675.112 329.178 674.518 328.758 673.75C328.338 672.97 328.128 672.07 328.128 671.05C328.128 670.03 328.332 669.136 328.74 668.368C329.148 667.6 329.718 667.012 330.45 666.604C331.194 666.184 332.046 665.974 333.006 665.974C333.942 665.974 334.77 666.178 335.49 666.586C336.21 666.994 336.762 667.558 337.146 668.278C337.542 668.986 337.74 669.79 337.74 670.69ZM336.048 670.348C336.048 669.724 335.91 669.19 335.634 668.746C335.358 668.29 334.98 667.948 334.5 667.72C334.032 667.48 333.51 667.36 332.934 667.36C332.106 667.36 331.398 667.624 330.81 668.152C330.234 668.68 329.904 669.412 329.82 670.348H336.048ZM344.708 665.956C345.908 665.956 346.88 666.322 347.624 667.054C348.368 667.774 348.74 668.818 348.74 670.186V676H347.12V670.42C347.12 669.436 346.874 668.686 346.382 668.17C345.89 667.642 345.218 667.378 344.366 667.378C343.502 667.378 342.812 667.648 342.296 668.188C341.792 668.728 341.54 669.514 341.54 670.546V676H339.902V666.136H341.54V667.54C341.864 667.036 342.302 666.646 342.854 666.37C343.418 666.094 344.036 665.956 344.708 665.956ZM350.803 671.05C350.803 670.03 351.007 669.142 351.415 668.386C351.823 667.618 352.387 667.024 353.107 666.604C353.839 666.184 354.673 665.974 355.609 665.974C356.821 665.974 357.817 666.268 358.597 666.856C359.389 667.444 359.911 668.26 360.163 669.304H358.399C358.231 668.704 357.901 668.23 357.409 667.882C356.929 667.534 356.329 667.36 355.609 667.36C354.673 667.36 353.917 667.684 353.341 668.332C352.765 668.968 352.477 669.874 352.477 671.05C352.477 672.238 352.765 673.156 353.341 673.804C353.917 674.452 354.673 674.776 355.609 674.776C356.329 674.776 356.929 674.608 357.409 674.272C357.889 673.936 358.219 673.456 358.399 672.832H360.163C359.899 673.84 359.371 674.65 358.579 675.262C357.787 675.862 356.797 676.162 355.609 676.162C354.673 676.162 353.839 675.952 353.107 675.532C352.387 675.112 351.823 674.518 351.415 673.75C351.007 672.982 350.803 672.082 350.803 671.05ZM371.349 670.69C371.349 671.002 371.331 671.332 371.295 671.68H363.411C363.471 672.652 363.801 673.414 364.401 673.966C365.013 674.506 365.751 674.776 366.615 674.776C367.323 674.776 367.911 674.614 368.379 674.29C368.859 673.954 369.195 673.51 369.387 672.958H371.151C370.887 673.906 370.359 674.68 369.567 675.28C368.775 675.868 367.791 676.162 366.615 676.162C365.679 676.162 364.839 675.952 364.095 675.532C363.363 675.112 362.787 674.518 362.367 673.75C361.947 672.97 361.737 672.07 361.737 671.05C361.737 670.03 361.941 669.136 362.349 668.368C362.757 667.6 363.327 667.012 364.059 666.604C364.803 666.184 365.655 665.974 366.615 665.974C367.551 665.974 368.379 666.178 369.099 666.586C369.819 666.994 370.371 667.558 370.755 668.278C371.151 668.986 371.349 669.79 371.349 670.69ZM369.657 670.348C369.657 669.724 369.519 669.19 369.243 668.746C368.967 668.29 368.589 667.948 368.109 667.72C367.641 667.48 367.119 667.36 366.543 667.36C365.715 667.36 365.007 667.624 364.419 668.152C363.843 668.68 363.513 669.412 363.429 670.348H369.657ZM379.156 664.534C378.844 664.534 378.58 664.426 378.364 664.21C378.148 663.994 378.04 663.73 378.04 663.418C378.04 663.106 378.148 662.842 378.364 662.626C378.58 662.41 378.844 662.302 379.156 662.302C379.456 662.302 379.708 662.41 379.912 662.626C380.128 662.842 380.236 663.106 380.236 663.418C380.236 663.73 380.128 663.994 379.912 664.21C379.708 664.426 379.456 664.534 379.156 664.534ZM379.948 666.136V676H378.31V666.136H379.948ZM386.232 676.162C385.476 676.162 384.798 676.036 384.198 675.784C383.598 675.52 383.124 675.16 382.776 674.704C382.428 674.236 382.236 673.702 382.2 673.102H383.892C383.94 673.594 384.168 673.996 384.576 674.308C384.996 674.62 385.542 674.776 386.214 674.776C386.838 674.776 387.33 674.638 387.69 674.362C388.05 674.086 388.23 673.738 388.23 673.318C388.23 672.886 388.038 672.568 387.654 672.364C387.27 672.148 386.676 671.938 385.872 671.734C385.14 671.542 384.54 671.35 384.072 671.158C383.616 670.954 383.22 670.66 382.884 670.276C382.56 669.88 382.398 669.364 382.398 668.728C382.398 668.224 382.548 667.762 382.848 667.342C383.148 666.922 383.574 666.592 384.126 666.352C384.678 666.1 385.308 665.974 386.016 665.974C387.108 665.974 387.99 666.25 388.662 666.802C389.334 667.354 389.694 668.11 389.742 669.07H388.104C388.068 668.554 387.858 668.14 387.474 667.828C387.102 667.516 386.598 667.36 385.962 667.36C385.374 667.36 384.906 667.486 384.558 667.738C384.21 667.99 384.036 668.32 384.036 668.728C384.036 669.052 384.138 669.322 384.342 669.538C384.558 669.742 384.822 669.91 385.134 670.042C385.458 670.162 385.902 670.3 386.466 670.456C387.174 670.648 387.75 670.84 388.194 671.032C388.638 671.212 389.016 671.488 389.328 671.86C389.652 672.232 389.82 672.718 389.832 673.318C389.832 673.858 389.682 674.344 389.382 674.776C389.082 675.208 388.656 675.55 388.104 675.802C387.564 676.042 386.94 676.162 386.232 676.162ZM396.331 671.05C396.331 670.03 396.535 669.142 396.943 668.386C397.351 667.618 397.915 667.024 398.635 666.604C399.367 666.184 400.201 665.974 401.137 665.974C402.349 665.974 403.345 666.268 404.125 666.856C404.917 667.444 405.439 668.26 405.691 669.304H403.927C403.759 668.704 403.429 668.23 402.937 667.882C402.457 667.534 401.857 667.36 401.137 667.36C400.201 667.36 399.445 667.684 398.869 668.332C398.293 668.968 398.005 669.874 398.005 671.05C398.005 672.238 398.293 673.156 398.869 673.804C399.445 674.452 400.201 674.776 401.137 674.776C401.857 674.776 402.457 674.608 402.937 674.272C403.417 673.936 403.747 673.456 403.927 672.832H405.691C405.427 673.84 404.899 674.65 404.107 675.262C403.315 675.862 402.325 676.162 401.137 676.162C400.201 676.162 399.367 675.952 398.635 675.532C397.915 675.112 397.351 674.518 396.943 673.75C396.535 672.982 396.331 672.082 396.331 671.05ZM412.178 676.162C411.254 676.162 410.414 675.952 409.658 675.532C408.914 675.112 408.326 674.518 407.894 673.75C407.474 672.97 407.264 672.07 407.264 671.05C407.264 670.042 407.48 669.154 407.912 668.386C408.356 667.606 408.956 667.012 409.712 666.604C410.468 666.184 411.314 665.974 412.25 665.974C413.186 665.974 414.032 666.184 414.788 666.604C415.544 667.012 416.138 667.6 416.57 668.368C417.014 669.136 417.236 670.03 417.236 671.05C417.236 672.07 417.008 672.97 416.552 673.75C416.108 674.518 415.502 675.112 414.734 675.532C413.966 675.952 413.114 676.162 412.178 676.162ZM412.178 674.722C412.766 674.722 413.318 674.584 413.834 674.308C414.35 674.032 414.764 673.618 415.076 673.066C415.4 672.514 415.562 671.842 415.562 671.05C415.562 670.258 415.406 669.586 415.094 669.034C414.782 668.482 414.374 668.074 413.87 667.81C413.366 667.534 412.82 667.396 412.232 667.396C411.632 667.396 411.08 667.534 410.576 667.81C410.084 668.074 409.688 668.482 409.388 669.034C409.088 669.586 408.938 670.258 408.938 671.05C408.938 671.854 409.082 672.532 409.37 673.084C409.67 673.636 410.066 674.05 410.558 674.326C411.05 674.59 411.59 674.722 412.178 674.722ZM421.028 667.738C421.316 667.174 421.724 666.736 422.252 666.424C422.792 666.112 423.446 665.956 424.214 665.956V667.648H423.782C421.946 667.648 421.028 668.644 421.028 670.636V676H419.39V666.136H421.028V667.738ZM427.743 667.738C428.031 667.174 428.439 666.736 428.967 666.424C429.507 666.112 430.161 665.956 430.929 665.956V667.648H430.497C428.661 667.648 427.743 668.644 427.743 670.636V676H426.105V666.136H427.743V667.738ZM441.82 670.69C441.82 671.002 441.802 671.332 441.766 671.68H433.882C433.942 672.652 434.272 673.414 434.872 673.966C435.484 674.506 436.222 674.776 437.086 674.776C437.794 674.776 438.382 674.614 438.85 674.29C439.33 673.954 439.666 673.51 439.858 672.958H441.622C441.358 673.906 440.83 674.68 440.038 675.28C439.246 675.868 438.262 676.162 437.086 676.162C436.15 676.162 435.31 675.952 434.566 675.532C433.834 675.112 433.258 674.518 432.838 673.75C432.418 672.97 432.208 672.07 432.208 671.05C432.208 670.03 432.412 669.136 432.82 668.368C433.228 667.6 433.798 667.012 434.53 666.604C435.274 666.184 436.126 665.974 437.086 665.974C438.022 665.974 438.85 666.178 439.57 666.586C440.29 666.994 440.842 667.558 441.226 668.278C441.622 668.986 441.82 669.79 441.82 670.69ZM440.128 670.348C440.128 669.724 439.99 669.19 439.714 668.746C439.438 668.29 439.06 667.948 438.58 667.72C438.112 667.48 437.59 667.36 437.014 667.36C436.186 667.36 435.478 667.624 434.89 668.152C434.314 668.68 433.984 669.412 433.9 670.348H440.128ZM443.37 671.05C443.37 670.03 443.574 669.142 443.982 668.386C444.39 667.618 444.954 667.024 445.674 666.604C446.406 666.184 447.24 665.974 448.176 665.974C449.388 665.974 450.384 666.268 451.164 666.856C451.956 667.444 452.478 668.26 452.73 669.304H450.966C450.798 668.704 450.468 668.23 449.976 667.882C449.496 667.534 448.896 667.36 448.176 667.36C447.24 667.36 446.484 667.684 445.908 668.332C445.332 668.968 445.044 669.874 445.044 671.05C445.044 672.238 445.332 673.156 445.908 673.804C446.484 674.452 447.24 674.776 448.176 674.776C448.896 674.776 449.496 674.608 449.976 674.272C450.456 673.936 450.786 673.456 450.966 672.832H452.73C452.466 673.84 451.938 674.65 451.146 675.262C450.354 675.862 449.364 676.162 448.176 676.162C447.24 676.162 446.406 675.952 445.674 675.532C444.954 675.112 444.39 674.518 443.982 673.75C443.574 672.982 443.37 672.082 443.37 671.05ZM456.913 667.486V673.3C456.913 673.78 457.015 674.122 457.219 674.326C457.423 674.518 457.777 674.614 458.281 674.614H459.487V676H458.011C457.099 676 456.415 675.79 455.959 675.37C455.503 674.95 455.275 674.26 455.275 673.3V667.486H453.997V666.136H455.275V663.652H456.913V666.136H459.487V667.486H456.913ZM469.763 676.162C469.007 676.162 468.329 676.036 467.729 675.784C467.129 675.52 466.655 675.16 466.307 674.704C465.959 674.236 465.767 673.702 465.731 673.102H467.423C467.471 673.594 467.699 673.996 468.107 674.308C468.527 674.62 469.073 674.776 469.745 674.776C470.369 674.776 470.861 674.638 471.221 674.362C471.581 674.086 471.761 673.738 471.761 673.318C471.761 672.886 471.569 672.568 471.185 672.364C470.801 672.148 470.207 671.938 469.403 671.734C468.671 671.542 468.071 671.35 467.603 671.158C467.147 670.954 466.751 670.66 466.415 670.276C466.091 669.88 465.929 669.364 465.929 668.728C465.929 668.224 466.079 667.762 466.379 667.342C466.679 666.922 467.105 666.592 467.657 666.352C468.209 666.1 468.839 665.974 469.547 665.974C470.639 665.974 471.521 666.25 472.193 666.802C472.865 667.354 473.225 668.11 473.273 669.07H471.635C471.599 668.554 471.389 668.14 471.005 667.828C470.633 667.516 470.129 667.36 469.493 667.36C468.905 667.36 468.437 667.486 468.089 667.738C467.741 667.99 467.567 668.32 467.567 668.728C467.567 669.052 467.669 669.322 467.873 669.538C468.089 669.742 468.353 669.91 468.665 670.042C468.989 670.162 469.433 670.3 469.997 670.456C470.705 670.648 471.281 670.84 471.725 671.032C472.169 671.212 472.547 671.488 472.859 671.86C473.183 672.232 473.351 672.718 473.363 673.318C473.363 673.858 473.213 674.344 472.913 674.776C472.613 675.208 472.187 675.55 471.635 675.802C471.095 676.042 470.471 676.162 469.763 676.162ZM479.977 676.162C479.053 676.162 478.213 675.952 477.457 675.532C476.713 675.112 476.125 674.518 475.693 673.75C475.273 672.97 475.063 672.07 475.063 671.05C475.063 670.042 475.279 669.154 475.711 668.386C476.155 667.606 476.755 667.012 477.511 666.604C478.267 666.184 479.113 665.974 480.049 665.974C480.985 665.974 481.831 666.184 482.587 666.604C483.343 667.012 483.937 667.6 484.369 668.368C484.813 669.136 485.035 670.03 485.035 671.05C485.035 672.07 484.807 672.97 484.351 673.75C483.907 674.518 483.301 675.112 482.533 675.532C481.765 675.952 480.913 676.162 479.977 676.162ZM479.977 674.722C480.565 674.722 481.117 674.584 481.633 674.308C482.149 674.032 482.563 673.618 482.875 673.066C483.199 672.514 483.361 671.842 483.361 671.05C483.361 670.258 483.205 669.586 482.893 669.034C482.581 668.482 482.173 668.074 481.669 667.81C481.165 667.534 480.619 667.396 480.031 667.396C479.431 667.396 478.879 667.534 478.375 667.81C477.883 668.074 477.487 668.482 477.187 669.034C476.887 669.586 476.737 670.258 476.737 671.05C476.737 671.854 476.881 672.532 477.169 673.084C477.469 673.636 477.865 674.05 478.357 674.326C478.849 674.59 479.389 674.722 479.977 674.722ZM493.986 667.486V673.3C493.986 673.78 494.088 674.122 494.292 674.326C494.496 674.518 494.85 674.614 495.354 674.614H496.56V676H495.084C494.172 676 493.488 675.79 493.032 675.37C492.576 674.95 492.348 674.26 492.348 673.3V667.486H491.07V666.136H492.348V663.652H493.986V666.136H496.56V667.486H493.986ZM503.44 665.956C504.184 665.956 504.856 666.118 505.456 666.442C506.056 666.754 506.524 667.228 506.86 667.864C507.208 668.5 507.382 669.274 507.382 670.186V676H505.762V670.42C505.762 669.436 505.516 668.686 505.024 668.17C504.532 667.642 503.86 667.378 503.008 667.378C502.144 667.378 501.454 667.648 500.938 668.188C500.434 668.728 500.182 669.514 500.182 670.546V676H498.544V662.68H500.182V667.54C500.506 667.036 500.95 666.646 501.514 666.37C502.09 666.094 502.732 665.956 503.44 665.956ZM509.446 671.032C509.446 670.024 509.65 669.142 510.058 668.386C510.466 667.618 511.024 667.024 511.732 666.604C512.452 666.184 513.25 665.974 514.126 665.974C514.99 665.974 515.74 666.16 516.376 666.532C517.012 666.904 517.486 667.372 517.798 667.936V666.136H519.454V676H517.798V674.164C517.474 674.74 516.988 675.22 516.34 675.604C515.704 675.976 514.96 676.162 514.108 676.162C513.232 676.162 512.44 675.946 511.732 675.514C511.024 675.082 510.466 674.476 510.058 673.696C509.65 672.916 509.446 672.028 509.446 671.032ZM517.798 671.05C517.798 670.306 517.648 669.658 517.348 669.106C517.048 668.554 516.64 668.134 516.124 667.846C515.62 667.546 515.062 667.396 514.45 667.396C513.838 667.396 513.28 667.54 512.776 667.828C512.272 668.116 511.87 668.536 511.57 669.088C511.27 669.64 511.12 670.288 511.12 671.032C511.12 671.788 511.27 672.448 511.57 673.012C511.87 673.564 512.272 673.99 512.776 674.29C513.28 674.578 513.838 674.722 514.45 674.722C515.062 674.722 515.62 674.578 516.124 674.29C516.64 673.99 517.048 673.564 517.348 673.012C517.648 672.448 517.798 671.794 517.798 671.05ZM524.22 667.486V673.3C524.22 673.78 524.322 674.122 524.526 674.326C524.73 674.518 525.084 674.614 525.588 674.614H526.794V676H525.318C524.406 676 523.722 675.79 523.266 675.37C522.81 674.95 522.582 674.26 522.582 673.3V667.486H521.304V666.136H522.582V663.652H524.22V666.136H526.794V667.486H524.22ZM546.717 666.136L543.639 676H541.947L539.571 668.17L537.195 676H535.503L532.407 666.136H534.081L536.349 674.416L538.797 666.136H540.471L542.865 674.434L545.097 666.136H546.717ZM557.343 670.69C557.343 671.002 557.325 671.332 557.289 671.68H549.405C549.465 672.652 549.795 673.414 550.395 673.966C551.007 674.506 551.745 674.776 552.609 674.776C553.317 674.776 553.905 674.614 554.373 674.29C554.853 673.954 555.189 673.51 555.381 672.958H557.145C556.881 673.906 556.353 674.68 555.561 675.28C554.769 675.868 553.785 676.162 552.609 676.162C551.673 676.162 550.833 675.952 550.089 675.532C549.357 675.112 548.781 674.518 548.361 673.75C547.941 672.97 547.731 672.07 547.731 671.05C547.731 670.03 547.935 669.136 548.343 668.368C548.751 667.6 549.321 667.012 550.053 666.604C550.797 666.184 551.649 665.974 552.609 665.974C553.545 665.974 554.373 666.178 555.093 666.586C555.813 666.994 556.365 667.558 556.749 668.278C557.145 668.986 557.343 669.79 557.343 670.69ZM555.651 670.348C555.651 669.724 555.513 669.19 555.237 668.746C554.961 668.29 554.583 667.948 554.103 667.72C553.635 667.48 553.113 667.36 552.537 667.36C551.709 667.36 551.001 667.624 550.413 668.152C549.837 668.68 549.507 669.412 549.423 670.348H555.651ZM563.692 671.05C563.692 670.03 563.896 669.142 564.304 668.386C564.712 667.618 565.276 667.024 565.996 666.604C566.728 666.184 567.562 665.974 568.498 665.974C569.71 665.974 570.706 666.268 571.486 666.856C572.278 667.444 572.8 668.26 573.052 669.304H571.288C571.12 668.704 570.79 668.23 570.298 667.882C569.818 667.534 569.218 667.36 568.498 667.36C567.562 667.36 566.806 667.684 566.23 668.332C565.654 668.968 565.366 669.874 565.366 671.05C565.366 672.238 565.654 673.156 566.23 673.804C566.806 674.452 567.562 674.776 568.498 674.776C569.218 674.776 569.818 674.608 570.298 674.272C570.778 673.936 571.108 673.456 571.288 672.832H573.052C572.788 673.84 572.26 674.65 571.468 675.262C570.676 675.862 569.686 676.162 568.498 676.162C567.562 676.162 566.728 675.952 565.996 675.532C565.276 675.112 564.712 674.518 564.304 673.75C563.896 672.982 563.692 672.082 563.692 671.05ZM574.626 671.032C574.626 670.024 574.83 669.142 575.238 668.386C575.646 667.618 576.204 667.024 576.912 666.604C577.632 666.184 578.43 665.974 579.306 665.974C580.17 665.974 580.92 666.16 581.556 666.532C582.192 666.904 582.666 667.372 582.978 667.936V666.136H584.634V676H582.978V674.164C582.654 674.74 582.168 675.22 581.52 675.604C580.884 675.976 580.14 676.162 579.288 676.162C578.412 676.162 577.62 675.946 576.912 675.514C576.204 675.082 575.646 674.476 575.238 673.696C574.83 672.916 574.626 672.028 574.626 671.032ZM582.978 671.05C582.978 670.306 582.828 669.658 582.528 669.106C582.228 668.554 581.82 668.134 581.304 667.846C580.8 667.546 580.242 667.396 579.63 667.396C579.018 667.396 578.46 667.54 577.956 667.828C577.452 668.116 577.05 668.536 576.75 669.088C576.45 669.64 576.3 670.288 576.3 671.032C576.3 671.788 576.45 672.448 576.75 673.012C577.05 673.564 577.452 673.99 577.956 674.29C578.46 674.578 579.018 674.722 579.63 674.722C580.242 674.722 580.8 674.578 581.304 674.29C581.82 673.99 582.228 673.564 582.528 673.012C582.828 672.448 582.978 671.794 582.978 671.05ZM592.208 665.956C593.408 665.956 594.38 666.322 595.124 667.054C595.868 667.774 596.24 668.818 596.24 670.186V676H594.62V670.42C594.62 669.436 594.374 668.686 593.882 668.17C593.39 667.642 592.718 667.378 591.866 667.378C591.002 667.378 590.312 667.648 589.796 668.188C589.292 668.728 589.04 669.514 589.04 670.546V676H587.402V666.136H589.04V667.54C589.364 667.036 589.802 666.646 590.354 666.37C590.918 666.094 591.536 665.956 592.208 665.956ZM251.83 694.738C252.118 694.174 252.526 693.736 253.054 693.424C253.594 693.112 254.248 692.956 255.016 692.956V694.648H254.584C252.748 694.648 251.83 695.644 251.83 697.636V703H250.192V693.136H251.83V694.738ZM265.907 697.69C265.907 698.002 265.889 698.332 265.853 698.68H257.969C258.029 699.652 258.359 700.414 258.959 700.966C259.571 701.506 260.309 701.776 261.173 701.776C261.881 701.776 262.469 701.614 262.937 701.29C263.417 700.954 263.753 700.51 263.945 699.958H265.709C265.445 700.906 264.917 701.68 264.125 702.28C263.333 702.868 262.349 703.162 261.173 703.162C260.237 703.162 259.397 702.952 258.653 702.532C257.921 702.112 257.345 701.518 256.925 700.75C256.505 699.97 256.295 699.07 256.295 698.05C256.295 697.03 256.499 696.136 256.907 695.368C257.315 694.6 257.885 694.012 258.617 693.604C259.361 693.184 260.213 692.974 261.173 692.974C262.109 692.974 262.937 693.178 263.657 693.586C264.377 693.994 264.929 694.558 265.313 695.278C265.709 695.986 265.907 696.79 265.907 697.69ZM264.215 697.348C264.215 696.724 264.077 696.19 263.801 695.746C263.525 695.29 263.147 694.948 262.667 694.72C262.199 694.48 261.677 694.36 261.101 694.36C260.273 694.36 259.565 694.624 258.977 695.152C258.401 695.68 258.071 696.412 257.987 697.348H264.215ZM267.457 698.032C267.457 697.024 267.661 696.142 268.069 695.386C268.477 694.618 269.035 694.024 269.743 693.604C270.463 693.184 271.261 692.974 272.137 692.974C273.001 692.974 273.751 693.16 274.387 693.532C275.023 693.904 275.497 694.372 275.809 694.936V693.136H277.465V703H275.809V701.164C275.485 701.74 274.999 702.22 274.351 702.604C273.715 702.976 272.971 703.162 272.119 703.162C271.243 703.162 270.451 702.946 269.743 702.514C269.035 702.082 268.477 701.476 268.069 700.696C267.661 699.916 267.457 699.028 267.457 698.032ZM275.809 698.05C275.809 697.306 275.659 696.658 275.359 696.106C275.059 695.554 274.651 695.134 274.135 694.846C273.631 694.546 273.073 694.396 272.461 694.396C271.849 694.396 271.291 694.54 270.787 694.828C270.283 695.116 269.881 695.536 269.581 696.088C269.281 696.64 269.131 697.288 269.131 698.032C269.131 698.788 269.281 699.448 269.581 700.012C269.881 700.564 270.283 700.99 270.787 701.29C271.291 701.578 271.849 701.722 272.461 701.722C273.073 701.722 273.631 701.578 274.135 701.29C274.651 700.99 275.059 700.564 275.359 700.012C275.659 699.448 275.809 698.794 275.809 698.05ZM279.621 698.05C279.621 697.03 279.825 696.142 280.233 695.386C280.641 694.618 281.205 694.024 281.925 693.604C282.657 693.184 283.491 692.974 284.427 692.974C285.639 692.974 286.635 693.268 287.415 693.856C288.207 694.444 288.729 695.26 288.981 696.304H287.217C287.049 695.704 286.719 695.23 286.227 694.882C285.747 694.534 285.147 694.36 284.427 694.36C283.491 694.36 282.735 694.684 282.159 695.332C281.583 695.968 281.295 696.874 281.295 698.05C281.295 699.238 281.583 700.156 282.159 700.804C282.735 701.452 283.491 701.776 284.427 701.776C285.147 701.776 285.747 701.608 286.227 701.272C286.707 700.936 287.037 700.456 287.217 699.832H288.981C288.717 700.84 288.189 701.65 287.397 702.262C286.605 702.862 285.615 703.162 284.427 703.162C283.491 703.162 282.657 702.952 281.925 702.532C281.205 702.112 280.641 701.518 280.233 700.75C279.825 699.982 279.621 699.082 279.621 698.05ZM296.062 692.956C296.806 692.956 297.478 693.118 298.078 693.442C298.678 693.754 299.146 694.228 299.482 694.864C299.83 695.5 300.004 696.274 300.004 697.186V703H298.384V697.42C298.384 696.436 298.138 695.686 297.646 695.17C297.154 694.642 296.482 694.378 295.63 694.378C294.766 694.378 294.076 694.648 293.56 695.188C293.056 695.728 292.804 696.514 292.804 697.546V703H291.166V689.68H292.804V694.54C293.128 694.036 293.572 693.646 294.136 693.37C294.712 693.094 295.354 692.956 296.062 692.956ZM311.781 703.162C310.857 703.162 310.017 702.952 309.261 702.532C308.517 702.112 307.929 701.518 307.497 700.75C307.077 699.97 306.867 699.07 306.867 698.05C306.867 697.042 307.083 696.154 307.515 695.386C307.959 694.606 308.559 694.012 309.315 693.604C310.071 693.184 310.917 692.974 311.853 692.974C312.789 692.974 313.635 693.184 314.391 693.604C315.147 694.012 315.741 694.6 316.173 695.368C316.617 696.136 316.839 697.03 316.839 698.05C316.839 699.07 316.611 699.97 316.155 700.75C315.711 701.518 315.105 702.112 314.337 702.532C313.569 702.952 312.717 703.162 311.781 703.162ZM311.781 701.722C312.369 701.722 312.921 701.584 313.437 701.308C313.953 701.032 314.367 700.618 314.679 700.066C315.003 699.514 315.165 698.842 315.165 698.05C315.165 697.258 315.009 696.586 314.697 696.034C314.385 695.482 313.977 695.074 313.473 694.81C312.969 694.534 312.423 694.396 311.835 694.396C311.235 694.396 310.683 694.534 310.179 694.81C309.687 695.074 309.291 695.482 308.991 696.034C308.691 696.586 308.541 697.258 308.541 698.05C308.541 698.854 308.685 699.532 308.973 700.084C309.273 700.636 309.669 701.05 310.161 701.326C310.653 701.59 311.193 701.722 311.781 701.722ZM327.74 693.136V703H326.102V701.542C325.79 702.046 325.352 702.442 324.788 702.73C324.236 703.006 323.624 703.144 322.952 703.144C322.184 703.144 321.494 702.988 320.882 702.676C320.27 702.352 319.784 701.872 319.424 701.236C319.076 700.6 318.902 699.826 318.902 698.914V693.136H320.522V698.698C320.522 699.67 320.768 700.42 321.26 700.948C321.752 701.464 322.424 701.722 323.276 701.722C324.152 701.722 324.842 701.452 325.346 700.912C325.85 700.372 326.102 699.586 326.102 698.554V693.136H327.74ZM332.504 694.486V700.3C332.504 700.78 332.606 701.122 332.81 701.326C333.014 701.518 333.368 701.614 333.872 701.614H335.078V703H333.602C332.69 703 332.006 702.79 331.55 702.37C331.094 701.95 330.866 701.26 330.866 700.3V694.486H329.588V693.136H330.866V690.652H332.504V693.136H335.078V694.486H332.504ZM342.708 691.534C342.396 691.534 342.132 691.426 341.916 691.21C341.7 690.994 341.592 690.73 341.592 690.418C341.592 690.106 341.7 689.842 341.916 689.626C342.132 689.41 342.396 689.302 342.708 689.302C343.008 689.302 343.26 689.41 343.464 689.626C343.68 689.842 343.788 690.106 343.788 690.418C343.788 690.73 343.68 690.994 343.464 691.21C343.26 691.426 343.008 691.534 342.708 691.534ZM343.5 693.136V703H341.862V693.136H343.5ZM350.305 694.486H348.235V703H346.597V694.486H345.319V693.136H346.597V692.434C346.597 691.33 346.879 690.526 347.443 690.022C348.019 689.506 348.937 689.248 350.197 689.248V690.616C349.477 690.616 348.967 690.76 348.667 691.048C348.379 691.324 348.235 691.786 348.235 692.434V693.136H350.305V694.486ZM357.86 691.534C357.548 691.534 357.284 691.426 357.068 691.21C356.852 690.994 356.744 690.73 356.744 690.418C356.744 690.106 356.852 689.842 357.068 689.626C357.284 689.41 357.548 689.302 357.86 689.302C358.16 689.302 358.412 689.41 358.616 689.626C358.832 689.842 358.94 690.106 358.94 690.418C358.94 690.73 358.832 690.994 358.616 691.21C358.412 691.426 358.16 691.534 357.86 691.534ZM358.652 693.136V703H357.014V693.136H358.652ZM363.442 694.486V700.3C363.442 700.78 363.544 701.122 363.748 701.326C363.952 701.518 364.306 701.614 364.81 701.614H366.016V703H364.54C363.628 703 362.944 702.79 362.488 702.37C362.032 701.95 361.804 701.26 361.804 700.3V694.486H360.526V693.136H361.804V690.652H363.442V693.136H366.016V694.486H363.442ZM368.252 690.454H370.07L368.342 694.54H367.19L368.252 690.454ZM375.43 703.162C374.674 703.162 373.996 703.036 373.396 702.784C372.796 702.52 372.322 702.16 371.974 701.704C371.626 701.236 371.434 700.702 371.398 700.102H373.09C373.138 700.594 373.366 700.996 373.774 701.308C374.194 701.62 374.74 701.776 375.412 701.776C376.036 701.776 376.528 701.638 376.888 701.362C377.248 701.086 377.428 700.738 377.428 700.318C377.428 699.886 377.236 699.568 376.852 699.364C376.468 699.148 375.874 698.938 375.07 698.734C374.338 698.542 373.738 698.35 373.27 698.158C372.814 697.954 372.418 697.66 372.082 697.276C371.758 696.88 371.596 696.364 371.596 695.728C371.596 695.224 371.746 694.762 372.046 694.342C372.346 693.922 372.772 693.592 373.324 693.352C373.876 693.1 374.506 692.974 375.214 692.974C376.306 692.974 377.188 693.25 377.86 693.802C378.532 694.354 378.892 695.11 378.94 696.07H377.302C377.266 695.554 377.056 695.14 376.672 694.828C376.3 694.516 375.796 694.36 375.16 694.36C374.572 694.36 374.104 694.486 373.756 694.738C373.408 694.99 373.234 695.32 373.234 695.728C373.234 696.052 373.336 696.322 373.54 696.538C373.756 696.742 374.02 696.91 374.332 697.042C374.656 697.162 375.1 697.3 375.664 697.456C376.372 697.648 376.948 697.84 377.392 698.032C377.836 698.212 378.214 698.488 378.526 698.86C378.85 699.232 379.018 699.718 379.03 700.318C379.03 700.858 378.88 701.344 378.58 701.776C378.28 702.208 377.854 702.55 377.302 702.802C376.762 703.042 376.138 703.162 375.43 703.162ZM390.947 692.956C392.147 692.956 393.119 693.322 393.863 694.054C394.607 694.774 394.979 695.818 394.979 697.186V703H393.359V697.42C393.359 696.436 393.113 695.686 392.621 695.17C392.129 694.642 391.457 694.378 390.605 694.378C389.741 694.378 389.051 694.648 388.535 695.188C388.031 695.728 387.779 696.514 387.779 697.546V703H386.141V693.136H387.779V694.54C388.103 694.036 388.541 693.646 389.093 693.37C389.657 693.094 390.275 692.956 390.947 692.956ZM406.655 697.69C406.655 698.002 406.637 698.332 406.601 698.68H398.717C398.777 699.652 399.107 700.414 399.707 700.966C400.319 701.506 401.057 701.776 401.921 701.776C402.629 701.776 403.217 701.614 403.685 701.29C404.165 700.954 404.501 700.51 404.693 699.958H406.457C406.193 700.906 405.665 701.68 404.873 702.28C404.081 702.868 403.097 703.162 401.921 703.162C400.985 703.162 400.145 702.952 399.401 702.532C398.669 702.112 398.093 701.518 397.673 700.75C397.253 699.97 397.043 699.07 397.043 698.05C397.043 697.03 397.247 696.136 397.655 695.368C398.063 694.6 398.633 694.012 399.365 693.604C400.109 693.184 400.961 692.974 401.921 692.974C402.857 692.974 403.685 693.178 404.405 693.586C405.125 693.994 405.677 694.558 406.061 695.278C406.457 695.986 406.655 696.79 406.655 697.69ZM404.963 697.348C404.963 696.724 404.825 696.19 404.549 695.746C404.273 695.29 403.895 694.948 403.415 694.72C402.947 694.48 402.425 694.36 401.849 694.36C401.021 694.36 400.313 694.624 399.725 695.152C399.149 695.68 398.819 696.412 398.735 697.348H404.963ZM408.205 698.05C408.205 697.03 408.409 696.142 408.817 695.386C409.225 694.618 409.789 694.024 410.509 693.604C411.241 693.184 412.075 692.974 413.011 692.974C414.223 692.974 415.219 693.268 415.999 693.856C416.791 694.444 417.313 695.26 417.565 696.304H415.801C415.633 695.704 415.303 695.23 414.811 694.882C414.331 694.534 413.731 694.36 413.011 694.36C412.075 694.36 411.319 694.684 410.743 695.332C410.167 695.968 409.879 696.874 409.879 698.05C409.879 699.238 410.167 700.156 410.743 700.804C411.319 701.452 412.075 701.776 413.011 701.776C413.731 701.776 414.331 701.608 414.811 701.272C415.291 700.936 415.621 700.456 415.801 699.832H417.565C417.301 700.84 416.773 701.65 415.981 702.262C415.189 702.862 414.199 703.162 413.011 703.162C412.075 703.162 411.241 702.952 410.509 702.532C409.789 702.112 409.225 701.518 408.817 700.75C408.409 699.982 408.205 699.082 408.205 698.05ZM428.75 697.69C428.75 698.002 428.732 698.332 428.696 698.68H420.812C420.872 699.652 421.202 700.414 421.802 700.966C422.414 701.506 423.152 701.776 424.016 701.776C424.724 701.776 425.312 701.614 425.78 701.29C426.26 700.954 426.596 700.51 426.788 699.958H428.552C428.288 700.906 427.76 701.68 426.968 702.28C426.176 702.868 425.192 703.162 424.016 703.162C423.08 703.162 422.24 702.952 421.496 702.532C420.764 702.112 420.188 701.518 419.768 700.75C419.348 699.97 419.138 699.07 419.138 698.05C419.138 697.03 419.342 696.136 419.75 695.368C420.158 694.6 420.728 694.012 421.46 693.604C422.204 693.184 423.056 692.974 424.016 692.974C424.952 692.974 425.78 693.178 426.5 693.586C427.22 693.994 427.772 694.558 428.156 695.278C428.552 695.986 428.75 696.79 428.75 697.69ZM427.058 697.348C427.058 696.724 426.92 696.19 426.644 695.746C426.368 695.29 425.99 694.948 425.51 694.72C425.042 694.48 424.52 694.36 423.944 694.36C423.116 694.36 422.408 694.624 421.82 695.152C421.244 695.68 420.914 696.412 420.83 697.348H427.058ZM434.404 703.162C433.648 703.162 432.97 703.036 432.37 702.784C431.77 702.52 431.296 702.16 430.948 701.704C430.6 701.236 430.408 700.702 430.372 700.102H432.064C432.112 700.594 432.34 700.996 432.748 701.308C433.168 701.62 433.714 701.776 434.386 701.776C435.01 701.776 435.502 701.638 435.862 701.362C436.222 701.086 436.402 700.738 436.402 700.318C436.402 699.886 436.21 699.568 435.826 699.364C435.442 699.148 434.848 698.938 434.044 698.734C433.312 698.542 432.712 698.35 432.244 698.158C431.788 697.954 431.392 697.66 431.056 697.276C430.732 696.88 430.57 696.364 430.57 695.728C430.57 695.224 430.72 694.762 431.02 694.342C431.32 693.922 431.746 693.592 432.298 693.352C432.85 693.1 433.48 692.974 434.188 692.974C435.28 692.974 436.162 693.25 436.834 693.802C437.506 694.354 437.866 695.11 437.914 696.07H436.276C436.24 695.554 436.03 695.14 435.646 694.828C435.274 694.516 434.77 694.36 434.134 694.36C433.546 694.36 433.078 694.486 432.73 694.738C432.382 694.99 432.208 695.32 432.208 695.728C432.208 696.052 432.31 696.322 432.514 696.538C432.73 696.742 432.994 696.91 433.306 697.042C433.63 697.162 434.074 697.3 434.638 697.456C435.346 697.648 435.922 697.84 436.366 698.032C436.81 698.212 437.188 698.488 437.5 698.86C437.824 699.232 437.992 699.718 438.004 700.318C438.004 700.858 437.854 701.344 437.554 701.776C437.254 702.208 436.828 702.55 436.276 702.802C435.736 703.042 435.112 703.162 434.404 703.162ZM443.809 703.162C443.053 703.162 442.375 703.036 441.775 702.784C441.175 702.52 440.701 702.16 440.353 701.704C440.005 701.236 439.813 700.702 439.777 700.102H441.469C441.517 700.594 441.745 700.996 442.153 701.308C442.573 701.62 443.119 701.776 443.791 701.776C444.415 701.776 444.907 701.638 445.267 701.362C445.627 701.086 445.807 700.738 445.807 700.318C445.807 699.886 445.615 699.568 445.231 699.364C444.847 699.148 444.253 698.938 443.449 698.734C442.717 698.542 442.117 698.35 441.649 698.158C441.193 697.954 440.797 697.66 440.461 697.276C440.137 696.88 439.975 696.364 439.975 695.728C439.975 695.224 440.125 694.762 440.425 694.342C440.725 693.922 441.151 693.592 441.703 693.352C442.255 693.1 442.885 692.974 443.593 692.974C444.685 692.974 445.567 693.25 446.239 693.802C446.911 694.354 447.271 695.11 447.319 696.07H445.681C445.645 695.554 445.435 695.14 445.051 694.828C444.679 694.516 444.175 694.36 443.539 694.36C442.951 694.36 442.483 694.486 442.135 694.738C441.787 694.99 441.613 695.32 441.613 695.728C441.613 696.052 441.715 696.322 441.919 696.538C442.135 696.742 442.399 696.91 442.711 697.042C443.035 697.162 443.479 697.3 444.043 697.456C444.751 697.648 445.327 697.84 445.771 698.032C446.215 698.212 446.593 698.488 446.905 698.86C447.229 699.232 447.397 699.718 447.409 700.318C447.409 700.858 447.259 701.344 446.959 701.776C446.659 702.208 446.233 702.55 445.681 702.802C445.141 703.042 444.517 703.162 443.809 703.162ZM449.109 698.032C449.109 697.024 449.313 696.142 449.721 695.386C450.129 694.618 450.687 694.024 451.395 693.604C452.115 693.184 452.913 692.974 453.789 692.974C454.653 692.974 455.403 693.16 456.039 693.532C456.675 693.904 457.149 694.372 457.461 694.936V693.136H459.117V703H457.461V701.164C457.137 701.74 456.651 702.22 456.003 702.604C455.367 702.976 454.623 703.162 453.771 703.162C452.895 703.162 452.103 702.946 451.395 702.514C450.687 702.082 450.129 701.476 449.721 700.696C449.313 699.916 449.109 699.028 449.109 698.032ZM457.461 698.05C457.461 697.306 457.311 696.658 457.011 696.106C456.711 695.554 456.303 695.134 455.787 694.846C455.283 694.546 454.725 694.396 454.113 694.396C453.501 694.396 452.943 694.54 452.439 694.828C451.935 695.116 451.533 695.536 451.233 696.088C450.933 696.64 450.783 697.288 450.783 698.032C450.783 698.788 450.933 699.448 451.233 700.012C451.533 700.564 451.935 700.99 452.439 701.29C452.943 701.578 453.501 701.722 454.113 701.722C454.725 701.722 455.283 701.578 455.787 701.29C456.303 700.99 456.711 700.564 457.011 700.012C457.311 699.448 457.461 698.794 457.461 698.05ZM463.523 694.738C463.811 694.174 464.219 693.736 464.747 693.424C465.287 693.112 465.941 692.956 466.709 692.956V694.648H466.277C464.441 694.648 463.523 695.644 463.523 697.636V703H461.885V693.136H463.523V694.738ZM477.096 693.136L471.156 707.644H469.464L471.408 702.892L467.43 693.136H469.248L472.344 701.128L475.404 693.136H477.096ZM478.994 690.454H480.812L479.084 694.54H477.932L478.994 690.454ZM481.91 690.454H483.728L482 694.54H480.83L481.91 690.454Z" fill="#737373"/>
<g clip-path="url(#clip0_2179_42103)">
<path opacity="0.2" d="M190.906 593.999C190.906 608.059 267.296 619.467 361.536 619.467C455.763 619.467 532.152 608.059 532.152 593.999C532.152 579.931 455.763 568.525 361.536 568.525C267.296 568.525 190.906 579.931 190.906 593.999Z" fill="#2A94F4"/>
<path d="M302.317 251.382L304.358 242.02C304.358 242.02 314.129 239.54 314.845 229.245C315.561 218.949 295.75 214.868 293.066 220.624C291.972 222.971 291.032 228.03 290.302 233.2C289.242 240.712 288.625 248.457 288.625 248.457L302.317 251.382Z" fill="#FCD2B1"/>
<path d="M280.611 241.631C280.611 241.631 288.705 237.901 295.816 241.154C298.607 242.429 305.088 248.206 305.088 248.206C305.088 248.206 300.906 321.137 299.261 327.133C299.699 327.282 300.116 327.438 300.562 327.607C317.776 334.47 343.231 349.842 354.453 356.268C359.871 359.373 357.728 364.874 361.079 369.862C363.36 373.265 365.049 377.005 366.026 381.033C367.555 387.383 367.226 393.966 361.674 397.968C359.597 399.474 357.15 400.257 354.703 400.348C351.958 400.462 349.244 399.721 346.938 398.227C331.436 388.04 288.287 360.96 280.026 353.276C278.581 351.925 277.413 350.496 276.517 349.038C276.165 348.572 275.851 348.068 275.514 347.5C267.222 332.674 280.611 241.631 280.611 241.631Z" fill="#FFD233"/>
<path d="M378.308 593.978C378.308 593.978 411.528 595.41 436.609 572.972C456.676 555.019 471.529 525.002 475.765 511.87C480.001 498.738 481.82 472.526 475.476 468.148C469.132 463.769 354.262 572.972 354.262 572.972L378.308 593.978Z" fill="#3B8CF7"/>
<path d="M229.703 523C229.703 523 243.543 507.358 280.91 507.408C310.007 507.447 405.469 533.571 405.469 533.571L363.949 577.906L229.703 523Z" fill="#3B8CF7"/>
<path d="M403.376 586.2L384 577.907L377.383 590.347L386.154 597.608H400.954L403.376 586.2Z" fill="#FCD2B1"/>
<path d="M386.156 597.608C386.156 597.608 392.653 598.415 397.497 592.654C402.341 586.892 399.573 584.473 402.687 584.127C405.8 583.782 419.294 590.002 432.788 588.62C446.282 587.238 450.434 585.181 451.126 590.183C451.818 595.186 450.046 613.767 433.784 613.076C417.522 612.385 386.156 597.608 386.156 597.608Z" fill="#3B8CF7"/>
<path d="M427.392 468.231C423.976 477.083 423.159 486.745 425.228 496.026C429.325 514.45 424.662 515.686 424.662 515.686C424.662 515.686 402.475 531.069 380.816 533.371C361.421 535.432 327.371 526.029 327.725 509.596C327.725 509.596 342.549 484.962 340.649 443.605C338.688 401.178 348.795 391.444 358.102 379.402C371.867 361.592 317.587 349.628 418.992 362.003C441.146 364.707 451.422 370.778 451.246 386.834C451.189 392.17 446.774 400.745 445.358 408.696C441.771 428.901 433.207 453.156 427.392 468.231Z" fill="#FFD233"/>
<path d="M416.012 447.044C407.709 469.162 382.979 483.847 359.558 480.575C350.817 479.347 342.392 475.88 335.339 470.574C326.772 464.136 320.363 454.947 317.061 444.767C315.705 440.61 314.872 436.29 314.618 431.917C314.112 423.139 315.832 414.946 319.192 407.701C325.338 394.403 337.001 384.276 350.579 379.497C364.849 374.482 381.233 375.372 395.55 384.708C407.472 392.485 415.464 405.473 418.123 419.403V419.409C419.885 428.618 419.314 438.239 416.012 447.044Z" fill="#1282D6"/>
<path d="M363.372 441.269C361.346 442.381 358.893 442.728 357.163 444.251C352.104 448.703 357.432 458.072 353.36 463.43C351.302 466.143 347.204 466.802 344.101 465.379C341.005 463.957 338.926 460.827 338.162 457.508C337.312 453.825 337.602 449.315 334.553 447.075C332.965 445.911 330.887 445.737 328.925 445.611C325.981 445.416 323.033 445.226 320.089 445.031C319.092 444.962 318.069 444.894 317.061 444.767C315.705 440.61 314.872 436.29 314.618 431.917C314.112 423.139 315.832 414.946 319.192 407.701C320.748 406.822 322.494 406.347 324.277 406.521C327.395 406.821 330.017 408.961 333.029 409.809C338.595 411.373 345.537 408.639 349.788 412.549C352.874 415.389 352.706 420.178 352.896 424.361C353.091 428.55 354.705 433.598 358.836 434.34C361.152 434.762 364.079 433.782 365.551 435.621C366.996 437.418 365.392 440.157 363.372 441.269ZM418.123 419.403V419.408C417.485 421.006 416.626 422.507 415.569 423.865C413.465 426.558 409.587 428.708 406.754 426.806C402.666 424.066 405.267 416.199 400.957 413.818C396.267 411.22 391.113 418.997 385.975 417.464C381.049 415.989 381.449 407.732 376.707 405.741C373.437 404.366 369.944 406.837 367.101 408.95C364.252 411.063 360.132 412.928 357.426 410.641C355.142 408.713 355.538 405.098 356.577 402.301C357.616 399.503 359.13 396.6 358.434 393.696C357.379 389.323 351.856 387.242 350.611 382.922C350.283 381.789 350.305 380.624 350.579 379.497C364.848 374.481 381.233 375.372 395.55 384.708C407.472 392.485 415.464 405.472 418.123 419.403ZM389.827 458.684C392.208 455.551 396.53 454.81 399.994 452.939C403.052 451.287 405.681 448.296 405.721 444.824C405.762 441.351 402.245 437.948 398.938 439.018C397.097 439.614 395.831 441.305 394.11 442.187C391.235 443.661 387.788 442.633 384.636 441.924C381.483 441.215 377.61 441.103 375.644 443.664C372.434 447.847 374.877 454.007 371.41 458.821C368.294 463.145 364.106 466.727 368.753 471.877C372.234 475.734 379.023 476.084 383.092 473.089C388.062 469.432 386.428 463.158 389.827 458.684Z" fill="#9DDA9C"/>
<path d="M403.419 343.23C402.836 341.46 400.698 340.749 399.133 341.765C393.711 345.287 388.739 347.753 380.815 347.753C379.182 347.753 378.469 347.488 377.946 347.116C376.703 346.23 374.979 346.392 374.019 347.578C373.759 347.9 373.676 348.148 374.148 348.249C376.951 348.846 378.985 351.209 379.147 354.048L379.772 365.678C379.792 366.054 379.886 366.422 380.049 366.763L383.165 373.263C383.912 374.823 385.861 375.372 387.314 374.432L392.886 370.829L403.589 363.9C404.017 363.623 404.363 363.237 404.592 362.783C404.821 362.328 404.925 361.821 404.893 361.313L403.835 344.632C403.811 344.297 403.727 343.969 403.587 343.664C403.523 343.523 403.467 343.378 403.419 343.23Z" fill="#FFE3CA"/>
<path d="M355.371 306.735C355.072 306.711 355.238 308.41 352.858 311.162C350.477 313.914 350.287 319.467 350.359 319.287C350.43 319.108 345.758 306.37 347.097 303.249C348.436 300.129 351.19 299.339 351.891 300.356C352.593 301.374 355.371 306.735 355.371 306.735Z" fill="#0B4870"/>
<path d="M408.608 322.617C408.899 325.599 408.969 328.275 408.669 330.222C408.632 330.501 408.573 330.777 408.491 331.047C408.431 331.306 408.372 331.59 408.259 331.877C405.494 340.518 392.217 352.839 383.034 353.949C381.821 354.056 380.63 354.092 379.487 354.054C366.733 353.745 359.439 345.113 355.288 335.88C355.147 335.546 355.008 335.235 354.87 334.923C351.221 326.339 350.159 317.481 349.885 314.382C349.821 313.648 349.812 313.232 349.812 313.232C349.123 309.846 349.833 307.193 350.236 306.094C350.369 305.711 350.462 305.518 350.462 305.518C350.462 305.518 350.626 305.481 350.898 305.41C354.453 304.449 378.639 297.967 379.163 297.921C379.687 297.874 403.906 298.999 403.906 298.999C403.906 298.999 407.576 312.53 408.608 322.617Z" fill="#FFE3CA"/>
<path d="M339.798 294.025C339.798 294.025 340.582 312.488 370.952 305.103C390.501 300.35 395.041 311.03 395.795 319.245C396.038 321.895 399.066 323.266 401.225 321.706C402.704 320.637 405.857 319.072 407.405 322.27C411.467 330.664 404.008 339.86 403.903 340.084C403.903 340.084 409.833 344.234 412.541 327.026C412.922 324.604 413.376 294.985 407.363 286.688C401.35 278.391 394.174 278.767 394.174 278.767C394.174 278.767 386.574 272.37 368.666 277.604C362.378 279.442 357.14 279.883 352.991 279.683C345.225 279.307 338.96 285.953 339.761 293.677L339.798 294.025Z" fill="#333333"/>
<path d="M327.727 573.727L347.356 566.051L353.575 578.695L344.578 585.674L329.786 585.206L327.727 573.727Z" fill="#FCD2B1"/>
<path d="M325.129 171.949C319.406 156.816 302.483 149.181 287.331 154.898C272.18 160.614 264.536 177.516 270.259 192.65C271.584 196.165 273.576 199.392 276.125 202.154L275.873 202.249L314.841 241.893C318.198 245.308 324.017 243.113 324.275 238.334L327.271 182.858L327.02 182.953C327.104 179.198 326.462 175.462 325.129 171.949ZM302.899 196.061C295.24 198.95 286.686 195.092 283.793 187.442C280.9 179.792 284.764 171.249 292.423 168.36C300.082 165.47 308.635 169.329 311.528 176.979C314.421 184.628 310.557 193.171 302.899 196.061Z" fill="#FF5151"/>
<path d="M292.625 219.236C292.866 217.768 293.666 216.45 294.857 215.557C300.415 211.383 309.598 205.313 312.589 208.354C315.947 211.767 329.475 222.517 312.525 236.175L308.455 240.108L290.152 234.287L292.625 219.236Z" fill="#FFE3CA"/>
<path d="M335.054 439.47C335.533 428.786 327.25 419.737 316.553 419.258C305.856 418.78 296.796 427.053 296.317 437.737C296.203 440.218 296.569 442.697 297.396 445.039L297.218 445.031L310.526 479.27C311.672 482.219 315.78 482.403 317.186 479.568L333.504 446.655L333.326 446.647C334.359 444.388 334.945 441.951 335.054 439.47ZM315.25 448.319C309.843 448.077 305.656 443.503 305.898 438.102C306.14 432.702 310.719 428.52 316.127 428.762C321.533 429.004 325.72 433.577 325.478 438.978C325.236 444.379 320.657 448.56 315.25 448.319Z" fill="#FF5151"/>
<path opacity="0.85" d="M318.3 437.398C315.161 427.173 304.317 421.426 294.08 424.561C283.843 427.696 278.089 438.527 281.228 448.752C281.955 451.127 283.133 453.339 284.698 455.269L284.528 455.321L308.57 483.112C310.64 485.506 314.572 484.302 314.944 481.16L319.254 444.685L319.084 444.737C319.298 442.263 319.032 439.771 318.3 437.398ZM302.619 452.372C297.444 453.957 291.963 451.052 290.377 445.884C288.79 440.716 291.699 435.241 296.873 433.657C302.047 432.072 307.528 434.977 309.115 440.145C310.702 445.313 307.793 450.788 302.619 452.372Z" fill="#FF5151"/>
<path d="M324.089 475.232L320.842 473.839C317.441 472.38 314.656 469.76 313.053 466.428C311.196 462.568 306.837 458.299 306.837 458.299C301.608 460.351 311.226 468.02 304.447 469.668C302.9 470.044 301.11 469.52 299.176 469.988C296.76 470.572 293.313 464.048 292.83 465.574C289.375 476.486 301.1 483.756 305.888 484.376C312.193 485.193 325.432 489.152 325.432 489.152L324.089 475.232Z" fill="#FFE3CA"/>
<path d="M321.334 498.843C321.334 498.843 315.33 492.262 316.287 484.509C316.662 481.467 320.218 473.551 320.218 473.551C320.218 473.551 391.091 455.509 397.31 455.265C397.32 454.803 397.343 454.359 397.37 453.883C398.722 435.421 408.968 412.608 411.712 399.982C413.039 393.885 415.677 388.198 419.425 383.501C421.984 380.302 425.045 377.563 428.593 375.417C434.193 372.044 440.575 370.369 446.072 374.446C448.136 375.97 449.622 378.063 450.448 380.365C451.386 382.945 451.498 385.753 450.769 388.399C445.727 406.236 432.909 455.499 428.07 465.685C427.217 467.469 426.206 469.013 425.085 470.306C424.747 470.782 424.36 471.234 423.92 471.726C412.275 484.099 321.334 498.843 321.334 498.843Z" fill="#FFD233"/>
<path d="M280.909 529.415C302.055 542.286 389.378 571.555 389.378 571.555C389.378 571.555 392.636 593.997 373.757 600.689C373.757 600.689 268.454 571.014 243.542 559.601C218.63 548.187 226.242 528.226 229.702 523.001C233.162 517.776 254.614 513.408 280.909 529.415Z" fill="#3B8CF7"/>
<path d="M344.576 585.674C344.576 585.674 338.057 586.275 333.398 580.363C328.739 574.451 331.583 572.121 328.481 571.677C325.379 571.233 311.695 577.023 298.252 575.215C284.809 573.406 280.724 571.219 279.874 576.196C279.023 581.175 280.205 599.803 296.481 599.627C312.757 599.451 344.576 585.674 344.576 585.674ZM340.631 559.458C340.631 559.458 390.245 519.158 411.004 497.732C431.764 476.306 444.911 455.38 469.131 463.769C493.351 472.159 462.904 517.147 440.76 534.74C418.616 552.334 363.917 591.133 363.917 591.133C363.917 591.133 334.573 580.744 340.631 559.458Z" fill="#3B8CF7"/>
</g>
<defs>
<clipPath id="clip0_2179_42103">
<rect width="833" height="468" fill="white" transform="translate(-76 153)"/>
</clipPath>
</defs>
</svg>
