<svg width="758" height="806" viewBox="0 0 758 806" fill="none" xmlns="http://www.w3.org/2000/svg">
<path d="M224.241 622.743C286.77 668.682 372.772 657.073 447.106 648.393C512.443 640.756 568.246 643.701 612.284 597.213C657.439 549.557 680.616 486.545 680.909 419.083C681.213 344.342 671.95 260.982 613.905 209.609C556.134 158.493 473.824 168.417 399.006 169.589C323.703 170.781 243.363 167.199 189.49 216.323C131.674 269.045 106.254 350.094 112.73 430.62C119.239 511.438 156.906 573.254 224.241 622.743Z" fill="#E2EFFD"/>
<path d="M293.204 565.59C333.669 595.315 385.806 590.234 433.9 584.623C476.176 579.677 516.074 566.288 544.565 536.208C573.783 505.372 588.782 464.601 588.971 420.95C589.169 372.593 583.175 318.649 545.616 285.408C508.237 252.33 454.976 258.753 406.564 259.513C357.839 260.289 305.857 257.963 270.998 289.754C233.585 323.872 217.136 376.305 221.327 428.415C225.538 480.709 249.635 533.568 293.204 565.59Z" fill="#B3D4FF" fill-opacity="0.5"/>
<path d="M362.596 488.562C380.987 502.073 404.686 499.764 426.548 497.212C445.764 494.965 463.899 488.88 476.852 475.207C490.132 461.191 496.95 442.657 497.034 422.817C497.125 400.834 494.401 376.317 477.328 361.207C460.337 346.172 436.128 349.09 414.123 349.437C391.975 349.787 368.347 348.733 352.501 363.181C335.496 378.688 328.02 402.525 329.925 426.21C331.838 449.979 342.791 474.007 362.596 488.562Z" fill="#71ADFB" fill-opacity="0.5"/>
<g clip-path="url(#clip0_2422_44568)">
<path opacity="0.1" d="M397.25 671C545.154 671 665.054 657.396 665.054 640.615C665.054 623.834 545.154 610.231 397.25 610.231C249.345 610.231 129.445 623.834 129.445 640.615C129.445 657.396 249.345 671 397.25 671Z" fill="#3B8CF7"/>
<path d="M195.559 350.014C195.559 350.014 198.872 347.903 197.925 342.881C196.979 337.86 194.467 331.383 186.749 332.984C179.03 334.585 179.358 335.895 176.373 332.729C173.387 329.599 163.084 336.732 165.414 340.152C166.507 341.79 166.98 344.919 162.466 346.811C157.951 348.704 157.478 360.057 166.252 358.82C168.473 358.492 168.327 361.876 167.126 363.186C164.468 366.098 170.839 373.557 175.717 368.208C180.632 362.859 195.559 350.014 195.559 350.014V350.014Z" fill="#333333"/>
<path d="M223.193 651.605H607.388C621.259 651.605 632.472 640.361 632.472 626.533V413.985C632.472 400.121 621.223 388.913 607.388 388.913H223.193C209.322 388.913 198.109 400.158 198.109 413.985V626.533C198.109 640.361 209.359 651.605 223.193 651.605Z" fill="#FFD233"/>
<path d="M632.492 485.736L198.093 485.736V424.457L632.492 424.457V485.736Z" fill="#F6F9FE"/>
<path d="M524.68 536.48H219.049V521.269H524.68V536.48Z" fill="white"/>
<path d="M443.465 560.694H219.057V549.195H443.465V560.694Z" fill="white"/>
<path d="M443.465 584.925H219.057V573.426H443.465V584.925Z" fill="white"/>
<path d="M193.376 622.93L191.92 635.812H182.891V621.22L193.376 622.93ZM158.208 622.93L156.751 635.812H147.723V621.22L158.208 622.93Z" fill="#FCD2B1"/>
<path d="M187.439 373.011C187.148 377.305 185.364 381.053 183.471 381.235H178.083C176.19 381.053 174.369 377.342 174.115 373.011C173.678 365.916 174.624 363.405 174.151 356.309C173.86 352.051 189.078 347.466 188.786 351.724C188.349 358.82 187.913 365.916 187.439 373.011V373.011ZM215.873 371.556C215.873 371.556 225.12 373.011 228.906 373.958C239.427 376.541 243.396 381.417 245.944 383.746C248.493 386.075 242.886 386.366 240.046 388.477C237.207 390.587 214.162 384.474 209.319 381.672C204.514 378.834 212.742 371.556 215.873 371.556Z" fill="#F7D9C1"/>
<path d="M181.942 379.088C188.532 377.669 187.44 371.265 187.44 371.265C187.44 371.265 203.64 367.771 212.451 369.846C221.261 371.92 225.229 373.048 226.067 373.339C226.904 373.63 219.259 374.612 216.71 383.819C214.162 393.025 213.507 394.517 213.507 394.517L207.609 393.644C207.609 393.644 203.713 467.95 202.293 475.082C200.874 482.214 171.13 484.616 158.788 477.593C158.788 477.593 157.696 447.936 157.696 407.472L157.113 374.321C157.113 374.321 170.948 373.048 174.079 373.048C174.115 373.011 173.969 380.799 181.942 379.088V379.088Z" fill="#71ADFB"/>
<path d="M244.419 382.291C241.179 379.889 238.266 380.362 227.381 383.746C212.891 388.258 208.085 390.078 205.865 391.024C203.644 392.006 202.297 395.136 201.168 398.775C200.04 402.414 201.969 404.743 201.969 405.507C201.969 405.98 204.955 407.363 207.175 407.435C208.522 407.472 209.068 405.507 207.903 400.376C206.302 393.316 230.621 392.88 234.007 392.407C237.283 391.934 252.028 387.967 244.419 382.291V382.291ZM129.484 434.654C129.484 425.812 143.282 398.302 143.282 398.302C143.282 398.229 143.319 398.193 143.319 398.12V398.083C143.319 398.047 143.355 398.011 143.355 397.974C143.355 397.974 143.355 397.938 143.392 397.938C143.392 397.901 143.428 397.901 143.428 397.865L143.464 397.829L143.501 397.792C143.501 397.792 143.537 397.792 143.537 397.756C143.574 397.756 143.574 397.719 143.61 397.719H143.938C143.974 397.719 143.974 397.719 144.01 397.756C144.047 397.756 144.047 397.756 144.083 397.792C144.12 397.792 144.156 397.829 144.156 397.829C144.192 397.829 144.193 397.865 144.229 397.865C144.265 397.865 144.302 397.901 144.338 397.901C144.375 397.901 144.411 397.938 144.411 397.938C144.447 397.974 144.484 397.974 144.52 398.011C144.557 398.047 144.593 398.047 144.593 398.083C144.629 398.12 144.666 398.12 144.702 398.156C144.739 398.193 144.775 398.192 144.811 398.229C144.848 398.265 144.884 398.302 144.921 398.302C144.957 398.338 144.993 398.338 145.03 398.374L145.139 398.484C145.175 398.52 145.212 398.556 145.248 398.556L145.357 398.666L145.467 398.775C145.503 398.811 145.54 398.848 145.612 398.884L145.722 398.993L145.867 399.139L145.976 399.248L146.122 399.393L146.231 399.502C146.268 399.575 146.34 399.612 146.377 399.684L146.486 399.794C146.522 399.866 146.595 399.903 146.632 399.976L146.741 400.085C146.814 400.158 146.85 400.23 146.923 400.303L147.032 400.412C147.105 400.485 147.141 400.558 147.214 400.631C147.251 400.667 147.251 400.703 147.287 400.74C147.36 400.812 147.433 400.922 147.505 400.994C147.542 401.031 147.542 401.067 147.578 401.067C147.651 401.176 147.724 401.249 147.797 401.358C147.797 401.395 147.833 401.395 147.833 401.431C147.906 401.54 148.015 401.649 148.088 401.795C151.583 406.489 153.367 411.111 152.02 413.185C150.2 416.023 140.042 430.397 142.372 435.564C144.702 440.768 158.901 461.946 158.901 461.946L156.753 468.569C156.716 468.641 129.484 446.954 129.484 434.654V434.654Z" fill="#FFE3CA"/>
<path d="M160.538 375.049C160.538 375.049 155.805 369.882 149.107 382.727C145.102 390.405 141.716 398.338 139.059 405.397C139.059 405.397 149.362 422.864 153.912 415.404C155.223 413.257 158.682 408.163 159.665 405.798C165.417 391.606 160.538 375.049 160.538 375.049V375.049Z" fill="#71ADFB"/>
<path d="M192.757 340.152C194.286 342.445 194.978 349.832 194.468 352.961C192.575 364.933 187.733 372.902 174.372 362.823C171.496 360.639 171.205 356.418 170.732 355.799C170.258 355.181 166.8 354.235 167.127 349.504C167.455 344.774 170.695 347.212 171.314 350.559L172.989 353.398C173.134 353.616 173.353 353.762 173.608 353.798C174.117 353.834 174.554 353.361 174.445 352.852L173.316 347.83C173.316 347.83 178.049 349.759 179.833 345.465C181.617 341.171 187.406 349.249 189.808 343.573L192.757 340.152V340.152Z" fill="#FFE3CA"/>
<path d="M181.543 634.538H182.89C182.89 634.538 187.878 636.976 192.065 634.538H193.885L194.832 637.304C194.832 637.304 196.688 641.343 204.115 639.196C209.103 637.741 211.688 643.053 211.833 648.075H181.543V634.538ZM146.266 634.538H147.613C147.613 634.538 152.6 636.976 156.787 634.538H158.607L159.554 637.304C159.554 637.304 161.411 641.343 168.838 639.196C173.825 637.741 176.41 643.053 176.556 648.075H146.266V634.538ZM203.605 464.966C203.605 464.966 204.079 544.439 202.805 563.798C201.53 583.157 194.613 625.805 194.613 625.805H181.361C181.361 625.805 185.002 566.164 185.002 560.487C185.002 554.81 179.796 504.048 174.772 503.029C170.039 502.083 170.148 543.603 169.893 560.596C169.638 577.59 158.826 625.769 158.826 625.769H146.302C146.302 625.769 153.146 579.773 151.981 558.085C151.362 546.259 150.598 526.9 150.78 507.432C150.926 491.203 158.571 466.567 158.571 466.567L203.605 464.966V464.966Z" fill="#3B8CF7"/>
<path d="M158.317 458.271C159.482 458.707 159.41 458.634 159.41 458.634C159.41 458.634 170.477 465.403 163.669 472.753C161.339 475.264 158.099 473.408 156.897 470.57L156.242 469.005C156.242 468.969 157.189 457.797 158.317 458.271V458.271Z" fill="#FFE3CA"/>
</g>
<path d="M223.958 732.54H222.122L223.85 728.454H225.02L223.958 732.54ZM226.874 732.54H225.038L226.766 728.454H227.936L226.874 732.54ZM229.302 734.718C229.302 733.494 229.578 732.396 230.13 731.424C230.682 730.44 231.432 729.672 232.38 729.12C233.34 728.568 234.402 728.292 235.566 728.292C236.934 728.292 238.128 728.622 239.148 729.282C240.168 729.942 240.912 730.878 241.38 732.09H239.418C239.07 731.334 238.566 730.752 237.906 730.344C237.258 729.936 236.478 729.732 235.566 729.732C234.69 729.732 233.904 729.936 233.208 730.344C232.512 730.752 231.966 731.334 231.57 732.09C231.174 732.834 230.976 733.71 230.976 734.718C230.976 735.714 231.174 736.59 231.57 737.346C231.966 738.09 232.512 738.666 233.208 739.074C233.904 739.482 234.69 739.686 235.566 739.686C236.478 739.686 237.258 739.488 237.906 739.092C238.566 738.684 239.07 738.102 239.418 737.346H241.38C240.912 738.546 240.168 739.476 239.148 740.136C238.128 740.784 236.934 741.108 235.566 741.108C234.402 741.108 233.34 740.838 232.38 740.298C231.432 739.746 230.682 738.984 230.13 738.012C229.578 737.04 229.302 735.942 229.302 734.718ZM248.121 741.162C247.197 741.162 246.357 740.952 245.601 740.532C244.857 740.112 244.269 739.518 243.837 738.75C243.417 737.97 243.207 737.07 243.207 736.05C243.207 735.042 243.423 734.154 243.855 733.386C244.299 732.606 244.899 732.012 245.655 731.604C246.411 731.184 247.257 730.974 248.193 730.974C249.129 730.974 249.975 731.184 250.731 731.604C251.487 732.012 252.081 732.6 252.513 733.368C252.957 734.136 253.179 735.03 253.179 736.05C253.179 737.07 252.951 737.97 252.495 738.75C252.051 739.518 251.445 740.112 250.677 740.532C249.909 740.952 249.057 741.162 248.121 741.162ZM248.121 739.722C248.709 739.722 249.261 739.584 249.777 739.308C250.293 739.032 250.707 738.618 251.019 738.066C251.343 737.514 251.505 736.842 251.505 736.05C251.505 735.258 251.349 734.586 251.037 734.034C250.725 733.482 250.317 733.074 249.813 732.81C249.309 732.534 248.763 732.396 248.175 732.396C247.575 732.396 247.023 732.534 246.519 732.81C246.027 733.074 245.631 733.482 245.331 734.034C245.031 734.586 244.881 735.258 244.881 736.05C244.881 736.854 245.025 737.532 245.313 738.084C245.613 738.636 246.009 739.05 246.501 739.326C246.993 739.59 247.533 739.722 248.121 739.722ZM267.194 730.956C267.962 730.956 268.646 731.118 269.246 731.442C269.846 731.754 270.32 732.228 270.668 732.864C271.016 733.5 271.19 734.274 271.19 735.186V741H269.57V735.42C269.57 734.436 269.324 733.686 268.832 733.17C268.352 732.642 267.698 732.378 266.87 732.378C266.018 732.378 265.34 732.654 264.836 733.206C264.332 733.746 264.08 734.532 264.08 735.564V741H262.46V735.42C262.46 734.436 262.214 733.686 261.722 733.17C261.242 732.642 260.588 732.378 259.76 732.378C258.908 732.378 258.23 732.654 257.726 733.206C257.222 733.746 256.97 734.532 256.97 735.564V741H255.332V731.136H256.97V732.558C257.294 732.042 257.726 731.646 258.266 731.37C258.818 731.094 259.424 730.956 260.084 730.956C260.912 730.956 261.644 731.142 262.28 731.514C262.916 731.886 263.39 732.432 263.702 733.152C263.978 732.456 264.434 731.916 265.07 731.532C265.706 731.148 266.414 730.956 267.194 730.956ZM275.515 732.954C275.839 732.39 276.319 731.922 276.955 731.55C277.603 731.166 278.353 730.974 279.205 730.974C280.081 730.974 280.873 731.184 281.581 731.604C282.301 732.024 282.865 732.618 283.273 733.386C283.681 734.142 283.885 735.024 283.885 736.032C283.885 737.028 283.681 737.916 283.273 738.696C282.865 739.476 282.301 740.082 281.581 740.514C280.873 740.946 280.081 741.162 279.205 741.162C278.365 741.162 277.621 740.976 276.973 740.604C276.337 740.22 275.851 739.746 275.515 739.182V745.68H273.877V731.136H275.515V732.954ZM282.211 736.032C282.211 735.288 282.061 734.64 281.761 734.088C281.461 733.536 281.053 733.116 280.537 732.828C280.033 732.54 279.475 732.396 278.863 732.396C278.263 732.396 277.705 732.546 277.189 732.846C276.685 733.134 276.277 733.56 275.965 734.124C275.665 734.676 275.515 735.318 275.515 736.05C275.515 736.794 275.665 737.448 275.965 738.012C276.277 738.564 276.685 738.99 277.189 739.29C277.705 739.578 278.263 739.722 278.863 739.722C279.475 739.722 280.033 739.578 280.537 739.29C281.053 738.99 281.461 738.564 281.761 738.012C282.061 737.448 282.211 736.788 282.211 736.032ZM287.679 727.68V741H286.041V727.68H287.679ZM299.471 735.69C299.471 736.002 299.453 736.332 299.417 736.68H291.533C291.593 737.652 291.923 738.414 292.523 738.966C293.135 739.506 293.873 739.776 294.737 739.776C295.445 739.776 296.033 739.614 296.501 739.29C296.981 738.954 297.317 738.51 297.509 737.958H299.273C299.009 738.906 298.481 739.68 297.689 740.28C296.897 740.868 295.913 741.162 294.737 741.162C293.801 741.162 292.961 740.952 292.217 740.532C291.485 740.112 290.909 739.518 290.489 738.75C290.069 737.97 289.859 737.07 289.859 736.05C289.859 735.03 290.063 734.136 290.471 733.368C290.879 732.6 291.449 732.012 292.181 731.604C292.925 731.184 293.777 730.974 294.737 730.974C295.673 730.974 296.501 731.178 297.221 731.586C297.941 731.994 298.493 732.558 298.877 733.278C299.273 733.986 299.471 734.79 299.471 735.69ZM297.779 735.348C297.779 734.724 297.641 734.19 297.365 733.746C297.089 733.29 296.711 732.948 296.231 732.72C295.763 732.48 295.241 732.36 294.665 732.36C293.837 732.36 293.129 732.624 292.541 733.152C291.965 733.68 291.635 734.412 291.551 735.348H297.779ZM303.631 732.486V738.3C303.631 738.78 303.733 739.122 303.937 739.326C304.141 739.518 304.495 739.614 304.999 739.614H306.205V741H304.729C303.817 741 303.133 740.79 302.677 740.37C302.221 739.95 301.993 739.26 301.993 738.3V732.486H300.715V731.136H301.993V728.652H303.631V731.136H306.205V732.486H303.631ZM317.19 735.69C317.19 736.002 317.172 736.332 317.136 736.68H309.252C309.312 737.652 309.642 738.414 310.242 738.966C310.854 739.506 311.592 739.776 312.456 739.776C313.164 739.776 313.752 739.614 314.22 739.29C314.7 738.954 315.036 738.51 315.228 737.958H316.992C316.728 738.906 316.2 739.68 315.408 740.28C314.616 740.868 313.632 741.162 312.456 741.162C311.52 741.162 310.68 740.952 309.936 740.532C309.204 740.112 308.628 739.518 308.208 738.75C307.788 737.97 307.578 737.07 307.578 736.05C307.578 735.03 307.782 734.136 308.19 733.368C308.598 732.6 309.168 732.012 309.9 731.604C310.644 731.184 311.496 730.974 312.456 730.974C313.392 730.974 314.22 731.178 314.94 731.586C315.66 731.994 316.212 732.558 316.596 733.278C316.992 733.986 317.19 734.79 317.19 735.69ZM315.498 735.348C315.498 734.724 315.36 734.19 315.084 733.746C314.808 733.29 314.43 732.948 313.95 732.72C313.482 732.48 312.96 732.36 312.384 732.36C311.556 732.36 310.848 732.624 310.26 733.152C309.684 733.68 309.354 734.412 309.27 735.348H315.498ZM326.149 732.486V738.3C326.149 738.78 326.251 739.122 326.455 739.326C326.659 739.518 327.013 739.614 327.517 739.614H328.723V741H327.247C326.335 741 325.651 740.79 325.195 740.37C324.739 739.95 324.511 739.26 324.511 738.3V732.486H323.233V731.136H324.511V728.652H326.149V731.136H328.723V732.486H326.149ZM335.603 730.956C336.347 730.956 337.019 731.118 337.619 731.442C338.219 731.754 338.687 732.228 339.023 732.864C339.371 733.5 339.545 734.274 339.545 735.186V741H337.925V735.42C337.925 734.436 337.679 733.686 337.187 733.17C336.695 732.642 336.023 732.378 335.171 732.378C334.307 732.378 333.617 732.648 333.101 733.188C332.597 733.728 332.345 734.514 332.345 735.546V741H330.707V727.68H332.345V732.54C332.669 732.036 333.113 731.646 333.677 731.37C334.253 731.094 334.895 730.956 335.603 730.956ZM351.221 735.69C351.221 736.002 351.203 736.332 351.167 736.68H343.283C343.343 737.652 343.673 738.414 344.273 738.966C344.885 739.506 345.623 739.776 346.487 739.776C347.195 739.776 347.783 739.614 348.251 739.29C348.731 738.954 349.067 738.51 349.259 737.958H351.023C350.759 738.906 350.231 739.68 349.439 740.28C348.647 740.868 347.663 741.162 346.487 741.162C345.551 741.162 344.711 740.952 343.967 740.532C343.235 740.112 342.659 739.518 342.239 738.75C341.819 737.97 341.609 737.07 341.609 736.05C341.609 735.03 341.813 734.136 342.221 733.368C342.629 732.6 343.199 732.012 343.931 731.604C344.675 731.184 345.527 730.974 346.487 730.974C347.423 730.974 348.251 731.178 348.971 731.586C349.691 731.994 350.243 732.558 350.627 733.278C351.023 733.986 351.221 734.79 351.221 735.69ZM349.529 735.348C349.529 734.724 349.391 734.19 349.115 733.746C348.839 733.29 348.461 732.948 347.981 732.72C347.513 732.48 346.991 732.36 346.415 732.36C345.587 732.36 344.879 732.624 344.291 733.152C343.715 733.68 343.385 734.412 343.301 735.348H349.529ZM364.464 734.538C364.92 734.61 365.334 734.796 365.706 735.096C366.09 735.396 366.39 735.768 366.606 736.212C366.834 736.656 366.948 737.13 366.948 737.634C366.948 738.27 366.786 738.846 366.462 739.362C366.138 739.866 365.664 740.268 365.04 740.568C364.428 740.856 363.702 741 362.862 741H358.182V728.454H362.682C363.534 728.454 364.26 728.598 364.86 728.886C365.46 729.162 365.91 729.54 366.21 730.02C366.51 730.5 366.66 731.04 366.66 731.64C366.66 732.384 366.456 733.002 366.048 733.494C365.652 733.974 365.124 734.322 364.464 734.538ZM359.82 733.872H362.574C363.342 733.872 363.936 733.692 364.356 733.332C364.776 732.972 364.986 732.474 364.986 731.838C364.986 731.202 364.776 730.704 364.356 730.344C363.936 729.984 363.33 729.804 362.538 729.804H359.82V733.872ZM362.718 739.65C363.534 739.65 364.17 739.458 364.626 739.074C365.082 738.69 365.31 738.156 365.31 737.472C365.31 736.776 365.07 736.23 364.59 735.834C364.11 735.426 363.468 735.222 362.664 735.222H359.82V739.65H362.718ZM368.609 736.032C368.609 735.024 368.813 734.142 369.221 733.386C369.629 732.618 370.187 732.024 370.895 731.604C371.615 731.184 372.413 730.974 373.289 730.974C374.153 730.974 374.903 731.16 375.539 731.532C376.175 731.904 376.649 732.372 376.961 732.936V731.136H378.617V741H376.961V739.164C376.637 739.74 376.151 740.22 375.503 740.604C374.867 740.976 374.123 741.162 373.271 741.162C372.395 741.162 371.603 740.946 370.895 740.514C370.187 740.082 369.629 739.476 369.221 738.696C368.813 737.916 368.609 737.028 368.609 736.032ZM376.961 736.05C376.961 735.306 376.811 734.658 376.511 734.106C376.211 733.554 375.803 733.134 375.287 732.846C374.783 732.546 374.225 732.396 373.613 732.396C373.001 732.396 372.443 732.54 371.939 732.828C371.435 733.116 371.033 733.536 370.733 734.088C370.433 734.64 370.283 735.288 370.283 736.032C370.283 736.788 370.433 737.448 370.733 738.012C371.033 738.564 371.435 738.99 371.939 739.29C372.443 739.578 373.001 739.722 373.613 739.722C374.225 739.722 374.783 739.578 375.287 739.29C375.803 738.99 376.211 738.564 376.511 738.012C376.811 737.448 376.961 736.794 376.961 736.05ZM386.191 730.956C387.391 730.956 388.363 731.322 389.107 732.054C389.851 732.774 390.223 733.818 390.223 735.186V741H388.603V735.42C388.603 734.436 388.357 733.686 387.865 733.17C387.373 732.642 386.701 732.378 385.849 732.378C384.985 732.378 384.295 732.648 383.779 733.188C383.275 733.728 383.023 734.514 383.023 735.546V741H381.385V731.136H383.023V732.54C383.347 732.036 383.785 731.646 384.337 731.37C384.901 731.094 385.519 730.956 386.191 730.956ZM398.407 741L394.537 736.644V741H392.899V727.68H394.537V735.51L398.335 731.136H400.621L395.977 736.05L400.639 741H398.407ZM406.349 736.032C406.349 735.024 406.553 734.142 406.961 733.386C407.369 732.618 407.927 732.024 408.635 731.604C409.355 731.184 410.153 730.974 411.029 730.974C411.893 730.974 412.643 731.16 413.279 731.532C413.915 731.904 414.389 732.372 414.701 732.936V731.136H416.357V741H414.701V739.164C414.377 739.74 413.891 740.22 413.243 740.604C412.607 740.976 411.863 741.162 411.011 741.162C410.135 741.162 409.343 740.946 408.635 740.514C407.927 740.082 407.369 739.476 406.961 738.696C406.553 737.916 406.349 737.028 406.349 736.032ZM414.701 736.05C414.701 735.306 414.551 734.658 414.251 734.106C413.951 733.554 413.543 733.134 413.027 732.846C412.523 732.546 411.965 732.396 411.353 732.396C410.741 732.396 410.183 732.54 409.679 732.828C409.175 733.116 408.773 733.536 408.473 734.088C408.173 734.64 408.023 735.288 408.023 736.032C408.023 736.788 408.173 737.448 408.473 738.012C408.773 738.564 409.175 738.99 409.679 739.29C410.183 739.578 410.741 739.722 411.353 739.722C411.965 739.722 412.523 739.578 413.027 739.29C413.543 738.99 413.951 738.564 414.251 738.012C414.551 737.448 414.701 736.794 414.701 736.05ZM418.513 736.05C418.513 735.03 418.717 734.142 419.125 733.386C419.533 732.618 420.097 732.024 420.817 731.604C421.549 731.184 422.383 730.974 423.319 730.974C424.531 730.974 425.527 731.268 426.307 731.856C427.099 732.444 427.621 733.26 427.873 734.304H426.109C425.941 733.704 425.611 733.23 425.119 732.882C424.639 732.534 424.039 732.36 423.319 732.36C422.383 732.36 421.627 732.684 421.051 733.332C420.475 733.968 420.187 734.874 420.187 736.05C420.187 737.238 420.475 738.156 421.051 738.804C421.627 739.452 422.383 739.776 423.319 739.776C424.039 739.776 424.639 739.608 425.119 739.272C425.599 738.936 425.929 738.456 426.109 737.832H427.873C427.609 738.84 427.081 739.65 426.289 740.262C425.497 740.862 424.507 741.162 423.319 741.162C422.383 741.162 421.549 740.952 420.817 740.532C420.097 740.112 419.533 739.518 419.125 738.75C418.717 737.982 418.513 737.082 418.513 736.05ZM429.447 736.05C429.447 735.03 429.651 734.142 430.059 733.386C430.467 732.618 431.031 732.024 431.751 731.604C432.483 731.184 433.317 730.974 434.253 730.974C435.465 730.974 436.461 731.268 437.241 731.856C438.033 732.444 438.555 733.26 438.807 734.304H437.043C436.875 733.704 436.545 733.23 436.053 732.882C435.573 732.534 434.973 732.36 434.253 732.36C433.317 732.36 432.561 732.684 431.985 733.332C431.409 733.968 431.121 734.874 431.121 736.05C431.121 737.238 431.409 738.156 431.985 738.804C432.561 739.452 433.317 739.776 434.253 739.776C434.973 739.776 435.573 739.608 436.053 739.272C436.533 738.936 436.863 738.456 437.043 737.832H438.807C438.543 738.84 438.015 739.65 437.223 740.262C436.431 740.862 435.441 741.162 434.253 741.162C433.317 741.162 432.483 740.952 431.751 740.532C431.031 740.112 430.467 739.518 430.059 738.75C429.651 737.982 429.447 737.082 429.447 736.05ZM445.294 741.162C444.37 741.162 443.53 740.952 442.774 740.532C442.03 740.112 441.442 739.518 441.01 738.75C440.59 737.97 440.38 737.07 440.38 736.05C440.38 735.042 440.596 734.154 441.028 733.386C441.472 732.606 442.072 732.012 442.828 731.604C443.584 731.184 444.43 730.974 445.366 730.974C446.302 730.974 447.148 731.184 447.904 731.604C448.66 732.012 449.254 732.6 449.686 733.368C450.13 734.136 450.352 735.03 450.352 736.05C450.352 737.07 450.124 737.97 449.668 738.75C449.224 739.518 448.618 740.112 447.85 740.532C447.082 740.952 446.23 741.162 445.294 741.162ZM445.294 739.722C445.882 739.722 446.434 739.584 446.95 739.308C447.466 739.032 447.88 738.618 448.192 738.066C448.516 737.514 448.678 736.842 448.678 736.05C448.678 735.258 448.522 734.586 448.21 734.034C447.898 733.482 447.49 733.074 446.986 732.81C446.482 732.534 445.936 732.396 445.348 732.396C444.748 732.396 444.196 732.534 443.692 732.81C443.2 733.074 442.804 733.482 442.504 734.034C442.204 734.586 442.054 735.258 442.054 736.05C442.054 736.854 442.198 737.532 442.486 738.084C442.786 738.636 443.182 739.05 443.674 739.326C444.166 739.59 444.706 739.722 445.294 739.722ZM461.254 731.136V741H459.616V739.542C459.304 740.046 458.866 740.442 458.302 740.73C457.75 741.006 457.138 741.144 456.466 741.144C455.698 741.144 455.008 740.988 454.396 740.676C453.784 740.352 453.298 739.872 452.938 739.236C452.59 738.6 452.416 737.826 452.416 736.914V731.136H454.036V736.698C454.036 737.67 454.282 738.42 454.774 738.948C455.266 739.464 455.938 739.722 456.79 739.722C457.666 739.722 458.356 739.452 458.86 738.912C459.364 738.372 459.616 737.586 459.616 736.554V731.136H461.254ZM468.826 730.956C470.026 730.956 470.998 731.322 471.742 732.054C472.486 732.774 472.858 733.818 472.858 735.186V741H471.238V735.42C471.238 734.436 470.992 733.686 470.5 733.17C470.008 732.642 469.336 732.378 468.484 732.378C467.62 732.378 466.93 732.648 466.414 733.188C465.91 733.728 465.658 734.514 465.658 735.546V741H464.02V731.136H465.658V732.54C465.982 732.036 466.42 731.646 466.972 731.37C467.536 731.094 468.154 730.956 468.826 730.956ZM477.531 732.486V738.3C477.531 738.78 477.633 739.122 477.837 739.326C478.041 739.518 478.395 739.614 478.899 739.614H480.105V741H478.629C477.717 741 477.033 740.79 476.577 740.37C476.121 739.95 475.893 739.26 475.893 738.3V732.486H474.615V731.136H475.893V728.652H477.531V731.136H480.105V732.486H477.531ZM486.277 736.032C486.277 735.024 486.481 734.142 486.889 733.386C487.297 732.618 487.855 732.024 488.563 731.604C489.283 731.184 490.087 730.974 490.975 730.974C491.743 730.974 492.457 731.154 493.117 731.514C493.777 731.862 494.281 732.324 494.629 732.9V727.68H496.285V741H494.629V739.146C494.305 739.734 493.825 740.22 493.189 740.604C492.553 740.976 491.809 741.162 490.957 741.162C490.081 741.162 489.283 740.946 488.563 740.514C487.855 740.082 487.297 739.476 486.889 738.696C486.481 737.916 486.277 737.028 486.277 736.032ZM494.629 736.05C494.629 735.306 494.479 734.658 494.179 734.106C493.879 733.554 493.471 733.134 492.955 732.846C492.451 732.546 491.893 732.396 491.281 732.396C490.669 732.396 490.111 732.54 489.607 732.828C489.103 733.116 488.701 733.536 488.401 734.088C488.101 734.64 487.951 735.288 487.951 736.032C487.951 736.788 488.101 737.448 488.401 738.012C488.701 738.564 489.103 738.99 489.607 739.29C490.111 739.578 490.669 739.722 491.281 739.722C491.893 739.722 492.451 739.578 492.955 739.29C493.471 738.99 493.879 738.564 494.179 738.012C494.479 737.448 494.629 736.794 494.629 736.05ZM508.053 735.69C508.053 736.002 508.035 736.332 507.999 736.68H500.115C500.175 737.652 500.505 738.414 501.105 738.966C501.717 739.506 502.455 739.776 503.319 739.776C504.027 739.776 504.615 739.614 505.083 739.29C505.563 738.954 505.899 738.51 506.091 737.958H507.855C507.591 738.906 507.063 739.68 506.271 740.28C505.479 740.868 504.495 741.162 503.319 741.162C502.383 741.162 501.543 740.952 500.799 740.532C500.067 740.112 499.491 739.518 499.071 738.75C498.651 737.97 498.441 737.07 498.441 736.05C498.441 735.03 498.645 734.136 499.053 733.368C499.461 732.6 500.031 732.012 500.763 731.604C501.507 731.184 502.359 730.974 503.319 730.974C504.255 730.974 505.083 731.178 505.803 731.586C506.523 731.994 507.075 732.558 507.459 733.278C507.855 733.986 508.053 734.79 508.053 735.69ZM506.361 735.348C506.361 734.724 506.223 734.19 505.947 733.746C505.671 733.29 505.293 732.948 504.813 732.72C504.345 732.48 503.823 732.36 503.247 732.36C502.419 732.36 501.711 732.624 501.123 733.152C500.547 733.68 500.217 734.412 500.133 735.348H506.361ZM512.213 732.486V738.3C512.213 738.78 512.315 739.122 512.519 739.326C512.723 739.518 513.077 739.614 513.581 739.614H514.787V741H513.311C512.399 741 511.715 740.79 511.259 740.37C510.803 739.95 510.575 739.26 510.575 738.3V732.486H509.297V731.136H510.575V728.652H512.213V731.136H514.787V732.486H512.213ZM516.16 736.032C516.16 735.024 516.364 734.142 516.772 733.386C517.18 732.618 517.738 732.024 518.446 731.604C519.166 731.184 519.964 730.974 520.84 730.974C521.704 730.974 522.454 731.16 523.09 731.532C523.726 731.904 524.2 732.372 524.512 732.936V731.136H526.168V741H524.512V739.164C524.188 739.74 523.702 740.22 523.054 740.604C522.418 740.976 521.674 741.162 520.822 741.162C519.946 741.162 519.154 740.946 518.446 740.514C517.738 740.082 517.18 739.476 516.772 738.696C516.364 737.916 516.16 737.028 516.16 736.032ZM524.512 736.05C524.512 735.306 524.362 734.658 524.062 734.106C523.762 733.554 523.354 733.134 522.838 732.846C522.334 732.546 521.776 732.396 521.164 732.396C520.552 732.396 519.994 732.54 519.49 732.828C518.986 733.116 518.584 733.536 518.284 734.088C517.984 734.64 517.834 735.288 517.834 736.032C517.834 736.788 517.984 737.448 518.284 738.012C518.584 738.564 518.986 738.99 519.49 739.29C519.994 739.578 520.552 739.722 521.164 739.722C521.776 739.722 522.334 739.578 522.838 739.29C523.354 738.99 523.762 738.564 524.062 738.012C524.362 737.448 524.512 736.794 524.512 736.05ZM529.782 729.534C529.47 729.534 529.206 729.426 528.99 729.21C528.774 728.994 528.666 728.73 528.666 728.418C528.666 728.106 528.774 727.842 528.99 727.626C529.206 727.41 529.47 727.302 529.782 727.302C530.082 727.302 530.334 727.41 530.538 727.626C530.754 727.842 530.862 728.106 530.862 728.418C530.862 728.73 530.754 728.994 530.538 729.21C530.334 729.426 530.082 729.534 529.782 729.534ZM530.574 731.136V741H528.936V731.136H530.574ZM535.003 727.68V741H533.365V727.68H535.003ZM541.287 741.162C540.531 741.162 539.853 741.036 539.253 740.784C538.653 740.52 538.179 740.16 537.831 739.704C537.483 739.236 537.291 738.702 537.255 738.102H538.947C538.995 738.594 539.223 738.996 539.631 739.308C540.051 739.62 540.597 739.776 541.269 739.776C541.893 739.776 542.385 739.638 542.745 739.362C543.105 739.086 543.285 738.738 543.285 738.318C543.285 737.886 543.093 737.568 542.709 737.364C542.325 737.148 541.731 736.938 540.927 736.734C540.195 736.542 539.595 736.35 539.127 736.158C538.671 735.954 538.275 735.66 537.939 735.276C537.615 734.88 537.453 734.364 537.453 733.728C537.453 733.224 537.603 732.762 537.903 732.342C538.203 731.922 538.629 731.592 539.181 731.352C539.733 731.1 540.363 730.974 541.071 730.974C542.163 730.974 543.045 731.25 543.717 731.802C544.389 732.354 544.749 733.11 544.797 734.07H543.159C543.123 733.554 542.913 733.14 542.529 732.828C542.157 732.516 541.653 732.36 541.017 732.36C540.429 732.36 539.961 732.486 539.613 732.738C539.265 732.99 539.091 733.32 539.091 733.728C539.091 734.052 539.193 734.322 539.397 734.538C539.613 734.742 539.877 734.91 540.189 735.042C540.513 735.162 540.957 735.3 541.521 735.456C542.229 735.648 542.805 735.84 543.249 736.032C543.693 736.212 544.071 736.488 544.383 736.86C544.707 737.232 544.875 737.718 544.887 738.318C544.887 738.858 544.737 739.344 544.437 739.776C544.137 740.208 543.711 740.55 543.159 740.802C542.619 741.042 541.995 741.162 541.287 741.162ZM556.012 732.486H553.942V741H552.304V732.486H551.026V731.136H552.304V730.434C552.304 729.33 552.586 728.526 553.15 728.022C553.726 727.506 554.644 727.248 555.904 727.248V728.616C555.184 728.616 554.674 728.76 554.374 729.048C554.086 729.324 553.942 729.786 553.942 730.434V731.136H556.012V732.486ZM562.224 741.162C561.3 741.162 560.46 740.952 559.704 740.532C558.96 740.112 558.372 739.518 557.94 738.75C557.52 737.97 557.31 737.07 557.31 736.05C557.31 735.042 557.526 734.154 557.958 733.386C558.402 732.606 559.002 732.012 559.758 731.604C560.514 731.184 561.36 730.974 562.296 730.974C563.232 730.974 564.078 731.184 564.834 731.604C565.59 732.012 566.184 732.6 566.616 733.368C567.06 734.136 567.282 735.03 567.282 736.05C567.282 737.07 567.054 737.97 566.598 738.75C566.154 739.518 565.548 740.112 564.78 740.532C564.012 740.952 563.16 741.162 562.224 741.162ZM562.224 739.722C562.812 739.722 563.364 739.584 563.88 739.308C564.396 739.032 564.81 738.618 565.122 738.066C565.446 737.514 565.608 736.842 565.608 736.05C565.608 735.258 565.452 734.586 565.14 734.034C564.828 733.482 564.42 733.074 563.916 732.81C563.412 732.534 562.866 732.396 562.278 732.396C561.678 732.396 561.126 732.534 560.622 732.81C560.13 733.074 559.734 733.482 559.434 734.034C559.134 734.586 558.984 735.258 558.984 736.05C558.984 736.854 559.128 737.532 559.416 738.084C559.716 738.636 560.112 739.05 560.604 739.326C561.096 739.59 561.636 739.722 562.224 739.722ZM571.074 732.738C571.362 732.174 571.77 731.736 572.298 731.424C572.838 731.112 573.492 730.956 574.26 730.956V732.648H573.828C571.992 732.648 571.074 733.644 571.074 735.636V741H569.436V731.136H571.074V732.738ZM588.013 730.956C588.781 730.956 589.465 731.118 590.065 731.442C590.665 731.754 591.139 732.228 591.487 732.864C591.835 733.5 592.009 734.274 592.009 735.186V741H590.389V735.42C590.389 734.436 590.143 733.686 589.651 733.17C589.171 732.642 588.517 732.378 587.689 732.378C586.837 732.378 586.159 732.654 585.655 733.206C585.151 733.746 584.899 734.532 584.899 735.564V741H583.279V735.42C583.279 734.436 583.033 733.686 582.541 733.17C582.061 732.642 581.407 732.378 580.579 732.378C579.727 732.378 579.049 732.654 578.545 733.206C578.041 733.746 577.789 734.532 577.789 735.564V741H576.151V731.136H577.789V732.558C578.113 732.042 578.545 731.646 579.085 731.37C579.637 731.094 580.243 730.956 580.903 730.956C581.731 730.956 582.463 731.142 583.099 731.514C583.735 731.886 584.209 732.432 584.521 733.152C584.797 732.456 585.253 731.916 585.889 731.532C586.525 731.148 587.233 730.956 588.013 730.956ZM261.54 768.162C260.784 768.162 260.106 768.036 259.506 767.784C258.906 767.52 258.432 767.16 258.084 766.704C257.736 766.236 257.544 765.702 257.508 765.102H259.2C259.248 765.594 259.476 765.996 259.884 766.308C260.304 766.62 260.85 766.776 261.522 766.776C262.146 766.776 262.638 766.638 262.998 766.362C263.358 766.086 263.538 765.738 263.538 765.318C263.538 764.886 263.346 764.568 262.962 764.364C262.578 764.148 261.984 763.938 261.18 763.734C260.448 763.542 259.848 763.35 259.38 763.158C258.924 762.954 258.528 762.66 258.192 762.276C257.868 761.88 257.706 761.364 257.706 760.728C257.706 760.224 257.856 759.762 258.156 759.342C258.456 758.922 258.882 758.592 259.434 758.352C259.986 758.1 260.616 757.974 261.324 757.974C262.416 757.974 263.298 758.25 263.97 758.802C264.642 759.354 265.002 760.11 265.05 761.07H263.412C263.376 760.554 263.166 760.14 262.782 759.828C262.41 759.516 261.906 759.36 261.27 759.36C260.682 759.36 260.214 759.486 259.866 759.738C259.518 759.99 259.344 760.32 259.344 760.728C259.344 761.052 259.446 761.322 259.65 761.538C259.866 761.742 260.13 761.91 260.442 762.042C260.766 762.162 261.21 762.3 261.774 762.456C262.482 762.648 263.058 762.84 263.502 763.032C263.946 763.212 264.324 763.488 264.636 763.86C264.96 764.232 265.128 764.718 265.14 765.318C265.14 765.858 264.99 766.344 264.69 766.776C264.39 767.208 263.964 767.55 263.412 767.802C262.872 768.042 262.248 768.162 261.54 768.162ZM280.592 758.136L277.514 768H275.822L273.446 760.17L271.07 768H269.378L266.282 758.136H267.956L270.224 766.416L272.672 758.136H274.346L276.74 766.434L278.972 758.136H280.592ZM283.064 756.534C282.752 756.534 282.488 756.426 282.272 756.21C282.056 755.994 281.948 755.73 281.948 755.418C281.948 755.106 282.056 754.842 282.272 754.626C282.488 754.41 282.752 754.302 283.064 754.302C283.364 754.302 283.616 754.41 283.82 754.626C284.036 754.842 284.144 755.106 284.144 755.418C284.144 755.73 284.036 755.994 283.82 756.21C283.616 756.426 283.364 756.534 283.064 756.534ZM283.856 758.136V768H282.218V758.136H283.856ZM290.662 759.486H288.592V768H286.954V759.486H285.676V758.136H286.954V757.434C286.954 756.33 287.236 755.526 287.8 755.022C288.376 754.506 289.294 754.248 290.554 754.248V755.616C289.834 755.616 289.324 755.76 289.024 756.048C288.736 756.324 288.592 756.786 288.592 757.434V758.136H290.662V759.486ZM294.57 759.486V765.3C294.57 765.78 294.672 766.122 294.876 766.326C295.08 766.518 295.434 766.614 295.938 766.614H297.144V768H295.668C294.756 768 294.072 767.79 293.616 767.37C293.16 766.95 292.932 766.26 292.932 765.3V759.486H291.654V758.136H292.932V755.652H294.57V758.136H297.144V759.486H294.57ZM300.766 754.68V768H299.128V754.68H300.766ZM312.054 758.136L306.114 772.644H304.422L306.366 767.892L302.388 758.136H304.206L307.302 766.128L310.362 758.136H312.054ZM317.887 763.032C317.887 762.024 318.091 761.142 318.499 760.386C318.907 759.618 319.465 759.024 320.173 758.604C320.893 758.184 321.691 757.974 322.567 757.974C323.431 757.974 324.181 758.16 324.817 758.532C325.453 758.904 325.927 759.372 326.239 759.936V758.136H327.895V768H326.239V766.164C325.915 766.74 325.429 767.22 324.781 767.604C324.145 767.976 323.401 768.162 322.549 768.162C321.673 768.162 320.881 767.946 320.173 767.514C319.465 767.082 318.907 766.476 318.499 765.696C318.091 764.916 317.887 764.028 317.887 763.032ZM326.239 763.05C326.239 762.306 326.089 761.658 325.789 761.106C325.489 760.554 325.081 760.134 324.565 759.846C324.061 759.546 323.503 759.396 322.891 759.396C322.279 759.396 321.721 759.54 321.217 759.828C320.713 760.116 320.311 760.536 320.011 761.088C319.711 761.64 319.561 762.288 319.561 763.032C319.561 763.788 319.711 764.448 320.011 765.012C320.311 765.564 320.713 765.99 321.217 766.29C321.721 766.578 322.279 766.722 322.891 766.722C323.503 766.722 324.061 766.578 324.565 766.29C325.081 765.99 325.489 765.564 325.789 765.012C326.089 764.448 326.239 763.794 326.239 763.05ZM335.469 757.956C336.669 757.956 337.641 758.322 338.385 759.054C339.129 759.774 339.501 760.818 339.501 762.186V768H337.881V762.42C337.881 761.436 337.635 760.686 337.143 760.17C336.651 759.642 335.979 759.378 335.127 759.378C334.263 759.378 333.573 759.648 333.057 760.188C332.553 760.728 332.301 761.514 332.301 762.546V768H330.663V758.136H332.301V759.54C332.625 759.036 333.063 758.646 333.615 758.37C334.179 758.094 334.797 757.956 335.469 757.956ZM341.565 763.032C341.565 762.024 341.769 761.142 342.177 760.386C342.585 759.618 343.143 759.024 343.851 758.604C344.571 758.184 345.375 757.974 346.263 757.974C347.031 757.974 347.745 758.154 348.405 758.514C349.065 758.862 349.569 759.324 349.917 759.9V754.68H351.573V768H349.917V766.146C349.593 766.734 349.113 767.22 348.477 767.604C347.841 767.976 347.097 768.162 346.245 768.162C345.369 768.162 344.571 767.946 343.851 767.514C343.143 767.082 342.585 766.476 342.177 765.696C341.769 764.916 341.565 764.028 341.565 763.032ZM349.917 763.05C349.917 762.306 349.767 761.658 349.467 761.106C349.167 760.554 348.759 760.134 348.243 759.846C347.739 759.546 347.181 759.396 346.569 759.396C345.957 759.396 345.399 759.54 344.895 759.828C344.391 760.116 343.989 760.536 343.689 761.088C343.389 761.64 343.239 762.288 343.239 763.032C343.239 763.788 343.389 764.448 343.689 765.012C343.989 765.564 344.391 765.99 344.895 766.29C345.399 766.578 345.957 766.722 346.569 766.722C347.181 766.722 347.739 766.578 348.243 766.29C348.759 765.99 349.167 765.564 349.467 765.012C349.767 764.448 349.917 763.794 349.917 763.05ZM372.28 758.136L369.202 768H367.51L365.134 760.17L362.758 768H361.066L357.97 758.136H359.644L361.912 766.416L364.36 758.136H366.034L368.428 766.434L370.66 758.136H372.28ZM374.752 756.534C374.44 756.534 374.176 756.426 373.96 756.21C373.744 755.994 373.636 755.73 373.636 755.418C373.636 755.106 373.744 754.842 373.96 754.626C374.176 754.41 374.44 754.302 374.752 754.302C375.052 754.302 375.304 754.41 375.508 754.626C375.724 754.842 375.832 755.106 375.832 755.418C375.832 755.73 375.724 755.994 375.508 756.21C375.304 756.426 375.052 756.534 374.752 756.534ZM375.544 758.136V768H373.906V758.136H375.544ZM380.333 759.486V765.3C380.333 765.78 380.435 766.122 380.639 766.326C380.843 766.518 381.197 766.614 381.701 766.614H382.907V768H381.431C380.519 768 379.835 767.79 379.379 767.37C378.923 766.95 378.695 766.26 378.695 765.3V759.486H377.417V758.136H378.695V755.652H380.333V758.136H382.907V759.486H380.333ZM389.788 757.956C390.532 757.956 391.204 758.118 391.804 758.442C392.404 758.754 392.872 759.228 393.208 759.864C393.556 760.5 393.73 761.274 393.73 762.186V768H392.11V762.42C392.11 761.436 391.864 760.686 391.372 760.17C390.88 759.642 390.208 759.378 389.356 759.378C388.492 759.378 387.802 759.648 387.286 760.188C386.782 760.728 386.53 761.514 386.53 762.546V768H384.892V754.68H386.53V759.54C386.854 759.036 387.298 758.646 387.862 758.37C388.438 758.094 389.08 757.956 389.788 757.956ZM402.842 759.954C403.166 759.39 403.646 758.922 404.282 758.55C404.93 758.166 405.68 757.974 406.532 757.974C407.408 757.974 408.2 758.184 408.908 758.604C409.628 759.024 410.192 759.618 410.6 760.386C411.008 761.142 411.212 762.024 411.212 763.032C411.212 764.028 411.008 764.916 410.6 765.696C410.192 766.476 409.628 767.082 408.908 767.514C408.2 767.946 407.408 768.162 406.532 768.162C405.692 768.162 404.948 767.976 404.3 767.604C403.664 767.22 403.178 766.746 402.842 766.182V772.68H401.204V758.136H402.842V759.954ZM409.538 763.032C409.538 762.288 409.388 761.64 409.088 761.088C408.788 760.536 408.38 760.116 407.864 759.828C407.36 759.54 406.802 759.396 406.19 759.396C405.59 759.396 405.032 759.546 404.516 759.846C404.012 760.134 403.604 760.56 403.292 761.124C402.992 761.676 402.842 762.318 402.842 763.05C402.842 763.794 402.992 764.448 403.292 765.012C403.604 765.564 404.012 765.99 404.516 766.29C405.032 766.578 405.59 766.722 406.19 766.722C406.802 766.722 407.36 766.578 407.864 766.29C408.38 765.99 408.788 765.564 409.088 765.012C409.388 764.448 409.538 763.788 409.538 763.032ZM422.368 762.69C422.368 763.002 422.35 763.332 422.314 763.68H414.43C414.49 764.652 414.82 765.414 415.42 765.966C416.032 766.506 416.77 766.776 417.634 766.776C418.342 766.776 418.93 766.614 419.398 766.29C419.878 765.954 420.214 765.51 420.406 764.958H422.17C421.906 765.906 421.378 766.68 420.586 767.28C419.794 767.868 418.81 768.162 417.634 768.162C416.698 768.162 415.858 767.952 415.114 767.532C414.382 767.112 413.806 766.518 413.386 765.75C412.966 764.97 412.756 764.07 412.756 763.05C412.756 762.03 412.96 761.136 413.368 760.368C413.776 759.6 414.346 759.012 415.078 758.604C415.822 758.184 416.674 757.974 417.634 757.974C418.57 757.974 419.398 758.178 420.118 758.586C420.838 758.994 421.39 759.558 421.774 760.278C422.17 760.986 422.368 761.79 422.368 762.69ZM420.676 762.348C420.676 761.724 420.538 761.19 420.262 760.746C419.986 760.29 419.608 759.948 419.128 759.72C418.66 759.48 418.138 759.36 417.562 759.36C416.734 759.36 416.026 759.624 415.438 760.152C414.862 760.68 414.532 761.412 414.448 762.348H420.676ZM426.169 759.738C426.457 759.174 426.865 758.736 427.393 758.424C427.933 758.112 428.587 757.956 429.355 757.956V759.648H428.923C427.087 759.648 426.169 760.644 426.169 762.636V768H424.531V758.136H426.169V759.738ZM435.259 759.486H433.189V768H431.551V759.486H430.273V758.136H431.551V757.434C431.551 756.33 431.833 755.526 432.397 755.022C432.973 754.506 433.891 754.248 435.151 754.248V755.616C434.431 755.616 433.921 755.76 433.621 756.048C433.333 756.324 433.189 756.786 433.189 757.434V758.136H435.259V759.486ZM446.169 762.69C446.169 763.002 446.151 763.332 446.115 763.68H438.231C438.291 764.652 438.621 765.414 439.221 765.966C439.833 766.506 440.571 766.776 441.435 766.776C442.143 766.776 442.731 766.614 443.199 766.29C443.679 765.954 444.015 765.51 444.207 764.958H445.971C445.707 765.906 445.179 766.68 444.387 767.28C443.595 767.868 442.611 768.162 441.435 768.162C440.499 768.162 439.659 767.952 438.915 767.532C438.183 767.112 437.607 766.518 437.187 765.75C436.767 764.97 436.557 764.07 436.557 763.05C436.557 762.03 436.761 761.136 437.169 760.368C437.577 759.6 438.147 759.012 438.879 758.604C439.623 758.184 440.475 757.974 441.435 757.974C442.371 757.974 443.199 758.178 443.919 758.586C444.639 758.994 445.191 759.558 445.575 760.278C445.971 760.986 446.169 761.79 446.169 762.69ZM444.477 762.348C444.477 761.724 444.339 761.19 444.063 760.746C443.787 760.29 443.409 759.948 442.929 759.72C442.461 759.48 441.939 759.36 441.363 759.36C440.535 759.36 439.827 759.624 439.239 760.152C438.663 760.68 438.333 761.412 438.249 762.348H444.477ZM447.719 763.05C447.719 762.03 447.923 761.142 448.331 760.386C448.739 759.618 449.303 759.024 450.023 758.604C450.755 758.184 451.589 757.974 452.525 757.974C453.737 757.974 454.733 758.268 455.513 758.856C456.305 759.444 456.827 760.26 457.079 761.304H455.315C455.147 760.704 454.817 760.23 454.325 759.882C453.845 759.534 453.245 759.36 452.525 759.36C451.589 759.36 450.833 759.684 450.257 760.332C449.681 760.968 449.393 761.874 449.393 763.05C449.393 764.238 449.681 765.156 450.257 765.804C450.833 766.452 451.589 766.776 452.525 766.776C453.245 766.776 453.845 766.608 454.325 766.272C454.805 765.936 455.135 765.456 455.315 764.832H457.079C456.815 765.84 456.287 766.65 455.495 767.262C454.703 767.862 453.713 768.162 452.525 768.162C451.589 768.162 450.755 767.952 450.023 767.532C449.303 767.112 448.739 766.518 448.331 765.75C447.923 764.982 447.719 764.082 447.719 763.05ZM461.263 759.486V765.3C461.263 765.78 461.365 766.122 461.569 766.326C461.773 766.518 462.127 766.614 462.631 766.614H463.837V768H462.361C461.449 768 460.765 767.79 460.309 767.37C459.853 766.95 459.625 766.26 459.625 765.3V759.486H458.347V758.136H459.625V755.652H461.263V758.136H463.837V759.486H461.263ZM472.258 759.954C472.582 759.39 473.062 758.922 473.698 758.55C474.346 758.166 475.096 757.974 475.948 757.974C476.824 757.974 477.616 758.184 478.324 758.604C479.044 759.024 479.608 759.618 480.016 760.386C480.424 761.142 480.628 762.024 480.628 763.032C480.628 764.028 480.424 764.916 480.016 765.696C479.608 766.476 479.044 767.082 478.324 767.514C477.616 767.946 476.824 768.162 475.948 768.162C475.108 768.162 474.364 767.976 473.716 767.604C473.08 767.22 472.594 766.746 472.258 766.182V772.68H470.62V758.136H472.258V759.954ZM478.954 763.032C478.954 762.288 478.804 761.64 478.504 761.088C478.204 760.536 477.796 760.116 477.28 759.828C476.776 759.54 476.218 759.396 475.606 759.396C475.006 759.396 474.448 759.546 473.932 759.846C473.428 760.134 473.02 760.56 472.708 761.124C472.408 761.676 472.258 762.318 472.258 763.05C472.258 763.794 472.408 764.448 472.708 765.012C473.02 765.564 473.428 765.99 473.932 766.29C474.448 766.578 475.006 766.722 475.606 766.722C476.218 766.722 476.776 766.578 477.28 766.29C477.796 765.99 478.204 765.564 478.504 765.012C478.804 764.448 478.954 763.788 478.954 763.032ZM484.422 759.738C484.71 759.174 485.118 758.736 485.646 758.424C486.186 758.112 486.84 757.956 487.608 757.956V759.648H487.176C485.34 759.648 484.422 760.644 484.422 762.636V768H482.784V758.136H484.422V759.738ZM498.499 762.69C498.499 763.002 498.481 763.332 498.445 763.68H490.561C490.621 764.652 490.951 765.414 491.551 765.966C492.163 766.506 492.901 766.776 493.765 766.776C494.473 766.776 495.061 766.614 495.529 766.29C496.009 765.954 496.345 765.51 496.537 764.958H498.301C498.037 765.906 497.509 766.68 496.717 767.28C495.925 767.868 494.941 768.162 493.765 768.162C492.829 768.162 491.989 767.952 491.245 767.532C490.513 767.112 489.937 766.518 489.517 765.75C489.097 764.97 488.887 764.07 488.887 763.05C488.887 762.03 489.091 761.136 489.499 760.368C489.907 759.6 490.477 759.012 491.209 758.604C491.953 758.184 492.805 757.974 493.765 757.974C494.701 757.974 495.529 758.178 496.249 758.586C496.969 758.994 497.521 759.558 497.905 760.278C498.301 760.986 498.499 761.79 498.499 762.69ZM496.807 762.348C496.807 761.724 496.669 761.19 496.393 760.746C496.117 760.29 495.739 759.948 495.259 759.72C494.791 759.48 494.269 759.36 493.693 759.36C492.865 759.36 492.157 759.624 491.569 760.152C490.993 760.68 490.663 761.412 490.579 762.348H496.807ZM500.049 763.05C500.049 762.03 500.253 761.142 500.661 760.386C501.069 759.618 501.633 759.024 502.353 758.604C503.085 758.184 503.919 757.974 504.855 757.974C506.067 757.974 507.063 758.268 507.843 758.856C508.635 759.444 509.157 760.26 509.409 761.304H507.645C507.477 760.704 507.147 760.23 506.655 759.882C506.175 759.534 505.575 759.36 504.855 759.36C503.919 759.36 503.163 759.684 502.587 760.332C502.011 760.968 501.723 761.874 501.723 763.05C501.723 764.238 502.011 765.156 502.587 765.804C503.163 766.452 503.919 766.776 504.855 766.776C505.575 766.776 506.175 766.608 506.655 766.272C507.135 765.936 507.465 765.456 507.645 764.832H509.409C509.145 765.84 508.617 766.65 507.825 767.262C507.033 767.862 506.043 768.162 504.855 768.162C503.919 768.162 503.085 767.952 502.353 767.532C501.633 767.112 501.069 766.518 500.661 765.75C500.253 764.982 500.049 764.082 500.049 763.05ZM512.441 756.534C512.129 756.534 511.865 756.426 511.649 756.21C511.433 755.994 511.325 755.73 511.325 755.418C511.325 755.106 511.433 754.842 511.649 754.626C511.865 754.41 512.129 754.302 512.441 754.302C512.741 754.302 512.993 754.41 513.197 754.626C513.413 754.842 513.521 755.106 513.521 755.418C513.521 755.73 513.413 755.994 513.197 756.21C512.993 756.426 512.741 756.534 512.441 756.534ZM513.233 758.136V768H511.595V758.136H513.233ZM519.517 768.162C518.761 768.162 518.083 768.036 517.483 767.784C516.883 767.52 516.409 767.16 516.061 766.704C515.713 766.236 515.521 765.702 515.485 765.102H517.177C517.225 765.594 517.453 765.996 517.861 766.308C518.281 766.62 518.827 766.776 519.499 766.776C520.123 766.776 520.615 766.638 520.975 766.362C521.335 766.086 521.515 765.738 521.515 765.318C521.515 764.886 521.323 764.568 520.939 764.364C520.555 764.148 519.961 763.938 519.157 763.734C518.425 763.542 517.825 763.35 517.357 763.158C516.901 762.954 516.505 762.66 516.169 762.276C515.845 761.88 515.683 761.364 515.683 760.728C515.683 760.224 515.833 759.762 516.133 759.342C516.433 758.922 516.859 758.592 517.411 758.352C517.963 758.1 518.593 757.974 519.301 757.974C520.393 757.974 521.275 758.25 521.947 758.802C522.619 759.354 522.979 760.11 523.027 761.07H521.389C521.353 760.554 521.143 760.14 520.759 759.828C520.387 759.516 519.883 759.36 519.247 759.36C518.659 759.36 518.191 759.486 517.843 759.738C517.495 759.99 517.321 760.32 517.321 760.728C517.321 761.052 517.423 761.322 517.627 761.538C517.843 761.742 518.107 761.91 518.419 762.042C518.743 762.162 519.187 762.3 519.751 762.456C520.459 762.648 521.035 762.84 521.479 763.032C521.923 763.212 522.301 763.488 522.613 763.86C522.937 764.232 523.105 764.718 523.117 765.318C523.117 765.858 522.967 766.344 522.667 766.776C522.367 767.208 521.941 767.55 521.389 767.802C520.849 768.042 520.225 768.162 519.517 768.162ZM526.275 756.534C525.963 756.534 525.699 756.426 525.483 756.21C525.267 755.994 525.159 755.73 525.159 755.418C525.159 755.106 525.267 754.842 525.483 754.626C525.699 754.41 525.963 754.302 526.275 754.302C526.575 754.302 526.827 754.41 527.031 754.626C527.247 754.842 527.355 755.106 527.355 755.418C527.355 755.73 527.247 755.994 527.031 756.21C526.827 756.426 526.575 756.534 526.275 756.534ZM527.067 758.136V768H525.429V758.136H527.067ZM534.161 768.162C533.237 768.162 532.397 767.952 531.641 767.532C530.897 767.112 530.309 766.518 529.877 765.75C529.457 764.97 529.247 764.07 529.247 763.05C529.247 762.042 529.463 761.154 529.895 760.386C530.339 759.606 530.939 759.012 531.695 758.604C532.451 758.184 533.297 757.974 534.233 757.974C535.169 757.974 536.015 758.184 536.771 758.604C537.527 759.012 538.121 759.6 538.553 760.368C538.997 761.136 539.219 762.03 539.219 763.05C539.219 764.07 538.991 764.97 538.535 765.75C538.091 766.518 537.485 767.112 536.717 767.532C535.949 767.952 535.097 768.162 534.161 768.162ZM534.161 766.722C534.749 766.722 535.301 766.584 535.817 766.308C536.333 766.032 536.747 765.618 537.059 765.066C537.383 764.514 537.545 763.842 537.545 763.05C537.545 762.258 537.389 761.586 537.077 761.034C536.765 760.482 536.357 760.074 535.853 759.81C535.349 759.534 534.803 759.396 534.215 759.396C533.615 759.396 533.063 759.534 532.559 759.81C532.067 760.074 531.671 760.482 531.371 761.034C531.071 761.586 530.921 762.258 530.921 763.05C530.921 763.854 531.065 764.532 531.353 765.084C531.653 765.636 532.049 766.05 532.541 766.326C533.033 766.59 533.573 766.722 534.161 766.722ZM546.178 757.956C547.378 757.956 548.35 758.322 549.094 759.054C549.838 759.774 550.21 760.818 550.21 762.186V768H548.59V762.42C548.59 761.436 548.344 760.686 547.852 760.17C547.36 759.642 546.688 759.378 545.836 759.378C544.972 759.378 544.282 759.648 543.766 760.188C543.262 760.728 543.01 761.514 543.01 762.546V768H541.372V758.136H543.01V759.54C543.334 759.036 543.772 758.646 544.324 758.37C544.888 758.094 545.506 757.956 546.178 757.956ZM553.138 755.454H554.956L553.228 759.54H552.076L553.138 755.454ZM556.054 755.454H557.872L556.144 759.54H554.974L556.054 755.454Z" fill="#737373"/>
<defs>
<clipPath id="clip0_2422_44568">
<rect width="699" height="393" fill="white" transform="translate(59 278)"/>
</clipPath>
</defs>
</svg>
