<svg width="761" height="804" viewBox="0 0 761 804" fill="none" xmlns="http://www.w3.org/2000/svg">
<path d="M202.513 613.284C258.077 664.812 338.034 665.506 411.978 664.74C476.972 664.058 539.987 650.205 588.946 609.233C639.146 567.235 669.717 507.899 678.412 441.821C688.025 368.61 689.335 285.957 638.842 229.572C588.586 173.467 506.669 174.622 433.187 167.982C359.228 161.31 280.926 149.436 221.997 191.966C158.756 237.612 123.739 314.389 120.05 393.974C116.358 473.849 142.68 557.778 202.513 613.284Z" fill="#E2EFFD"/>
<path d="M255.09 575.606C299.168 616.412 362.805 616.725 421.655 615.9C473.388 615.158 523.588 603.951 562.672 571.226C602.753 537.68 627.266 490.411 634.382 437.843C642.253 379.606 643.543 313.875 603.523 269.191C563.694 224.725 498.488 225.891 440.021 220.832C381.175 215.753 318.892 206.537 271.861 240.536C221.386 277.024 193.286 338.166 190.113 401.465C186.935 464.99 207.634 531.648 255.09 575.606Z" fill="#B3D4FF" fill-opacity="0.5"/>
<path d="M307.532 527.579C340.359 557.982 387.715 558.26 431.511 557.684C470.005 557.171 507.352 548.866 536.418 524.536C566.221 499.595 584.427 464.425 589.684 425.303C595.502 381.958 596.417 333.038 566.602 299.75C536.931 266.626 488.411 267.444 444.899 263.641C401.106 259.814 354.75 252.916 319.776 278.186C282.242 305.308 261.374 350.805 259.059 397.915C256.736 445.194 272.187 494.827 307.532 527.579Z" fill="#71ADFB" fill-opacity="0.5"/>
<path opacity="0.1" d="M374.866 664C509.804 664 619.193 653.191 619.193 639.859C619.193 626.526 509.804 615.717 374.866 615.717C239.928 615.717 130.539 626.526 130.539 639.859C130.539 653.191 239.928 664 374.866 664Z" fill="#2A94F4"/>
<path d="M363.281 267.846H582.017V639.495H363.281V267.846Z" fill="#E8E8E8"/>
<path d="M323.926 248.993H553.762V639.455H323.926V248.993Z" fill="white"/>
<path d="M284.895 231.351H525.145V639.495H284.895V231.351Z" fill="#FF7B31"/>
<path d="M489.382 449.916H320.617V281.127H489.382V449.916ZM332.202 438.37H477.797V292.714H332.202V438.37Z" fill="white"/>
<path d="M313.874 357.993C320.695 367.722 327.517 377.451 334.339 387.221C345.156 402.683 355.974 418.104 366.832 433.566C369.375 437.159 371.878 440.752 374.421 444.385C375.793 446.323 381.363 452.782 383.785 448.745C391.01 436.473 398.639 424.442 406.349 412.493C423.504 385.929 441.466 359.85 460.639 334.699C472.305 319.399 484.454 304.461 497.452 290.291C502.699 284.559 488.491 265.544 485.02 269.299C461.568 294.853 440.619 322.588 420.759 350.968C405.663 372.526 391.212 394.528 377.408 416.933L374.259 422.02C372.685 424.604 373.29 426.057 370.465 422.02C366.469 416.328 362.473 410.636 358.477 404.903C347.659 389.441 336.841 374.02 325.983 358.558C323.44 354.965 320.938 351.372 318.395 347.739C317.103 345.881 311.21 339.18 309.03 343.379C306.931 347.617 311.694 354.884 313.874 357.993Z" fill="#333333"/>
<path d="M320.617 501.227H489.382V513.701H320.617V501.227ZM320.617 528.598H489.382V541.072H320.617V528.598ZM320.617 558.916H434.647V571.39H320.617V558.916Z" fill="white"/>
<path opacity="0.33" d="M284.895 231.351H525.145V639.495H284.895V231.351Z" fill="white"/>
<path d="M227.748 482.554C227.748 482.554 268.622 528.761 271.546 544.225C274.47 559.689 234.503 628.036 234.503 628.036L253.074 640.985L216.014 637.441C216.014 637.441 231.61 580.701 240.475 561.378C228.552 553.29 199.834 521.634 199.834 521.634L173.195 583.726L161.712 654.677L130.925 663.741L148.898 644.234C145.713 592.086 145.772 592.073 143.441 576.133C141.213 560.895 154.428 505.624 158.328 488.01C162.229 470.396 216.221 475.304 227.748 482.554Z" fill="#3B8CF7"/>
<path d="M237.02 344.156C236.471 346.238 223.506 400.952 223.506 400.952C223.506 400.952 235.29 406.722 240.181 400.116C245.071 393.51 246.707 343.466 246.707 343.466L237.02 344.156Z" fill="#FFE3CA"/>
<path d="M234.658 342.4L310.13 314.145C310.13 314.145 316.92 321.724 314.523 330.782L237.97 348.231C237.97 348.231 233.94 349.224 234.658 342.4Z" fill="#333333"/>
<path d="M191.752 379.716L198.34 397.298C198.34 397.298 197.535 405.632 188.419 405.804C179.304 405.976 177.786 400.703 177.786 400.703L179.29 379.845C179.289 379.846 187.857 377.47 191.752 379.716ZM249.314 393.359L258.366 391.556L265.311 353.388L256.684 344.001L262.893 342.213C262.893 342.213 261.661 334.527 262.578 330.565C263.495 326.603 266.099 325.603 272.581 328.156C275.999 330.139 278.699 342.487 275.453 349.488C272.207 356.49 272.53 400.548 273.204 407.63C273.878 414.711 254.169 419.296 254.169 419.296C254.169 419.296 244.74 420.595 241.655 410.722C238.571 400.848 249.314 393.359 249.314 393.359Z" fill="#FFE3CA"/>
<path d="M190.539 394.258C197.77 392.824 206.356 392.203 216.069 393.406C233.432 394.094 249.314 393.359 249.314 393.359C249.314 393.359 256.292 405.533 254.168 419.296C254.168 419.296 236.864 429.883 220.198 430.55C218.295 438.367 221.271 473.732 227.748 482.553C222.872 490.123 181.909 499.064 158.328 488.01C154.321 480.219 158.383 447.018 161.675 424.972C163.953 409.711 175.407 397.259 190.539 394.258Z" fill="#FFD233"/>
<path d="M194.668 350.875C194.668 350.875 207.742 366.865 206.207 373.007C204.671 379.149 197.311 384.864 179.865 386.8C173.877 385.903 167.25 368.012 167.401 364.269C168.392 339.768 188.236 346.742 194.668 350.875Z" fill="#FFE3CA"/>
<path d="M178.383 359.735C178.383 359.735 201.214 356.046 203.437 344.509C205.66 332.971 187.024 327.043 178.761 330.65C175.242 332.186 173.464 334.882 171.394 337.912C169.066 341.321 166.181 342.473 162.465 344.444C161.269 345.078 160.067 345.717 159 346.552C153.242 351.061 155.285 356.415 156.258 362.45C157.192 368.248 158.093 374.215 161.896 378.935C168.51 387.141 179.595 385.867 179.289 379.845C178.984 373.824 172.231 361.162 178.383 359.735ZM234.504 628.036C234.504 628.036 223.351 627.821 219.105 626.603C217.204 633.172 216.015 637.441 216.015 637.441L253.074 640.985L234.504 628.036ZM163.699 641.681C158.36 644.773 148.898 644.234 148.898 644.234L130.925 663.741L161.712 653.959L163.699 641.681Z" fill="#333333"/>
<path d="M310.13 314.145L330.91 315.48L314.522 330.782L310.13 331.784L314.614 326.287L307.656 326.653L312.783 321.158L304.91 321.341L311.135 317.128L304.211 316.361L310.13 314.145Z" fill="#FFE3CA"/>
<path d="M320.675 314.822C320.675 314.822 320.357 320.761 323.619 322.287L330.91 315.479L320.675 314.822Z" fill="#333333"/>
<path d="M237.712 341.258C237.712 341.258 244.808 343.211 252.498 340.464C260.188 337.716 252.087 328.991 246.708 329.599C241.328 330.206 234.181 335.03 237.712 341.258Z" fill="#FFE3CA"/>
<path d="M163.951 705.54H162.115L163.843 701.454H165.013L163.951 705.54ZM166.867 705.54H165.031L166.759 701.454H167.929L166.867 705.54ZM173.885 714.126C173.057 714.126 172.313 713.982 171.653 713.694C171.005 713.394 170.495 712.986 170.123 712.47C169.751 711.942 169.559 711.336 169.547 710.652H171.293C171.353 711.24 171.593 711.738 172.013 712.146C172.445 712.542 173.069 712.74 173.885 712.74C174.665 712.74 175.277 712.548 175.721 712.164C176.177 711.768 176.405 711.264 176.405 710.652C176.405 710.172 176.273 709.782 176.009 709.482C175.745 709.182 175.415 708.954 175.019 708.798C174.623 708.642 174.089 708.474 173.417 708.294C172.589 708.078 171.923 707.862 171.419 707.646C170.927 707.43 170.501 707.094 170.141 706.638C169.793 706.17 169.619 705.546 169.619 704.766C169.619 704.082 169.793 703.476 170.141 702.948C170.489 702.42 170.975 702.012 171.599 701.724C172.235 701.436 172.961 701.292 173.777 701.292C174.953 701.292 175.913 701.586 176.657 702.174C177.413 702.762 177.839 703.542 177.935 704.514H176.135C176.075 704.034 175.823 703.614 175.379 703.254C174.935 702.882 174.347 702.696 173.615 702.696C172.931 702.696 172.373 702.876 171.941 703.236C171.509 703.584 171.293 704.076 171.293 704.712C171.293 705.168 171.419 705.54 171.671 705.828C171.935 706.116 172.253 706.338 172.625 706.494C173.009 706.638 173.543 706.806 174.227 706.998C175.055 707.226 175.721 707.454 176.225 707.682C176.729 707.898 177.161 708.24 177.521 708.708C177.881 709.164 178.061 709.788 178.061 710.58C178.061 711.192 177.899 711.768 177.575 712.308C177.251 712.848 176.771 713.286 176.135 713.622C175.499 713.958 174.749 714.126 173.885 714.126ZM182.109 705.954C182.433 705.39 182.913 704.922 183.549 704.55C184.197 704.166 184.947 703.974 185.799 703.974C186.675 703.974 187.467 704.184 188.175 704.604C188.895 705.024 189.459 705.618 189.867 706.386C190.275 707.142 190.479 708.024 190.479 709.032C190.479 710.028 190.275 710.916 189.867 711.696C189.459 712.476 188.895 713.082 188.175 713.514C187.467 713.946 186.675 714.162 185.799 714.162C184.959 714.162 184.215 713.976 183.567 713.604C182.931 713.22 182.445 712.746 182.109 712.182V718.68H180.471V704.136H182.109V705.954ZM188.805 709.032C188.805 708.288 188.655 707.64 188.355 707.088C188.055 706.536 187.647 706.116 187.131 705.828C186.627 705.54 186.069 705.396 185.457 705.396C184.857 705.396 184.299 705.546 183.783 705.846C183.279 706.134 182.871 706.56 182.559 707.124C182.259 707.676 182.109 708.318 182.109 709.05C182.109 709.794 182.259 710.448 182.559 711.012C182.871 711.564 183.279 711.99 183.783 712.29C184.299 712.578 184.857 712.722 185.457 712.722C186.069 712.722 186.627 712.578 187.131 712.29C187.647 711.99 188.055 711.564 188.355 711.012C188.655 710.448 188.805 709.788 188.805 709.032ZM201.635 708.69C201.635 709.002 201.617 709.332 201.581 709.68H193.697C193.757 710.652 194.087 711.414 194.687 711.966C195.299 712.506 196.037 712.776 196.901 712.776C197.609 712.776 198.197 712.614 198.665 712.29C199.145 711.954 199.481 711.51 199.673 710.958H201.437C201.173 711.906 200.645 712.68 199.853 713.28C199.061 713.868 198.077 714.162 196.901 714.162C195.965 714.162 195.125 713.952 194.381 713.532C193.649 713.112 193.073 712.518 192.653 711.75C192.233 710.97 192.023 710.07 192.023 709.05C192.023 708.03 192.227 707.136 192.635 706.368C193.043 705.6 193.613 705.012 194.345 704.604C195.089 704.184 195.941 703.974 196.901 703.974C197.837 703.974 198.665 704.178 199.385 704.586C200.105 704.994 200.657 705.558 201.041 706.278C201.437 706.986 201.635 707.79 201.635 708.69ZM199.943 708.348C199.943 707.724 199.805 707.19 199.529 706.746C199.253 706.29 198.875 705.948 198.395 705.72C197.927 705.48 197.405 705.36 196.829 705.36C196.001 705.36 195.293 705.624 194.705 706.152C194.129 706.68 193.799 707.412 193.715 708.348H199.943ZM208.603 703.956C209.803 703.956 210.775 704.322 211.519 705.054C212.263 705.774 212.635 706.818 212.635 708.186V714H211.015V708.42C211.015 707.436 210.769 706.686 210.277 706.17C209.785 705.642 209.113 705.378 208.261 705.378C207.397 705.378 206.707 705.648 206.191 706.188C205.687 706.728 205.435 707.514 205.435 708.546V714H203.797V704.136H205.435V705.54C205.759 705.036 206.197 704.646 206.749 704.37C207.313 704.094 207.931 703.956 208.603 703.956ZM214.699 709.032C214.699 708.024 214.903 707.142 215.311 706.386C215.719 705.618 216.277 705.024 216.985 704.604C217.705 704.184 218.509 703.974 219.397 703.974C220.165 703.974 220.879 704.154 221.539 704.514C222.199 704.862 222.703 705.324 223.051 705.9V700.68H224.707V714H223.051V712.146C222.727 712.734 222.247 713.22 221.611 713.604C220.975 713.976 220.231 714.162 219.379 714.162C218.503 714.162 217.705 713.946 216.985 713.514C216.277 713.082 215.719 712.476 215.311 711.696C214.903 710.916 214.699 710.028 214.699 709.032ZM223.051 709.05C223.051 708.306 222.901 707.658 222.601 707.106C222.301 706.554 221.893 706.134 221.377 705.846C220.873 705.546 220.315 705.396 219.703 705.396C219.091 705.396 218.533 705.54 218.029 705.828C217.525 706.116 217.123 706.536 216.823 707.088C216.523 707.64 216.373 708.288 216.373 709.032C216.373 709.788 216.523 710.448 216.823 711.012C217.123 711.564 217.525 711.99 218.029 712.29C218.533 712.578 219.091 712.722 219.703 712.722C220.315 712.722 220.873 712.578 221.377 712.29C221.893 711.99 222.301 711.564 222.601 711.012C222.901 710.448 223.051 709.794 223.051 709.05ZM231.662 709.032C231.662 708.024 231.866 707.142 232.274 706.386C232.682 705.618 233.24 705.024 233.948 704.604C234.668 704.184 235.466 703.974 236.342 703.974C237.206 703.974 237.956 704.16 238.592 704.532C239.228 704.904 239.702 705.372 240.014 705.936V704.136H241.67V714H240.014V712.164C239.69 712.74 239.204 713.22 238.556 713.604C237.92 713.976 237.176 714.162 236.324 714.162C235.448 714.162 234.656 713.946 233.948 713.514C233.24 713.082 232.682 712.476 232.274 711.696C231.866 710.916 231.662 710.028 231.662 709.032ZM240.014 709.05C240.014 708.306 239.864 707.658 239.564 707.106C239.264 706.554 238.856 706.134 238.34 705.846C237.836 705.546 237.278 705.396 236.666 705.396C236.054 705.396 235.496 705.54 234.992 705.828C234.488 706.116 234.086 706.536 233.786 707.088C233.486 707.64 233.336 708.288 233.336 709.032C233.336 709.788 233.486 710.448 233.786 711.012C234.086 711.564 234.488 711.99 234.992 712.29C235.496 712.578 236.054 712.722 236.666 712.722C237.278 712.722 237.836 712.578 238.34 712.29C238.856 711.99 239.264 711.564 239.564 711.012C239.864 710.448 240.014 709.794 240.014 709.05ZM261.099 703.956C261.867 703.956 262.551 704.118 263.151 704.442C263.751 704.754 264.225 705.228 264.573 705.864C264.921 706.5 265.095 707.274 265.095 708.186V714H263.475V708.42C263.475 707.436 263.229 706.686 262.737 706.17C262.257 705.642 261.603 705.378 260.775 705.378C259.923 705.378 259.245 705.654 258.741 706.206C258.237 706.746 257.985 707.532 257.985 708.564V714H256.365V708.42C256.365 707.436 256.119 706.686 255.627 706.17C255.147 705.642 254.493 705.378 253.665 705.378C252.813 705.378 252.135 705.654 251.631 706.206C251.127 706.746 250.875 707.532 250.875 708.564V714H249.237V704.136H250.875V705.558C251.199 705.042 251.631 704.646 252.171 704.37C252.723 704.094 253.329 703.956 253.989 703.956C254.817 703.956 255.549 704.142 256.185 704.514C256.821 704.886 257.295 705.432 257.607 706.152C257.883 705.456 258.339 704.916 258.975 704.532C259.611 704.148 260.319 703.956 261.099 703.956ZM268.628 702.534C268.316 702.534 268.052 702.426 267.836 702.21C267.62 701.994 267.512 701.73 267.512 701.418C267.512 701.106 267.62 700.842 267.836 700.626C268.052 700.41 268.316 700.302 268.628 700.302C268.928 700.302 269.18 700.41 269.384 700.626C269.6 700.842 269.708 701.106 269.708 701.418C269.708 701.73 269.6 701.994 269.384 702.21C269.18 702.426 268.928 702.534 268.628 702.534ZM269.42 704.136V714H267.782V704.136H269.42ZM277.017 703.956C278.217 703.956 279.189 704.322 279.933 705.054C280.677 705.774 281.049 706.818 281.049 708.186V714H279.429V708.42C279.429 707.436 279.183 706.686 278.691 706.17C278.199 705.642 277.527 705.378 276.675 705.378C275.811 705.378 275.121 705.648 274.605 706.188C274.101 706.728 273.849 707.514 273.849 708.546V714H272.211V704.136H273.849V705.54C274.173 705.036 274.611 704.646 275.163 704.37C275.727 704.094 276.345 703.956 277.017 703.956ZM292.473 704.136V714H290.835V712.542C290.523 713.046 290.085 713.442 289.521 713.73C288.969 714.006 288.357 714.144 287.685 714.144C286.917 714.144 286.227 713.988 285.615 713.676C285.003 713.352 284.517 712.872 284.157 712.236C283.809 711.6 283.635 710.826 283.635 709.914V704.136H285.255V709.698C285.255 710.67 285.501 711.42 285.993 711.948C286.485 712.464 287.157 712.722 288.009 712.722C288.885 712.722 289.575 712.452 290.079 711.912C290.583 711.372 290.835 710.586 290.835 709.554V704.136H292.473ZM297.237 705.486V711.3C297.237 711.78 297.339 712.122 297.543 712.326C297.747 712.518 298.101 712.614 298.605 712.614H299.811V714H298.335C297.423 714 296.739 713.79 296.283 713.37C295.827 712.95 295.599 712.26 295.599 711.3V705.486H294.321V704.136H295.599V701.652H297.237V704.136H299.811V705.486H297.237ZM310.795 708.69C310.795 709.002 310.777 709.332 310.741 709.68H302.857C302.917 710.652 303.247 711.414 303.847 711.966C304.459 712.506 305.197 712.776 306.061 712.776C306.769 712.776 307.357 712.614 307.825 712.29C308.305 711.954 308.641 711.51 308.833 710.958H310.597C310.333 711.906 309.805 712.68 309.013 713.28C308.221 713.868 307.237 714.162 306.061 714.162C305.125 714.162 304.285 713.952 303.541 713.532C302.809 713.112 302.233 712.518 301.813 711.75C301.393 710.97 301.183 710.07 301.183 709.05C301.183 708.03 301.387 707.136 301.795 706.368C302.203 705.6 302.773 705.012 303.505 704.604C304.249 704.184 305.101 703.974 306.061 703.974C306.997 703.974 307.825 704.178 308.545 704.586C309.265 704.994 309.817 705.558 310.201 706.278C310.597 706.986 310.795 707.79 310.795 708.69ZM309.103 708.348C309.103 707.724 308.965 707.19 308.689 706.746C308.413 706.29 308.035 705.948 307.555 705.72C307.087 705.48 306.565 705.36 305.989 705.36C305.161 705.36 304.453 705.624 303.865 706.152C303.289 706.68 302.959 707.412 302.875 708.348H309.103ZM319.754 705.486V711.3C319.754 711.78 319.856 712.122 320.06 712.326C320.264 712.518 320.618 712.614 321.122 712.614H322.328V714H320.852C319.94 714 319.256 713.79 318.8 713.37C318.344 712.95 318.116 712.26 318.116 711.3V705.486H316.838V704.136H318.116V701.652H319.754V704.136H322.328V705.486H319.754ZM328.615 714.162C327.691 714.162 326.851 713.952 326.095 713.532C325.351 713.112 324.763 712.518 324.331 711.75C323.911 710.97 323.701 710.07 323.701 709.05C323.701 708.042 323.917 707.154 324.349 706.386C324.793 705.606 325.393 705.012 326.149 704.604C326.905 704.184 327.751 703.974 328.687 703.974C329.623 703.974 330.469 704.184 331.225 704.604C331.981 705.012 332.575 705.6 333.007 706.368C333.451 707.136 333.673 708.03 333.673 709.05C333.673 710.07 333.445 710.97 332.989 711.75C332.545 712.518 331.939 713.112 331.171 713.532C330.403 713.952 329.551 714.162 328.615 714.162ZM328.615 712.722C329.203 712.722 329.755 712.584 330.271 712.308C330.787 712.032 331.201 711.618 331.513 711.066C331.837 710.514 331.999 709.842 331.999 709.05C331.999 708.258 331.843 707.586 331.531 707.034C331.219 706.482 330.811 706.074 330.307 705.81C329.803 705.534 329.257 705.396 328.669 705.396C328.069 705.396 327.517 705.534 327.013 705.81C326.521 706.074 326.125 706.482 325.825 707.034C325.525 707.586 325.375 708.258 325.375 709.05C325.375 709.854 325.519 710.532 325.807 711.084C326.107 711.636 326.503 712.05 326.995 712.326C327.487 712.59 328.027 712.722 328.615 712.722ZM340.013 709.05C340.013 708.03 340.217 707.142 340.625 706.386C341.033 705.618 341.597 705.024 342.317 704.604C343.049 704.184 343.883 703.974 344.819 703.974C346.031 703.974 347.027 704.268 347.807 704.856C348.599 705.444 349.121 706.26 349.373 707.304H347.609C347.441 706.704 347.111 706.23 346.619 705.882C346.139 705.534 345.539 705.36 344.819 705.36C343.883 705.36 343.127 705.684 342.551 706.332C341.975 706.968 341.687 707.874 341.687 709.05C341.687 710.238 341.975 711.156 342.551 711.804C343.127 712.452 343.883 712.776 344.819 712.776C345.539 712.776 346.139 712.608 346.619 712.272C347.099 711.936 347.429 711.456 347.609 710.832H349.373C349.109 711.84 348.581 712.65 347.789 713.262C346.997 713.862 346.007 714.162 344.819 714.162C343.883 714.162 343.049 713.952 342.317 713.532C341.597 713.112 341.033 712.518 340.625 711.75C340.217 710.982 340.013 710.082 340.013 709.05ZM356.455 703.956C357.199 703.956 357.871 704.118 358.471 704.442C359.071 704.754 359.539 705.228 359.875 705.864C360.223 706.5 360.397 707.274 360.397 708.186V714H358.777V708.42C358.777 707.436 358.531 706.686 358.039 706.17C357.547 705.642 356.875 705.378 356.023 705.378C355.159 705.378 354.469 705.648 353.953 706.188C353.449 706.728 353.197 707.514 353.197 708.546V714H351.559V700.68H353.197V705.54C353.521 705.036 353.965 704.646 354.529 704.37C355.105 704.094 355.747 703.956 356.455 703.956ZM372.073 708.69C372.073 709.002 372.055 709.332 372.019 709.68H364.135C364.195 710.652 364.525 711.414 365.125 711.966C365.737 712.506 366.475 712.776 367.339 712.776C368.047 712.776 368.635 712.614 369.103 712.29C369.583 711.954 369.919 711.51 370.111 710.958H371.875C371.611 711.906 371.083 712.68 370.291 713.28C369.499 713.868 368.515 714.162 367.339 714.162C366.403 714.162 365.563 713.952 364.819 713.532C364.087 713.112 363.511 712.518 363.091 711.75C362.671 710.97 362.461 710.07 362.461 709.05C362.461 708.03 362.665 707.136 363.073 706.368C363.481 705.6 364.051 705.012 364.783 704.604C365.527 704.184 366.379 703.974 367.339 703.974C368.275 703.974 369.103 704.178 369.823 704.586C370.543 704.994 371.095 705.558 371.479 706.278C371.875 706.986 372.073 707.79 372.073 708.69ZM370.381 708.348C370.381 707.724 370.243 707.19 369.967 706.746C369.691 706.29 369.313 705.948 368.833 705.72C368.365 705.48 367.843 705.36 367.267 705.36C366.439 705.36 365.731 705.624 365.143 706.152C364.567 706.68 364.237 707.412 364.153 708.348H370.381ZM373.623 709.05C373.623 708.03 373.827 707.142 374.235 706.386C374.643 705.618 375.207 705.024 375.927 704.604C376.659 704.184 377.493 703.974 378.429 703.974C379.641 703.974 380.637 704.268 381.417 704.856C382.209 705.444 382.731 706.26 382.983 707.304H381.219C381.051 706.704 380.721 706.23 380.229 705.882C379.749 705.534 379.149 705.36 378.429 705.36C377.493 705.36 376.737 705.684 376.161 706.332C375.585 706.968 375.297 707.874 375.297 709.05C375.297 710.238 375.585 711.156 376.161 711.804C376.737 712.452 377.493 712.776 378.429 712.776C379.149 712.776 379.749 712.608 380.229 712.272C380.709 711.936 381.039 711.456 381.219 710.832H382.983C382.719 711.84 382.191 712.65 381.399 713.262C380.607 713.862 379.617 714.162 378.429 714.162C377.493 714.162 376.659 713.952 375.927 713.532C375.207 713.112 374.643 712.518 374.235 711.75C373.827 710.982 373.623 710.082 373.623 709.05ZM390.676 714L386.806 709.644V714H385.168V700.68H386.806V708.51L390.604 704.136H392.89L388.246 709.05L392.908 714H390.676ZM407.727 704.136L401.787 718.644H400.095L402.039 713.892L398.061 704.136H399.879L402.975 712.128L406.035 704.136H407.727ZM413.675 714.162C412.751 714.162 411.911 713.952 411.155 713.532C410.411 713.112 409.823 712.518 409.391 711.75C408.971 710.97 408.761 710.07 408.761 709.05C408.761 708.042 408.977 707.154 409.409 706.386C409.853 705.606 410.453 705.012 411.209 704.604C411.965 704.184 412.811 703.974 413.747 703.974C414.683 703.974 415.529 704.184 416.285 704.604C417.041 705.012 417.635 705.6 418.067 706.368C418.511 707.136 418.733 708.03 418.733 709.05C418.733 710.07 418.505 710.97 418.049 711.75C417.605 712.518 416.999 713.112 416.231 713.532C415.463 713.952 414.611 714.162 413.675 714.162ZM413.675 712.722C414.263 712.722 414.815 712.584 415.331 712.308C415.847 712.032 416.261 711.618 416.573 711.066C416.897 710.514 417.059 709.842 417.059 709.05C417.059 708.258 416.903 707.586 416.591 707.034C416.279 706.482 415.871 706.074 415.367 705.81C414.863 705.534 414.317 705.396 413.729 705.396C413.129 705.396 412.577 705.534 412.073 705.81C411.581 706.074 411.185 706.482 410.885 707.034C410.585 707.586 410.435 708.258 410.435 709.05C410.435 709.854 410.579 710.532 410.867 711.084C411.167 711.636 411.563 712.05 412.055 712.326C412.547 712.59 413.087 712.722 413.675 712.722ZM429.635 704.136V714H427.997V712.542C427.685 713.046 427.247 713.442 426.683 713.73C426.131 714.006 425.519 714.144 424.847 714.144C424.079 714.144 423.389 713.988 422.777 713.676C422.165 713.352 421.679 712.872 421.319 712.236C420.971 711.6 420.797 710.826 420.797 709.914V704.136H422.417V709.698C422.417 710.67 422.663 711.42 423.155 711.948C423.647 712.464 424.319 712.722 425.171 712.722C426.047 712.722 426.737 712.452 427.241 711.912C427.745 711.372 427.997 710.586 427.997 709.554V704.136H429.635ZM434.039 705.738C434.327 705.174 434.735 704.736 435.263 704.424C435.803 704.112 436.457 703.956 437.225 703.956V705.648H436.793C434.957 705.648 434.039 706.644 434.039 708.636V714H432.401V704.136H434.039V705.738ZM447.928 705.486H445.858V714H444.22V705.486H442.942V704.136H444.22V703.434C444.22 702.33 444.502 701.526 445.066 701.022C445.642 700.506 446.56 700.248 447.82 700.248V701.616C447.1 701.616 446.59 701.76 446.29 702.048C446.002 702.324 445.858 702.786 445.858 703.434V704.136H447.928V705.486ZM450.684 702.534C450.372 702.534 450.108 702.426 449.892 702.21C449.676 701.994 449.568 701.73 449.568 701.418C449.568 701.106 449.676 700.842 449.892 700.626C450.108 700.41 450.372 700.302 450.684 700.302C450.984 700.302 451.236 700.41 451.44 700.626C451.656 700.842 451.764 701.106 451.764 701.418C451.764 701.73 451.656 701.994 451.44 702.21C451.236 702.426 450.984 702.534 450.684 702.534ZM451.476 704.136V714H449.838V704.136H451.476ZM455.906 700.68V714H454.268V700.68H455.906ZM460.336 700.68V714H458.698V700.68H460.336ZM472.127 708.69C472.127 709.002 472.109 709.332 472.073 709.68H464.189C464.249 710.652 464.579 711.414 465.179 711.966C465.791 712.506 466.529 712.776 467.393 712.776C468.101 712.776 468.689 712.614 469.157 712.29C469.637 711.954 469.973 711.51 470.165 710.958H471.929C471.665 711.906 471.137 712.68 470.345 713.28C469.553 713.868 468.569 714.162 467.393 714.162C466.457 714.162 465.617 713.952 464.873 713.532C464.141 713.112 463.565 712.518 463.145 711.75C462.725 710.97 462.515 710.07 462.515 709.05C462.515 708.03 462.719 707.136 463.127 706.368C463.535 705.6 464.105 705.012 464.837 704.604C465.581 704.184 466.433 703.974 467.393 703.974C468.329 703.974 469.157 704.178 469.877 704.586C470.597 704.994 471.149 705.558 471.533 706.278C471.929 706.986 472.127 707.79 472.127 708.69ZM470.435 708.348C470.435 707.724 470.297 707.19 470.021 706.746C469.745 706.29 469.367 705.948 468.887 705.72C468.419 705.48 467.897 705.36 467.321 705.36C466.493 705.36 465.785 705.624 465.197 706.152C464.621 706.68 464.291 707.412 464.207 708.348H470.435ZM473.677 709.032C473.677 708.024 473.881 707.142 474.289 706.386C474.697 705.618 475.255 705.024 475.963 704.604C476.683 704.184 477.487 703.974 478.375 703.974C479.143 703.974 479.857 704.154 480.517 704.514C481.177 704.862 481.681 705.324 482.029 705.9V700.68H483.685V714H482.029V712.146C481.705 712.734 481.225 713.22 480.589 713.604C479.953 713.976 479.209 714.162 478.357 714.162C477.481 714.162 476.683 713.946 475.963 713.514C475.255 713.082 474.697 712.476 474.289 711.696C473.881 710.916 473.677 710.028 473.677 709.032ZM482.029 709.05C482.029 708.306 481.879 707.658 481.579 707.106C481.279 706.554 480.871 706.134 480.355 705.846C479.851 705.546 479.293 705.396 478.681 705.396C478.069 705.396 477.511 705.54 477.007 705.828C476.503 706.116 476.101 706.536 475.801 707.088C475.501 707.64 475.351 708.288 475.351 709.032C475.351 709.788 475.501 710.448 475.801 711.012C476.101 711.564 476.503 711.99 477.007 712.29C477.511 712.578 478.069 712.722 478.681 712.722C479.293 712.722 479.851 712.578 480.355 712.29C480.871 711.99 481.279 711.564 481.579 711.012C481.879 710.448 482.029 709.794 482.029 709.05ZM492.098 702.534C491.786 702.534 491.522 702.426 491.306 702.21C491.09 701.994 490.982 701.73 490.982 701.418C490.982 701.106 491.09 700.842 491.306 700.626C491.522 700.41 491.786 700.302 492.098 700.302C492.398 700.302 492.65 700.41 492.854 700.626C493.07 700.842 493.178 701.106 493.178 701.418C493.178 701.73 493.07 701.994 492.854 702.21C492.65 702.426 492.398 702.534 492.098 702.534ZM492.89 704.136V714H491.252V704.136H492.89ZM500.488 703.956C501.688 703.956 502.66 704.322 503.404 705.054C504.148 705.774 504.52 706.818 504.52 708.186V714H502.9V708.42C502.9 707.436 502.654 706.686 502.162 706.17C501.67 705.642 500.998 705.378 500.146 705.378C499.282 705.378 498.592 705.648 498.076 706.188C497.572 706.728 497.32 707.514 497.32 708.546V714H495.682V704.136H497.32V705.54C497.644 705.036 498.082 704.646 498.634 704.37C499.198 704.094 499.816 703.956 500.488 703.956ZM511.21 705.486H509.14V714H507.502V705.486H506.224V704.136H507.502V703.434C507.502 702.33 507.784 701.526 508.348 701.022C508.924 700.506 509.842 700.248 511.102 700.248V701.616C510.382 701.616 509.872 701.76 509.572 702.048C509.284 702.324 509.14 702.786 509.14 703.434V704.136H511.21V705.486ZM517.421 714.162C516.497 714.162 515.657 713.952 514.901 713.532C514.157 713.112 513.569 712.518 513.137 711.75C512.717 710.97 512.507 710.07 512.507 709.05C512.507 708.042 512.723 707.154 513.155 706.386C513.599 705.606 514.199 705.012 514.955 704.604C515.711 704.184 516.557 703.974 517.493 703.974C518.429 703.974 519.275 704.184 520.031 704.604C520.787 705.012 521.381 705.6 521.813 706.368C522.257 707.136 522.479 708.03 522.479 709.05C522.479 710.07 522.251 710.97 521.795 711.75C521.351 712.518 520.745 713.112 519.977 713.532C519.209 713.952 518.357 714.162 517.421 714.162ZM517.421 712.722C518.009 712.722 518.561 712.584 519.077 712.308C519.593 712.032 520.007 711.618 520.319 711.066C520.643 710.514 520.805 709.842 520.805 709.05C520.805 708.258 520.649 707.586 520.337 707.034C520.025 706.482 519.617 706.074 519.113 705.81C518.609 705.534 518.063 705.396 517.475 705.396C516.875 705.396 516.323 705.534 515.819 705.81C515.327 706.074 514.931 706.482 514.631 707.034C514.331 707.586 514.181 708.258 514.181 709.05C514.181 709.854 514.325 710.532 514.613 711.084C514.913 711.636 515.309 712.05 515.801 712.326C516.293 712.59 516.833 712.722 517.421 712.722ZM526.271 705.738C526.559 705.174 526.967 704.736 527.495 704.424C528.035 704.112 528.689 703.956 529.457 703.956V705.648H529.025C527.189 705.648 526.271 706.644 526.271 708.636V714H524.633V704.136H526.271V705.738ZM543.21 703.956C543.978 703.956 544.662 704.118 545.262 704.442C545.862 704.754 546.336 705.228 546.684 705.864C547.032 706.5 547.206 707.274 547.206 708.186V714H545.586V708.42C545.586 707.436 545.34 706.686 544.848 706.17C544.368 705.642 543.714 705.378 542.886 705.378C542.034 705.378 541.356 705.654 540.852 706.206C540.348 706.746 540.096 707.532 540.096 708.564V714H538.476V708.42C538.476 707.436 538.23 706.686 537.738 706.17C537.258 705.642 536.604 705.378 535.776 705.378C534.924 705.378 534.246 705.654 533.742 706.206C533.238 706.746 532.986 707.532 532.986 708.564V714H531.348V704.136H532.986V705.558C533.31 705.042 533.742 704.646 534.282 704.37C534.834 704.094 535.44 703.956 536.1 703.956C536.928 703.956 537.66 704.142 538.296 704.514C538.932 704.886 539.406 705.432 539.718 706.152C539.994 705.456 540.45 704.916 541.086 704.532C541.722 704.148 542.43 703.956 543.21 703.956ZM549.281 709.032C549.281 708.024 549.485 707.142 549.893 706.386C550.301 705.618 550.859 705.024 551.567 704.604C552.287 704.184 553.085 703.974 553.961 703.974C554.825 703.974 555.575 704.16 556.211 704.532C556.847 704.904 557.321 705.372 557.633 705.936V704.136H559.289V714H557.633V712.164C557.309 712.74 556.823 713.22 556.175 713.604C555.539 713.976 554.795 714.162 553.943 714.162C553.067 714.162 552.275 713.946 551.567 713.514C550.859 713.082 550.301 712.476 549.893 711.696C549.485 710.916 549.281 710.028 549.281 709.032ZM557.633 709.05C557.633 708.306 557.483 707.658 557.183 707.106C556.883 706.554 556.475 706.134 555.959 705.846C555.455 705.546 554.897 705.396 554.285 705.396C553.673 705.396 553.115 705.54 552.611 705.828C552.107 706.116 551.705 706.536 551.405 707.088C551.105 707.64 550.955 708.288 550.955 709.032C550.955 709.788 551.105 710.448 551.405 711.012C551.705 711.564 552.107 711.99 552.611 712.29C553.115 712.578 553.673 712.722 554.285 712.722C554.897 712.722 555.455 712.578 555.959 712.29C556.475 711.99 556.883 711.564 557.183 711.012C557.483 710.448 557.633 709.794 557.633 709.05ZM564.055 705.486V711.3C564.055 711.78 564.157 712.122 564.361 712.326C564.565 712.518 564.919 712.614 565.423 712.614H566.629V714H565.153C564.241 714 563.557 713.79 563.101 713.37C562.645 712.95 562.417 712.26 562.417 711.3V705.486H561.139V704.136H562.417V701.652H564.055V704.136H566.629V705.486H564.055ZM569.46 702.534C569.148 702.534 568.884 702.426 568.668 702.21C568.452 701.994 568.344 701.73 568.344 701.418C568.344 701.106 568.452 700.842 568.668 700.626C568.884 700.41 569.148 700.302 569.46 700.302C569.76 700.302 570.012 700.41 570.216 700.626C570.432 700.842 570.54 701.106 570.54 701.418C570.54 701.73 570.432 701.994 570.216 702.21C570.012 702.426 569.76 702.534 569.46 702.534ZM570.252 704.136V714H568.614V704.136H570.252ZM577.345 714.162C576.421 714.162 575.581 713.952 574.825 713.532C574.081 713.112 573.493 712.518 573.061 711.75C572.641 710.97 572.431 710.07 572.431 709.05C572.431 708.042 572.647 707.154 573.079 706.386C573.523 705.606 574.123 705.012 574.879 704.604C575.635 704.184 576.481 703.974 577.417 703.974C578.353 703.974 579.199 704.184 579.955 704.604C580.711 705.012 581.305 705.6 581.737 706.368C582.181 707.136 582.403 708.03 582.403 709.05C582.403 710.07 582.175 710.97 581.719 711.75C581.275 712.518 580.669 713.112 579.901 713.532C579.133 713.952 578.281 714.162 577.345 714.162ZM577.345 712.722C577.933 712.722 578.485 712.584 579.001 712.308C579.517 712.032 579.931 711.618 580.243 711.066C580.567 710.514 580.729 709.842 580.729 709.05C580.729 708.258 580.573 707.586 580.261 707.034C579.949 706.482 579.541 706.074 579.037 705.81C578.533 705.534 577.987 705.396 577.399 705.396C576.799 705.396 576.247 705.534 575.743 705.81C575.251 706.074 574.855 706.482 574.555 707.034C574.255 707.586 574.105 708.258 574.105 709.05C574.105 709.854 574.249 710.532 574.537 711.084C574.837 711.636 575.233 712.05 575.725 712.326C576.217 712.59 576.757 712.722 577.345 712.722ZM589.363 703.956C590.563 703.956 591.535 704.322 592.279 705.054C593.023 705.774 593.395 706.818 593.395 708.186V714H591.775V708.42C591.775 707.436 591.529 706.686 591.037 706.17C590.545 705.642 589.873 705.378 589.021 705.378C588.157 705.378 587.467 705.648 586.951 706.188C586.447 706.728 586.195 707.514 586.195 708.546V714H584.557V704.136H586.195V705.54C586.519 705.036 586.957 704.646 587.509 704.37C588.073 704.094 588.691 703.956 589.363 703.956ZM601.715 702.534C601.403 702.534 601.139 702.426 600.923 702.21C600.707 701.994 600.599 701.73 600.599 701.418C600.599 701.106 600.707 700.842 600.923 700.626C601.139 700.41 601.403 700.302 601.715 700.302C602.015 700.302 602.267 700.41 602.471 700.626C602.687 700.842 602.795 701.106 602.795 701.418C602.795 701.73 602.687 701.994 602.471 702.21C602.267 702.426 602.015 702.534 601.715 702.534ZM602.507 704.136V714H600.869V704.136H602.507ZM608.791 714.162C608.035 714.162 607.357 714.036 606.757 713.784C606.157 713.52 605.683 713.16 605.335 712.704C604.987 712.236 604.795 711.702 604.759 711.102H606.451C606.499 711.594 606.727 711.996 607.135 712.308C607.555 712.62 608.101 712.776 608.773 712.776C609.397 712.776 609.889 712.638 610.249 712.362C610.609 712.086 610.789 711.738 610.789 711.318C610.789 710.886 610.597 710.568 610.213 710.364C609.829 710.148 609.235 709.938 608.431 709.734C607.699 709.542 607.099 709.35 606.631 709.158C606.175 708.954 605.779 708.66 605.443 708.276C605.119 707.88 604.957 707.364 604.957 706.728C604.957 706.224 605.107 705.762 605.407 705.342C605.707 704.922 606.133 704.592 606.685 704.352C607.237 704.1 607.867 703.974 608.575 703.974C609.667 703.974 610.549 704.25 611.221 704.802C611.893 705.354 612.253 706.11 612.301 707.07H610.663C610.627 706.554 610.417 706.14 610.033 705.828C609.661 705.516 609.157 705.36 608.521 705.36C607.933 705.36 607.465 705.486 607.117 705.738C606.769 705.99 606.595 706.32 606.595 706.728C606.595 707.052 606.697 707.322 606.901 707.538C607.117 707.742 607.381 707.91 607.693 708.042C608.017 708.162 608.461 708.3 609.025 708.456C609.733 708.648 610.309 708.84 610.753 709.032C611.197 709.212 611.575 709.488 611.887 709.86C612.211 710.232 612.379 710.718 612.391 711.318C612.391 711.858 612.241 712.344 611.941 712.776C611.641 713.208 611.215 713.55 610.663 713.802C610.123 714.042 609.499 714.162 608.791 714.162ZM321.996 736.05C321.996 735.03 322.2 734.142 322.608 733.386C323.016 732.618 323.58 732.024 324.3 731.604C325.032 731.184 325.866 730.974 326.802 730.974C328.014 730.974 329.01 731.268 329.79 731.856C330.582 732.444 331.104 733.26 331.356 734.304H329.592C329.424 733.704 329.094 733.23 328.602 732.882C328.122 732.534 327.522 732.36 326.802 732.36C325.866 732.36 325.11 732.684 324.534 733.332C323.958 733.968 323.67 734.874 323.67 736.05C323.67 737.238 323.958 738.156 324.534 738.804C325.11 739.452 325.866 739.776 326.802 739.776C327.522 739.776 328.122 739.608 328.602 739.272C329.082 738.936 329.412 738.456 329.592 737.832H331.356C331.092 738.84 330.564 739.65 329.772 740.262C328.98 740.862 327.99 741.162 326.802 741.162C325.866 741.162 325.032 740.952 324.3 740.532C323.58 740.112 323.016 739.518 322.608 738.75C322.2 737.982 321.996 737.082 321.996 736.05ZM337.843 741.162C336.919 741.162 336.079 740.952 335.323 740.532C334.579 740.112 333.991 739.518 333.559 738.75C333.139 737.97 332.929 737.07 332.929 736.05C332.929 735.042 333.145 734.154 333.577 733.386C334.021 732.606 334.621 732.012 335.377 731.604C336.133 731.184 336.979 730.974 337.915 730.974C338.851 730.974 339.697 731.184 340.453 731.604C341.209 732.012 341.803 732.6 342.235 733.368C342.679 734.136 342.901 735.03 342.901 736.05C342.901 737.07 342.673 737.97 342.217 738.75C341.773 739.518 341.167 740.112 340.399 740.532C339.631 740.952 338.779 741.162 337.843 741.162ZM337.843 739.722C338.431 739.722 338.983 739.584 339.499 739.308C340.015 739.032 340.429 738.618 340.741 738.066C341.065 737.514 341.227 736.842 341.227 736.05C341.227 735.258 341.071 734.586 340.759 734.034C340.447 733.482 340.039 733.074 339.535 732.81C339.031 732.534 338.485 732.396 337.897 732.396C337.297 732.396 336.745 732.534 336.241 732.81C335.749 733.074 335.353 733.482 335.053 734.034C334.753 734.586 334.603 735.258 334.603 736.05C334.603 736.854 334.747 737.532 335.035 738.084C335.335 738.636 335.731 739.05 336.223 739.326C336.715 739.59 337.255 739.722 337.843 739.722ZM346.693 732.738C346.981 732.174 347.389 731.736 347.917 731.424C348.457 731.112 349.111 730.956 349.879 730.956V732.648H349.447C347.611 732.648 346.693 733.644 346.693 735.636V741H345.055V731.136H346.693V732.738ZM353.408 732.738C353.696 732.174 354.104 731.736 354.632 731.424C355.172 731.112 355.826 730.956 356.594 730.956V732.648H356.162C354.326 732.648 353.408 733.644 353.408 735.636V741H351.77V731.136H353.408V732.738ZM367.485 735.69C367.485 736.002 367.467 736.332 367.431 736.68H359.547C359.607 737.652 359.937 738.414 360.537 738.966C361.149 739.506 361.887 739.776 362.751 739.776C363.459 739.776 364.047 739.614 364.515 739.29C364.995 738.954 365.331 738.51 365.523 737.958H367.287C367.023 738.906 366.495 739.68 365.703 740.28C364.911 740.868 363.927 741.162 362.751 741.162C361.815 741.162 360.975 740.952 360.231 740.532C359.499 740.112 358.923 739.518 358.503 738.75C358.083 737.97 357.873 737.07 357.873 736.05C357.873 735.03 358.077 734.136 358.485 733.368C358.893 732.6 359.463 732.012 360.195 731.604C360.939 731.184 361.791 730.974 362.751 730.974C363.687 730.974 364.515 731.178 365.235 731.586C365.955 731.994 366.507 732.558 366.891 733.278C367.287 733.986 367.485 734.79 367.485 735.69ZM365.793 735.348C365.793 734.724 365.655 734.19 365.379 733.746C365.103 733.29 364.725 732.948 364.245 732.72C363.777 732.48 363.255 732.36 362.679 732.36C361.851 732.36 361.143 732.624 360.555 733.152C359.979 733.68 359.649 734.412 359.565 735.348H365.793ZM369.035 736.05C369.035 735.03 369.239 734.142 369.647 733.386C370.055 732.618 370.619 732.024 371.339 731.604C372.071 731.184 372.905 730.974 373.841 730.974C375.053 730.974 376.049 731.268 376.829 731.856C377.621 732.444 378.143 733.26 378.395 734.304H376.631C376.463 733.704 376.133 733.23 375.641 732.882C375.161 732.534 374.561 732.36 373.841 732.36C372.905 732.36 372.149 732.684 371.573 733.332C370.997 733.968 370.709 734.874 370.709 736.05C370.709 737.238 370.997 738.156 371.573 738.804C372.149 739.452 372.905 739.776 373.841 739.776C374.561 739.776 375.161 739.608 375.641 739.272C376.121 738.936 376.451 738.456 376.631 737.832H378.395C378.131 738.84 377.603 739.65 376.811 740.262C376.019 740.862 375.029 741.162 373.841 741.162C372.905 741.162 372.071 740.952 371.339 740.532C370.619 740.112 370.055 739.518 369.647 738.75C369.239 737.982 369.035 737.082 369.035 736.05ZM382.578 732.486V738.3C382.578 738.78 382.68 739.122 382.884 739.326C383.088 739.518 383.442 739.614 383.946 739.614H385.152V741H383.676C382.764 741 382.08 740.79 381.624 740.37C381.168 739.95 380.94 739.26 380.94 738.3V732.486H379.662V731.136H380.94V728.652H382.578V731.136H385.152V732.486H382.578ZM396.238 741.162C395.314 741.162 394.474 740.952 393.718 740.532C392.974 740.112 392.386 739.518 391.954 738.75C391.534 737.97 391.324 737.07 391.324 736.05C391.324 735.042 391.54 734.154 391.972 733.386C392.416 732.606 393.016 732.012 393.772 731.604C394.528 731.184 395.374 730.974 396.31 730.974C397.246 730.974 398.092 731.184 398.848 731.604C399.604 732.012 400.198 732.6 400.63 733.368C401.074 734.136 401.296 735.03 401.296 736.05C401.296 737.07 401.068 737.97 400.612 738.75C400.168 739.518 399.562 740.112 398.794 740.532C398.026 740.952 397.174 741.162 396.238 741.162ZM396.238 739.722C396.826 739.722 397.378 739.584 397.894 739.308C398.41 739.032 398.824 738.618 399.136 738.066C399.46 737.514 399.622 736.842 399.622 736.05C399.622 735.258 399.466 734.586 399.154 734.034C398.842 733.482 398.434 733.074 397.93 732.81C397.426 732.534 396.88 732.396 396.292 732.396C395.692 732.396 395.14 732.534 394.636 732.81C394.144 733.074 393.748 733.482 393.448 734.034C393.148 734.586 392.998 735.258 392.998 736.05C392.998 736.854 393.142 737.532 393.43 738.084C393.73 738.636 394.126 739.05 394.618 739.326C395.11 739.59 395.65 739.722 396.238 739.722ZM405.087 732.738C405.375 732.174 405.783 731.736 406.311 731.424C406.851 731.112 407.505 730.956 408.273 730.956V732.648H407.841C406.005 732.648 405.087 733.644 405.087 735.636V741H403.449V731.136H405.087V732.738ZM419.769 730.956C420.969 730.956 421.941 731.322 422.685 732.054C423.429 732.774 423.801 733.818 423.801 735.186V741H422.181V735.42C422.181 734.436 421.935 733.686 421.443 733.17C420.951 732.642 420.279 732.378 419.427 732.378C418.563 732.378 417.873 732.648 417.357 733.188C416.853 733.728 416.601 734.514 416.601 735.546V741H414.963V731.136H416.601V732.54C416.925 732.036 417.363 731.646 417.915 731.37C418.479 731.094 419.097 730.956 419.769 730.956ZM430.779 741.162C429.855 741.162 429.015 740.952 428.259 740.532C427.515 740.112 426.927 739.518 426.495 738.75C426.075 737.97 425.865 737.07 425.865 736.05C425.865 735.042 426.081 734.154 426.513 733.386C426.957 732.606 427.557 732.012 428.313 731.604C429.069 731.184 429.915 730.974 430.851 730.974C431.787 730.974 432.633 731.184 433.389 731.604C434.145 732.012 434.739 732.6 435.171 733.368C435.615 734.136 435.837 735.03 435.837 736.05C435.837 737.07 435.609 737.97 435.153 738.75C434.709 739.518 434.103 740.112 433.335 740.532C432.567 740.952 431.715 741.162 430.779 741.162ZM430.779 739.722C431.367 739.722 431.919 739.584 432.435 739.308C432.951 739.032 433.365 738.618 433.677 738.066C434.001 737.514 434.163 736.842 434.163 736.05C434.163 735.258 434.007 734.586 433.695 734.034C433.383 733.482 432.975 733.074 432.471 732.81C431.967 732.534 431.421 732.396 430.833 732.396C430.233 732.396 429.681 732.534 429.177 732.81C428.685 733.074 428.289 733.482 427.989 734.034C427.689 734.586 427.539 735.258 427.539 736.05C427.539 736.854 427.683 737.532 427.971 738.084C428.271 738.636 428.667 739.05 429.159 739.326C429.651 739.59 430.191 739.722 430.779 739.722ZM439.988 732.486V738.3C439.988 738.78 440.09 739.122 440.294 739.326C440.498 739.518 440.852 739.614 441.356 739.614H442.562V741H441.086C440.174 741 439.49 740.79 439.034 740.37C438.578 739.95 438.35 739.26 438.35 738.3V732.486H437.072V731.136H438.35V728.652H439.988V731.136H442.562V732.486H439.988ZM445.069 741.108C444.757 741.108 444.493 741 444.277 740.784C444.061 740.568 443.953 740.304 443.953 739.992C443.953 739.68 444.061 739.416 444.277 739.2C444.493 738.984 444.757 738.876 445.069 738.876C445.369 738.876 445.621 738.984 445.825 739.2C446.041 739.416 446.149 739.68 446.149 739.992C446.149 740.304 446.041 740.568 445.825 740.784C445.621 741 445.369 741.108 445.069 741.108ZM448.578 728.454H450.396L448.668 732.54H447.516L448.578 728.454ZM451.494 728.454H453.312L451.584 732.54H450.414L451.494 728.454Z" fill="#737373"/>
</svg>
