<svg width="804" height="861" viewBox="0 0 804 861" fill="none" xmlns="http://www.w3.org/2000/svg">
<path d="M244.418 678.72C309.993 726.686 395.224 717.49 473.872 707.485C543 698.682 608.383 676.099 655.428 626.384C703.666 575.422 728.848 508.436 729.895 436.989C731.035 357.832 722.159 269.653 661.382 215.883C600.892 162.381 513.803 173.792 434.726 175.852C355.138 177.938 270.279 175.023 212.811 227.636C151.138 284.104 123.389 370.215 129.351 455.423C135.345 540.941 173.805 627.047 244.418 678.72Z" fill="#E2EFFD"/>
<path d="M318.591 596.386C361.027 627.423 416.177 621.472 467.062 615.004C511.791 609.302 554.1 594.687 584.536 562.519C615.749 529.543 632.046 486.202 632.723 439.972C633.462 388.758 627.718 331.696 588.391 296.903C549.254 262.282 492.899 269.667 441.732 271.001C390.234 272.356 335.328 270.462 298.143 304.511C258.234 341.051 240.278 396.76 244.137 451.9C248.015 507.235 272.9 562.951 318.591 596.386Z" fill="#B3D4FF" fill-opacity="0.5"/>
<path d="M392.762 514.052C412.05 528.159 437.118 525.455 460.249 522.512C480.579 519.923 499.81 513.28 513.647 498.659C527.835 483.669 535.242 463.967 535.549 442.954C535.885 419.674 533.275 393.738 515.398 377.924C497.608 362.187 471.993 365.542 448.736 366.151C425.327 366.763 400.369 365.906 383.467 381.38C365.327 397.989 357.166 423.314 358.92 448.376C360.682 473.528 371.993 498.854 392.762 514.052Z" fill="#71ADFB" fill-opacity="0.5"/>
<g clip-path="url(#clip0_2179_42105)">
<path opacity="0.18" d="M689.824 717.042C674.071 718.864 658.3 720.453 642.511 721.807C642.676 722.16 642.864 722.501 643.076 722.828C644.744 725.306 648.115 725.789 650.876 726.947C653.638 728.104 656.244 731.457 654.421 733.835C653.51 735.02 651.915 735.348 650.448 735.594L634.146 738.328C614.299 741.645 593.34 744.87 574.522 737.717C566.74 734.747 566.193 730.273 568.909 726.5C468.032 730.874 366.691 727.539 265.678 724.195C257.477 724.195 248.309 721.999 246.113 713.725C298.164 690.334 348.648 690.179 405 688.684L603.181 683.418C606.58 683.326 610.207 683.299 613.105 685.085C616.003 686.871 617.661 690.288 620.094 692.812C627.384 700.412 639.577 698.799 650.065 698.024C665.373 696.915 680.748 698.87 695.291 703.774C697.296 704.449 699.447 705.314 700.467 707.164C703.237 712.221 695.546 716.367 689.824 717.042Z" fill="#B3D4FF"/>
<path d="M322.106 231.25H480.091V718.527H322.106C314.473 718.527 307.154 715.495 301.757 710.098C296.36 704.702 293.328 697.382 293.328 689.75V260.027C293.328 252.395 296.36 245.076 301.757 239.679C307.154 234.282 314.473 231.25 322.106 231.25Z" fill="#3B8CF7"/>
<path d="M322.106 231.25H480.091V718.527H322.106C314.473 718.527 307.154 715.495 301.757 710.098C296.36 704.702 293.328 697.382 293.328 689.75V260.027C293.328 252.395 296.36 245.076 301.757 239.679C307.154 234.282 314.473 231.25 322.106 231.25Z" fill="url(#paint0_linear_2179_42105)"/>
<path d="M547.816 231.25H339.602C320.835 231.25 305.621 246.464 305.621 265.23V684.547C305.621 703.314 320.835 718.527 339.602 718.527H547.816C566.583 718.527 581.796 703.314 581.796 684.547V265.23C581.796 246.464 566.583 231.25 547.816 231.25Z" fill="#3B8CF7"/>
<path d="M569.668 260.501V665.813C569.666 668.073 569.22 670.311 568.354 672.399C567.488 674.487 566.219 676.384 564.619 677.981C563.02 679.579 561.122 680.846 559.033 681.71C556.944 682.574 554.705 683.018 552.445 683.017H334.955C330.392 683.017 326.016 681.204 322.789 677.978C319.563 674.751 317.75 670.375 317.75 665.813V260.501C317.75 255.936 319.564 251.557 322.792 248.329C326.02 245.101 330.398 243.288 334.964 243.288H377.966V248.7C377.966 253.292 379.79 257.696 383.037 260.943C386.284 264.19 390.688 266.014 395.28 266.014H491.782C496.374 266.014 500.778 264.19 504.025 260.943C507.272 257.696 509.096 253.292 509.096 248.7V243.288H552.436C554.697 243.287 556.937 243.731 559.027 244.595C561.117 245.46 563.017 246.727 564.617 248.326C566.217 249.924 567.487 251.822 568.353 253.911C569.22 256 569.666 258.239 569.668 260.501Z" fill="white"/>
<path d="M468.619 244.791H418.809C417.536 244.791 416.504 245.823 416.504 247.097V247.507C416.504 248.78 417.536 249.812 418.809 249.812H468.619C469.892 249.812 470.924 248.78 470.924 247.507V247.097C470.924 245.823 469.892 244.791 468.619 244.791Z" fill="url(#paint1_linear_2179_42105)"/>
<path d="M559.997 261.786V628.17C559.997 636.404 556.726 644.3 550.904 650.122C545.082 655.945 537.185 659.215 528.951 659.215H326.906V278.999C326.905 276.738 327.349 274.499 328.214 272.41C329.079 270.321 330.347 268.423 331.945 266.825C333.544 265.226 335.442 263.958 337.531 263.093C339.62 262.229 341.859 261.784 344.12 261.786H387.122V267.198C387.122 271.79 388.946 276.194 392.193 279.441C395.44 282.687 399.844 284.512 404.436 284.512H500.939C505.531 284.512 509.934 282.687 513.181 279.441C516.428 276.194 518.252 271.79 518.252 267.198V261.786H559.997Z" fill="#EBEBF0"/>
<path d="M623.15 404.866H367.487C358.267 404.866 350.793 412.34 350.793 421.559V484.516C350.793 493.735 358.267 501.209 367.487 501.209H623.15C632.37 501.209 639.844 493.735 639.844 484.516V421.559C639.844 412.34 632.37 404.866 623.15 404.866Z" fill="#3B8CF7"/>
<path d="M623.15 404.866H367.487C358.267 404.866 350.793 412.34 350.793 421.559V484.516C350.793 493.735 358.267 501.209 367.487 501.209H623.15C632.37 501.209 639.844 493.735 639.844 484.516V421.559C639.844 412.34 632.37 404.866 623.15 404.866Z" fill="#71ADFB"/>
<path d="M628.162 398.843H372.499C363.279 398.843 355.805 406.317 355.805 415.536V478.493C355.805 487.712 363.279 495.186 372.499 495.186H628.162C637.382 495.186 644.856 487.712 644.856 478.493V415.536C644.856 406.317 637.382 398.843 628.162 398.843Z" fill="white"/>
<path d="M343.484 291.701H386.715V334.929H343.484V291.701Z" fill="white"/>
<path d="M425.653 416.511H381.921C377.145 416.511 373.273 420.383 373.273 425.159V468.888C373.273 473.664 377.145 477.536 381.921 477.536H425.653C430.429 477.536 434.3 473.664 434.3 468.888V425.159C434.3 420.383 430.429 416.511 425.653 416.511Z" fill="#EBEBF0"/>
<path d="M343.484 345.272H386.715V388.5H343.484V345.272ZM343.484 515.625H386.715V558.853H343.484V515.625ZM343.484 569.196H386.715V612.424H343.484V569.196Z" fill="white"/>
<path opacity="0.38" d="M434.29 460.769V468.879C434.29 470.015 434.066 471.139 433.632 472.188C433.197 473.238 432.56 474.191 431.757 474.994C430.954 475.797 430.001 476.434 428.952 476.868C427.902 477.303 426.778 477.527 425.642 477.527H381.902C380.766 477.527 379.642 477.303 378.592 476.868C377.543 476.434 376.59 475.797 375.787 474.994C374.984 474.191 374.347 473.238 373.912 472.188C373.478 471.139 373.254 470.015 373.254 468.879V460.769C380.533 455.918 388.784 452.715 397.43 451.384C394.928 449.979 392.965 447.781 391.849 445.138C390.733 442.495 390.528 439.555 391.267 436.783C392.005 434.01 393.645 431.562 395.927 429.823C398.21 428.085 401.006 427.155 403.875 427.18C406.745 427.205 409.524 428.184 411.776 429.962C414.028 431.741 415.624 434.217 416.314 437.002C417.003 439.787 416.747 442.723 415.585 445.346C414.423 447.97 412.422 450.132 409.896 451.493C422.826 453.571 434.29 460.769 434.29 460.769Z" fill="#71ADFB"/>
<path d="M623.25 427.182H458.312C457.587 427.182 456.891 426.894 456.379 426.381C455.866 425.868 455.578 425.173 455.578 424.448C455.578 423.723 455.866 423.028 456.379 422.515C456.891 422.002 457.587 421.714 458.312 421.714H623.25C623.975 421.714 624.67 422.002 625.183 422.515C625.696 423.028 625.984 423.723 625.984 424.448C625.984 425.173 625.696 425.868 625.183 426.381C624.67 426.894 623.975 427.182 623.25 427.182Z" fill="#EBEBF0"/>
<path d="M557.355 302.991H402.842C401.413 302.991 400.254 304.148 400.254 305.574C400.254 307.001 401.413 308.158 402.842 308.158H557.355C558.784 308.158 559.943 307.001 559.943 305.574C559.943 304.148 558.784 302.991 557.355 302.991Z" fill="white"/>
<path d="M557.347 325.38H402.834C402.148 325.38 401.489 325.107 401.004 324.622C400.519 324.136 400.246 323.478 400.246 322.792C400.249 322.107 400.522 321.451 401.007 320.968C401.492 320.485 402.149 320.213 402.834 320.213H557.347C558.032 320.213 558.689 320.485 559.174 320.968C559.659 321.451 559.933 322.107 559.935 322.792C559.935 323.478 559.663 324.136 559.177 324.622C558.692 325.107 558.034 325.38 557.347 325.38ZM557.347 360.198H402.834C402.148 360.198 401.489 359.925 401.004 359.44C400.519 358.954 400.246 358.296 400.246 357.61C400.249 356.925 400.522 356.269 401.007 355.786C401.492 355.302 402.149 355.031 402.834 355.031H557.347C558.032 355.031 558.689 355.302 559.174 355.786C559.659 356.269 559.933 356.925 559.935 357.61C559.935 358.296 559.663 358.954 559.177 359.44C558.692 359.925 558.034 360.198 557.347 360.198ZM557.347 374.823H402.834C402.148 374.823 401.489 374.55 401.004 374.065C400.519 373.579 400.246 372.921 400.246 372.235C400.249 371.55 400.522 370.894 401.007 370.411C401.492 369.927 402.149 369.656 402.834 369.656H557.347C558.032 369.656 558.689 369.927 559.174 370.411C559.659 370.894 559.933 371.55 559.935 372.235C559.935 372.921 559.663 373.579 559.177 374.065C558.692 374.55 558.034 374.823 557.347 374.823ZM557.347 532.501H402.834C402.148 532.501 401.489 532.228 401.004 531.743C400.519 531.257 400.246 530.599 400.246 529.913C400.246 529.227 400.519 528.568 401.004 528.083C401.489 527.598 402.148 527.325 402.834 527.325H557.347C558.034 527.325 558.692 527.598 559.177 528.083C559.663 528.568 559.935 529.227 559.935 529.913C559.935 530.599 559.663 531.257 559.177 531.743C558.692 532.228 558.034 532.501 557.347 532.501ZM557.347 547.153H402.834C402.148 547.153 401.489 546.881 401.004 546.395C400.519 545.91 400.246 545.252 400.246 544.565C400.246 543.879 400.519 543.221 401.004 542.735C401.489 542.25 402.148 541.977 402.834 541.977H557.347C558.034 541.977 558.692 542.25 559.177 542.735C559.663 543.221 559.935 543.879 559.935 544.565C559.935 545.252 559.663 545.91 559.177 546.395C558.692 546.881 558.034 547.153 557.347 547.153ZM557.347 586.072H402.834C402.148 586.072 401.489 585.799 401.004 585.314C400.519 584.828 400.246 584.17 400.246 583.484C400.246 582.797 400.519 582.139 401.004 581.654C401.489 581.168 402.148 580.896 402.834 580.896H557.347C558.034 580.896 558.692 581.168 559.177 581.654C559.663 582.139 559.935 582.797 559.935 583.484C559.935 584.17 559.663 584.828 559.177 585.314C558.692 585.799 558.034 586.072 557.347 586.072ZM557.347 600.76H402.834C402.148 600.76 401.489 600.488 401.004 600.002C400.519 599.517 400.246 598.859 400.246 598.173C400.246 597.486 400.519 596.828 401.004 596.343C401.489 595.857 402.148 595.585 402.834 595.585H557.347C558.034 595.585 558.692 595.857 559.177 596.343C559.663 596.828 559.935 597.486 559.935 598.173C559.935 598.859 559.663 599.517 559.177 600.002C558.692 600.488 558.034 600.76 557.347 600.76Z" fill="white"/>
<path d="M623.25 444.759H458.312C457.587 444.759 456.891 444.471 456.379 443.958C455.866 443.446 455.578 442.75 455.578 442.025C455.578 441.3 455.866 440.605 456.379 440.092C456.891 439.58 457.587 439.292 458.312 439.292H623.25C623.975 439.292 624.67 439.58 625.183 440.092C625.696 440.605 625.984 441.3 625.984 442.025C625.984 442.75 625.696 443.446 625.183 443.958C624.67 444.471 623.975 444.759 623.25 444.759ZM623.25 462.346H458.312C457.587 462.346 456.891 462.058 456.379 461.545C455.866 461.032 455.578 460.337 455.578 459.612C455.578 458.887 455.866 458.192 456.379 457.679C456.891 457.166 457.587 456.878 458.312 456.878H623.25C623.975 456.878 624.67 457.166 625.183 457.679C625.696 458.192 625.984 458.887 625.984 459.612C625.984 460.337 625.696 461.032 625.183 461.545C624.67 462.058 623.975 462.346 623.25 462.346Z" fill="#EBEBF0"/>
<path d="M591.873 581.488L581.493 657.12C581.054 660.301 581.385 663.542 582.459 666.569L601.003 721.242L611.847 717.898L603.646 663.525C603.474 662.406 603.545 661.262 603.856 660.172L617.944 611.54L624.067 721.242H634.091L642.721 612.925C645.646 594.847 640.297 581.488 640.297 581.488H591.873Z" fill="#3B8CF7"/>
<path d="M645.108 514.841V566.781C645.108 573.16 644.069 578.308 637.7 578.308H593.23C586.851 578.308 586.651 573.196 586.605 566.863L586.25 531.508C586.25 531.508 576.654 548.648 569 546.998C561.345 545.349 538.637 514.03 538.637 514.03L549.936 504.526L569 523.662C569 523.662 572.053 516.7 576.509 501.118C580.965 485.536 595.436 485.463 595.436 485.463H634.109C648.07 485.418 645.108 514.841 645.108 514.841Z" fill="#FFD233"/>
<path d="M644.853 462.346C644.853 462.346 658.969 491.313 659.716 501.218C660.463 511.123 645.363 524.582 645.363 524.582L634.109 485.4H644.853V462.346Z" fill="#3B8CF7"/>
<path d="M644.853 462.346C644.853 462.346 658.969 491.313 659.716 501.218C660.463 511.123 645.363 524.582 645.363 524.582L634.109 485.4H644.853V462.346Z" fill="#FFD233"/>
<path d="M645.365 524.582C645.365 524.582 654.569 499.287 653.567 493.464C652.564 487.641 644.855 469.307 644.855 469.307V485.418L631.277 485.7L645.365 524.582Z" fill="#FFD233"/>
<path d="M591.875 577.953H640.318V581.488H591.875V577.953Z" fill="#3B8CF7"/>
<path d="M608.379 450.154H622.358V485.7H608.379V450.154Z" fill="url(#paint2_linear_2179_42105)"/>
<path d="M622.391 446.254V485.7H615.019V483.295C615.019 482.595 614.881 481.902 614.613 481.256C614.345 480.61 613.952 480.023 613.457 479.529C612.962 479.034 612.374 478.643 611.728 478.376C611.081 478.109 610.388 477.972 609.688 477.973H609.269C607.525 477.98 605.796 477.643 604.182 476.98C602.568 476.318 601.101 475.343 599.865 474.112C598.629 472.881 597.648 471.418 596.979 469.807C596.309 468.196 595.965 466.469 595.965 464.724V446.254H622.391Z" fill="url(#paint3_linear_2179_42105)"/>
<path d="M599.509 434.207C602.452 432.53 605.997 432.385 609.396 432.284L616.631 432.075C618.234 431.976 619.843 432.037 621.434 432.257C623.181 432.552 624.84 433.235 626.289 434.256C627.737 435.277 628.938 436.61 629.803 438.157C630.668 439.704 631.174 441.425 631.286 443.194C631.397 444.962 631.11 446.734 630.446 448.377C630.162 448.948 629.98 449.565 629.908 450.199C629.908 451.211 630.564 452.085 630.911 453.033C631.913 455.721 630.282 458.655 628.459 460.879C626.637 463.102 624.477 465.362 624.213 468.223C624.131 469.134 624.213 470.228 623.602 470.957C623.218 471.314 622.722 471.529 622.198 471.566C621.674 471.602 621.153 471.458 620.723 471.157C619.88 470.534 619.194 469.723 618.718 468.788C618.791 470.137 616.896 470.884 615.711 470.255C615.151 469.87 614.68 469.37 614.328 468.789C613.976 468.208 613.751 467.558 613.67 466.884C613.506 465.537 613.092 464.233 612.449 463.038C611.829 462.127 610.845 461.48 610.517 460.441C609.943 458.619 611.747 456.578 611.063 454.764C610.498 453.288 608.466 452.851 607.008 453.479C605.611 454.242 604.443 455.365 603.628 456.733C604.967 454.91 603.865 451.785 602.479 450.308C600.21 447.885 596.793 449.935 594.898 448.194C591.28 444.85 596.301 436.03 599.509 434.207Z" fill="#3F3D56"/>
<path d="M619.23 485.628C619.23 485.628 613.808 492.726 606.29 492.726C598.772 492.726 576.829 514.194 575.398 520.691C573.968 527.188 569.02 523.616 569.02 523.616C569.02 523.616 572.072 516.655 576.528 501.073C580.984 485.491 595.455 485.418 595.455 485.418H615.102L619.23 485.628Z" fill="#FFD233"/>
<path d="M611.851 716.996L615.678 726.382L600.241 733.671L585.944 734.71C585.944 734.71 583.501 725.316 590.181 724.477C594.076 724.038 597.793 722.6 600.97 720.304L611.851 716.996ZM624.098 721.242C622.162 722.039 620.478 723.347 619.226 725.025C617.975 726.704 617.202 728.691 616.99 730.774L616.589 734.738H634.113V721.242H624.098Z" fill="#333333"/>
<path d="M549.94 504.508L542.568 495.396C542.568 495.396 540.053 485.673 538.64 491.696C537.847 495.077 535.596 501.191 535.596 501.191H524.297C524.297 501.191 532.225 509.565 535.596 511.096C537.137 511.775 538.761 512.244 540.426 512.49L549.94 504.508Z" fill="url(#paint4_linear_2179_42105)"/>
</g>
<path d="M232.062 783.54H230.226L231.954 779.454H233.124L232.062 783.54ZM234.978 783.54H233.142L234.87 779.454H236.04L234.978 783.54ZM245.11 779.454V780.786H239.656V785.016H244.084V786.348H239.656V792H238.018V779.454H245.11ZM247.934 780.534C247.622 780.534 247.358 780.426 247.142 780.21C246.926 779.994 246.818 779.73 246.818 779.418C246.818 779.106 246.926 778.842 247.142 778.626C247.358 778.41 247.622 778.302 247.934 778.302C248.234 778.302 248.486 778.41 248.69 778.626C248.906 778.842 249.014 779.106 249.014 779.418C249.014 779.73 248.906 779.994 248.69 780.21C248.486 780.426 248.234 780.534 247.934 780.534ZM248.726 782.136V792H247.088V782.136H248.726ZM253.156 778.68V792H251.518V778.68H253.156ZM257.586 778.68V792H255.948V778.68H257.586ZM273.672 782.136L267.732 796.644H266.04L267.984 791.892L264.006 782.136H265.824L268.92 790.128L271.98 782.136H273.672ZM279.621 792.162C278.697 792.162 277.857 791.952 277.101 791.532C276.357 791.112 275.769 790.518 275.337 789.75C274.917 788.97 274.707 788.07 274.707 787.05C274.707 786.042 274.923 785.154 275.355 784.386C275.799 783.606 276.399 783.012 277.155 782.604C277.911 782.184 278.757 781.974 279.693 781.974C280.629 781.974 281.475 782.184 282.231 782.604C282.987 783.012 283.581 783.6 284.013 784.368C284.457 785.136 284.679 786.03 284.679 787.05C284.679 788.07 284.451 788.97 283.995 789.75C283.551 790.518 282.945 791.112 282.177 791.532C281.409 791.952 280.557 792.162 279.621 792.162ZM279.621 790.722C280.209 790.722 280.761 790.584 281.277 790.308C281.793 790.032 282.207 789.618 282.519 789.066C282.843 788.514 283.005 787.842 283.005 787.05C283.005 786.258 282.849 785.586 282.537 785.034C282.225 784.482 281.817 784.074 281.313 783.81C280.809 783.534 280.263 783.396 279.675 783.396C279.075 783.396 278.523 783.534 278.019 783.81C277.527 784.074 277.131 784.482 276.831 785.034C276.531 785.586 276.381 786.258 276.381 787.05C276.381 787.854 276.525 788.532 276.813 789.084C277.113 789.636 277.509 790.05 278.001 790.326C278.493 790.59 279.033 790.722 279.621 790.722ZM295.58 782.136V792H293.942V790.542C293.63 791.046 293.192 791.442 292.628 791.73C292.076 792.006 291.464 792.144 290.792 792.144C290.024 792.144 289.334 791.988 288.722 791.676C288.11 791.352 287.624 790.872 287.264 790.236C286.916 789.6 286.742 788.826 286.742 787.914V782.136H288.362V787.698C288.362 788.67 288.608 789.42 289.1 789.948C289.592 790.464 290.264 790.722 291.116 790.722C291.992 790.722 292.682 790.452 293.186 789.912C293.69 789.372 293.942 788.586 293.942 787.554V782.136H295.58ZM299.984 783.738C300.272 783.174 300.68 782.736 301.208 782.424C301.748 782.112 302.402 781.956 303.17 781.956V783.648H302.738C300.902 783.648 299.984 784.644 299.984 786.636V792H298.346V782.136H299.984V783.738ZM310.706 780.534C310.394 780.534 310.13 780.426 309.914 780.21C309.698 779.994 309.59 779.73 309.59 779.418C309.59 779.106 309.698 778.842 309.914 778.626C310.13 778.41 310.394 778.302 310.706 778.302C311.006 778.302 311.258 778.41 311.462 778.626C311.678 778.842 311.786 779.106 311.786 779.418C311.786 779.73 311.678 779.994 311.462 780.21C311.258 780.426 311.006 780.534 310.706 780.534ZM311.498 782.136V792H309.86V782.136H311.498ZM319.095 781.956C320.295 781.956 321.267 782.322 322.011 783.054C322.755 783.774 323.127 784.818 323.127 786.186V792H321.507V786.42C321.507 785.436 321.261 784.686 320.769 784.17C320.277 783.642 319.605 783.378 318.753 783.378C317.889 783.378 317.199 783.648 316.683 784.188C316.179 784.728 315.927 785.514 315.927 786.546V792H314.289V782.136H315.927V783.54C316.251 783.036 316.689 782.646 317.241 782.37C317.805 782.094 318.423 781.956 319.095 781.956ZM329.817 783.486H327.747V792H326.109V783.486H324.831V782.136H326.109V781.434C326.109 780.33 326.391 779.526 326.955 779.022C327.531 778.506 328.449 778.248 329.709 778.248V779.616C328.989 779.616 328.479 779.76 328.179 780.048C327.891 780.324 327.747 780.786 327.747 781.434V782.136H329.817V783.486ZM336.029 792.162C335.105 792.162 334.265 791.952 333.509 791.532C332.765 791.112 332.177 790.518 331.745 789.75C331.325 788.97 331.115 788.07 331.115 787.05C331.115 786.042 331.331 785.154 331.763 784.386C332.207 783.606 332.807 783.012 333.563 782.604C334.319 782.184 335.165 781.974 336.101 781.974C337.037 781.974 337.883 782.184 338.639 782.604C339.395 783.012 339.989 783.6 340.421 784.368C340.865 785.136 341.087 786.03 341.087 787.05C341.087 788.07 340.859 788.97 340.403 789.75C339.959 790.518 339.353 791.112 338.585 791.532C337.817 791.952 336.965 792.162 336.029 792.162ZM336.029 790.722C336.617 790.722 337.169 790.584 337.685 790.308C338.201 790.032 338.615 789.618 338.927 789.066C339.251 788.514 339.413 787.842 339.413 787.05C339.413 786.258 339.257 785.586 338.945 785.034C338.633 784.482 338.225 784.074 337.721 783.81C337.217 783.534 336.671 783.396 336.083 783.396C335.483 783.396 334.931 783.534 334.427 783.81C333.935 784.074 333.539 784.482 333.239 785.034C332.939 785.586 332.789 786.258 332.789 787.05C332.789 787.854 332.933 788.532 333.221 789.084C333.521 789.636 333.917 790.05 334.409 790.326C334.901 790.59 335.441 790.722 336.029 790.722ZM344.878 783.738C345.166 783.174 345.574 782.736 346.102 782.424C346.642 782.112 347.296 781.956 348.064 781.956V783.648H347.632C345.796 783.648 344.878 784.644 344.878 786.636V792H343.24V782.136H344.878V783.738ZM361.817 781.956C362.585 781.956 363.269 782.118 363.869 782.442C364.469 782.754 364.943 783.228 365.291 783.864C365.639 784.5 365.813 785.274 365.813 786.186V792H364.193V786.42C364.193 785.436 363.947 784.686 363.455 784.17C362.975 783.642 362.321 783.378 361.493 783.378C360.641 783.378 359.963 783.654 359.459 784.206C358.955 784.746 358.703 785.532 358.703 786.564V792H357.083V786.42C357.083 785.436 356.837 784.686 356.345 784.17C355.865 783.642 355.211 783.378 354.383 783.378C353.531 783.378 352.853 783.654 352.349 784.206C351.845 784.746 351.593 785.532 351.593 786.564V792H349.955V782.136H351.593V783.558C351.917 783.042 352.349 782.646 352.889 782.37C353.441 782.094 354.047 781.956 354.707 781.956C355.535 781.956 356.267 782.142 356.903 782.514C357.539 782.886 358.013 783.432 358.325 784.152C358.601 783.456 359.057 782.916 359.693 782.532C360.329 782.148 361.037 781.956 361.817 781.956ZM367.888 787.032C367.888 786.024 368.092 785.142 368.5 784.386C368.908 783.618 369.466 783.024 370.174 782.604C370.894 782.184 371.692 781.974 372.568 781.974C373.432 781.974 374.182 782.16 374.818 782.532C375.454 782.904 375.928 783.372 376.24 783.936V782.136H377.896V792H376.24V790.164C375.916 790.74 375.43 791.22 374.782 791.604C374.146 791.976 373.402 792.162 372.55 792.162C371.674 792.162 370.882 791.946 370.174 791.514C369.466 791.082 368.908 790.476 368.5 789.696C368.092 788.916 367.888 788.028 367.888 787.032ZM376.24 787.05C376.24 786.306 376.09 785.658 375.79 785.106C375.49 784.554 375.082 784.134 374.566 783.846C374.062 783.546 373.504 783.396 372.892 783.396C372.28 783.396 371.722 783.54 371.218 783.828C370.714 784.116 370.312 784.536 370.012 785.088C369.712 785.64 369.562 786.288 369.562 787.032C369.562 787.788 369.712 788.448 370.012 789.012C370.312 789.564 370.714 789.99 371.218 790.29C371.722 790.578 372.28 790.722 372.892 790.722C373.504 790.722 374.062 790.578 374.566 790.29C375.082 789.99 375.49 789.564 375.79 789.012C376.09 788.448 376.24 787.794 376.24 787.05ZM382.662 783.486V789.3C382.662 789.78 382.764 790.122 382.968 790.326C383.172 790.518 383.526 790.614 384.03 790.614H385.236V792H383.76C382.848 792 382.164 791.79 381.708 791.37C381.252 790.95 381.024 790.26 381.024 789.3V783.486H379.746V782.136H381.024V779.652H382.662V782.136H385.236V783.486H382.662ZM388.067 780.534C387.755 780.534 387.491 780.426 387.275 780.21C387.059 779.994 386.951 779.73 386.951 779.418C386.951 779.106 387.059 778.842 387.275 778.626C387.491 778.41 387.755 778.302 388.067 778.302C388.367 778.302 388.619 778.41 388.823 778.626C389.039 778.842 389.147 779.106 389.147 779.418C389.147 779.73 389.039 779.994 388.823 780.21C388.619 780.426 388.367 780.534 388.067 780.534ZM388.859 782.136V792H387.221V782.136H388.859ZM395.953 792.162C395.029 792.162 394.189 791.952 393.433 791.532C392.689 791.112 392.101 790.518 391.669 789.75C391.249 788.97 391.039 788.07 391.039 787.05C391.039 786.042 391.255 785.154 391.687 784.386C392.131 783.606 392.731 783.012 393.487 782.604C394.243 782.184 395.089 781.974 396.025 781.974C396.961 781.974 397.807 782.184 398.563 782.604C399.319 783.012 399.913 783.6 400.345 784.368C400.789 785.136 401.011 786.03 401.011 787.05C401.011 788.07 400.783 788.97 400.327 789.75C399.883 790.518 399.277 791.112 398.509 791.532C397.741 791.952 396.889 792.162 395.953 792.162ZM395.953 790.722C396.541 790.722 397.093 790.584 397.609 790.308C398.125 790.032 398.539 789.618 398.851 789.066C399.175 788.514 399.337 787.842 399.337 787.05C399.337 786.258 399.181 785.586 398.869 785.034C398.557 784.482 398.149 784.074 397.645 783.81C397.141 783.534 396.595 783.396 396.007 783.396C395.407 783.396 394.855 783.534 394.351 783.81C393.859 784.074 393.463 784.482 393.163 785.034C392.863 785.586 392.713 786.258 392.713 787.05C392.713 787.854 392.857 788.532 393.145 789.084C393.445 789.636 393.841 790.05 394.333 790.326C394.825 790.59 395.365 790.722 395.953 790.722ZM407.97 781.956C409.17 781.956 410.142 782.322 410.886 783.054C411.63 783.774 412.002 784.818 412.002 786.186V792H410.382V786.42C410.382 785.436 410.136 784.686 409.644 784.17C409.152 783.642 408.48 783.378 407.628 783.378C406.764 783.378 406.074 783.648 405.558 784.188C405.054 784.728 404.802 785.514 404.802 786.546V792H403.164V782.136H404.802V783.54C405.126 783.036 405.564 782.646 406.116 782.37C406.68 782.094 407.298 781.956 407.97 781.956ZM418.865 787.032C418.865 786.024 419.069 785.142 419.477 784.386C419.885 783.618 420.443 783.024 421.151 782.604C421.871 782.184 422.669 781.974 423.545 781.974C424.409 781.974 425.159 782.16 425.795 782.532C426.431 782.904 426.905 783.372 427.217 783.936V782.136H428.873V792H427.217V790.164C426.893 790.74 426.407 791.22 425.759 791.604C425.123 791.976 424.379 792.162 423.527 792.162C422.651 792.162 421.859 791.946 421.151 791.514C420.443 791.082 419.885 790.476 419.477 789.696C419.069 788.916 418.865 788.028 418.865 787.032ZM427.217 787.05C427.217 786.306 427.067 785.658 426.767 785.106C426.467 784.554 426.059 784.134 425.543 783.846C425.039 783.546 424.481 783.396 423.869 783.396C423.257 783.396 422.699 783.54 422.195 783.828C421.691 784.116 421.289 784.536 420.989 785.088C420.689 785.64 420.539 786.288 420.539 787.032C420.539 787.788 420.689 788.448 420.989 789.012C421.289 789.564 421.691 789.99 422.195 790.29C422.699 790.578 423.257 790.722 423.869 790.722C424.481 790.722 425.039 790.578 425.543 790.29C426.059 789.99 426.467 789.564 426.767 789.012C427.067 788.448 427.217 787.794 427.217 787.05ZM436.447 781.956C437.647 781.956 438.619 782.322 439.363 783.054C440.107 783.774 440.479 784.818 440.479 786.186V792H438.859V786.42C438.859 785.436 438.613 784.686 438.121 784.17C437.629 783.642 436.957 783.378 436.105 783.378C435.241 783.378 434.551 783.648 434.035 784.188C433.531 784.728 433.279 785.514 433.279 786.546V792H431.641V782.136H433.279V783.54C433.603 783.036 434.041 782.646 434.593 782.37C435.157 782.094 435.775 781.956 436.447 781.956ZM442.543 787.032C442.543 786.024 442.747 785.142 443.155 784.386C443.563 783.618 444.121 783.024 444.829 782.604C445.549 782.184 446.353 781.974 447.241 781.974C448.009 781.974 448.723 782.154 449.383 782.514C450.043 782.862 450.547 783.324 450.895 783.9V778.68H452.551V792H450.895V790.146C450.571 790.734 450.091 791.22 449.455 791.604C448.819 791.976 448.075 792.162 447.223 792.162C446.347 792.162 445.549 791.946 444.829 791.514C444.121 791.082 443.563 790.476 443.155 789.696C442.747 788.916 442.543 788.028 442.543 787.032ZM450.895 787.05C450.895 786.306 450.745 785.658 450.445 785.106C450.145 784.554 449.737 784.134 449.221 783.846C448.717 783.546 448.159 783.396 447.547 783.396C446.935 783.396 446.377 783.54 445.873 783.828C445.369 784.116 444.967 784.536 444.667 785.088C444.367 785.64 444.217 786.288 444.217 787.032C444.217 787.788 444.367 788.448 444.667 789.012C444.967 789.564 445.369 789.99 445.873 790.29C446.377 790.578 446.935 790.722 447.547 790.722C448.159 790.722 448.717 790.578 449.221 790.29C449.737 789.99 450.145 789.564 450.445 789.012C450.745 788.448 450.895 787.794 450.895 787.05ZM459.505 787.032C459.505 786.024 459.709 785.142 460.117 784.386C460.525 783.618 461.083 783.024 461.791 782.604C462.511 782.184 463.309 781.974 464.185 781.974C465.049 781.974 465.799 782.16 466.435 782.532C467.071 782.904 467.545 783.372 467.857 783.936V782.136H469.513V792H467.857V790.164C467.533 790.74 467.047 791.22 466.399 791.604C465.763 791.976 465.019 792.162 464.167 792.162C463.291 792.162 462.499 791.946 461.791 791.514C461.083 791.082 460.525 790.476 460.117 789.696C459.709 788.916 459.505 788.028 459.505 787.032ZM467.857 787.05C467.857 786.306 467.707 785.658 467.407 785.106C467.107 784.554 466.699 784.134 466.183 783.846C465.679 783.546 465.121 783.396 464.509 783.396C463.897 783.396 463.339 783.54 462.835 783.828C462.331 784.116 461.929 784.536 461.629 785.088C461.329 785.64 461.179 786.288 461.179 787.032C461.179 787.788 461.329 788.448 461.629 789.012C461.929 789.564 462.331 789.99 462.835 790.29C463.339 790.578 463.897 790.722 464.509 790.722C465.121 790.722 465.679 790.578 466.183 790.29C466.699 789.99 467.107 789.564 467.407 789.012C467.707 788.448 467.857 787.794 467.857 787.05ZM480.572 792.162C479.816 792.162 479.138 792.036 478.538 791.784C477.938 791.52 477.464 791.16 477.116 790.704C476.768 790.236 476.576 789.702 476.54 789.102H478.232C478.28 789.594 478.508 789.996 478.916 790.308C479.336 790.62 479.882 790.776 480.554 790.776C481.178 790.776 481.67 790.638 482.03 790.362C482.39 790.086 482.57 789.738 482.57 789.318C482.57 788.886 482.378 788.568 481.994 788.364C481.61 788.148 481.016 787.938 480.212 787.734C479.48 787.542 478.88 787.35 478.412 787.158C477.956 786.954 477.56 786.66 477.224 786.276C476.9 785.88 476.738 785.364 476.738 784.728C476.738 784.224 476.888 783.762 477.188 783.342C477.488 782.922 477.914 782.592 478.466 782.352C479.018 782.1 479.648 781.974 480.356 781.974C481.448 781.974 482.33 782.25 483.002 782.802C483.674 783.354 484.034 784.11 484.082 785.07H482.444C482.408 784.554 482.198 784.14 481.814 783.828C481.442 783.516 480.938 783.36 480.302 783.36C479.714 783.36 479.246 783.486 478.898 783.738C478.55 783.99 478.376 784.32 478.376 784.728C478.376 785.052 478.478 785.322 478.682 785.538C478.898 785.742 479.162 785.91 479.474 786.042C479.798 786.162 480.242 786.3 480.806 786.456C481.514 786.648 482.09 786.84 482.534 787.032C482.978 787.212 483.356 787.488 483.668 787.86C483.992 788.232 484.16 788.718 484.172 789.318C484.172 789.858 484.022 790.344 483.722 790.776C483.422 791.208 482.996 791.55 482.444 791.802C481.904 792.042 481.28 792.162 480.572 792.162ZM491.381 781.956C492.125 781.956 492.797 782.118 493.397 782.442C493.997 782.754 494.465 783.228 494.801 783.864C495.149 784.5 495.323 785.274 495.323 786.186V792H493.703V786.42C493.703 785.436 493.457 784.686 492.965 784.17C492.473 783.642 491.801 783.378 490.949 783.378C490.085 783.378 489.395 783.648 488.879 784.188C488.375 784.728 488.123 785.514 488.123 786.546V792H486.485V778.68H488.123V783.54C488.447 783.036 488.891 782.646 489.455 782.37C490.031 782.094 490.673 781.956 491.381 781.956ZM502.3 792.162C501.376 792.162 500.536 791.952 499.78 791.532C499.036 791.112 498.448 790.518 498.016 789.75C497.596 788.97 497.386 788.07 497.386 787.05C497.386 786.042 497.602 785.154 498.034 784.386C498.478 783.606 499.078 783.012 499.834 782.604C500.59 782.184 501.436 781.974 502.372 781.974C503.308 781.974 504.154 782.184 504.91 782.604C505.666 783.012 506.26 783.6 506.692 784.368C507.136 785.136 507.358 786.03 507.358 787.05C507.358 788.07 507.13 788.97 506.674 789.75C506.23 790.518 505.624 791.112 504.856 791.532C504.088 791.952 503.236 792.162 502.3 792.162ZM502.3 790.722C502.888 790.722 503.44 790.584 503.956 790.308C504.472 790.032 504.886 789.618 505.198 789.066C505.522 788.514 505.684 787.842 505.684 787.05C505.684 786.258 505.528 785.586 505.216 785.034C504.904 784.482 504.496 784.074 503.992 783.81C503.488 783.534 502.942 783.396 502.354 783.396C501.754 783.396 501.202 783.534 500.698 783.81C500.206 784.074 499.81 784.482 499.51 785.034C499.21 785.586 499.06 786.258 499.06 787.05C499.06 787.854 499.204 788.532 499.492 789.084C499.792 789.636 500.188 790.05 500.68 790.326C501.172 790.59 501.712 790.722 502.3 790.722ZM511.15 783.738C511.438 783.174 511.846 782.736 512.374 782.424C512.914 782.112 513.568 781.956 514.336 781.956V783.648H513.904C512.068 783.648 511.15 784.644 511.15 786.636V792H509.512V782.136H511.15V783.738ZM518.225 783.486V789.3C518.225 789.78 518.327 790.122 518.531 790.326C518.735 790.518 519.089 790.614 519.593 790.614H520.799V792H519.323C518.411 792 517.727 791.79 517.271 791.37C516.815 790.95 516.587 790.26 516.587 789.3V783.486H515.309V782.136H516.587V779.652H518.225V782.136H520.799V783.486H518.225ZM526.97 787.032C526.97 786.024 527.174 785.142 527.582 784.386C527.99 783.618 528.548 783.024 529.256 782.604C529.976 782.184 530.78 781.974 531.668 781.974C532.436 781.974 533.15 782.154 533.81 782.514C534.47 782.862 534.974 783.324 535.322 783.9V778.68H536.978V792H535.322V790.146C534.998 790.734 534.518 791.22 533.882 791.604C533.246 791.976 532.502 792.162 531.65 792.162C530.774 792.162 529.976 791.946 529.256 791.514C528.548 791.082 527.99 790.476 527.582 789.696C527.174 788.916 526.97 788.028 526.97 787.032ZM535.322 787.05C535.322 786.306 535.172 785.658 534.872 785.106C534.572 784.554 534.164 784.134 533.648 783.846C533.144 783.546 532.586 783.396 531.974 783.396C531.362 783.396 530.804 783.54 530.3 783.828C529.796 784.116 529.394 784.536 529.094 785.088C528.794 785.64 528.644 786.288 528.644 787.032C528.644 787.788 528.794 788.448 529.094 789.012C529.394 789.564 529.796 789.99 530.3 790.29C530.804 790.578 531.362 790.722 531.974 790.722C532.586 790.722 533.144 790.578 533.648 790.29C534.164 789.99 534.572 789.564 534.872 789.012C535.172 788.448 535.322 787.794 535.322 787.05ZM548.746 786.69C548.746 787.002 548.728 787.332 548.692 787.68H540.808C540.868 788.652 541.198 789.414 541.798 789.966C542.41 790.506 543.148 790.776 544.012 790.776C544.72 790.776 545.308 790.614 545.776 790.29C546.256 789.954 546.592 789.51 546.784 788.958H548.548C548.284 789.906 547.756 790.68 546.964 791.28C546.172 791.868 545.188 792.162 544.012 792.162C543.076 792.162 542.236 791.952 541.492 791.532C540.76 791.112 540.184 790.518 539.764 789.75C539.344 788.97 539.134 788.07 539.134 787.05C539.134 786.03 539.338 785.136 539.746 784.368C540.154 783.6 540.724 783.012 541.456 782.604C542.2 782.184 543.052 781.974 544.012 781.974C544.948 781.974 545.776 782.178 546.496 782.586C547.216 782.994 547.768 783.558 548.152 784.278C548.548 784.986 548.746 785.79 548.746 786.69ZM547.054 786.348C547.054 785.724 546.916 785.19 546.64 784.746C546.364 784.29 545.986 783.948 545.506 783.72C545.038 783.48 544.516 783.36 543.94 783.36C543.112 783.36 542.404 783.624 541.816 784.152C541.24 784.68 540.91 785.412 540.826 786.348H547.054ZM554.4 792.162C553.644 792.162 552.966 792.036 552.366 791.784C551.766 791.52 551.292 791.16 550.944 790.704C550.596 790.236 550.404 789.702 550.368 789.102H552.06C552.108 789.594 552.336 789.996 552.744 790.308C553.164 790.62 553.71 790.776 554.382 790.776C555.006 790.776 555.498 790.638 555.858 790.362C556.218 790.086 556.398 789.738 556.398 789.318C556.398 788.886 556.206 788.568 555.822 788.364C555.438 788.148 554.844 787.938 554.04 787.734C553.308 787.542 552.708 787.35 552.24 787.158C551.784 786.954 551.388 786.66 551.052 786.276C550.728 785.88 550.566 785.364 550.566 784.728C550.566 784.224 550.716 783.762 551.016 783.342C551.316 782.922 551.742 782.592 552.294 782.352C552.846 782.1 553.476 781.974 554.184 781.974C555.276 781.974 556.158 782.25 556.83 782.802C557.502 783.354 557.862 784.11 557.91 785.07H556.272C556.236 784.554 556.026 784.14 555.642 783.828C555.27 783.516 554.766 783.36 554.13 783.36C553.542 783.36 553.074 783.486 552.726 783.738C552.378 783.99 552.204 784.32 552.204 784.728C552.204 785.052 552.306 785.322 552.51 785.538C552.726 785.742 552.99 785.91 553.302 786.042C553.626 786.162 554.07 786.3 554.634 786.456C555.342 786.648 555.918 786.84 556.362 787.032C556.806 787.212 557.184 787.488 557.496 787.86C557.82 788.232 557.988 788.718 558 789.318C558 789.858 557.85 790.344 557.55 790.776C557.25 791.208 556.824 791.55 556.272 791.802C555.732 792.042 555.108 792.162 554.4 792.162ZM559.701 787.05C559.701 786.03 559.905 785.142 560.313 784.386C560.721 783.618 561.285 783.024 562.005 782.604C562.737 782.184 563.571 781.974 564.507 781.974C565.719 781.974 566.715 782.268 567.495 782.856C568.287 783.444 568.809 784.26 569.061 785.304H567.297C567.129 784.704 566.799 784.23 566.307 783.882C565.827 783.534 565.227 783.36 564.507 783.36C563.571 783.36 562.815 783.684 562.239 784.332C561.663 784.968 561.375 785.874 561.375 787.05C561.375 788.238 561.663 789.156 562.239 789.804C562.815 790.452 563.571 790.776 564.507 790.776C565.227 790.776 565.827 790.608 566.307 790.272C566.787 789.936 567.117 789.456 567.297 788.832H569.061C568.797 789.84 568.269 790.65 567.477 791.262C566.685 791.862 565.695 792.162 564.507 792.162C563.571 792.162 562.737 791.952 562.005 791.532C561.285 791.112 560.721 790.518 560.313 789.75C559.905 788.982 559.701 788.082 559.701 787.05ZM572.884 783.738C573.172 783.174 573.58 782.736 574.108 782.424C574.648 782.112 575.302 781.956 576.07 781.956V783.648H575.638C573.802 783.648 572.884 784.644 572.884 786.636V792H571.246V782.136H572.884V783.738ZM578.807 780.534C578.495 780.534 578.231 780.426 578.015 780.21C577.799 779.994 577.691 779.73 577.691 779.418C577.691 779.106 577.799 778.842 578.015 778.626C578.231 778.41 578.495 778.302 578.807 778.302C579.107 778.302 579.359 778.41 579.563 778.626C579.779 778.842 579.887 779.106 579.887 779.418C579.887 779.73 579.779 779.994 579.563 780.21C579.359 780.426 579.107 780.534 578.807 780.534ZM579.599 782.136V792H577.961V782.136H579.599ZM584.029 783.954C584.353 783.39 584.833 782.922 585.469 782.55C586.117 782.166 586.867 781.974 587.719 781.974C588.595 781.974 589.387 782.184 590.095 782.604C590.815 783.024 591.379 783.618 591.787 784.386C592.195 785.142 592.399 786.024 592.399 787.032C592.399 788.028 592.195 788.916 591.787 789.696C591.379 790.476 590.815 791.082 590.095 791.514C589.387 791.946 588.595 792.162 587.719 792.162C586.879 792.162 586.135 791.976 585.487 791.604C584.851 791.22 584.365 790.746 584.029 790.182V796.68H582.391V782.136H584.029V783.954ZM590.725 787.032C590.725 786.288 590.575 785.64 590.275 785.088C589.975 784.536 589.567 784.116 589.051 783.828C588.547 783.54 587.989 783.396 587.377 783.396C586.777 783.396 586.219 783.546 585.703 783.846C585.199 784.134 584.791 784.56 584.479 785.124C584.179 785.676 584.029 786.318 584.029 787.05C584.029 787.794 584.179 788.448 584.479 789.012C584.791 789.564 585.199 789.99 585.703 790.29C586.219 790.578 586.777 790.722 587.377 790.722C587.989 790.722 588.547 790.578 589.051 790.29C589.567 789.99 589.975 789.564 590.275 789.012C590.575 788.448 590.725 787.788 590.725 787.032ZM596.553 783.486V789.3C596.553 789.78 596.655 790.122 596.859 790.326C597.063 790.518 597.417 790.614 597.921 790.614H599.127V792H597.651C596.739 792 596.055 791.79 595.599 791.37C595.143 790.95 594.915 790.26 594.915 789.3V783.486H593.637V782.136H594.915V779.652H596.553V782.136H599.127V783.486H596.553ZM601.958 780.534C601.646 780.534 601.382 780.426 601.166 780.21C600.95 779.994 600.842 779.73 600.842 779.418C600.842 779.106 600.95 778.842 601.166 778.626C601.382 778.41 601.646 778.302 601.958 778.302C602.258 778.302 602.51 778.41 602.714 778.626C602.93 778.842 603.038 779.106 603.038 779.418C603.038 779.73 602.93 779.994 602.714 780.21C602.51 780.426 602.258 780.534 601.958 780.534ZM602.75 782.136V792H601.112V782.136H602.75ZM609.843 792.162C608.919 792.162 608.079 791.952 607.323 791.532C606.579 791.112 605.991 790.518 605.559 789.75C605.139 788.97 604.929 788.07 604.929 787.05C604.929 786.042 605.145 785.154 605.577 784.386C606.021 783.606 606.621 783.012 607.377 782.604C608.133 782.184 608.979 781.974 609.915 781.974C610.851 781.974 611.697 782.184 612.453 782.604C613.209 783.012 613.803 783.6 614.235 784.368C614.679 785.136 614.901 786.03 614.901 787.05C614.901 788.07 614.673 788.97 614.217 789.75C613.773 790.518 613.167 791.112 612.399 791.532C611.631 791.952 610.779 792.162 609.843 792.162ZM609.843 790.722C610.431 790.722 610.983 790.584 611.499 790.308C612.015 790.032 612.429 789.618 612.741 789.066C613.065 788.514 613.227 787.842 613.227 787.05C613.227 786.258 613.071 785.586 612.759 785.034C612.447 784.482 612.039 784.074 611.535 783.81C611.031 783.534 610.485 783.396 609.897 783.396C609.297 783.396 608.745 783.534 608.241 783.81C607.749 784.074 607.353 784.482 607.053 785.034C606.753 785.586 606.603 786.258 606.603 787.05C606.603 787.854 606.747 788.532 607.035 789.084C607.335 789.636 607.731 790.05 608.223 790.326C608.715 790.59 609.255 790.722 609.843 790.722ZM621.861 781.956C623.061 781.956 624.033 782.322 624.777 783.054C625.521 783.774 625.893 784.818 625.893 786.186V792H624.273V786.42C624.273 785.436 624.027 784.686 623.535 784.17C623.043 783.642 622.371 783.378 621.519 783.378C620.655 783.378 619.965 783.648 619.449 784.188C618.945 784.728 618.693 785.514 618.693 786.546V792H617.055V782.136H618.693V783.54C619.017 783.036 619.455 782.646 620.007 782.37C620.571 782.094 621.189 781.956 621.861 781.956ZM635.365 783.486V789.3C635.365 789.78 635.467 790.122 635.671 790.326C635.875 790.518 636.229 790.614 636.733 790.614H637.939V792H636.463C635.551 792 634.867 791.79 634.411 791.37C633.955 790.95 633.727 790.26 633.727 789.3V783.486H632.449V782.136H633.727V779.652H635.365V782.136H637.939V783.486H635.365ZM644.226 792.162C643.302 792.162 642.462 791.952 641.706 791.532C640.962 791.112 640.374 790.518 639.942 789.75C639.522 788.97 639.312 788.07 639.312 787.05C639.312 786.042 639.528 785.154 639.96 784.386C640.404 783.606 641.004 783.012 641.76 782.604C642.516 782.184 643.362 781.974 644.298 781.974C645.234 781.974 646.08 782.184 646.836 782.604C647.592 783.012 648.186 783.6 648.618 784.368C649.062 785.136 649.284 786.03 649.284 787.05C649.284 788.07 649.056 788.97 648.6 789.75C648.156 790.518 647.55 791.112 646.782 791.532C646.014 791.952 645.162 792.162 644.226 792.162ZM644.226 790.722C644.814 790.722 645.366 790.584 645.882 790.308C646.398 790.032 646.812 789.618 647.124 789.066C647.448 788.514 647.61 787.842 647.61 787.05C647.61 786.258 647.454 785.586 647.142 785.034C646.83 784.482 646.422 784.074 645.918 783.81C645.414 783.534 644.868 783.396 644.28 783.396C643.68 783.396 643.128 783.534 642.624 783.81C642.132 784.074 641.736 784.482 641.436 785.034C641.136 785.586 640.986 786.258 640.986 787.05C640.986 787.854 641.13 788.532 641.418 789.084C641.718 789.636 642.114 790.05 642.606 790.326C643.098 790.59 643.638 790.722 644.226 790.722ZM655.625 787.032C655.625 786.024 655.829 785.142 656.237 784.386C656.645 783.618 657.203 783.024 657.911 782.604C658.631 782.184 659.435 781.974 660.323 781.974C661.091 781.974 661.805 782.154 662.465 782.514C663.125 782.862 663.629 783.324 663.977 783.9V778.68H665.633V792H663.977V790.146C663.653 790.734 663.173 791.22 662.537 791.604C661.901 791.976 661.157 792.162 660.305 792.162C659.429 792.162 658.631 791.946 657.911 791.514C657.203 791.082 656.645 790.476 656.237 789.696C655.829 788.916 655.625 788.028 655.625 787.032ZM663.977 787.05C663.977 786.306 663.827 785.658 663.527 785.106C663.227 784.554 662.819 784.134 662.303 783.846C661.799 783.546 661.241 783.396 660.629 783.396C660.017 783.396 659.459 783.54 658.955 783.828C658.451 784.116 658.049 784.536 657.749 785.088C657.449 785.64 657.299 786.288 657.299 787.032C657.299 787.788 657.449 788.448 657.749 789.012C658.049 789.564 658.451 789.99 658.955 790.29C659.459 790.578 660.017 790.722 660.629 790.722C661.241 790.722 661.799 790.578 662.303 790.29C662.819 789.99 663.227 789.564 663.527 789.012C663.827 788.448 663.977 787.794 663.977 787.05ZM677.401 786.69C677.401 787.002 677.383 787.332 677.347 787.68H669.463C669.523 788.652 669.853 789.414 670.453 789.966C671.065 790.506 671.803 790.776 672.667 790.776C673.375 790.776 673.963 790.614 674.431 790.29C674.911 789.954 675.247 789.51 675.439 788.958H677.203C676.939 789.906 676.411 790.68 675.619 791.28C674.827 791.868 673.843 792.162 672.667 792.162C671.731 792.162 670.891 791.952 670.147 791.532C669.415 791.112 668.839 790.518 668.419 789.75C667.999 788.97 667.789 788.07 667.789 787.05C667.789 786.03 667.993 785.136 668.401 784.368C668.809 783.6 669.379 783.012 670.111 782.604C670.855 782.184 671.707 781.974 672.667 781.974C673.603 781.974 674.431 782.178 675.151 782.586C675.871 782.994 676.423 783.558 676.807 784.278C677.203 784.986 677.401 785.79 677.401 786.69ZM675.709 786.348C675.709 785.724 675.571 785.19 675.295 784.746C675.019 784.29 674.641 783.948 674.161 783.72C673.693 783.48 673.171 783.36 672.595 783.36C671.767 783.36 671.059 783.624 670.471 784.152C669.895 784.68 669.565 785.412 669.481 786.348H675.709ZM683.577 783.486H681.507V792H679.869V783.486H678.591V782.136H679.869V781.434C679.869 780.33 680.151 779.526 680.715 779.022C681.291 778.506 682.209 778.248 683.469 778.248V779.616C682.749 779.616 682.239 779.76 681.939 780.048C681.651 780.324 681.507 780.786 681.507 781.434V782.136H683.577V783.486ZM686.333 780.534C686.021 780.534 685.757 780.426 685.541 780.21C685.325 779.994 685.217 779.73 685.217 779.418C685.217 779.106 685.325 778.842 685.541 778.626C685.757 778.41 686.021 778.302 686.333 778.302C686.633 778.302 686.885 778.41 687.089 778.626C687.305 778.842 687.413 779.106 687.413 779.418C687.413 779.73 687.305 779.994 687.089 780.21C686.885 780.426 686.633 780.534 686.333 780.534ZM687.125 782.136V792H685.487V782.136H687.125ZM694.722 781.956C695.922 781.956 696.894 782.322 697.638 783.054C698.382 783.774 698.754 784.818 698.754 786.186V792H697.134V786.42C697.134 785.436 696.888 784.686 696.396 784.17C695.904 783.642 695.232 783.378 694.38 783.378C693.516 783.378 692.826 783.648 692.31 784.188C691.806 784.728 691.554 785.514 691.554 786.546V792H689.916V782.136H691.554V783.54C691.878 783.036 692.316 782.646 692.868 782.37C693.432 782.094 694.05 781.956 694.722 781.956ZM710.43 786.69C710.43 787.002 710.412 787.332 710.376 787.68H702.492C702.552 788.652 702.882 789.414 703.482 789.966C704.094 790.506 704.832 790.776 705.696 790.776C706.404 790.776 706.992 790.614 707.46 790.29C707.94 789.954 708.276 789.51 708.468 788.958H710.232C709.968 789.906 709.44 790.68 708.648 791.28C707.856 791.868 706.872 792.162 705.696 792.162C704.76 792.162 703.92 791.952 703.176 791.532C702.444 791.112 701.868 790.518 701.448 789.75C701.028 788.97 700.818 788.07 700.818 787.05C700.818 786.03 701.022 785.136 701.43 784.368C701.838 783.6 702.408 783.012 703.14 782.604C703.884 782.184 704.736 781.974 705.696 781.974C706.632 781.974 707.46 782.178 708.18 782.586C708.9 782.994 709.452 783.558 709.836 784.278C710.232 784.986 710.43 785.79 710.43 786.69ZM708.738 786.348C708.738 785.724 708.6 785.19 708.324 784.746C708.048 784.29 707.67 783.948 707.19 783.72C706.722 783.48 706.2 783.36 705.624 783.36C704.796 783.36 704.088 783.624 703.5 784.152C702.924 784.68 702.594 785.412 702.51 786.348H708.738ZM426.306 809.136L423.228 819H421.536L419.16 811.17L416.784 819H415.092L411.996 809.136H413.67L415.938 817.416L418.386 809.136H420.06L422.454 817.434L424.686 809.136H426.306ZM432.828 808.956C433.572 808.956 434.244 809.118 434.844 809.442C435.444 809.754 435.912 810.228 436.248 810.864C436.596 811.5 436.77 812.274 436.77 813.186V819H435.15V813.42C435.15 812.436 434.904 811.686 434.412 811.17C433.92 810.642 433.248 810.378 432.396 810.378C431.532 810.378 430.842 810.648 430.326 811.188C429.822 811.728 429.57 812.514 429.57 813.546V819H427.932V805.68H429.57V810.54C429.894 810.036 430.338 809.646 430.902 809.37C431.478 809.094 432.12 808.956 432.828 808.956ZM443.748 819.162C442.824 819.162 441.984 818.952 441.228 818.532C440.484 818.112 439.896 817.518 439.464 816.75C439.044 815.97 438.834 815.07 438.834 814.05C438.834 813.042 439.05 812.154 439.482 811.386C439.926 810.606 440.526 810.012 441.282 809.604C442.038 809.184 442.884 808.974 443.82 808.974C444.756 808.974 445.602 809.184 446.358 809.604C447.114 810.012 447.708 810.6 448.14 811.368C448.584 812.136 448.806 813.03 448.806 814.05C448.806 815.07 448.578 815.97 448.122 816.75C447.678 817.518 447.072 818.112 446.304 818.532C445.536 818.952 444.684 819.162 443.748 819.162ZM443.748 817.722C444.336 817.722 444.888 817.584 445.404 817.308C445.92 817.032 446.334 816.618 446.646 816.066C446.97 815.514 447.132 814.842 447.132 814.05C447.132 813.258 446.976 812.586 446.664 812.034C446.352 811.482 445.944 811.074 445.44 810.81C444.936 810.534 444.39 810.396 443.802 810.396C443.202 810.396 442.65 810.534 442.146 810.81C441.654 811.074 441.258 811.482 440.958 812.034C440.658 812.586 440.508 813.258 440.508 814.05C440.508 814.854 440.652 815.532 440.94 816.084C441.24 816.636 441.636 817.05 442.128 817.326C442.62 817.59 443.16 817.722 443.748 817.722ZM464.254 809.136L458.314 823.644H456.622L458.566 818.892L454.588 809.136H456.406L459.502 817.128L462.562 809.136H464.254ZM470.203 819.162C469.279 819.162 468.439 818.952 467.683 818.532C466.939 818.112 466.351 817.518 465.919 816.75C465.499 815.97 465.289 815.07 465.289 814.05C465.289 813.042 465.505 812.154 465.937 811.386C466.381 810.606 466.981 810.012 467.737 809.604C468.493 809.184 469.339 808.974 470.275 808.974C471.211 808.974 472.057 809.184 472.813 809.604C473.569 810.012 474.163 810.6 474.595 811.368C475.039 812.136 475.261 813.03 475.261 814.05C475.261 815.07 475.033 815.97 474.577 816.75C474.133 817.518 473.527 818.112 472.759 818.532C471.991 818.952 471.139 819.162 470.203 819.162ZM470.203 817.722C470.791 817.722 471.343 817.584 471.859 817.308C472.375 817.032 472.789 816.618 473.101 816.066C473.425 815.514 473.587 814.842 473.587 814.05C473.587 813.258 473.431 812.586 473.119 812.034C472.807 811.482 472.399 811.074 471.895 810.81C471.391 810.534 470.845 810.396 470.257 810.396C469.657 810.396 469.105 810.534 468.601 810.81C468.109 811.074 467.713 811.482 467.413 812.034C467.113 812.586 466.963 813.258 466.963 814.05C466.963 814.854 467.107 815.532 467.395 816.084C467.695 816.636 468.091 817.05 468.583 817.326C469.075 817.59 469.615 817.722 470.203 817.722ZM486.162 809.136V819H484.524V817.542C484.212 818.046 483.774 818.442 483.21 818.73C482.658 819.006 482.046 819.144 481.374 819.144C480.606 819.144 479.916 818.988 479.304 818.676C478.692 818.352 478.206 817.872 477.846 817.236C477.498 816.6 477.324 815.826 477.324 814.914V809.136H478.944V814.698C478.944 815.67 479.19 816.42 479.682 816.948C480.174 817.464 480.846 817.722 481.698 817.722C482.574 817.722 483.264 817.452 483.768 816.912C484.272 816.372 484.524 815.586 484.524 814.554V809.136H486.162ZM493.115 814.032C493.115 813.024 493.319 812.142 493.727 811.386C494.135 810.618 494.693 810.024 495.401 809.604C496.121 809.184 496.919 808.974 497.795 808.974C498.659 808.974 499.409 809.16 500.045 809.532C500.681 809.904 501.155 810.372 501.467 810.936V809.136H503.123V819H501.467V817.164C501.143 817.74 500.657 818.22 500.009 818.604C499.373 818.976 498.629 819.162 497.777 819.162C496.901 819.162 496.109 818.946 495.401 818.514C494.693 818.082 494.135 817.476 493.727 816.696C493.319 815.916 493.115 815.028 493.115 814.032ZM501.467 814.05C501.467 813.306 501.317 812.658 501.017 812.106C500.717 811.554 500.309 811.134 499.793 810.846C499.289 810.546 498.731 810.396 498.119 810.396C497.507 810.396 496.949 810.54 496.445 810.828C495.941 811.116 495.539 811.536 495.239 812.088C494.939 812.64 494.789 813.288 494.789 814.032C494.789 814.788 494.939 815.448 495.239 816.012C495.539 816.564 495.941 816.99 496.445 817.29C496.949 817.578 497.507 817.722 498.119 817.722C498.731 817.722 499.289 817.578 499.793 817.29C500.309 816.99 500.717 816.564 501.017 816.012C501.317 815.448 501.467 814.794 501.467 814.05ZM507.529 810.738C507.817 810.174 508.225 809.736 508.753 809.424C509.293 809.112 509.947 808.956 510.715 808.956V810.648H510.283C508.447 810.648 507.529 811.644 507.529 813.636V819H505.891V809.136H507.529V810.738ZM521.606 813.69C521.606 814.002 521.588 814.332 521.552 814.68H513.668C513.728 815.652 514.058 816.414 514.658 816.966C515.27 817.506 516.008 817.776 516.872 817.776C517.58 817.776 518.168 817.614 518.636 817.29C519.116 816.954 519.452 816.51 519.644 815.958H521.408C521.144 816.906 520.616 817.68 519.824 818.28C519.032 818.868 518.048 819.162 516.872 819.162C515.936 819.162 515.096 818.952 514.352 818.532C513.62 818.112 513.044 817.518 512.624 816.75C512.204 815.97 511.994 815.07 511.994 814.05C511.994 813.03 512.198 812.136 512.606 811.368C513.014 810.6 513.584 810.012 514.316 809.604C515.06 809.184 515.912 808.974 516.872 808.974C517.808 808.974 518.636 809.178 519.356 809.586C520.076 809.994 520.628 810.558 521.012 811.278C521.408 811.986 521.606 812.79 521.606 813.69ZM519.914 813.348C519.914 812.724 519.776 812.19 519.5 811.746C519.224 811.29 518.846 810.948 518.366 810.72C517.898 810.48 517.376 810.36 516.8 810.36C515.972 810.36 515.264 810.624 514.676 811.152C514.1 811.68 513.77 812.412 513.686 813.348H519.914ZM524.02 806.454H525.838L524.11 810.54H522.958L524.02 806.454ZM526.936 806.454H528.754L527.026 810.54H525.856L526.936 806.454Z" fill="#737373"/>
<defs>
<linearGradient id="paint0_linear_2179_42105" x1="159.856" y1="798.304" x2="550.447" y2="258.153" gradientUnits="userSpaceOnUse">
<stop stop-opacity="0"/>
<stop offset="0.85" stop-opacity="0.51"/>
<stop offset="0.99"/>
</linearGradient>
<linearGradient id="paint1_linear_2179_42105" x1="443.514" y1="234.312" x2="444.817" y2="319.165" gradientUnits="userSpaceOnUse">
<stop stop-color="#183866"/>
<stop offset="1" stop-color="#1A7FC1"/>
</linearGradient>
<linearGradient id="paint2_linear_2179_42105" x1="611.058" y1="468.004" x2="634.013" y2="467.585" gradientUnits="userSpaceOnUse">
<stop stop-color="#ECC4D7"/>
<stop offset="0.42" stop-color="#EFD4D1"/>
<stop offset="1" stop-color="#F2EAC9"/>
</linearGradient>
<linearGradient id="paint3_linear_2179_42105" x1="612.386" y1="464.278" x2="607.656" y2="466.784" gradientUnits="userSpaceOnUse">
<stop stop-color="#ECC4D7"/>
<stop offset="0.42" stop-color="#EFD4D1"/>
<stop offset="1" stop-color="#F2EAC9"/>
</linearGradient>
<linearGradient id="paint4_linear_2179_42105" x1="524.297" y1="501.137" x2="549.94" y2="501.137" gradientUnits="userSpaceOnUse">
<stop stop-color="#ECC4D7"/>
<stop offset="0.42" stop-color="#EFD4D1"/>
<stop offset="1" stop-color="#F2EAC9"/>
</linearGradient>
<clipPath id="clip0_2179_42105">
<rect width="489" height="544" fill="white" transform="translate(213 198)"/>
</clipPath>
</defs>
</svg>
