<svg width="568" height="511" viewBox="0 0 568 511" fill="none" xmlns="http://www.w3.org/2000/svg">
<g clip-path="url(#clip0_2179_42104)">
<path d="M120.008 375.509C166.862 417.455 232.577 417.341 293.318 416.076C346.707 414.957 398.164 403.012 437.441 368.861C477.713 333.853 501.455 284.741 507.063 230.265C513.261 169.909 512.417 101.85 469.617 55.8622C427.019 10.1018 359.736 11.7557 299.202 6.91883C238.276 2.06019 173.66 -7.04479 126.228 28.4751C75.3239 66.5973 48.3347 130.107 47.1531 195.66C45.9756 261.452 69.554 330.325 120.008 375.509Z" fill="#E2EFFD"/>
<path d="M184.782 307.568C215.126 334.631 258.022 334.174 297.674 333C332.53 331.956 366.189 323.869 392.022 301.384C418.514 278.335 434.299 246.192 438.277 210.657C442.675 171.291 442.52 126.938 414.85 97.2172C387.313 67.6409 343.383 69.1121 303.898 66.3134C264.156 63.5055 222.034 57.9422 190.865 81.3707C157.414 106.513 139.427 148.052 138.274 190.784C137.122 233.667 152.112 278.415 184.782 307.568Z" fill="#B3D4FF" fill-opacity="0.5"/>
<path d="M226.676 254.831C244.743 270.945 270.286 270.673 293.899 269.972C314.653 269.352 334.696 264.538 350.081 251.149C365.855 237.425 375.254 218.283 377.621 197.124C380.241 173.682 380.149 147.274 363.672 129.576C347.274 111.965 321.117 112.839 297.605 111.174C273.94 109.499 248.858 106.19 230.298 120.138C210.38 135.109 199.669 159.847 198.984 185.29C198.296 210.825 207.222 237.472 226.676 254.831Z" fill="#71ADFB" fill-opacity="0.5"/>
<path d="M382.917 382.316H190.125V261.81C190.125 259.532 191.938 257.687 194.174 257.687H378.868C381.105 257.687 382.917 259.532 382.917 261.81V382.316Z" fill="#D3D3D3"/>
<path d="M197.184 266.419H375.865V372.686H197.184V266.419Z" fill="#F2F2F2"/>
<path d="M159.467 418.188C157.695 420.504 161.081 427.422 166.392 427.422H410.778C416.086 427.422 419.429 420.504 417.397 418.188H159.467Z" fill="#D3D3D3"/>
<path d="M416.713 416.922C418.745 419.234 416.084 421.111 410.778 421.111H166.391C161.08 421.111 158.213 419.234 159.985 416.922L185.005 384.226C186.778 381.911 191.415 380.035 195.366 380.035H377.184C381.13 380.035 385.983 381.911 388.015 384.226C397.578 395.128 407.148 406.021 416.713 416.922Z" fill="#F2F2F2"/>
<path opacity="0.5" d="M214.262 391.063H206.008C207.176 389.335 207.761 388.469 208.927 386.739H216.855L214.262 391.063ZM224.96 391.063H216.706C217.706 389.335 218.205 388.469 219.203 386.739H227.129L224.96 391.063ZM221.542 385.912H209.492L210.581 384.298H222.447L221.542 385.912ZM235.665 385.913L223.612 385.912L224.483 384.298H236.35C236.077 384.944 235.937 385.267 235.665 385.913ZM249.788 385.912H237.734L238.386 384.298H250.259L249.788 385.912ZM263.91 385.912H251.859L252.292 384.298H264.161C264.063 384.944 264.012 385.267 263.91 385.912ZM278.035 385.912H265.981L266.2 384.298H278.066L278.035 385.912ZM292.158 385.912H280.107V384.298H291.973C292.048 384.944 292.081 385.267 292.158 385.912ZM306.283 385.912H294.23L294.01 384.298H305.88C306.039 384.944 306.12 385.267 306.283 385.912ZM320.408 385.912H308.354L307.918 384.298H319.784C320.035 384.944 320.159 385.267 320.408 385.912ZM334.532 385.912H322.479C322.214 385.267 322.084 384.944 321.82 384.298H333.692L334.532 385.912ZM348.652 385.912H336.602C336.253 385.267 336.077 384.944 335.73 384.298H347.594C348.016 384.944 348.227 385.267 348.652 385.912ZM364.412 385.912H350.725L349.634 384.298H363.111C363.63 384.944 363.893 385.267 364.412 385.912ZM235.653 391.063H227.401C228.231 389.335 228.648 388.47 229.475 386.742L237.4 386.739C236.703 388.471 236.353 389.333 235.653 391.063ZM246.349 391.063H238.096C238.758 389.335 239.087 388.469 239.751 386.739L247.677 386.742L246.349 391.063ZM257.046 391.063H248.794C249.288 389.333 249.535 388.47 250.026 386.739H257.952C257.591 388.469 257.407 389.335 257.046 391.063ZM267.742 391.063H259.49C259.813 389.335 259.972 388.466 260.298 386.739H268.226C268.03 388.469 267.932 389.335 267.742 391.063ZM278.432 391.063H270.187L270.573 386.739H278.496C278.473 388.469 278.46 389.335 278.432 391.063ZM289.133 391.063H280.881L280.849 386.739H288.773C288.918 388.469 288.99 389.335 289.133 391.063ZM299.827 391.063H291.579L291.126 386.739H299.047C299.36 388.469 299.515 389.335 299.827 391.063ZM310.52 391.063H302.271C301.922 389.335 301.746 388.469 301.395 386.739H309.321C309.799 388.469 310.04 389.335 310.52 391.063ZM210.806 396.826H202.123L205.036 392.504H213.398L210.806 396.826ZM222.067 396.826H213.381C214.381 395.098 214.88 394.233 215.878 392.504H224.24C223.369 394.232 222.932 395.097 222.067 396.826ZM233.323 396.826H224.637C225.467 395.098 225.879 394.233 226.711 392.504H235.069C234.371 394.233 234.02 395.097 233.323 396.826ZM244.581 396.826H235.893C236.554 395.098 236.886 394.233 237.545 392.504H245.908C245.376 394.233 245.11 395.097 244.581 396.826ZM255.84 396.826H247.155C247.648 395.098 247.893 394.233 248.384 392.507C251.73 392.507 253.399 392.504 256.744 392.504C256.38 394.233 256.201 395.097 255.84 396.826ZM267.093 396.826H258.408L259.218 392.504H267.577C267.385 394.232 267.286 395.097 267.093 396.826ZM278.349 396.826H269.667L270.056 392.504H278.41L278.349 396.826ZM289.609 396.826H280.924L280.892 392.504H289.251C289.393 394.233 289.468 395.097 289.609 396.826ZM300.864 396.826H292.184C292.001 395.098 291.909 394.233 291.731 392.504H300.085L300.864 396.826ZM312.121 396.826H303.438C303.087 395.098 302.91 394.233 302.561 392.504H310.92L312.121 396.826ZM207.352 402.59H198.233C199.398 400.861 199.984 399.995 201.151 398.268L209.944 398.266C208.907 399.993 208.387 400.86 207.352 402.59ZM219.171 402.59H210.055L212.548 398.268H221.344C220.475 399.994 220.039 400.86 219.171 402.59ZM230.992 402.59H221.871L223.944 398.268H232.738L230.992 402.59ZM242.81 402.59H233.688L235.341 398.268H244.137L242.81 402.59ZM254.628 402.59H245.513C246.003 400.861 246.253 399.995 246.742 398.268H255.534C255.175 399.994 254.993 400.86 254.628 402.59ZM266.445 402.59H257.328C257.651 400.861 257.815 399.995 258.139 398.268H266.933L266.445 402.59ZM278.261 402.59H269.149L269.536 398.268H278.325C278.302 399.994 278.288 400.86 278.261 402.59ZM290.088 402.59H280.968C280.958 400.861 280.95 399.995 280.936 398.268H289.729C289.873 399.994 289.943 400.86 290.088 402.59ZM301.905 402.59H292.792C292.609 400.861 292.517 399.995 292.336 398.268H301.125C301.437 399.994 301.595 400.86 301.905 402.59ZM313.72 402.59H304.602C304.254 400.861 304.079 399.995 303.728 398.268H312.521L313.72 402.59ZM203.896 408.349H194.344C195.509 406.621 196.097 405.757 197.262 404.03H206.486C205.625 405.471 204.761 406.911 203.896 408.349ZM216.279 408.349H206.728L209.225 404.03H218.452C217.583 405.757 217.146 406.621 216.279 408.349ZM228.658 408.349H219.107C219.937 406.621 220.352 405.757 221.184 404.03H230.407C229.709 405.757 229.36 406.621 228.658 408.349ZM240.998 408.487H231.431C232.117 406.705 232.455 405.813 233.137 404.031H242.367C241.819 405.812 241.547 406.705 240.998 408.487ZM315.324 408.349H243.869C244.358 406.621 244.604 405.757 245.097 404.03H314.124L315.324 408.349ZM262.506 417.845H316.711L312.147 410.483H266.821L262.506 417.845ZM320.199 391.063H311.947C311.441 389.335 311.193 388.469 310.691 386.739H318.616C319.249 388.466 319.563 389.335 320.199 391.063ZM322.307 396.826H313.619C313.118 395.098 312.868 394.233 312.365 392.504H320.728C321.358 394.233 321.675 395.097 322.307 396.826ZM324.416 402.59H315.296C314.793 400.861 314.545 399.995 314.042 398.268H322.836C323.467 399.994 323.781 400.86 324.416 402.59ZM326.524 408.349H316.972L315.715 404.03H324.942L326.524 408.349ZM329.872 391.063H321.62C320.965 389.335 320.635 388.469 319.983 386.739H327.91C328.693 388.469 329.087 389.335 329.872 391.063ZM332.49 396.826H323.805C323.149 395.098 322.82 394.233 322.168 392.504H330.527C331.31 394.232 331.705 395.097 332.49 396.826ZM335.105 402.59H325.987L324.348 398.268H333.141C333.93 399.994 334.319 400.86 335.105 402.59ZM337.722 408.349H328.168C327.516 406.621 327.186 405.757 326.534 404.03H335.759C336.545 405.757 336.934 406.621 337.722 408.349ZM339.546 391.063H331.295L329.276 386.739H337.204C338.141 388.469 338.611 389.335 339.546 391.063ZM342.67 396.826H333.985L331.966 392.504H340.328C341.264 394.233 341.735 395.097 342.67 396.826ZM345.798 402.59H336.678C335.87 400.861 335.468 399.995 334.658 398.268H343.454L345.798 402.59ZM348.92 408.349H339.368C338.561 406.621 338.159 405.757 337.349 404.03H346.577L348.92 408.349ZM349.219 391.063H340.968L338.57 386.739H346.494C347.588 388.469 348.13 389.335 349.219 391.063ZM352.853 396.826H344.169L341.769 392.504H350.129C351.219 394.233 351.766 395.097 352.853 396.826ZM356.486 402.59H347.37C346.41 400.861 345.932 399.995 344.969 398.268H353.763C354.854 399.994 355.398 400.86 356.486 402.59ZM360.12 408.349H350.568C349.769 406.909 348.969 405.469 348.167 404.03H357.396C358.484 405.757 359.029 406.621 360.12 408.349ZM358.898 391.063H350.644C349.529 389.335 348.973 388.469 347.859 386.739H355.789C357.031 388.469 357.652 389.335 358.898 391.063ZM363.035 396.826H354.349C353.236 395.098 352.681 394.233 351.571 392.504H359.931C361.173 394.233 361.795 395.097 363.035 396.826ZM367.178 402.59H358.056C356.945 400.861 356.391 399.995 355.277 398.268H364.074C365.317 399.994 365.937 400.86 367.178 402.59ZM371.318 408.349H361.763L358.983 404.03H368.213L371.318 408.349ZM368.568 391.063H360.318C359.052 389.335 358.422 388.469 357.153 386.739H365.082C366.476 388.469 367.173 389.335 368.568 391.063ZM373.217 396.826H364.531C363.27 395.098 362.635 394.233 361.372 392.504H369.731L373.217 396.826ZM377.867 402.59H368.748C367.483 400.861 366.852 399.995 365.587 398.268H374.38C375.775 399.994 376.472 400.86 377.867 402.59ZM382.516 408.349H372.962L369.802 404.03H379.029C380.424 405.757 381.119 406.621 382.516 408.349Z" fill="#D3D3D3"/>
<path d="M332.276 372.657H247.203C247.811 370.189 248.368 368.218 248.856 366.846C249.109 366.142 249.458 365.476 249.892 364.866C251.4 362.732 253.981 360.916 257.306 359.381C261.275 357.546 266.298 356.104 271.805 354.961C277.657 353.762 284.04 352.898 290.255 352.272C290.676 352.235 291.091 352.191 291.512 352.154C298.424 351.509 305.065 351.155 310.424 350.984C317.821 350.728 322.808 350.782 322.808 350.782C322.808 350.782 323.208 351.419 323.909 352.69C325.551 355.706 328.833 362.315 332.276 372.657Z" fill="#3B8CF7"/>
<path d="M267.109 233.917C266.948 235.007 266.664 236.016 266.262 236.988L266.503 234.24C266.706 234.118 266.909 234.038 267.109 233.917Z" fill="#FFE3CA"/>
<path d="M312.171 229.837V229.874C312.088 229.837 312.007 229.795 311.969 229.795C312.051 229.797 312.088 229.837 312.171 229.837Z" fill="#EEBEA7"/>
<path d="M399.48 287.818C399.48 287.818 404.736 282.95 403.694 279.297C402.811 276.198 404.144 272.726 404.475 271.285C404.925 269.376 405.106 263.18 406.53 263.518C408.942 264.104 408.386 273.994 408.682 276.102C408.98 278.208 415.37 271.154 417.547 270.785C419.731 270.408 430.823 281.644 425.881 285.984C420.939 290.314 414.125 292.072 413.404 293.007C412.685 293.943 409.299 296.513 409.299 296.513L399.48 287.818Z" fill="#FFE3CA"/>
<path d="M416.152 271.519C416.152 271.519 432.171 259.257 433.922 259.33C435.679 259.401 436.286 260.314 434.834 261.519C433.388 262.729 419.708 273.824 419.708 273.824C419.708 273.824 441.101 262.488 442.554 262.235C443.397 262.085 444.045 263.706 443.324 264.427C442.609 265.14 422.7 277.659 422.7 277.659C422.7 277.659 442.693 267.109 443.967 267.259C445.085 267.394 445.881 269.236 444.452 270.119C443.022 271.001 425.018 281.844 425.018 281.844C425.018 281.844 440.058 275.086 441.059 275.841C441.667 276.309 442.535 277.335 438.605 278.957C434.668 280.58 426.106 285.763 426.106 285.763L416.152 271.519Z" fill="#FFE3CA"/>
<path d="M301.785 219.252V220.342C301.7 220.143 301.622 219.98 301.583 219.778C301.5 219.738 301.5 219.659 301.5 219.614C301.583 219.496 301.662 219.377 301.785 219.252Z" fill="#FFBE55"/>
<path d="M289.741 225.879C289.579 225.917 289.374 225.917 289.215 225.917V225.837C289.374 225.879 289.579 225.879 289.741 225.879ZM301.785 219.252V219.577C301.716 219.642 301.648 219.709 301.582 219.778C301.138 220.263 300.651 220.705 300.167 221.152C299.964 221.314 299.803 221.473 299.604 221.635C299.843 221.396 300.126 221.111 300.373 220.869C300.736 220.506 301.097 220.062 301.5 219.614C301.582 219.496 301.662 219.377 301.785 219.252Z" fill="#EEBEA7"/>
<path d="M311.041 205.319C308.818 210.247 306.109 214.691 303.036 218.205C302.635 218.689 302.188 219.173 301.786 219.578V219.253C301.663 219.377 301.583 219.497 301.5 219.615C301.098 220.063 300.737 220.507 300.373 220.87C300.127 221.113 299.844 221.397 299.604 221.636C299.519 221.678 299.442 221.76 299.361 221.84C299.239 221.96 299.118 222.083 298.994 222.122C298.676 222.401 298.338 222.657 297.984 222.889C297.541 223.212 297.138 223.494 296.695 223.737C296.59 223.808 296.482 223.876 296.371 223.94C295.964 224.18 295.564 224.383 295.202 224.543C294.839 224.738 294.459 224.901 294.066 225.029L294.028 225.07C293.705 225.152 293.461 225.272 293.177 225.353C293.094 225.393 293.018 225.434 292.934 225.434C292.654 225.514 292.37 225.593 292.085 225.636C292.007 225.636 291.966 225.675 291.885 225.675H291.761C291.562 225.718 291.321 225.758 291.118 225.799C290.915 225.837 290.673 225.837 290.472 225.837C290.272 225.879 290.064 225.879 289.903 225.879H289.864C289.826 225.917 289.785 225.917 289.744 225.879C289.583 225.879 289.377 225.879 289.218 225.837V225.917C288.977 225.917 288.733 225.879 288.452 225.837C288.167 225.799 287.845 225.758 287.559 225.718C287.398 225.675 287.24 225.675 287.033 225.636C286.874 225.593 286.711 225.593 286.549 225.514C285.702 225.312 284.897 224.988 284.046 224.543C283.78 224.413 283.523 224.265 283.277 224.103C281.944 223.335 280.649 222.244 279.314 220.869C278.834 220.388 278.387 219.82 277.902 219.252C275.842 216.667 273.783 213.237 271.881 208.875C271.106 207.13 270.378 205.365 269.698 203.581C270.707 205.56 268.947 187.099 269.353 187.747C263.858 177.245 269.335 185.889 271.279 180.681C283.44 185.809 307.079 194.656 307.079 185.688C307.079 185.688 307.604 191.141 308.213 196.795C308.697 201.44 309.223 206.25 309.467 208.066C309.467 208.066 310.109 207.055 311.041 205.319Z" fill="#FFE3CA"/>
<path d="M289.741 225.879C289.579 225.917 289.374 225.917 289.215 225.917V225.837C289.374 225.879 289.579 225.879 289.741 225.879ZM301.785 219.252V219.577C301.716 219.642 301.648 219.709 301.582 219.778C301.138 220.263 300.651 220.705 300.167 221.152C299.964 221.314 299.803 221.473 299.604 221.635C299.843 221.396 300.126 221.111 300.373 220.869C300.736 220.506 301.097 220.062 301.5 219.614C301.582 219.496 301.662 219.377 301.785 219.252Z" fill="#EEBEA7"/>
<path d="M269.695 203.581C266.46 197.199 261.248 185.003 262.178 173.449V173.407C260.725 163.836 272.646 146.588 290.834 147.476C309.018 146.588 320.942 163.836 319.486 173.407V173.449C320.048 180.436 318.352 187.626 316.252 193.647C317.585 193.602 318.876 193.765 320.17 194.21C327.406 196.594 330.799 206.006 327.729 215.175C324.699 224.383 316.331 229.875 309.098 227.493C305.743 226.402 303.196 223.778 301.784 220.342V219.577C302.186 219.173 302.635 218.688 303.034 218.204C306.107 214.69 308.817 210.246 311.039 205.317C310.107 207.055 309.541 209.189 309.541 209.189C309.297 207.375 308.693 201.439 308.209 196.794C307.599 191.14 307.075 185.687 307.075 185.687C307.075 194.656 283.436 185.808 271.275 180.679L269.695 203.581Z" fill="#333333"/>
<path d="M301.785 219.252V220.342C301.785 221.111 301.746 222.04 301.785 223.09C300.611 224.543 299.44 225.757 298.228 226.684C297.82 227.008 297.418 227.292 297.016 227.573C296.71 227.803 296.385 228.006 296.044 228.179H296.006C294.147 229.228 292.287 229.753 290.469 229.794H289.537C289.417 229.794 289.298 229.794 289.215 229.753V225.835C289.374 225.877 289.579 225.877 289.741 225.877C289.782 225.915 289.823 225.915 289.861 225.877H289.9C290.105 225.915 290.268 225.915 290.469 225.915C290.712 225.915 290.994 225.877 291.236 225.835C291.518 225.797 291.844 225.756 292.128 225.716C292.287 225.673 292.447 225.673 292.652 225.634C292.815 225.591 292.975 225.591 293.137 225.512C293.986 225.309 294.793 224.986 295.638 224.541C295.884 224.423 296.169 224.261 296.408 224.1C297.295 223.615 298.145 222.966 298.994 222.119C299.117 222.079 299.238 221.957 299.36 221.836C299.44 221.757 299.518 221.675 299.604 221.633C299.843 221.393 300.126 221.109 300.373 220.867C300.736 220.503 301.097 220.059 301.5 219.612C301.582 219.496 301.662 219.377 301.785 219.252Z" fill="#A5735B"/>
<path d="M289.219 253.868V363.211L308.093 362.405L323.613 361.718L322.034 342.612L320.297 321.242C317.603 322.385 314.921 323.557 312.252 324.76C312.98 316.317 313.303 308.562 312.819 302.219C310.92 278.629 307.971 259.403 305.666 246.841V246.8C305.907 244.377 305.583 241.67 305.019 239.167C304.936 238.65 304.829 238.138 304.697 237.632C304.534 237.065 304.416 236.542 304.254 236.016L303.887 234.806C303.807 234.523 303.685 234.24 303.607 233.996C303.311 233.008 302.959 232.037 302.553 231.089H302.475C302.798 232.544 303.93 237.391 305.342 245.023V245.065C304.417 249.104 301.464 251.366 297.825 252.62C297.786 252.62 297.708 252.658 297.663 252.658C295.161 253.508 292.331 253.829 289.625 253.869C289.504 253.868 289.341 253.91 289.219 253.868Z" fill="#3B8CF7"/>
<path d="M332.337 287.883C333.308 289.374 334.679 292.122 336.055 295.233C335.855 298.666 335.612 300.723 335.612 300.723C335.612 300.723 334.117 304.642 332.136 310.784C331.608 312.316 326.521 339.461 325.955 341.24C325.832 341.562 325.749 341.926 325.631 342.249C323.773 343.176 324.187 341.559 320.952 342.855C319.986 343.257 318.932 343.662 317.84 344.144C317.679 344.229 317.479 344.308 317.192 344.428C316.869 344.549 316.547 344.671 316.223 344.832C314.074 345.757 311.933 346.699 309.8 347.66C310.525 339.218 313.303 308.562 312.817 302.22C310.919 278.63 307.971 259.404 305.666 246.842V246.801C305.542 246.196 305.466 245.632 305.343 245.065V245.023C303.929 237.391 302.798 232.545 302.473 231.089H312.941V231.171C315.849 230.968 329.578 229.037 338.955 237.963C333.781 235.741 326.924 237.752 324.624 239.168C323.693 239.701 322.835 240.352 322.072 241.106C320.9 242.199 319.942 243.501 319.246 244.944C312.538 258.799 329.507 283.598 332.337 287.883Z" fill="#FFD233"/>
<path d="M333.1 372.657H307.09C307.361 369.344 307.707 365.91 308.09 362.407C308.479 358.648 308.944 354.826 309.387 350.984C309.535 349.658 309.688 348.339 309.833 347.017C309.833 347.017 309.842 347.017 309.853 347.008C313.012 345.853 317.165 340.487 321.718 338.69C321.826 338.652 321.926 338.608 322.035 338.57C323.334 338.127 324.624 341.721 325.951 341.24C326.804 350.266 329.848 362.044 333.1 372.657Z" fill="#FFD233"/>
<path d="M289.219 229.756V253.869C289.341 253.911 289.504 253.869 289.627 253.869C292.333 253.829 295.162 253.508 297.664 252.658C297.71 252.658 297.788 252.62 297.826 252.62C301.464 251.366 304.417 249.104 305.343 245.065V245.023C303.931 237.391 302.801 232.545 302.476 231.089H301.909V230.322C301.909 229.839 301.867 229.393 301.867 228.948C301.828 227.494 301.828 226.121 301.789 224.787V223.092C300.617 224.545 299.444 225.759 298.233 226.687C297.859 227.02 297.454 227.318 297.023 227.576C296.717 227.804 296.392 228.007 296.052 228.181H296.013C294.03 229.313 292.091 229.797 290.151 229.797C289.827 229.797 289.504 229.797 289.219 229.756Z" fill="#FFE3CA"/>
<path d="M405.164 282.726L406.099 284.39L406.128 284.421L413.43 297.323L414.558 299.309C414.558 299.309 412.345 300.2 408.863 301.672C405.694 303.011 401.486 304.77 396.926 306.743C395.661 307.308 394.391 307.86 393.116 308.401C384.247 312.333 374.911 316.53 370.237 319.217C360.039 325.038 351.553 327.071 346.383 326.964C341.24 326.828 329.961 296.402 328.199 289.103C326.413 281.835 319.814 268.443 315.086 255.691C313.086 250.273 313.664 245.492 315.377 241.697C317.656 236.551 321.952 233.225 324.605 232.694C325.65 232.454 326.722 232.349 327.795 232.382C329.448 232.389 331.007 232.705 332.473 233.272C346.825 238.861 351.269 268.579 352.11 273.641C352.419 275.397 353.281 278.342 354.392 281.558C356.854 289.08 360.438 298.157 360.438 298.157C367.644 295.053 370.62 294.166 373.365 293.38C375.359 292.797 377.239 292.323 380.49 291.074C381.471 290.71 382.519 290.287 383.646 289.902C386.398 288.906 389.161 287.942 391.936 287.01C398.796 284.719 405.164 282.726 405.164 282.726Z" fill="#FFD233"/>
<path d="M290.469 225.837V229.756C290.349 229.797 290.269 229.797 290.147 229.797H289.214C287.394 229.756 285.534 229.23 283.675 228.181H283.636C283.297 228.006 282.972 227.804 282.665 227.576C282.253 227.291 281.85 226.995 281.455 226.687C280.243 225.759 279.07 224.544 277.898 223.092C277.937 221.517 277.898 220.183 277.898 219.254C278.384 219.822 278.83 220.389 279.31 220.871C280.645 222.246 281.94 223.338 283.273 224.105C283.516 224.266 283.799 224.428 284.042 224.545C284.893 224.99 285.699 225.314 286.546 225.516C286.707 225.596 286.869 225.596 287.03 225.639C287.238 225.677 287.394 225.677 287.556 225.72C287.841 225.76 288.163 225.801 288.448 225.84C288.728 225.882 288.973 225.919 289.214 225.919C289.373 225.919 289.579 225.919 289.74 225.882C289.781 225.919 289.822 225.919 289.861 225.882H289.899C290.062 225.879 290.268 225.879 290.469 225.837Z" fill="#A5735B"/>
<path d="M290.468 253.868V363.211L271.593 362.405L256.074 361.718L257.651 342.612L259.388 321.242C261.894 322.296 264.724 323.546 267.433 324.76C266.703 316.317 266.385 308.562 266.867 302.219C268.766 278.629 271.714 259.403 274.017 246.841V246.8C273.779 244.377 274.103 241.67 274.666 239.167C274.744 238.638 274.868 238.118 274.991 237.632C275.153 237.065 275.269 236.542 275.432 236.016L275.799 234.806C275.878 234.523 276.001 234.24 276.08 233.996C276.378 233.009 276.729 232.038 277.132 231.089H277.211C276.888 232.544 275.754 237.391 274.342 245.023V245.065C275.269 249.104 278.223 251.366 281.863 252.62C281.901 252.62 281.981 252.658 282.024 252.658C284.525 253.508 287.357 253.829 290.061 253.869C290.181 253.868 290.347 253.91 290.468 253.868Z" fill="#3B8CF7"/>
<path d="M277.213 231.087C276.891 232.543 275.757 237.39 274.345 245.022V245.064C274.224 245.63 274.143 246.195 274.021 246.8V246.841C271.717 259.403 268.769 278.629 266.871 302.219C266.387 308.561 266.706 316.317 267.437 324.76C264.768 323.557 262.086 322.385 259.392 321.242C258.302 320.757 257.248 320.355 256.282 319.953C253.045 318.659 251.348 317.729 249.49 316.799C249.372 316.477 249.288 316.116 249.166 315.792C248.601 314.014 248.077 312.317 247.552 310.785C245.57 304.644 244.076 300.724 244.076 300.724C244.076 300.724 243.835 298.667 243.633 295.234C245.006 292.122 246.381 289.375 247.352 287.884C250.179 283.599 267.15 258.8 260.441 244.945C259.745 243.502 258.787 242.2 257.615 241.107C256.852 240.354 255.995 239.703 255.066 239.169C252.768 237.754 243.703 239.355 238.531 241.577C247.908 232.647 263.84 230.969 266.749 231.173V231.09H277.213V231.087ZM272.595 372.657H246.584C247.366 370.107 248.137 367.491 248.856 364.866C251.173 356.548 253.089 348.103 253.734 341.24C255.06 341.721 256.361 342.166 257.659 342.61C262.346 344.262 266.627 345.844 269.852 347.017C270.143 349.666 270.46 352.326 270.77 354.961C271.052 357.465 271.34 359.953 271.596 362.406C271.978 365.91 272.323 369.344 272.595 372.657Z" fill="#FFD233"/>
<path d="M290.47 229.756V253.869C290.35 253.911 290.185 253.869 290.063 253.869C287.359 253.829 284.527 253.508 282.025 252.658C281.983 252.658 281.904 252.62 281.864 252.62C278.224 251.366 275.271 249.104 274.344 245.065V245.023C275.756 237.391 276.891 232.545 277.212 231.089H277.779V230.322C277.779 229.839 277.821 229.393 277.821 228.948C277.86 227.494 277.86 226.121 277.899 224.787V223.092C279.071 224.545 280.244 225.759 281.456 226.687C281.864 227.051 282.266 227.333 282.666 227.576C282.992 227.818 283.315 228.016 283.637 228.181H283.676C285.657 229.313 287.603 229.797 289.538 229.797C289.863 229.797 290.184 229.797 290.47 229.756Z" fill="#FFE3CA"/>
<path d="M301.622 336.674C301.339 338.451 300.168 339.784 300.168 339.784C300.168 339.784 300.854 342.125 299.279 343.66C299.279 343.66 299.804 345.881 297.744 347.336C297.744 347.336 298.229 349.518 296.61 350.448C296.61 350.448 293.093 350.893 291.804 350.651C286.579 349.463 281.365 348.223 276.164 346.934L279.598 332.512V332.473C281.094 331.464 282.506 330.532 282.953 330.25C284.044 329.602 287.764 329.806 291.598 331.017C295.32 332.19 299.483 333.845 300.653 334.491C301.261 334.815 301.863 334.938 301.622 336.674Z" fill="#FFE3CA"/>
<path d="M280.042 330.614L279.595 332.473V332.512L276.161 346.934L275.636 349.157C275.636 349.157 273.411 348.309 269.851 347.014C266.62 345.843 262.339 344.269 257.651 342.614C256.357 342.167 255.061 341.722 253.733 341.241C244.558 338.087 234.856 334.816 229.602 333.604C218.165 330.937 210.564 326.657 206.847 323.063C203.172 319.469 215.618 289.498 219.299 282.953C222.936 276.409 227.215 262.111 232.432 249.55C234.654 244.216 238.329 241.107 242.171 239.493C247.346 237.27 252.762 237.753 255.06 239.168C255.99 239.701 256.847 240.353 257.609 241.106C258.781 242.199 259.74 243.5 260.435 244.944C267.145 258.799 250.173 283.598 247.346 287.883C246.375 289.374 245.001 292.122 243.627 295.233C240.313 302.42 236.757 311.508 236.757 311.508C244.151 314.137 246.939 315.507 249.484 316.798C251.342 317.728 253.039 318.658 256.277 319.952C257.242 320.354 258.296 320.756 259.386 321.241C261.892 322.295 264.722 323.545 267.431 324.758C271.65 326.677 275.854 328.628 280.042 330.614Z" fill="#FFD233"/>
<path d="M318.124 193.861L317.776 178.034C317.725 175.393 317.776 172.777 317.399 170.328C317.026 167.844 316.352 165.412 315.307 163.16C313.253 158.647 309.806 154.838 305.478 152.422C301.154 149.968 296.125 148.853 291.11 148.874C286.095 148.853 281.056 149.968 276.75 152.422C272.412 154.838 268.967 158.647 266.906 163.16C265.868 165.411 265.194 167.844 264.82 170.328C264.444 172.803 264.482 175.359 264.447 178.034L264.092 193.861H262.108L261.768 178.034C261.736 175.438 261.617 172.706 261.967 169.945C262.312 167.211 262.984 164.484 264.093 161.919C266.243 156.745 270.259 152.359 275.117 149.586C279.983 146.769 285.6 145.499 291.111 145.471C296.625 145.499 302.237 146.769 307.101 149.586C311.963 152.359 315.973 156.745 318.119 161.919C319.228 164.484 319.907 167.211 320.26 169.945C320.605 172.727 320.49 175.412 320.459 178.034L320.115 193.861H318.124Z" fill="#0E538C"/>
<path d="M263.693 202.455C260.129 202.455 259.23 199.902 259.23 196.748V186.514C259.23 183.364 260.129 180.804 263.693 180.804H264.545V202.455H263.693Z" fill="#0B4870"/>
<path d="M264.543 180.805H266.384V202.456H264.543V180.805Z" fill="#2A94F4"/>
<path d="M319.067 202.455C322.634 202.455 323.539 199.902 323.539 196.748V186.514C323.539 183.364 322.634 180.804 319.067 180.804H318.215V202.455H319.067Z" fill="#0B4870"/>
<path d="M316.371 180.805H318.214V202.456H316.371V180.805Z" fill="#2A94F4"/>
<path d="M292.43 222.185V220.199C300.65 220.199 316.305 208.524 316.305 202.455H318.287C318.287 210.137 300.97 222.185 292.43 222.185Z" fill="#CCE9FF"/>
<path d="M293.748 223.965H291.102C288.906 223.965 287.129 222.728 287.129 221.191C287.129 219.661 288.906 218.424 291.102 218.424H293.748C295.942 218.424 297.72 219.662 297.72 221.191C297.719 222.728 295.942 223.965 293.748 223.965Z" fill="#0B4870"/>
<path d="M221.548 115.181V130.864L221.453 152.154L221.327 177.868L221.248 196.838L202.339 177.796L196.569 177.775L120.056 177.417C107.13 174.897 97.375 163.527 97.375 149.894V115.181C97.375 100.781 108.269 88.8876 122.262 87.3219L198.956 87.675C211.832 90.2148 221.548 101.563 221.548 115.181Z" fill="#3B8CF7"/>
<path opacity="0.8" d="M197.693 115.934C197.693 116.475 197.587 117.01 197.38 117.51C197.174 118.01 196.871 118.464 196.488 118.847C196.106 119.229 195.652 119.533 195.152 119.74C194.653 119.948 194.117 120.055 193.576 120.055H123.047C122.506 120.055 121.97 119.949 121.469 119.741C120.969 119.534 120.515 119.231 120.132 118.848C119.749 118.465 119.446 118.011 119.239 117.511C119.032 117.011 118.925 116.475 118.926 115.934C118.926 115.393 119.032 114.857 119.24 114.358C119.447 113.858 119.75 113.404 120.133 113.021C120.516 112.639 120.97 112.336 121.47 112.129C121.97 111.922 122.506 111.816 123.047 111.816H193.576C195.848 111.816 197.693 113.658 197.693 115.934ZM197.693 131.271C197.692 132.362 197.258 133.409 196.487 134.182C195.715 134.955 194.668 135.391 193.576 135.393H123.047C121.954 135.391 120.907 134.956 120.134 134.183C119.361 133.41 118.927 132.363 118.926 131.271C118.926 130.73 119.032 130.194 119.239 129.694C119.446 129.194 119.75 128.739 120.132 128.357C120.515 127.974 120.97 127.67 121.47 127.463C121.97 127.256 122.506 127.149 123.047 127.149H193.576C194.117 127.15 194.653 127.257 195.152 127.464C195.652 127.671 196.106 127.975 196.488 128.358C196.871 128.74 197.174 129.195 197.38 129.694C197.587 130.194 197.693 130.73 197.693 131.271ZM176.146 146.606C176.146 148.866 174.294 150.716 172.018 150.716H123.043C121.953 150.715 120.908 150.282 120.138 149.511C119.368 148.74 118.935 147.696 118.935 146.606C118.935 145.468 119.384 144.443 120.133 143.695C120.514 143.31 120.967 143.004 121.466 142.795C121.965 142.587 122.501 142.479 123.043 142.478H172.018C173.113 142.479 174.162 142.915 174.936 143.689C175.71 144.463 176.146 145.512 176.146 146.606Z" fill="#CCE9FF"/>
</g>
<path d="M46.1313 468.54H44.2953L46.0233 464.454H47.1933L46.1313 468.54ZM49.0473 468.54H47.2113L48.9393 464.454H50.1093L49.0473 468.54ZM60.4752 468.126C60.4752 469.17 60.1152 470.04 59.3952 470.736C58.6872 471.42 57.6012 471.762 56.1372 471.762H53.7252V477H52.0872V464.454H56.1372C57.5532 464.454 58.6272 464.796 59.3592 465.48C60.1032 466.164 60.4752 467.046 60.4752 468.126ZM56.1372 470.412C57.0492 470.412 57.7212 470.214 58.1532 469.818C58.5852 469.422 58.8012 468.858 58.8012 468.126C58.8012 466.578 57.9132 465.804 56.1372 465.804H53.7252V470.412H56.1372ZM64.149 468.738C64.437 468.174 64.845 467.736 65.373 467.424C65.913 467.112 66.567 466.956 67.335 466.956V468.648H66.903C65.067 468.648 64.149 469.644 64.149 471.636V477H62.511V467.136H64.149V468.738ZM73.5278 477.162C72.6038 477.162 71.7638 476.952 71.0078 476.532C70.2638 476.112 69.6758 475.518 69.2438 474.75C68.8238 473.97 68.6138 473.07 68.6138 472.05C68.6138 471.042 68.8298 470.154 69.2618 469.386C69.7058 468.606 70.3058 468.012 71.0618 467.604C71.8178 467.184 72.6638 466.974 73.5998 466.974C74.5358 466.974 75.3818 467.184 76.1378 467.604C76.8938 468.012 77.4878 468.6 77.9198 469.368C78.3638 470.136 78.5858 471.03 78.5858 472.05C78.5858 473.07 78.3578 473.97 77.9018 474.75C77.4578 475.518 76.8518 476.112 76.0838 476.532C75.3158 476.952 74.4638 477.162 73.5278 477.162ZM73.5278 475.722C74.1158 475.722 74.6678 475.584 75.1838 475.308C75.6998 475.032 76.1138 474.618 76.4258 474.066C76.7498 473.514 76.9118 472.842 76.9118 472.05C76.9118 471.258 76.7558 470.586 76.4438 470.034C76.1318 469.482 75.7238 469.074 75.2198 468.81C74.7158 468.534 74.1698 468.396 73.5818 468.396C72.9818 468.396 72.4298 468.534 71.9258 468.81C71.4338 469.074 71.0378 469.482 70.7378 470.034C70.4378 470.586 70.2878 471.258 70.2878 472.05C70.2878 472.854 70.4318 473.532 70.7198 474.084C71.0198 474.636 71.4158 475.05 71.9078 475.326C72.3998 475.59 72.9398 475.722 73.5278 475.722ZM84.4115 475.488L87.4715 467.136H89.2175L85.3475 477H83.4395L79.5695 467.136H81.3335L84.4115 475.488ZM91.6754 465.534C91.3634 465.534 91.0994 465.426 90.8834 465.21C90.6674 464.994 90.5594 464.73 90.5594 464.418C90.5594 464.106 90.6674 463.842 90.8834 463.626C91.0994 463.41 91.3634 463.302 91.6754 463.302C91.9754 463.302 92.2274 463.41 92.4314 463.626C92.6474 463.842 92.7554 464.106 92.7554 464.418C92.7554 464.73 92.6474 464.994 92.4314 465.21C92.2274 465.426 91.9754 465.534 91.6754 465.534ZM92.4674 467.136V477H90.8294V467.136H92.4674ZM94.647 472.032C94.647 471.024 94.851 470.142 95.259 469.386C95.667 468.618 96.225 468.024 96.933 467.604C97.653 467.184 98.457 466.974 99.345 466.974C100.113 466.974 100.827 467.154 101.487 467.514C102.147 467.862 102.651 468.324 102.999 468.9V463.68H104.655V477H102.999V475.146C102.675 475.734 102.195 476.22 101.559 476.604C100.923 476.976 100.179 477.162 99.327 477.162C98.451 477.162 97.653 476.946 96.933 476.514C96.225 476.082 95.667 475.476 95.259 474.696C94.851 473.916 94.647 473.028 94.647 472.032ZM102.999 472.05C102.999 471.306 102.849 470.658 102.549 470.106C102.249 469.554 101.841 469.134 101.325 468.846C100.821 468.546 100.263 468.396 99.651 468.396C99.039 468.396 98.481 468.54 97.977 468.828C97.473 469.116 97.071 469.536 96.771 470.088C96.471 470.64 96.321 471.288 96.321 472.032C96.321 472.788 96.471 473.448 96.771 474.012C97.071 474.564 97.473 474.99 97.977 475.29C98.481 475.578 99.039 475.722 99.651 475.722C100.263 475.722 100.821 475.578 101.325 475.29C101.841 474.99 102.249 474.564 102.549 474.012C102.849 473.448 102.999 472.794 102.999 472.05ZM116.423 471.69C116.423 472.002 116.405 472.332 116.369 472.68H108.485C108.545 473.652 108.875 474.414 109.475 474.966C110.087 475.506 110.825 475.776 111.689 475.776C112.397 475.776 112.985 475.614 113.453 475.29C113.933 474.954 114.269 474.51 114.461 473.958H116.225C115.961 474.906 115.433 475.68 114.641 476.28C113.849 476.868 112.865 477.162 111.689 477.162C110.753 477.162 109.913 476.952 109.169 476.532C108.437 476.112 107.861 475.518 107.441 474.75C107.021 473.97 106.811 473.07 106.811 472.05C106.811 471.03 107.015 470.136 107.423 469.368C107.831 468.6 108.401 468.012 109.133 467.604C109.877 467.184 110.729 466.974 111.689 466.974C112.625 466.974 113.453 467.178 114.173 467.586C114.893 467.994 115.445 468.558 115.829 469.278C116.225 469.986 116.423 470.79 116.423 471.69ZM114.731 471.348C114.731 470.724 114.593 470.19 114.317 469.746C114.041 469.29 113.663 468.948 113.183 468.72C112.715 468.48 112.193 468.36 111.617 468.36C110.789 468.36 110.081 468.624 109.493 469.152C108.917 469.68 108.587 470.412 108.503 471.348H114.731ZM131.88 467.136L125.94 481.644H124.248L126.192 476.892L122.214 467.136H124.032L127.128 475.128L130.188 467.136H131.88ZM137.829 477.162C136.905 477.162 136.065 476.952 135.309 476.532C134.565 476.112 133.977 475.518 133.545 474.75C133.125 473.97 132.915 473.07 132.915 472.05C132.915 471.042 133.131 470.154 133.563 469.386C134.007 468.606 134.607 468.012 135.363 467.604C136.119 467.184 136.965 466.974 137.901 466.974C138.837 466.974 139.683 467.184 140.439 467.604C141.195 468.012 141.789 468.6 142.221 469.368C142.665 470.136 142.887 471.03 142.887 472.05C142.887 473.07 142.659 473.97 142.203 474.75C141.759 475.518 141.153 476.112 140.385 476.532C139.617 476.952 138.765 477.162 137.829 477.162ZM137.829 475.722C138.417 475.722 138.969 475.584 139.485 475.308C140.001 475.032 140.415 474.618 140.727 474.066C141.051 473.514 141.213 472.842 141.213 472.05C141.213 471.258 141.057 470.586 140.745 470.034C140.433 469.482 140.025 469.074 139.521 468.81C139.017 468.534 138.471 468.396 137.883 468.396C137.283 468.396 136.731 468.534 136.227 468.81C135.735 469.074 135.339 469.482 135.039 470.034C134.739 470.586 134.589 471.258 134.589 472.05C134.589 472.854 134.733 473.532 135.021 474.084C135.321 474.636 135.717 475.05 136.209 475.326C136.701 475.59 137.241 475.722 137.829 475.722ZM153.788 467.136V477H152.15V475.542C151.838 476.046 151.4 476.442 150.836 476.73C150.284 477.006 149.672 477.144 149 477.144C148.232 477.144 147.542 476.988 146.93 476.676C146.318 476.352 145.832 475.872 145.472 475.236C145.124 474.6 144.95 473.826 144.95 472.914V467.136H146.57V472.698C146.57 473.67 146.816 474.42 147.308 474.948C147.8 475.464 148.472 475.722 149.324 475.722C150.2 475.722 150.89 475.452 151.394 474.912C151.898 474.372 152.15 473.586 152.15 472.554V467.136H153.788ZM158.192 468.738C158.48 468.174 158.888 467.736 159.416 467.424C159.956 467.112 160.61 466.956 161.378 466.956V468.648H160.946C159.11 468.648 158.192 469.644 158.192 471.636V477H156.554V467.136H158.192V468.738ZM167.456 472.05C167.456 471.03 167.66 470.142 168.068 469.386C168.476 468.618 169.04 468.024 169.76 467.604C170.492 467.184 171.326 466.974 172.262 466.974C173.474 466.974 174.47 467.268 175.25 467.856C176.042 468.444 176.564 469.26 176.816 470.304H175.052C174.884 469.704 174.554 469.23 174.062 468.882C173.582 468.534 172.982 468.36 172.262 468.36C171.326 468.36 170.57 468.684 169.994 469.332C169.418 469.968 169.13 470.874 169.13 472.05C169.13 473.238 169.418 474.156 169.994 474.804C170.57 475.452 171.326 475.776 172.262 475.776C172.982 475.776 173.582 475.608 174.062 475.272C174.542 474.936 174.872 474.456 175.052 473.832H176.816C176.552 474.84 176.024 475.65 175.232 476.262C174.44 476.862 173.45 477.162 172.262 477.162C171.326 477.162 170.492 476.952 169.76 476.532C169.04 476.112 168.476 475.518 168.068 474.75C167.66 473.982 167.456 473.082 167.456 472.05ZM183.303 477.162C182.379 477.162 181.539 476.952 180.783 476.532C180.039 476.112 179.451 475.518 179.019 474.75C178.599 473.97 178.389 473.07 178.389 472.05C178.389 471.042 178.605 470.154 179.037 469.386C179.481 468.606 180.081 468.012 180.837 467.604C181.593 467.184 182.439 466.974 183.375 466.974C184.311 466.974 185.157 467.184 185.913 467.604C186.669 468.012 187.263 468.6 187.695 469.368C188.139 470.136 188.361 471.03 188.361 472.05C188.361 473.07 188.133 473.97 187.677 474.75C187.233 475.518 186.627 476.112 185.859 476.532C185.091 476.952 184.239 477.162 183.303 477.162ZM183.303 475.722C183.891 475.722 184.443 475.584 184.959 475.308C185.475 475.032 185.889 474.618 186.201 474.066C186.525 473.514 186.687 472.842 186.687 472.05C186.687 471.258 186.531 470.586 186.219 470.034C185.907 469.482 185.499 469.074 184.995 468.81C184.491 468.534 183.945 468.396 183.357 468.396C182.757 468.396 182.205 468.534 181.701 468.81C181.209 469.074 180.813 469.482 180.513 470.034C180.213 470.586 180.063 471.258 180.063 472.05C180.063 472.854 180.207 473.532 180.495 474.084C180.795 474.636 181.191 475.05 181.683 475.326C182.175 475.59 182.715 475.722 183.303 475.722ZM195.321 466.956C196.521 466.956 197.493 467.322 198.237 468.054C198.981 468.774 199.353 469.818 199.353 471.186V477H197.733V471.42C197.733 470.436 197.487 469.686 196.995 469.17C196.503 468.642 195.831 468.378 194.979 468.378C194.115 468.378 193.425 468.648 192.909 469.188C192.405 469.728 192.153 470.514 192.153 471.546V477H190.515V467.136H192.153V468.54C192.477 468.036 192.915 467.646 193.467 467.37C194.031 467.094 194.649 466.956 195.321 466.956ZM204.027 468.486V474.3C204.027 474.78 204.129 475.122 204.333 475.326C204.537 475.518 204.891 475.614 205.395 475.614H206.601V477H205.125C204.213 477 203.529 476.79 203.073 476.37C202.617 475.95 202.389 475.26 202.389 474.3V468.486H201.111V467.136H202.389V464.652H204.027V467.136H206.601V468.486H204.027ZM207.973 472.032C207.973 471.024 208.177 470.142 208.585 469.386C208.993 468.618 209.551 468.024 210.259 467.604C210.979 467.184 211.777 466.974 212.653 466.974C213.517 466.974 214.267 467.16 214.903 467.532C215.539 467.904 216.013 468.372 216.325 468.936V467.136H217.981V477H216.325V475.164C216.001 475.74 215.515 476.22 214.867 476.604C214.231 476.976 213.487 477.162 212.635 477.162C211.759 477.162 210.967 476.946 210.259 476.514C209.551 476.082 208.993 475.476 208.585 474.696C208.177 473.916 207.973 473.028 207.973 472.032ZM216.325 472.05C216.325 471.306 216.175 470.658 215.875 470.106C215.575 469.554 215.167 469.134 214.651 468.846C214.147 468.546 213.589 468.396 212.977 468.396C212.365 468.396 211.807 468.54 211.303 468.828C210.799 469.116 210.397 469.536 210.097 470.088C209.797 470.64 209.647 471.288 209.647 472.032C209.647 472.788 209.797 473.448 210.097 474.012C210.397 474.564 210.799 474.99 211.303 475.29C211.807 475.578 212.365 475.722 212.977 475.722C213.589 475.722 214.147 475.578 214.651 475.29C215.167 474.99 215.575 474.564 215.875 474.012C216.175 473.448 216.325 472.794 216.325 472.05ZM220.137 472.05C220.137 471.03 220.341 470.142 220.749 469.386C221.157 468.618 221.721 468.024 222.441 467.604C223.173 467.184 224.007 466.974 224.943 466.974C226.155 466.974 227.151 467.268 227.931 467.856C228.723 468.444 229.245 469.26 229.497 470.304H227.733C227.565 469.704 227.235 469.23 226.743 468.882C226.263 468.534 225.663 468.36 224.943 468.36C224.007 468.36 223.251 468.684 222.675 469.332C222.099 469.968 221.811 470.874 221.811 472.05C221.811 473.238 222.099 474.156 222.675 474.804C223.251 475.452 224.007 475.776 224.943 475.776C225.663 475.776 226.263 475.608 226.743 475.272C227.223 474.936 227.553 474.456 227.733 473.832H229.497C229.233 474.84 228.705 475.65 227.913 476.262C227.121 476.862 226.131 477.162 224.943 477.162C224.007 477.162 223.173 476.952 222.441 476.532C221.721 476.112 221.157 475.518 220.749 474.75C220.341 473.982 220.137 473.082 220.137 472.05ZM233.681 468.486V474.3C233.681 474.78 233.783 475.122 233.987 475.326C234.191 475.518 234.545 475.614 235.049 475.614H236.255V477H234.779C233.867 477 233.183 476.79 232.727 476.37C232.271 475.95 232.043 475.26 232.043 474.3V468.486H230.765V467.136H232.043V464.652H233.681V467.136H236.255V468.486H233.681ZM245.036 468.486V474.3C245.036 474.78 245.138 475.122 245.342 475.326C245.546 475.518 245.9 475.614 246.404 475.614H247.61V477H246.134C245.222 477 244.538 476.79 244.082 476.37C243.626 475.95 243.398 475.26 243.398 474.3V468.486H242.12V467.136H243.398V464.652H245.036V467.136H247.61V468.486H245.036ZM253.897 477.162C252.973 477.162 252.133 476.952 251.377 476.532C250.633 476.112 250.045 475.518 249.613 474.75C249.193 473.97 248.983 473.07 248.983 472.05C248.983 471.042 249.199 470.154 249.631 469.386C250.075 468.606 250.675 468.012 251.431 467.604C252.187 467.184 253.033 466.974 253.969 466.974C254.905 466.974 255.751 467.184 256.507 467.604C257.263 468.012 257.857 468.6 258.289 469.368C258.733 470.136 258.955 471.03 258.955 472.05C258.955 473.07 258.727 473.97 258.271 474.75C257.827 475.518 257.221 476.112 256.453 476.532C255.685 476.952 254.833 477.162 253.897 477.162ZM253.897 475.722C254.485 475.722 255.037 475.584 255.553 475.308C256.069 475.032 256.483 474.618 256.795 474.066C257.119 473.514 257.281 472.842 257.281 472.05C257.281 471.258 257.125 470.586 256.813 470.034C256.501 469.482 256.093 469.074 255.589 468.81C255.085 468.534 254.539 468.396 253.951 468.396C253.351 468.396 252.799 468.534 252.295 468.81C251.803 469.074 251.407 469.482 251.107 470.034C250.807 470.586 250.657 471.258 250.657 472.05C250.657 472.854 250.801 473.532 251.089 474.084C251.389 474.636 251.785 475.05 252.277 475.326C252.769 475.59 253.309 475.722 253.897 475.722ZM274.655 467.136V477H273.017V475.542C272.705 476.046 272.267 476.442 271.703 476.73C271.151 477.006 270.539 477.144 269.867 477.144C269.099 477.144 268.409 476.988 267.797 476.676C267.185 476.352 266.699 475.872 266.339 475.236C265.991 474.6 265.817 473.826 265.817 472.914V467.136H267.437V472.698C267.437 473.67 267.683 474.42 268.175 474.948C268.667 475.464 269.339 475.722 270.191 475.722C271.067 475.722 271.757 475.452 272.261 474.912C272.765 474.372 273.017 473.586 273.017 472.554V467.136H274.655ZM280.913 477.162C280.157 477.162 279.479 477.036 278.879 476.784C278.279 476.52 277.805 476.16 277.457 475.704C277.109 475.236 276.917 474.702 276.881 474.102H278.573C278.621 474.594 278.849 474.996 279.257 475.308C279.677 475.62 280.223 475.776 280.895 475.776C281.519 475.776 282.011 475.638 282.371 475.362C282.731 475.086 282.911 474.738 282.911 474.318C282.911 473.886 282.719 473.568 282.335 473.364C281.951 473.148 281.357 472.938 280.553 472.734C279.821 472.542 279.221 472.35 278.753 472.158C278.297 471.954 277.901 471.66 277.565 471.276C277.241 470.88 277.079 470.364 277.079 469.728C277.079 469.224 277.229 468.762 277.529 468.342C277.829 467.922 278.255 467.592 278.807 467.352C279.359 467.1 279.989 466.974 280.697 466.974C281.789 466.974 282.671 467.25 283.343 467.802C284.015 468.354 284.375 469.11 284.423 470.07H282.785C282.749 469.554 282.539 469.14 282.155 468.828C281.783 468.516 281.279 468.36 280.643 468.36C280.055 468.36 279.587 468.486 279.239 468.738C278.891 468.99 278.717 469.32 278.717 469.728C278.717 470.052 278.819 470.322 279.023 470.538C279.239 470.742 279.503 470.91 279.815 471.042C280.139 471.162 280.583 471.3 281.147 471.456C281.855 471.648 282.431 471.84 282.875 472.032C283.319 472.212 283.697 472.488 284.009 472.86C284.333 473.232 284.501 473.718 284.513 474.318C284.513 474.858 284.363 475.344 284.063 475.776C283.763 476.208 283.337 476.55 282.785 476.802C282.245 477.042 281.621 477.162 280.913 477.162ZM295.116 477.162C294.36 477.162 293.682 477.036 293.082 476.784C292.482 476.52 292.008 476.16 291.66 475.704C291.312 475.236 291.12 474.702 291.084 474.102H292.776C292.824 474.594 293.052 474.996 293.46 475.308C293.88 475.62 294.426 475.776 295.098 475.776C295.722 475.776 296.214 475.638 296.574 475.362C296.934 475.086 297.114 474.738 297.114 474.318C297.114 473.886 296.922 473.568 296.538 473.364C296.154 473.148 295.56 472.938 294.756 472.734C294.024 472.542 293.424 472.35 292.956 472.158C292.5 471.954 292.104 471.66 291.768 471.276C291.444 470.88 291.282 470.364 291.282 469.728C291.282 469.224 291.432 468.762 291.732 468.342C292.032 467.922 292.458 467.592 293.01 467.352C293.562 467.1 294.192 466.974 294.9 466.974C295.992 466.974 296.874 467.25 297.546 467.802C298.218 468.354 298.578 469.11 298.626 470.07H296.988C296.952 469.554 296.742 469.14 296.358 468.828C295.986 468.516 295.482 468.36 294.846 468.36C294.258 468.36 293.79 468.486 293.442 468.738C293.094 468.99 292.92 469.32 292.92 469.728C292.92 470.052 293.022 470.322 293.226 470.538C293.442 470.742 293.706 470.91 294.018 471.042C294.342 471.162 294.786 471.3 295.35 471.456C296.058 471.648 296.634 471.84 297.078 472.032C297.522 472.212 297.9 472.488 298.212 472.86C298.536 473.232 298.704 473.718 298.716 474.318C298.716 474.858 298.566 475.344 298.266 475.776C297.966 476.208 297.54 476.55 296.988 476.802C296.448 477.042 295.824 477.162 295.116 477.162ZM305.331 477.162C304.407 477.162 303.567 476.952 302.811 476.532C302.067 476.112 301.479 475.518 301.047 474.75C300.627 473.97 300.417 473.07 300.417 472.05C300.417 471.042 300.633 470.154 301.065 469.386C301.509 468.606 302.109 468.012 302.865 467.604C303.621 467.184 304.467 466.974 305.403 466.974C306.339 466.974 307.185 467.184 307.941 467.604C308.697 468.012 309.291 468.6 309.723 469.368C310.167 470.136 310.389 471.03 310.389 472.05C310.389 473.07 310.161 473.97 309.705 474.75C309.261 475.518 308.655 476.112 307.887 476.532C307.119 476.952 306.267 477.162 305.331 477.162ZM305.331 475.722C305.919 475.722 306.471 475.584 306.987 475.308C307.503 475.032 307.917 474.618 308.229 474.066C308.553 473.514 308.715 472.842 308.715 472.05C308.715 471.258 308.559 470.586 308.247 470.034C307.935 469.482 307.527 469.074 307.023 468.81C306.519 468.534 305.973 468.396 305.385 468.396C304.785 468.396 304.233 468.534 303.729 468.81C303.237 469.074 302.841 469.482 302.541 470.034C302.241 470.586 302.091 471.258 302.091 472.05C302.091 472.854 302.235 473.532 302.523 474.084C302.823 474.636 303.219 475.05 303.711 475.326C304.203 475.59 304.743 475.722 305.331 475.722ZM319.339 468.486V474.3C319.339 474.78 319.441 475.122 319.645 475.326C319.849 475.518 320.203 475.614 320.707 475.614H321.913V477H320.437C319.525 477 318.841 476.79 318.385 476.37C317.929 475.95 317.701 475.26 317.701 474.3V468.486H316.423V467.136H317.701V464.652H319.339V467.136H321.913V468.486H319.339ZM328.794 466.956C329.538 466.956 330.21 467.118 330.81 467.442C331.41 467.754 331.878 468.228 332.214 468.864C332.562 469.5 332.736 470.274 332.736 471.186V477H331.116V471.42C331.116 470.436 330.87 469.686 330.378 469.17C329.886 468.642 329.214 468.378 328.362 468.378C327.498 468.378 326.808 468.648 326.292 469.188C325.788 469.728 325.536 470.514 325.536 471.546V477H323.898V463.68H325.536V468.54C325.86 468.036 326.304 467.646 326.868 467.37C327.444 467.094 328.086 466.956 328.794 466.956ZM334.799 472.032C334.799 471.024 335.003 470.142 335.411 469.386C335.819 468.618 336.377 468.024 337.085 467.604C337.805 467.184 338.603 466.974 339.479 466.974C340.343 466.974 341.093 467.16 341.729 467.532C342.365 467.904 342.839 468.372 343.151 468.936V467.136H344.807V477H343.151V475.164C342.827 475.74 342.341 476.22 341.693 476.604C341.057 476.976 340.313 477.162 339.461 477.162C338.585 477.162 337.793 476.946 337.085 476.514C336.377 476.082 335.819 475.476 335.411 474.696C335.003 473.916 334.799 473.028 334.799 472.032ZM343.151 472.05C343.151 471.306 343.001 470.658 342.701 470.106C342.401 469.554 341.993 469.134 341.477 468.846C340.973 468.546 340.415 468.396 339.803 468.396C339.191 468.396 338.633 468.54 338.129 468.828C337.625 469.116 337.223 469.536 336.923 470.088C336.623 470.64 336.473 471.288 336.473 472.032C336.473 472.788 336.623 473.448 336.923 474.012C337.223 474.564 337.625 474.99 338.129 475.29C338.633 475.578 339.191 475.722 339.803 475.722C340.415 475.722 340.973 475.578 341.477 475.29C341.993 474.99 342.401 474.564 342.701 474.012C343.001 473.448 343.151 472.794 343.151 472.05ZM349.573 468.486V474.3C349.573 474.78 349.675 475.122 349.879 475.326C350.083 475.518 350.437 475.614 350.941 475.614H352.147V477H350.671C349.759 477 349.075 476.79 348.619 476.37C348.163 475.95 347.935 475.26 347.935 474.3V468.486H346.657V467.136H347.935V464.652H349.573V467.136H352.147V468.486H349.573ZM372.071 467.136L368.993 477H367.301L364.925 469.17L362.549 477H360.857L357.761 467.136H359.435L361.703 475.416L364.151 467.136H365.825L368.219 475.434L370.451 467.136H372.071ZM382.697 471.69C382.697 472.002 382.679 472.332 382.643 472.68H374.759C374.819 473.652 375.149 474.414 375.749 474.966C376.361 475.506 377.099 475.776 377.963 475.776C378.671 475.776 379.259 475.614 379.727 475.29C380.207 474.954 380.543 474.51 380.735 473.958H382.499C382.235 474.906 381.707 475.68 380.915 476.28C380.123 476.868 379.139 477.162 377.963 477.162C377.027 477.162 376.187 476.952 375.443 476.532C374.711 476.112 374.135 475.518 373.715 474.75C373.295 473.97 373.085 473.07 373.085 472.05C373.085 471.03 373.289 470.136 373.697 469.368C374.105 468.6 374.675 468.012 375.407 467.604C376.151 467.184 377.003 466.974 377.963 466.974C378.899 466.974 379.727 467.178 380.447 467.586C381.167 467.994 381.719 468.558 382.103 469.278C382.499 469.986 382.697 470.79 382.697 471.69ZM381.005 471.348C381.005 470.724 380.867 470.19 380.591 469.746C380.315 469.29 379.937 468.948 379.457 468.72C378.989 468.48 378.467 468.36 377.891 468.36C377.063 468.36 376.355 468.624 375.767 469.152C375.191 469.68 374.861 470.412 374.777 471.348H381.005ZM389.045 472.05C389.045 471.03 389.249 470.142 389.657 469.386C390.065 468.618 390.629 468.024 391.349 467.604C392.081 467.184 392.915 466.974 393.851 466.974C395.063 466.974 396.059 467.268 396.839 467.856C397.631 468.444 398.153 469.26 398.405 470.304H396.641C396.473 469.704 396.143 469.23 395.651 468.882C395.171 468.534 394.571 468.36 393.851 468.36C392.915 468.36 392.159 468.684 391.583 469.332C391.007 469.968 390.719 470.874 390.719 472.05C390.719 473.238 391.007 474.156 391.583 474.804C392.159 475.452 392.915 475.776 393.851 475.776C394.571 475.776 395.171 475.608 395.651 475.272C396.131 474.936 396.461 474.456 396.641 473.832H398.405C398.141 474.84 397.613 475.65 396.821 476.262C396.029 476.862 395.039 477.162 393.851 477.162C392.915 477.162 392.081 476.952 391.349 476.532C390.629 476.112 390.065 475.518 389.657 474.75C389.249 473.982 389.045 473.082 389.045 472.05ZM399.979 472.032C399.979 471.024 400.183 470.142 400.591 469.386C400.999 468.618 401.557 468.024 402.265 467.604C402.985 467.184 403.783 466.974 404.659 466.974C405.523 466.974 406.273 467.16 406.909 467.532C407.545 467.904 408.019 468.372 408.331 468.936V467.136H409.987V477H408.331V475.164C408.007 475.74 407.521 476.22 406.873 476.604C406.237 476.976 405.493 477.162 404.641 477.162C403.765 477.162 402.973 476.946 402.265 476.514C401.557 476.082 400.999 475.476 400.591 474.696C400.183 473.916 399.979 473.028 399.979 472.032ZM408.331 472.05C408.331 471.306 408.181 470.658 407.881 470.106C407.581 469.554 407.173 469.134 406.657 468.846C406.153 468.546 405.595 468.396 404.983 468.396C404.371 468.396 403.813 468.54 403.309 468.828C402.805 469.116 402.403 469.536 402.103 470.088C401.803 470.64 401.653 471.288 401.653 472.032C401.653 472.788 401.803 473.448 402.103 474.012C402.403 474.564 402.805 474.99 403.309 475.29C403.813 475.578 404.371 475.722 404.983 475.722C405.595 475.722 406.153 475.578 406.657 475.29C407.173 474.99 407.581 474.564 407.881 474.012C408.181 473.448 408.331 472.794 408.331 472.05ZM417.561 466.956C418.761 466.956 419.733 467.322 420.477 468.054C421.221 468.774 421.593 469.818 421.593 471.186V477H419.973V471.42C419.973 470.436 419.727 469.686 419.235 469.17C418.743 468.642 418.071 468.378 417.219 468.378C416.355 468.378 415.665 468.648 415.149 469.188C414.645 469.728 414.393 470.514 414.393 471.546V477H412.755V467.136H414.393V468.54C414.717 468.036 415.155 467.646 415.707 467.37C416.271 467.094 416.889 466.956 417.561 466.956ZM433.136 466.974C433.988 466.974 434.732 467.16 435.368 467.532C436.016 467.904 436.496 468.372 436.808 468.936V467.136H438.464V477.216C438.464 478.116 438.272 478.914 437.888 479.61C437.504 480.318 436.952 480.87 436.232 481.266C435.524 481.662 434.696 481.86 433.748 481.86C432.452 481.86 431.372 481.554 430.508 480.942C429.644 480.33 429.134 479.496 428.978 478.44H430.598C430.778 479.04 431.15 479.52 431.714 479.88C432.278 480.252 432.956 480.438 433.748 480.438C434.648 480.438 435.38 480.156 435.944 479.592C436.52 479.028 436.808 478.236 436.808 477.216V475.146C436.484 475.722 436.004 476.202 435.368 476.586C434.732 476.97 433.988 477.162 433.136 477.162C432.26 477.162 431.462 476.946 430.742 476.514C430.034 476.082 429.476 475.476 429.068 474.696C428.66 473.916 428.456 473.028 428.456 472.032C428.456 471.024 428.66 470.142 429.068 469.386C429.476 468.618 430.034 468.024 430.742 467.604C431.462 467.184 432.26 466.974 433.136 466.974ZM436.808 472.05C436.808 471.306 436.658 470.658 436.358 470.106C436.058 469.554 435.65 469.134 435.134 468.846C434.63 468.546 434.072 468.396 433.46 468.396C432.848 468.396 432.29 468.54 431.786 468.828C431.282 469.116 430.88 469.536 430.58 470.088C430.28 470.64 430.13 471.288 430.13 472.032C430.13 472.788 430.28 473.448 430.58 474.012C430.88 474.564 431.282 474.99 431.786 475.29C432.29 475.578 432.848 475.722 433.46 475.722C434.072 475.722 434.63 475.578 435.134 475.29C435.65 474.99 436.058 474.564 436.358 474.012C436.658 473.448 436.808 472.794 436.808 472.05ZM450.232 471.69C450.232 472.002 450.214 472.332 450.178 472.68H442.294C442.354 473.652 442.684 474.414 443.284 474.966C443.896 475.506 444.634 475.776 445.498 475.776C446.206 475.776 446.794 475.614 447.262 475.29C447.742 474.954 448.078 474.51 448.27 473.958H450.034C449.77 474.906 449.242 475.68 448.45 476.28C447.658 476.868 446.674 477.162 445.498 477.162C444.562 477.162 443.722 476.952 442.978 476.532C442.246 476.112 441.67 475.518 441.25 474.75C440.83 473.97 440.62 473.07 440.62 472.05C440.62 471.03 440.824 470.136 441.232 469.368C441.64 468.6 442.21 468.012 442.942 467.604C443.686 467.184 444.538 466.974 445.498 466.974C446.434 466.974 447.262 467.178 447.982 467.586C448.702 467.994 449.254 468.558 449.638 469.278C450.034 469.986 450.232 470.79 450.232 471.69ZM448.54 471.348C448.54 470.724 448.402 470.19 448.126 469.746C447.85 469.29 447.472 468.948 446.992 468.72C446.524 468.48 446.002 468.36 445.426 468.36C444.598 468.36 443.89 468.624 443.302 469.152C442.726 469.68 442.396 470.412 442.312 471.348H448.54ZM454.392 468.486V474.3C454.392 474.78 454.494 475.122 454.698 475.326C454.902 475.518 455.256 475.614 455.76 475.614H456.966V477H455.49C454.578 477 453.894 476.79 453.438 476.37C452.982 475.95 452.754 475.26 452.754 474.3V468.486H451.476V467.136H452.754V464.652H454.392V467.136H456.966V468.486H454.392ZM464.595 465.534C464.283 465.534 464.019 465.426 463.803 465.21C463.587 464.994 463.479 464.73 463.479 464.418C463.479 464.106 463.587 463.842 463.803 463.626C464.019 463.41 464.283 463.302 464.595 463.302C464.895 463.302 465.147 463.41 465.351 463.626C465.567 463.842 465.675 464.106 465.675 464.418C465.675 464.73 465.567 464.994 465.351 465.21C465.147 465.426 464.895 465.534 464.595 465.534ZM465.387 467.136V477H463.749V467.136H465.387ZM472.985 466.956C474.185 466.956 475.157 467.322 475.901 468.054C476.645 468.774 477.017 469.818 477.017 471.186V477H475.397V471.42C475.397 470.436 475.151 469.686 474.659 469.17C474.167 468.642 473.495 468.378 472.643 468.378C471.779 468.378 471.089 468.648 470.573 469.188C470.069 469.728 469.817 470.514 469.817 471.546V477H468.179V467.136H469.817V468.54C470.141 468.036 470.579 467.646 471.131 467.37C471.695 467.094 472.313 466.956 472.985 466.956ZM486.489 468.486V474.3C486.489 474.78 486.591 475.122 486.795 475.326C486.999 475.518 487.353 475.614 487.857 475.614H489.063V477H487.587C486.675 477 485.991 476.79 485.535 476.37C485.079 475.95 484.851 475.26 484.851 474.3V468.486H483.573V467.136H484.851V464.652H486.489V467.136H489.063V468.486H486.489ZM495.35 477.162C494.426 477.162 493.586 476.952 492.83 476.532C492.086 476.112 491.498 475.518 491.066 474.75C490.646 473.97 490.436 473.07 490.436 472.05C490.436 471.042 490.652 470.154 491.084 469.386C491.528 468.606 492.128 468.012 492.884 467.604C493.64 467.184 494.486 466.974 495.422 466.974C496.358 466.974 497.204 467.184 497.96 467.604C498.716 468.012 499.31 468.6 499.742 469.368C500.186 470.136 500.408 471.03 500.408 472.05C500.408 473.07 500.18 473.97 499.724 474.75C499.28 475.518 498.674 476.112 497.906 476.532C497.138 476.952 496.286 477.162 495.35 477.162ZM495.35 475.722C495.938 475.722 496.49 475.584 497.006 475.308C497.522 475.032 497.936 474.618 498.248 474.066C498.572 473.514 498.734 472.842 498.734 472.05C498.734 471.258 498.578 470.586 498.266 470.034C497.954 469.482 497.546 469.074 497.042 468.81C496.538 468.534 495.992 468.396 495.404 468.396C494.804 468.396 494.252 468.534 493.748 468.81C493.256 469.074 492.86 469.482 492.56 470.034C492.26 470.586 492.11 471.258 492.11 472.05C492.11 472.854 492.254 473.532 492.542 474.084C492.842 474.636 493.238 475.05 493.73 475.326C494.222 475.59 494.762 475.722 495.35 475.722ZM511.31 467.136V477H509.672V475.542C509.36 476.046 508.922 476.442 508.358 476.73C507.806 477.006 507.194 477.144 506.522 477.144C505.754 477.144 505.064 476.988 504.452 476.676C503.84 476.352 503.354 475.872 502.994 475.236C502.646 474.6 502.472 473.826 502.472 472.914V467.136H504.092V472.698C504.092 473.67 504.338 474.42 504.83 474.948C505.322 475.464 505.994 475.722 506.846 475.722C507.722 475.722 508.412 475.452 508.916 474.912C509.42 474.372 509.672 473.586 509.672 472.554V467.136H511.31ZM513.463 472.05C513.463 471.03 513.667 470.142 514.075 469.386C514.483 468.618 515.047 468.024 515.767 467.604C516.499 467.184 517.333 466.974 518.269 466.974C519.481 466.974 520.477 467.268 521.257 467.856C522.049 468.444 522.571 469.26 522.823 470.304H521.059C520.891 469.704 520.561 469.23 520.069 468.882C519.589 468.534 518.989 468.36 518.269 468.36C517.333 468.36 516.577 468.684 516.001 469.332C515.425 469.968 515.137 470.874 515.137 472.05C515.137 473.238 515.425 474.156 516.001 474.804C516.577 475.452 517.333 475.776 518.269 475.776C518.989 475.776 519.589 475.608 520.069 475.272C520.549 474.936 520.879 474.456 521.059 473.832H522.823C522.559 474.84 522.031 475.65 521.239 476.262C520.447 476.862 519.457 477.162 518.269 477.162C517.333 477.162 516.499 476.952 515.767 476.532C515.047 476.112 514.483 475.518 514.075 474.75C513.667 473.982 513.463 473.082 513.463 472.05ZM529.905 466.956C530.649 466.956 531.321 467.118 531.921 467.442C532.521 467.754 532.989 468.228 533.325 468.864C533.673 469.5 533.847 470.274 533.847 471.186V477H532.227V471.42C532.227 470.436 531.981 469.686 531.489 469.17C530.997 468.642 530.325 468.378 529.473 468.378C528.609 468.378 527.919 468.648 527.403 469.188C526.899 469.728 526.647 470.514 526.647 471.546V477H525.009V463.68H526.647V468.54C526.971 468.036 527.415 467.646 527.979 467.37C528.555 467.094 529.197 466.956 529.905 466.956ZM205.383 495.486H203.313V504H201.675V495.486H200.397V494.136H201.675V493.434C201.675 492.33 201.957 491.526 202.521 491.022C203.097 490.506 204.015 490.248 205.275 490.248V491.616C204.555 491.616 204.045 491.76 203.745 492.048C203.457 492.324 203.313 492.786 203.313 493.434V494.136H205.383V495.486ZM211.595 504.162C210.671 504.162 209.831 503.952 209.075 503.532C208.331 503.112 207.743 502.518 207.311 501.75C206.891 500.97 206.681 500.07 206.681 499.05C206.681 498.042 206.897 497.154 207.329 496.386C207.773 495.606 208.373 495.012 209.129 494.604C209.885 494.184 210.731 493.974 211.667 493.974C212.603 493.974 213.449 494.184 214.205 494.604C214.961 495.012 215.555 495.6 215.987 496.368C216.431 497.136 216.653 498.03 216.653 499.05C216.653 500.07 216.425 500.97 215.969 501.75C215.525 502.518 214.919 503.112 214.151 503.532C213.383 503.952 212.531 504.162 211.595 504.162ZM211.595 502.722C212.183 502.722 212.735 502.584 213.251 502.308C213.767 502.032 214.181 501.618 214.493 501.066C214.817 500.514 214.979 499.842 214.979 499.05C214.979 498.258 214.823 497.586 214.511 497.034C214.199 496.482 213.791 496.074 213.287 495.81C212.783 495.534 212.237 495.396 211.649 495.396C211.049 495.396 210.497 495.534 209.993 495.81C209.501 496.074 209.105 496.482 208.805 497.034C208.505 497.586 208.355 498.258 208.355 499.05C208.355 499.854 208.499 500.532 208.787 501.084C209.087 501.636 209.483 502.05 209.975 502.326C210.467 502.59 211.007 502.722 211.595 502.722ZM220.445 495.738C220.733 495.174 221.141 494.736 221.669 494.424C222.209 494.112 222.863 493.956 223.631 493.956V495.648H223.199C221.363 495.648 220.445 496.644 220.445 498.636V504H218.807V494.136H220.445V495.738ZM233.813 504.162C233.057 504.162 232.379 504.036 231.779 503.784C231.179 503.52 230.705 503.16 230.357 502.704C230.009 502.236 229.817 501.702 229.781 501.102H231.473C231.521 501.594 231.749 501.996 232.157 502.308C232.577 502.62 233.123 502.776 233.795 502.776C234.419 502.776 234.911 502.638 235.271 502.362C235.631 502.086 235.811 501.738 235.811 501.318C235.811 500.886 235.619 500.568 235.235 500.364C234.851 500.148 234.257 499.938 233.453 499.734C232.721 499.542 232.121 499.35 231.653 499.158C231.197 498.954 230.801 498.66 230.465 498.276C230.141 497.88 229.979 497.364 229.979 496.728C229.979 496.224 230.129 495.762 230.429 495.342C230.729 494.922 231.155 494.592 231.707 494.352C232.259 494.1 232.889 493.974 233.597 493.974C234.689 493.974 235.571 494.25 236.243 494.802C236.915 495.354 237.275 496.11 237.323 497.07H235.685C235.649 496.554 235.439 496.14 235.055 495.828C234.683 495.516 234.179 495.36 233.543 495.36C232.955 495.36 232.487 495.486 232.139 495.738C231.791 495.99 231.617 496.32 231.617 496.728C231.617 497.052 231.719 497.322 231.923 497.538C232.139 497.742 232.403 497.91 232.715 498.042C233.039 498.162 233.483 498.3 234.047 498.456C234.755 498.648 235.331 498.84 235.775 499.032C236.219 499.212 236.597 499.488 236.909 499.86C237.233 500.232 237.401 500.718 237.413 501.318C237.413 501.858 237.263 502.344 236.963 502.776C236.663 503.208 236.237 503.55 235.685 503.802C235.145 504.042 234.521 504.162 233.813 504.162ZM244.027 504.162C243.103 504.162 242.263 503.952 241.507 503.532C240.763 503.112 240.175 502.518 239.743 501.75C239.323 500.97 239.113 500.07 239.113 499.05C239.113 498.042 239.329 497.154 239.761 496.386C240.205 495.606 240.805 495.012 241.561 494.604C242.317 494.184 243.163 493.974 244.099 493.974C245.035 493.974 245.881 494.184 246.637 494.604C247.393 495.012 247.987 495.6 248.419 496.368C248.863 497.136 249.085 498.03 249.085 499.05C249.085 500.07 248.857 500.97 248.401 501.75C247.957 502.518 247.351 503.112 246.583 503.532C245.815 503.952 244.963 504.162 244.027 504.162ZM244.027 502.722C244.615 502.722 245.167 502.584 245.683 502.308C246.199 502.032 246.613 501.618 246.925 501.066C247.249 500.514 247.411 499.842 247.411 499.05C247.411 498.258 247.255 497.586 246.943 497.034C246.631 496.482 246.223 496.074 245.719 495.81C245.215 495.534 244.669 495.396 244.081 495.396C243.481 495.396 242.929 495.534 242.425 495.81C241.933 496.074 241.537 496.482 241.237 497.034C240.937 497.586 240.787 498.258 240.787 499.05C240.787 499.854 240.931 500.532 241.219 501.084C241.519 501.636 241.915 502.05 242.407 502.326C242.899 502.59 243.439 502.722 244.027 502.722ZM263.101 493.956C263.869 493.956 264.553 494.118 265.153 494.442C265.753 494.754 266.227 495.228 266.575 495.864C266.923 496.5 267.097 497.274 267.097 498.186V504H265.477V498.42C265.477 497.436 265.231 496.686 264.739 496.17C264.259 495.642 263.605 495.378 262.777 495.378C261.925 495.378 261.247 495.654 260.743 496.206C260.239 496.746 259.987 497.532 259.987 498.564V504H258.367V498.42C258.367 497.436 258.121 496.686 257.629 496.17C257.149 495.642 256.495 495.378 255.667 495.378C254.815 495.378 254.137 495.654 253.633 496.206C253.129 496.746 252.877 497.532 252.877 498.564V504H251.239V494.136H252.877V495.558C253.201 495.042 253.633 494.646 254.173 494.37C254.725 494.094 255.331 493.956 255.991 493.956C256.819 493.956 257.551 494.142 258.187 494.514C258.823 494.886 259.297 495.432 259.609 496.152C259.885 495.456 260.341 494.916 260.977 494.532C261.613 494.148 262.321 493.956 263.101 493.956ZM278.783 498.69C278.783 499.002 278.765 499.332 278.729 499.68H270.845C270.905 500.652 271.235 501.414 271.835 501.966C272.447 502.506 273.185 502.776 274.049 502.776C274.757 502.776 275.345 502.614 275.813 502.29C276.293 501.954 276.629 501.51 276.821 500.958H278.585C278.321 501.906 277.793 502.68 277.001 503.28C276.209 503.868 275.225 504.162 274.049 504.162C273.113 504.162 272.273 503.952 271.529 503.532C270.797 503.112 270.221 502.518 269.801 501.75C269.381 500.97 269.171 500.07 269.171 499.05C269.171 498.03 269.375 497.136 269.783 496.368C270.191 495.6 270.761 495.012 271.493 494.604C272.237 494.184 273.089 493.974 274.049 493.974C274.985 493.974 275.813 494.178 276.533 494.586C277.253 494.994 277.805 495.558 278.189 496.278C278.585 496.986 278.783 497.79 278.783 498.69ZM277.091 498.348C277.091 497.724 276.953 497.19 276.677 496.746C276.401 496.29 276.023 495.948 275.543 495.72C275.075 495.48 274.553 495.36 273.977 495.36C273.149 495.36 272.441 495.624 271.853 496.152C271.277 496.68 270.947 497.412 270.863 498.348H277.091ZM287.382 495.954C287.706 495.39 288.186 494.922 288.822 494.55C289.47 494.166 290.22 493.974 291.072 493.974C291.948 493.974 292.74 494.184 293.448 494.604C294.168 495.024 294.732 495.618 295.14 496.386C295.548 497.142 295.752 498.024 295.752 499.032C295.752 500.028 295.548 500.916 295.14 501.696C294.732 502.476 294.168 503.082 293.448 503.514C292.74 503.946 291.948 504.162 291.072 504.162C290.232 504.162 289.488 503.976 288.84 503.604C288.204 503.22 287.718 502.746 287.382 502.182V508.68H285.744V494.136H287.382V495.954ZM294.078 499.032C294.078 498.288 293.928 497.64 293.628 497.088C293.328 496.536 292.92 496.116 292.404 495.828C291.9 495.54 291.342 495.396 290.73 495.396C290.13 495.396 289.572 495.546 289.056 495.846C288.552 496.134 288.144 496.56 287.832 497.124C287.532 497.676 287.382 498.318 287.382 499.05C287.382 499.794 287.532 500.448 287.832 501.012C288.144 501.564 288.552 501.99 289.056 502.29C289.572 502.578 290.13 502.722 290.73 502.722C291.342 502.722 291.9 502.578 292.404 502.29C292.92 501.99 293.328 501.564 293.628 501.012C293.928 500.448 294.078 499.788 294.078 499.032ZM306.656 494.136V504H305.018V502.542C304.706 503.046 304.268 503.442 303.704 503.73C303.152 504.006 302.54 504.144 301.868 504.144C301.1 504.144 300.41 503.988 299.798 503.676C299.186 503.352 298.7 502.872 298.34 502.236C297.992 501.6 297.818 500.826 297.818 499.914V494.136H299.438V499.698C299.438 500.67 299.684 501.42 300.176 501.948C300.668 502.464 301.34 502.722 302.192 502.722C303.068 502.722 303.758 502.452 304.262 501.912C304.766 501.372 305.018 500.586 305.018 499.554V494.136H306.656ZM311.06 495.738C311.348 495.174 311.756 494.736 312.284 494.424C312.824 494.112 313.478 493.956 314.246 493.956V495.648H313.814C311.978 495.648 311.06 496.644 311.06 498.636V504H309.422V494.136H311.06V495.738ZM317.775 495.954C318.099 495.39 318.579 494.922 319.215 494.55C319.863 494.166 320.613 493.974 321.465 493.974C322.341 493.974 323.133 494.184 323.841 494.604C324.561 495.024 325.125 495.618 325.533 496.386C325.941 497.142 326.145 498.024 326.145 499.032C326.145 500.028 325.941 500.916 325.533 501.696C325.125 502.476 324.561 503.082 323.841 503.514C323.133 503.946 322.341 504.162 321.465 504.162C320.625 504.162 319.881 503.976 319.233 503.604C318.597 503.22 318.111 502.746 317.775 502.182V508.68H316.137V494.136H317.775V495.954ZM324.471 499.032C324.471 498.288 324.321 497.64 324.021 497.088C323.721 496.536 323.313 496.116 322.797 495.828C322.293 495.54 321.735 495.396 321.123 495.396C320.523 495.396 319.965 495.546 319.449 495.846C318.945 496.134 318.537 496.56 318.225 497.124C317.925 497.676 317.775 498.318 317.775 499.05C317.775 499.794 317.925 500.448 318.225 501.012C318.537 501.564 318.945 501.99 319.449 502.29C319.965 502.578 320.523 502.722 321.123 502.722C321.735 502.722 322.293 502.578 322.797 502.29C323.313 501.99 323.721 501.564 324.021 501.012C324.321 500.448 324.471 499.788 324.471 499.032ZM332.603 504.162C331.679 504.162 330.839 503.952 330.083 503.532C329.339 503.112 328.751 502.518 328.319 501.75C327.899 500.97 327.689 500.07 327.689 499.05C327.689 498.042 327.905 497.154 328.337 496.386C328.781 495.606 329.381 495.012 330.137 494.604C330.893 494.184 331.739 493.974 332.675 493.974C333.611 493.974 334.457 494.184 335.213 494.604C335.969 495.012 336.563 495.6 336.995 496.368C337.439 497.136 337.661 498.03 337.661 499.05C337.661 500.07 337.433 500.97 336.977 501.75C336.533 502.518 335.927 503.112 335.159 503.532C334.391 503.952 333.539 504.162 332.603 504.162ZM332.603 502.722C333.191 502.722 333.743 502.584 334.259 502.308C334.775 502.032 335.189 501.618 335.501 501.066C335.825 500.514 335.987 499.842 335.987 499.05C335.987 498.258 335.831 497.586 335.519 497.034C335.207 496.482 334.799 496.074 334.295 495.81C333.791 495.534 333.245 495.396 332.657 495.396C332.057 495.396 331.505 495.534 331.001 495.81C330.509 496.074 330.113 496.482 329.813 497.034C329.513 497.586 329.363 498.258 329.363 499.05C329.363 499.854 329.507 500.532 329.795 501.084C330.095 501.636 330.491 502.05 330.983 502.326C331.475 502.59 332.015 502.722 332.603 502.722ZM343.307 504.162C342.551 504.162 341.873 504.036 341.273 503.784C340.673 503.52 340.199 503.16 339.851 502.704C339.503 502.236 339.311 501.702 339.275 501.102H340.967C341.015 501.594 341.243 501.996 341.651 502.308C342.071 502.62 342.617 502.776 343.289 502.776C343.913 502.776 344.405 502.638 344.765 502.362C345.125 502.086 345.305 501.738 345.305 501.318C345.305 500.886 345.113 500.568 344.729 500.364C344.345 500.148 343.751 499.938 342.947 499.734C342.215 499.542 341.615 499.35 341.147 499.158C340.691 498.954 340.295 498.66 339.959 498.276C339.635 497.88 339.473 497.364 339.473 496.728C339.473 496.224 339.623 495.762 339.923 495.342C340.223 494.922 340.649 494.592 341.201 494.352C341.753 494.1 342.383 493.974 343.091 493.974C344.183 493.974 345.065 494.25 345.737 494.802C346.409 495.354 346.769 496.11 346.817 497.07H345.179C345.143 496.554 344.933 496.14 344.549 495.828C344.177 495.516 343.673 495.36 343.037 495.36C342.449 495.36 341.981 495.486 341.633 495.738C341.285 495.99 341.111 496.32 341.111 496.728C341.111 497.052 341.213 497.322 341.417 497.538C341.633 497.742 341.897 497.91 342.209 498.042C342.533 498.162 342.977 498.3 343.541 498.456C344.249 498.648 344.825 498.84 345.269 499.032C345.713 499.212 346.091 499.488 346.403 499.86C346.727 500.232 346.895 500.718 346.907 501.318C346.907 501.858 346.757 502.344 346.457 502.776C346.157 503.208 345.731 503.55 345.179 503.802C344.639 504.042 344.015 504.162 343.307 504.162ZM358.219 498.69C358.219 499.002 358.201 499.332 358.165 499.68H350.281C350.341 500.652 350.671 501.414 351.271 501.966C351.883 502.506 352.621 502.776 353.485 502.776C354.193 502.776 354.781 502.614 355.249 502.29C355.729 501.954 356.065 501.51 356.257 500.958H358.021C357.757 501.906 357.229 502.68 356.437 503.28C355.645 503.868 354.661 504.162 353.485 504.162C352.549 504.162 351.709 503.952 350.965 503.532C350.233 503.112 349.657 502.518 349.237 501.75C348.817 500.97 348.607 500.07 348.607 499.05C348.607 498.03 348.811 497.136 349.219 496.368C349.627 495.6 350.197 495.012 350.929 494.604C351.673 494.184 352.525 493.974 353.485 493.974C354.421 493.974 355.249 494.178 355.969 494.586C356.689 494.994 357.241 495.558 357.625 496.278C358.021 496.986 358.219 497.79 358.219 498.69ZM356.527 498.348C356.527 497.724 356.389 497.19 356.113 496.746C355.837 496.29 355.459 495.948 354.979 495.72C354.511 495.48 353.989 495.36 353.413 495.36C352.585 495.36 351.877 495.624 351.289 496.152C350.713 496.68 350.383 497.412 350.299 498.348H356.527ZM363.873 504.162C363.117 504.162 362.439 504.036 361.839 503.784C361.239 503.52 360.765 503.16 360.417 502.704C360.069 502.236 359.877 501.702 359.841 501.102H361.533C361.581 501.594 361.809 501.996 362.217 502.308C362.637 502.62 363.183 502.776 363.855 502.776C364.479 502.776 364.971 502.638 365.331 502.362C365.691 502.086 365.871 501.738 365.871 501.318C365.871 500.886 365.679 500.568 365.295 500.364C364.911 500.148 364.317 499.938 363.513 499.734C362.781 499.542 362.181 499.35 361.713 499.158C361.257 498.954 360.861 498.66 360.525 498.276C360.201 497.88 360.039 497.364 360.039 496.728C360.039 496.224 360.189 495.762 360.489 495.342C360.789 494.922 361.215 494.592 361.767 494.352C362.319 494.1 362.949 493.974 363.657 493.974C364.749 493.974 365.631 494.25 366.303 494.802C366.975 495.354 367.335 496.11 367.383 497.07H365.745C365.709 496.554 365.499 496.14 365.115 495.828C364.743 495.516 364.239 495.36 363.603 495.36C363.015 495.36 362.547 495.486 362.199 495.738C361.851 495.99 361.677 496.32 361.677 496.728C361.677 497.052 361.779 497.322 361.983 497.538C362.199 497.742 362.463 497.91 362.775 498.042C363.099 498.162 363.543 498.3 364.107 498.456C364.815 498.648 365.391 498.84 365.835 499.032C366.279 499.212 366.657 499.488 366.969 499.86C367.293 500.232 367.461 500.718 367.473 501.318C367.473 501.858 367.323 502.344 367.023 502.776C366.723 503.208 366.297 503.55 365.745 503.802C365.205 504.042 364.581 504.162 363.873 504.162ZM370.307 504.108C369.995 504.108 369.731 504 369.515 503.784C369.299 503.568 369.191 503.304 369.191 502.992C369.191 502.68 369.299 502.416 369.515 502.2C369.731 501.984 369.995 501.876 370.307 501.876C370.607 501.876 370.859 501.984 371.063 502.2C371.279 502.416 371.387 502.68 371.387 502.992C371.387 503.304 371.279 503.568 371.063 503.784C370.859 504 370.607 504.108 370.307 504.108ZM373.817 491.454H375.635L373.907 495.54H372.755L373.817 491.454ZM376.733 491.454H378.551L376.823 495.54H375.653L376.733 491.454Z" fill="#737373"/>
<defs>
<clipPath id="clip0_2179_42104">
<rect width="568" height="478" fill="white"/>
</clipPath>
</defs>
</svg>
