<svg width="38" height="35" viewBox="0 0 38 35" fill="none" xmlns="http://www.w3.org/2000/svg">
<rect width="38" height="35" fill="white"/>
<rect x="2.34393" y="0.343931" width="33.7052" height="33.7052" rx="6.53468" fill="#F6F9FE" stroke="#333333" stroke-width="0.687861" stroke-dasharray="5.5 5.5"/>
<path d="M26.1445 16.2288C26.2676 15.9413 26.3367 15.6269 26.3367 15.2991C26.3367 13.875 25.0454 12.7197 23.4538 12.7197C22.8622 12.7197 22.3096 12.8809 21.8531 13.1549C21.0213 11.8652 19.4687 11 17.6879 11C15.0331 11 12.8829 12.9239 12.8829 15.2991C12.8829 15.3717 12.886 15.4442 12.889 15.5168C11.2072 16.0461 10 17.4809 10 19.1684C10 21.3045 11.937 23.0376 14.3244 23.0376H25.3757C27.4989 23.0376 29.2197 21.4979 29.2197 19.5983C29.2197 17.935 27.8983 16.5459 26.1445 16.2288ZM21.8141 17.8786H19.8501V20.888C19.8501 21.1245 19.6339 21.3179 19.3696 21.3179H17.9281C17.6638 21.3179 17.4476 21.1245 17.4476 20.888V17.8786H15.4836C15.0542 17.8786 14.841 17.4165 15.1443 17.1451L18.3095 14.313C18.4957 14.1464 18.802 14.1464 18.9882 14.313L22.1534 17.1451C22.4567 17.4165 22.2405 17.8786 21.8141 17.8786V17.8786Z" fill="#333333"/>
</svg>
