<svg width="352" height="352" viewBox="0 0 352 352" fill="none" xmlns="http://www.w3.org/2000/svg">
<path d="M57.284 67.1702C60.4392 67.1702 62.997 64.6124 62.997 61.4572C62.997 58.302 60.4392 55.7441 57.284 55.7441C54.1287 55.7441 51.5709 58.302 51.5709 61.4572C51.5709 64.6124 54.1287 67.1702 57.284 67.1702Z" fill="#FF5151"/>
<path d="M292.168 70.5997C298.633 70.5997 303.873 65.3593 303.873 58.8948C303.873 52.4304 298.633 47.1899 292.168 47.1899C285.704 47.1899 280.463 52.4304 280.463 58.8948C280.463 65.3593 285.704 70.5997 292.168 70.5997Z" fill="#47F09F"/>
<path d="M66.4416 292.393C69.8415 292.393 72.5976 289.637 72.5976 286.237C72.5976 282.837 69.8415 280.081 66.4416 280.081C63.0417 280.081 60.2855 282.837 60.2855 286.237C60.2855 289.637 63.0417 292.393 66.4416 292.393Z" fill="#FF7FEB"/>
<path d="M177.723 132.51C177.723 124.414 174.44 117.082 169.131 111.773C163.861 106.503 156.528 103.219 148.433 103.219H33.6752C17.4832 103.219 4.34644 116.318 4.34644 132.51C4.34644 140.606 7.63014 147.938 12.9389 153.246C18.2468 158.555 25.5797 161.839 33.6752 161.839H148.433C164.625 161.839 177.723 148.702 177.723 132.51ZM259.868 198.959H112.23C96.037 198.959 82.9385 212.057 82.9385 228.249C82.9385 236.345 86.2231 243.677 91.531 248.948C96.8015 254.256 104.133 257.54 112.23 257.54H259.868C276.06 257.54 289.158 244.441 289.158 228.249C289.158 220.153 285.875 212.821 280.566 207.551C275.296 202.243 267.963 198.959 259.868 198.959ZM318.755 103.219H259.6C243.408 103.219 230.271 116.318 230.271 132.51C230.271 148.702 243.408 161.839 259.6 161.839H318.755C334.947 161.839 348.046 148.702 348.046 132.51C348.046 116.318 334.947 103.219 318.755 103.219ZM320.13 212.668C312.835 212.668 306.955 218.587 306.955 225.882C306.955 233.176 312.835 239.057 320.13 239.057C327.424 239.057 333.343 233.176 333.343 225.882C333.343 218.587 327.424 212.668 320.13 212.668Z" fill="#FFF3C9"/>
<path d="M234.515 213.227V148.753L178.679 116.514L122.839 148.753V213.227L178.679 245.466L234.515 213.227Z" fill="#FFD233"/>
<path d="M178.679 216.439C198.258 216.439 214.129 200.567 214.129 180.988C214.129 161.409 198.258 145.538 178.679 145.538C159.1 145.538 143.228 161.409 143.228 180.988C143.228 200.567 159.1 216.439 178.679 216.439Z" fill="white"/>
<path d="M178.679 199.789C189.062 199.789 197.479 191.372 197.479 180.989C197.479 170.605 189.062 162.188 178.679 162.188C168.295 162.188 159.878 170.605 159.878 180.989C159.878 191.372 168.295 199.789 178.679 199.789Z" fill="#FFD233"/>
<path d="M284.404 163.557C275.774 163.557 268.638 169.878 267.261 178.124H238.333V146.549L224.908 138.798L243.325 120.376C250.339 125.413 259.766 124.554 265.763 118.557C272.56 111.76 272.56 100.7 265.763 93.9035C258.952 87.0924 247.926 87.089 241.112 93.9035C235.012 100.004 234.433 109.513 239.284 116.317L219.774 135.833L181.526 113.749V92.4073C189.781 91.0375 196.109 83.9015 196.109 75.264C196.109 65.6516 188.291 57.8311 178.678 57.8311C169.066 57.8311 161.245 65.6516 161.245 75.264C161.245 83.8901 167.559 91.0205 175.797 92.4038V113.768L137.567 135.842L118.058 116.333C122.921 109.528 122.348 100.009 116.243 93.9035C109.432 87.0924 98.4062 87.089 91.5917 93.9035C84.7949 100.7 84.7949 111.76 91.5917 118.557C97.5646 124.53 106.98 125.426 114.014 120.389L132.432 138.807L119.021 146.549V178.124H90.0934C88.7163 169.878 81.5811 163.557 72.9504 163.557C63.3379 163.557 55.5193 171.378 55.5193 180.99C55.5193 190.603 63.3379 198.423 72.9504 198.423C81.583 198.423 88.7182 192.1 90.0944 183.852H119.021V215.431L132.449 223.184L114.032 241.606C107.002 236.557 97.5769 237.439 91.5917 243.424C84.7949 250.221 84.7949 261.28 91.5917 268.077C98.4028 274.888 109.428 274.891 116.243 268.077C122.342 261.977 122.921 252.47 118.073 245.666L137.584 226.149L175.797 248.212V269.576C167.559 270.96 161.245 278.09 161.245 286.716C161.245 296.329 169.066 304.149 178.678 304.149C188.291 304.149 196.109 296.329 196.109 286.716C196.109 278.079 189.781 270.943 181.526 269.573V248.232L219.772 226.148L239.285 245.661C234.434 252.465 235.011 261.976 241.112 268.077C247.923 274.888 258.949 274.891 265.763 268.077C272.56 261.28 272.56 250.221 265.763 243.424C259.867 237.528 250.454 236.488 243.327 241.602L224.908 223.183L238.334 215.431V183.852H267.26C268.637 192.1 275.772 198.423 284.404 198.423C294.017 198.423 301.837 190.603 301.837 180.99C301.837 171.378 294.017 163.557 284.404 163.557ZM245.162 97.9536C249.73 93.3899 257.127 93.3719 261.713 97.9536C266.276 102.517 266.276 109.944 261.713 114.506C257.29 118.926 249.585 118.926 245.162 114.506C240.599 109.944 240.599 102.517 245.162 97.9536ZM95.6418 114.506C91.0789 109.944 91.0789 102.517 95.6418 97.9536C100.209 93.3899 107.607 93.3719 112.193 97.9536C116.756 102.517 116.756 109.944 112.193 114.506C107.77 118.926 100.065 118.926 95.6418 114.506ZM72.9504 192.695C66.4967 192.695 61.2476 187.444 61.2476 180.99C61.2476 174.537 66.4967 169.286 72.9504 169.286C79.4041 169.286 84.6551 174.537 84.6551 180.99C84.6551 187.444 79.4041 192.695 72.9504 192.695ZM112.193 264.027C107.77 268.446 100.065 268.446 95.6418 264.027C91.0789 259.464 91.0789 252.037 95.6418 247.474C100.209 242.91 107.607 242.892 112.193 247.474C116.756 252.037 116.756 259.464 112.193 264.027ZM261.713 247.474C266.276 252.037 266.276 259.464 261.713 264.027C257.29 268.446 249.585 268.446 245.162 264.027C240.599 259.464 240.599 252.037 245.162 247.474C249.73 242.91 257.127 242.892 261.713 247.474ZM166.974 75.2641C166.974 68.8104 172.225 63.5595 178.678 63.5595C185.132 63.5595 190.381 68.8104 190.381 75.2641C190.381 81.7178 185.132 86.9669 178.678 86.9669C172.225 86.9669 166.974 81.7178 166.974 75.2641ZM190.381 286.716C190.381 293.17 185.132 298.421 178.678 298.421C172.225 298.421 166.974 293.17 166.974 286.716C166.974 280.263 172.225 275.013 178.678 275.013C185.132 275.013 190.381 280.263 190.381 286.716ZM230.696 211.023L178.678 241.056L126.659 211.023V150.957L178.678 120.925L230.696 150.957V211.023ZM284.404 192.695C277.951 192.695 272.7 187.444 272.7 180.99C272.7 174.537 277.951 169.286 284.404 169.286C290.858 169.286 296.109 174.537 296.109 180.99C296.109 187.444 290.858 192.695 284.404 192.695Z" fill="#FFD233"/>
<path d="M157.012 180.99C157.012 192.937 166.731 202.656 178.678 202.656C190.623 202.656 200.342 192.937 200.342 180.99C200.342 169.043 190.623 159.324 178.678 159.324C166.731 159.324 157.012 169.043 157.012 180.99ZM194.614 180.99C194.614 189.779 187.465 196.928 178.678 196.928C169.89 196.928 162.741 189.779 162.741 180.99C162.741 172.202 169.89 165.053 178.678 165.053C187.465 165.053 194.614 172.202 194.614 180.99Z" fill="#FFD233"/>
</svg>
