<svg width="329" height="330" viewBox="0 0 329 330" fill="none" xmlns="http://www.w3.org/2000/svg">
<path d="M117.007 133.786H34.8046C18.5112 133.786 5.30408 146.994 5.30408 163.286C5.30408 179.579 18.5112 192.787 34.8046 192.787H117.007C133.298 192.787 146.506 179.579 146.506 163.286C146.506 146.994 133.298 133.786 117.007 133.786ZM294.039 82.1428H262.759C246.466 82.1428 233.259 95.3504 233.259 111.643V111.643C233.259 127.936 246.466 141.143 262.759 141.143H294.039C310.332 141.143 323.54 127.936 323.54 111.643V111.643C323.54 95.3504 310.332 82.1428 294.039 82.1428ZM285.173 225.557H232.611C216.318 225.557 203.111 238.765 203.111 255.058V255.058C203.111 271.35 216.318 284.558 232.611 284.558H285.173C301.466 284.558 314.673 271.35 314.673 255.058V255.058C314.673 238.765 301.466 225.557 285.173 225.557Z" fill="#AAF9E1"/>
<path d="M65.6981 179.656C53.2247 196.65 53.2247 222.9 65.6981 239.893C67.4929 242.339 70.4543 243.715 73.474 243.428C156.745 235.518 176.723 235.551 260.543 243.53C263.132 243.777 265.788 242.874 267.527 240.94C282.457 224.329 283.365 197.608 267.834 179.145C266.003 176.969 263.216 175.764 260.385 176.034C176.697 183.999 156.692 184.027 73.474 176.121C70.4543 175.834 67.4929 177.211 65.6981 179.656Z" fill="white"/>
<path d="M188.534 237.522H146.917C153.837 219.081 154.276 200.506 146.917 181.772H188.534C195.198 201.379 195.241 219.969 188.534 237.522Z" fill="#47F09F"/>
<path d="M189.064 281.287L167.724 267.402L146.915 281.287V237.523H189.064V281.287Z" fill="#47F09F"/>
<path d="M229.34 101.512H106.111L106.112 150.268C106.112 171.398 229.34 171.398 229.34 150.268L229.34 101.512Z" fill="#47F09F"/>
<path d="M76.5603 98.5002L167.706 74.7139L258.892 98.5002L167.706 122.283L76.5603 98.5002Z" fill="white"/>
<path d="M258.892 129.187C254.653 129.187 251.217 132.623 251.217 136.861V148.225H266.566V136.861C266.566 132.623 263.13 129.187 258.892 129.187Z" fill="#47F09F"/>
<path d="M142.198 148.573C146.141 148.573 149.337 145.376 149.337 141.434C149.337 137.491 146.141 134.294 142.198 134.294C138.255 134.294 135.059 137.491 135.059 141.434C135.059 145.376 138.255 148.573 142.198 148.573Z" fill="white"/>
<path d="M167.728 148.573C171.671 148.573 174.867 145.376 174.867 141.434C174.867 137.491 171.671 134.294 167.728 134.294C163.785 134.294 160.589 137.491 160.589 141.434C160.589 145.376 163.785 148.573 167.728 148.573Z" fill="white"/>
<path d="M193.254 148.573C197.197 148.573 200.393 145.376 200.393 141.434C200.393 137.491 197.197 134.294 193.254 134.294C189.311 134.294 186.115 137.491 186.115 141.434C186.115 145.376 189.311 148.573 193.254 148.573Z" fill="white"/>
<path d="M167.724 104.642C175.756 104.642 182.268 101.892 182.268 98.5001C182.268 95.108 175.756 92.3582 167.724 92.3582C159.692 92.3582 153.181 95.108 153.181 98.5001C153.181 101.892 159.692 104.642 167.724 104.642Z" fill="#47F09F"/>
<path d="M269.179 178.013C266.95 175.361 263.627 173.947 260.233 174.265C177.476 182.11 156.603 182.185 73.6404 174.371C69.9983 174.017 66.4269 175.644 64.2696 178.614C51.4345 196.082 51.4345 223.45 64.2696 240.953C66.4269 243.888 69.9983 245.55 73.6404 245.196C103.661 242.332 125.477 240.528 145.137 239.751V281.298C145.137 281.935 145.491 282.536 146.092 282.854C146.657 283.137 147.364 283.101 147.895 282.748L167.732 269.523L188.099 282.783C188.675 283.143 189.384 283.149 189.902 282.854C190.468 282.536 190.821 281.935 190.821 281.298V239.857C209.916 240.741 231.343 242.544 260.373 245.302C260.727 245.338 261.046 245.338 261.399 245.338C264.299 245.338 267.021 244.171 268.825 242.12C284.843 224.334 284.984 196.789 269.179 178.013ZM187.25 183.529C193.226 201.845 193.261 219.419 187.321 235.755H149.416C155.533 218.075 155.533 200.537 149.451 183.529C182.891 184.008 169.121 183.59 187.25 183.529ZM73.3219 241.66C70.9177 241.872 68.548 240.811 67.1339 238.831C55.1475 222.531 55.1475 197.001 67.1339 180.7C68.548 178.756 70.9177 177.659 73.3219 177.872C103.696 180.771 125.76 182.61 145.633 183.388C152.138 200.502 152.103 218.252 145.526 236.179C125.654 236.922 103.696 238.761 73.3219 241.66ZM187.285 278.01L168.686 265.917C168.062 265.525 167.316 265.558 166.741 265.917L148.673 277.974V239.645C161.756 239.185 174.026 239.22 187.285 239.751V278.01ZM266.208 239.751C264.9 241.2 262.814 241.943 260.727 241.766C231.556 238.973 210.057 237.17 190.857 236.321C196.762 219.631 196.797 201.81 190.892 183.246C210.022 182.362 231.485 180.559 260.551 177.801C262.814 177.589 265.006 178.508 266.491 180.276C281.13 197.708 281.023 223.273 266.208 239.751ZM76.1154 100.222L104.332 107.577V150.256C104.332 163.268 138.49 167.9 167.732 167.9C196.974 167.9 231.096 163.268 231.096 150.256V107.577L257.12 100.788V127.555C252.771 128.404 249.448 132.258 249.448 136.855V148.24C249.448 149.195 250.226 150.008 251.216 150.008H266.561C267.552 150.008 268.329 149.195 268.329 148.24V136.855C268.329 132.258 265.006 128.404 260.656 127.555V98.4895C260.656 97.5596 259.865 96.8263 259.172 96.757L168.156 72.9955C167.873 72.9247 167.555 72.9247 167.272 72.9955L76.1154 96.7923C75.3376 97.0045 74.8067 97.7117 74.8067 98.4895C74.8067 99.3027 75.3376 100.01 76.1154 100.222ZM227.56 150.256C227.56 158.176 201.288 164.364 167.732 164.364C134.175 164.364 107.868 158.176 107.868 150.256V108.496L167.272 123.984C167.414 124.019 167.555 124.054 167.696 124.054C167.873 124.054 168.015 124.019 168.156 123.984L227.56 108.496V150.256ZM264.793 136.855V146.472H252.984V136.855C252.984 133.601 255.636 130.95 258.888 130.95C262.141 130.95 264.793 133.601 264.793 136.855ZM167.696 76.5314L245.099 96.7215H183.644C181.982 92.7259 174.663 90.6044 167.732 90.6044C159.811 90.6044 151.431 93.3623 151.431 98.4895C151.431 104.428 161.727 106.41 167.732 106.41C172.979 106.41 181.868 104.857 183.679 100.257C206.543 100.257 221.961 100.257 245.099 100.257C211.401 109.022 201.747 111.566 167.696 120.448C159.094 118.202 198.855 128.581 83.5758 98.4895L167.696 76.5314ZM167.732 102.874C163.587 102.874 154.967 101.209 154.967 98.4895C154.967 96.7569 160.059 94.1404 167.732 94.1404C175.405 94.1404 180.497 96.7569 180.497 98.4895C180.497 101.274 172.028 102.874 167.732 102.874Z" fill="#47F09F"/>
<path d="M76.5604 61.7687C80.263 61.7687 83.2645 58.7671 83.2645 55.0645C83.2645 51.3619 80.263 48.3604 76.5604 48.3604C72.8578 48.3604 69.8562 51.3619 69.8562 55.0645C69.8562 58.7671 72.8578 61.7687 76.5604 61.7687Z" fill="#FFACAC"/>
<path d="M25.2644 245.253C30.6914 245.253 35.0908 240.853 35.0908 235.426C35.0908 229.999 30.6914 225.6 25.2644 225.6C19.8374 225.6 15.438 229.999 15.438 235.426C15.438 240.853 19.8374 245.253 25.2644 245.253Z" fill="#3B8CF7"/>
<path d="M236.088 48.3603C241.515 48.3603 245.915 43.9609 245.915 38.5339C245.915 33.107 241.515 28.7075 236.088 28.7075C230.661 28.7075 226.262 33.107 226.262 38.5339C226.262 43.9609 230.661 48.3603 236.088 48.3603Z" fill="#FFE794"/>
<path d="M306.804 188.037C309.393 188.037 311.492 185.938 311.492 183.349C311.492 180.759 309.393 178.66 306.804 178.66C304.214 178.66 302.115 180.759 302.115 183.349C302.115 185.938 304.214 188.037 306.804 188.037Z" fill="#FF7FEB"/>
<path d="M109.791 301.124C118.101 301.124 124.837 294.388 124.837 286.079C124.837 277.769 118.101 271.033 109.791 271.033C101.482 271.033 94.7457 277.769 94.7457 286.079C94.7457 294.388 101.482 301.124 109.791 301.124Z" fill="#FF5151"/>
</svg>
