<svg width="330" height="330" viewBox="0 0 330 330" fill="none" xmlns="http://www.w3.org/2000/svg">
<path d="M289.591 137.955H200.267C181.214 137.955 165.769 153.4 165.769 172.453C165.769 191.505 181.214 206.951 200.267 206.951H289.591C308.643 206.951 324.089 191.505 324.089 172.453C324.089 153.4 308.643 137.955 289.591 137.955ZM125.536 206.951H66.0398C46.9865 206.951 31.5418 222.396 31.5418 241.449C31.5418 260.501 46.9865 275.947 66.0398 275.947H125.536C144.589 275.947 160.034 260.501 160.034 241.449C160.034 222.396 144.589 206.951 125.536 206.951ZM125.536 73.2131H40.3515C21.2983 73.2131 5.85352 88.6587 5.85352 107.711C5.85352 126.764 21.2983 142.209 40.3515 142.209H125.536C144.589 142.209 160.034 126.764 160.034 107.711C160.034 88.6587 144.589 73.2131 125.536 73.2131Z" fill="#FFE4F8"/>
<path d="M247.114 194.314C247.114 213.416 240.569 230.932 229.599 244.812C214.659 263.782 191.461 275.944 165.484 275.944C139.506 275.944 116.308 263.782 101.304 244.812C90.3305 230.932 83.7886 213.416 83.7886 194.314C83.7886 176.27 89.6043 159.613 99.5189 146.129C114.391 125.771 138.383 112.618 165.484 112.618C192.584 112.618 216.577 125.771 231.384 146.129C241.298 159.613 247.114 176.27 247.114 194.314Z" fill="white"/>
<path d="M165.484 279.48C139.257 279.48 114.853 267.643 98.5296 247.004C86.5725 231.879 80.2524 213.659 80.2524 194.313C80.2524 176.028 85.9293 158.641 96.6701 144.035C112.656 122.151 138.383 109.081 165.484 109.081C192.612 109.081 218.317 122.153 234.243 144.049C244.973 158.641 250.65 176.028 250.65 194.313C250.65 213.656 244.33 231.876 232.372 247.004C216.121 267.641 191.739 279.48 165.484 279.48ZM165.484 116.153C140.633 116.153 117.04 128.139 102.374 148.215C92.5264 161.609 87.3244 177.545 87.3244 194.313C87.3244 212.052 93.1178 228.756 104.077 242.618C119.05 261.55 141.432 272.408 165.484 272.408C189.558 272.408 211.915 261.552 226.821 242.624C237.784 228.753 243.578 212.048 243.578 194.313C243.578 177.545 238.377 161.607 228.535 148.223C213.924 128.137 190.358 116.153 165.484 116.153Z" fill="#FF7FEB"/>
<path d="M164.264 275.948C188.727 275.948 208.559 239.39 208.559 194.293C208.559 149.195 188.727 112.637 164.264 112.637C139.801 112.637 119.969 149.195 119.969 194.293C119.969 239.39 139.801 275.948 164.264 275.948Z" fill="white"/>
<path d="M164.263 278.6C138.376 278.6 117.316 240.78 117.316 194.291C117.316 147.804 138.376 109.984 164.263 109.984C190.149 109.984 211.21 147.804 211.21 194.291C211.21 240.78 190.149 278.6 164.263 278.6ZM164.263 115.288C141.301 115.288 122.62 150.729 122.62 194.291C122.62 237.855 141.301 273.296 164.263 273.296C187.225 273.296 205.906 237.855 205.906 194.291C205.906 150.729 187.225 115.288 164.263 115.288Z" fill="#FF7FEB"/>
<path d="M165.484 162.859C139.11 162.859 113.957 157.466 98.1999 148.429C97.5455 148.054 97.082 147.419 96.9248 146.682C96.7677 145.943 96.9326 145.174 97.3772 144.565C113.204 122.9 138.665 109.965 165.484 109.965C192.331 109.965 217.768 122.902 233.529 144.568C233.972 145.178 234.135 145.948 233.977 146.683C233.82 147.421 233.357 148.056 232.703 148.431C216.709 157.6 192.209 162.859 165.484 162.859ZM103.503 145.271C118.602 152.994 141.456 157.555 165.484 157.555C189.477 157.555 212.309 152.994 227.405 145.269C212.545 126.429 189.623 115.269 165.484 115.269C141.367 115.269 118.424 126.429 103.503 145.271ZM165.484 278.596C139.529 278.596 115.378 266.881 99.2237 246.456C98.736 245.84 98.5469 245.039 98.7075 244.269C98.868 243.499 99.3618 242.841 100.056 242.472C116.032 233.956 139.879 229.072 165.484 229.072C191.115 229.072 214.941 233.956 230.851 242.473C231.542 242.843 232.034 243.501 232.195 244.269C232.355 245.036 232.168 245.835 231.682 246.451C215.595 266.88 191.467 278.596 165.484 278.596ZM105.461 245.686C120.555 263.273 142.249 273.292 165.484 273.292C188.743 273.292 210.418 263.271 225.452 245.685C210.346 238.475 188.74 234.376 165.484 234.376C142.252 234.376 120.624 238.475 105.461 245.686Z" fill="#FF7FEB"/>
<path d="M165.473 278.6C164.008 278.6 162.821 277.412 162.821 275.948V114.435C162.821 112.971 164.008 111.783 165.473 111.783C166.938 111.783 168.125 112.971 168.125 114.435V275.948C168.125 277.412 166.938 278.6 165.473 278.6Z" fill="#FF7FEB"/>
<path d="M246.228 197.842H84.7164C83.2514 197.842 82.0645 196.655 82.0645 195.191C82.0645 193.726 83.2514 192.539 84.7164 192.539H246.228C247.693 192.539 248.88 193.726 248.88 195.191C248.88 196.655 247.693 197.842 246.228 197.842ZM219.48 130.824V82.2676H110.856V130.824C110.856 147.305 219.48 147.305 219.48 130.824Z" fill="#FF7FEB"/>
<path d="M247.196 82.2665L165.169 112.619L83.1421 82.2665L165.169 51.9175L247.196 82.2665Z" fill="white"/>
<path d="M256.92 129.227H237.469L247.196 109.776L256.92 129.227Z" fill="white"/>
<path d="M165.19 88.4934C171.455 88.4934 176.534 85.7056 176.534 82.2666C176.534 78.8276 171.455 76.0398 165.19 76.0398C158.926 76.0398 153.847 78.8276 153.847 82.2666C153.847 85.7056 158.926 88.4934 165.19 88.4934Z" fill="#FF7FEB"/>
<path d="M258.311 128.036L248.977 109.402V82.3874C248.977 81.7865 248.411 80.7964 247.81 80.6194L165.776 50.2453C165.387 50.1041 164.963 50.1041 164.538 50.2453L82.5393 80.6194C81.8323 80.8672 81.373 81.5388 81.373 82.2812C81.373 83.0236 81.8323 83.6602 82.5393 83.943L109.094 93.773V130.83C109.094 144.55 159.412 144.938 165.175 144.938C170.904 144.938 221.255 144.55 221.255 130.83V93.773L245.441 84.827V109.331L235.894 128.425C235.611 128.991 235.646 129.628 235.965 130.158C236.282 130.688 236.849 131.007 237.485 131.007H256.933C256.933 131.007 256.968 131.007 257.003 131.007C258.488 131.007 259.372 129.203 258.311 128.036ZM217.719 130.83C217.719 135.922 197.635 141.402 165.175 141.402C132.714 141.402 112.63 135.922 112.63 130.83V95.0817L164.538 114.282C164.75 114.353 164.963 114.388 165.175 114.388C165.387 114.388 165.6 114.353 165.776 114.282L217.719 95.0817V130.83ZM165.175 74.2899C159.552 74.2899 152.092 76.8711 152.092 82.2812C152.092 87.6205 159.412 90.2725 165.175 90.2725C171.469 90.2725 176.596 87.6913 177.939 84.1553H237.061C199.473 98.0514 197.635 98.7235 165.175 110.746L112.63 91.298L109.094 89.9897L88.2326 82.2812L165.175 53.8166L237.626 80.6194C237.449 80.6194 236.672 80.6194 236.672 80.6194C233.383 80.6194 220.654 80.584 177.975 80.5132C176.702 76.9065 171.54 74.2899 165.175 74.2899ZM174.757 82.2812C174.757 84.9685 169.029 86.7365 165.175 86.7365C161.109 86.7365 155.628 84.8624 155.628 82.2812C155.628 79.5938 161.109 77.8259 165.175 77.8259C168.994 77.8259 174.757 79.523 174.757 82.2812ZM240.314 127.471L240.42 127.258C240.773 126.516 242.259 123.581 247.209 113.398C247.386 113.751 253.68 126.658 254.068 127.471H240.314Z" fill="#FFE4F8"/>
<path d="M232.522 50.4713C239.15 50.4713 244.523 45.0982 244.523 38.4702C244.523 31.8423 239.15 26.4692 232.522 26.4692C225.894 26.4692 220.521 31.8423 220.521 38.4702C220.521 45.0982 225.894 50.4713 232.522 50.4713Z" fill="#47F09F"/>
<path d="M298.457 93.7726C302.851 93.7726 306.413 90.2106 306.413 85.8167C306.413 81.4228 302.851 77.8608 298.457 77.8608C294.063 77.8608 290.501 81.4228 290.501 85.8167C290.501 90.2106 294.063 93.7726 298.457 93.7726Z" fill="#FFD233"/>
<path d="M31.5419 180.725C34.479 180.725 36.86 178.344 36.86 175.407C36.86 172.47 34.479 170.089 31.5419 170.089C28.6049 170.089 26.2239 172.47 26.2239 175.407C26.2239 178.344 28.6049 180.725 31.5419 180.725Z" fill="#FFD233"/>
<path d="M93.5239 303.362C96.461 303.362 98.8419 300.981 98.8419 298.044C98.8419 295.107 96.461 292.726 93.5239 292.726C90.5868 292.726 88.2058 295.107 88.2058 298.044C88.2058 300.981 90.5868 303.362 93.5239 303.362Z" fill="#FF7B31"/>
<path d="M267.464 256.15C270.401 256.15 272.782 253.769 272.782 250.832C272.782 247.895 270.401 245.514 267.464 245.514C264.527 245.514 262.146 247.895 262.146 250.832C262.146 253.769 264.527 256.15 267.464 256.15Z" fill="#3B8CF7"/>
<path d="M67.2517 57.2355C70.1887 57.2355 72.5697 54.8545 72.5697 51.9174C72.5697 48.9803 70.1887 46.5994 67.2517 46.5994C64.3146 46.5994 61.9336 48.9803 61.9336 51.9174C61.9336 54.8545 64.3146 57.2355 67.2517 57.2355Z" fill="#FF5151"/>
</svg>
