<svg width="28" height="32" viewBox="0 0 28 32" fill="none" xmlns="http://www.w3.org/2000/svg">
<path d="M16.25 26.1252C16.2497 24.8284 16.6975 23.5714 17.5175 22.5669C18.3375 21.5624 19.4795 20.872 20.75 20.6127L20.75 16.0002L10.625 16.0002C9.72988 16.0002 8.87144 16.3557 8.2385 16.9887C7.60557 17.6216 7.24999 18.4801 7.24999 19.3752L7.24999 20.6127C8.61579 20.8915 9.82941 21.6675 10.6556 22.7902C11.4818 23.913 11.8616 25.3025 11.7215 26.6894C11.5814 28.0763 10.9313 29.3618 9.89729 30.2966C8.86326 31.2314 7.51895 31.749 6.12499 31.749C4.73103 31.749 3.38672 31.2314 2.35269 30.2966C1.31866 29.3618 0.668578 28.0763 0.528473 26.6894C0.388367 25.3025 0.768222 23.913 1.59439 22.7902C2.42056 21.6675 3.63419 20.8915 4.99999 20.6127L4.99999 19.3752C4.99999 18.6365 5.14548 17.905 5.42816 17.2226C5.71085 16.5401 6.12518 15.92 6.64751 15.3977C7.16984 14.8754 7.78994 14.461 8.47239 14.1783C9.15485 13.8957 9.8863 13.7502 10.625 13.7502L20.75 13.7502L20.75 11.3877C19.3842 11.1089 18.1706 10.3329 17.3444 9.21013C16.5182 8.08738 16.1384 6.69786 16.2785 5.31095C16.4186 3.92405 17.0687 2.63857 18.1027 1.70374C19.1367 0.768905 20.481 0.251317 21.875 0.251317C23.269 0.251318 24.6133 0.768905 25.6473 1.70374C26.6813 2.63857 27.3314 3.92405 27.4715 5.31096C27.6116 6.69786 27.2318 8.08738 26.4056 9.21013C25.5794 10.3329 24.3658 11.1089 23 11.3877L23 20.6127C24.0428 20.8255 25.0038 21.3298 25.7714 22.0671C26.539 22.8043 27.0817 23.7441 27.3364 24.7775C27.5912 25.8108 27.5476 26.8952 27.2107 27.9048C26.8737 28.9143 26.2573 29.8076 25.433 30.4808C24.6087 31.154 23.6103 31.5795 22.5538 31.7079C21.4973 31.8363 20.426 31.6624 19.4644 31.2063C18.5028 30.7502 17.6903 30.0307 17.1213 29.1313C16.5524 28.2318 16.2502 27.1895 16.25 26.1252Z" fill="#737373"/>
</svg>
